M48
METRIC,TZ
T1C0.600
T2C0.700
T3C0.762
T4C1.473
%
G90
G05
T1
X149400Y-21666
X149400Y-39446
X149400Y-57226
X149400Y-75006
X149400Y-92786
X149400Y-110566
X149400Y-127594
X149400Y-146126
X149400Y-162706
X149400Y-163906
X150600Y-20466
X150600Y-38246
X150600Y-56026
X150600Y-73806
X150600Y-91586
X150600Y-109366
X150600Y-126394
X150600Y-144926
X150600Y-162706
X150600Y-163906
T2
X137300Y-28823
X137300Y-46603
X137300Y-64383
X137300Y-82163
X137300Y-99943
X137300Y-117723
X137300Y-134750
X137300Y-153283
X142380Y-28823
X142380Y-46603
X142380Y-64383
X142380Y-82163
X142380Y-99943
X142380Y-117723
X142380Y-134750
X142380Y-153283
T3
X139840Y-19796
X139840Y-22336
X139840Y-37576
X139840Y-40116
X139840Y-55356
X139840Y-57896
X139840Y-73136
X139840Y-75676
X139840Y-90916
X139840Y-93456
X139840Y-108696
X139840Y-111236
X139840Y-125724
X139840Y-128264
X139840Y-144256
X139840Y-146796
T4
X137763Y-176064
X141263Y-174464
X141263Y-176964
X144763Y-174464
X144763Y-176964
X148263Y-174464
X148263Y-176964
X151763Y-174464
X151763Y-176964
X155263Y-174464
X155263Y-176964
X158763Y-174464
X158763Y-176964
X162263Y-176064
M30
