M48
; DRILL file {KiCad 7.0.10} date Tue Nov 26 20:55:45 2024
; FORMAT={-:-/ absolute / metric / decimal}
; #@! TF.CreationDate,2024-11-26T20:55:45-08:00
; #@! TF.GenerationSoftware,Kicad,Pcbnew,7.0.10
; #@! TF.FileFunction,Plated,1,2,PTH
FMAT,2
METRIC
; #@! TA.AperFunction,Plated,PTH,ComponentDrill
T1C0.700
; #@! TA.AperFunction,Plated,PTH,ComponentDrill
T2C0.762
; #@! TA.AperFunction,Plated,PTH,ComponentDrill
T3C0.800
; #@! TA.AperFunction,Plated,PTH,ComponentDrill
T4C0.900
; #@! TA.AperFunction,Plated,PTH,ComponentDrill
T5C1.000
; #@! TA.AperFunction,Plated,PTH,ComponentDrill
T6C1.473
%
G90
G05
T1
X96.32Y-31.39
X96.32Y-33.93
X97.59Y-42.185
X97.775Y-50.948
X102.67Y-42.185
X102.855Y-50.948
X103.94Y-31.39
X103.94Y-33.93
X110.519Y-31.39
X110.519Y-33.93
X111.789Y-42.185
X111.973Y-50.948
X116.869Y-42.185
X117.053Y-50.948
X118.139Y-31.39
X118.139Y-33.93
X124.717Y-31.39
X124.717Y-33.93
X125.987Y-42.185
X126.172Y-50.948
X131.067Y-42.185
X131.252Y-50.948
X132.337Y-31.39
X132.337Y-33.93
X138.916Y-31.39
X138.916Y-33.93
X140.186Y-42.185
X140.37Y-50.948
X145.266Y-42.185
X145.45Y-50.948
X146.536Y-31.39
X146.536Y-33.93
X153.114Y-31.39
X153.114Y-33.93
X154.384Y-42.185
X154.569Y-50.948
X159.464Y-42.185
X159.649Y-50.948
X160.734Y-31.39
X160.734Y-33.93
X167.313Y-31.39
X167.313Y-33.93
X168.583Y-42.185
X168.767Y-50.948
X173.663Y-42.185
X173.847Y-50.948
X174.933Y-31.39
X174.933Y-33.93
X181.511Y-31.39
X181.511Y-33.93
X181.595Y-153.183
X181.595Y-155.723
X182.781Y-42.185
X182.966Y-50.948
X187.861Y-42.185
X188.046Y-50.948
X189.131Y-31.39
X189.131Y-33.93
X189.215Y-153.183
X189.215Y-155.723
X195.692Y-145.436
X195.692Y-150.516
X195.71Y-31.39
X195.71Y-33.93
X196.98Y-42.185
X197.164Y-50.948
X201.661Y-145.436
X201.661Y-150.516
X202.06Y-42.185
X202.244Y-50.948
X203.33Y-31.39
X203.33Y-33.93
T2
X99.49Y-71.047
X102.03Y-71.047
X113.689Y-71.047
X116.229Y-71.047
X127.887Y-71.047
X130.427Y-71.047
X142.086Y-71.047
X144.626Y-71.047
X156.284Y-71.047
X158.824Y-71.047
X170.483Y-71.047
X173.023Y-71.047
X183.482Y-141.024
X184.681Y-71.047
X186.022Y-141.024
X187.221Y-71.047
X198.88Y-71.047
X201.42Y-71.047
T3
X96.32Y-59.921
X103.94Y-59.921
X110.519Y-59.921
X118.139Y-59.921
X124.717Y-59.921
X132.337Y-59.921
X138.916Y-59.921
X146.536Y-59.921
X153.114Y-59.921
X160.734Y-59.921
X167.313Y-59.921
X174.933Y-59.921
X181.511Y-59.921
X189.131Y-59.921
X195.71Y-59.921
X203.33Y-59.921
T4
X108.189Y-135.276
X108.189Y-137.816
X108.189Y-140.356
X108.189Y-142.896
X108.189Y-145.436
X108.189Y-147.976
X108.189Y-150.516
X108.189Y-153.056
X108.189Y-155.596
X108.189Y-158.136
X108.189Y-160.676
X108.189Y-163.216
X108.189Y-165.756
X108.189Y-168.296
X108.189Y-170.836
X108.189Y-173.376
X108.189Y-175.916
X123.429Y-135.276
X123.429Y-137.816
X123.429Y-140.356
X123.429Y-142.896
X123.429Y-145.436
X123.429Y-147.976
X123.429Y-150.516
X123.429Y-153.056
X123.429Y-155.596
X123.429Y-158.136
X123.429Y-160.676
X123.429Y-163.216
X123.429Y-165.756
X123.429Y-168.296
X123.429Y-170.836
X123.429Y-173.376
X123.429Y-175.916
T5
X97.723Y-82.458
X97.723Y-84.998
X97.723Y-92.618
X102.803Y-82.458
X102.803Y-84.998
X102.803Y-92.618
X111.921Y-82.458
X111.921Y-84.998
X111.921Y-92.618
X117.001Y-82.458
X117.001Y-84.998
X117.001Y-92.618
X126.12Y-82.458
X126.12Y-84.998
X126.12Y-92.618
X131.2Y-82.458
X131.2Y-84.998
X131.2Y-92.618
X140.318Y-82.458
X140.318Y-84.998
X140.318Y-92.618
X145.398Y-82.458
X145.398Y-84.998
X145.398Y-92.618
X154.517Y-82.458
X154.517Y-84.998
X154.517Y-92.618
X159.597Y-82.458
X159.597Y-84.998
X159.597Y-92.618
X168.715Y-82.458
X168.715Y-84.998
X168.715Y-92.618
X173.795Y-82.458
X173.795Y-84.998
X173.795Y-92.618
X182.914Y-82.458
X182.914Y-84.998
X182.914Y-92.618
X187.994Y-82.458
X187.994Y-84.998
X187.994Y-92.618
X197.112Y-82.458
X197.112Y-84.998
X197.112Y-92.618
X202.192Y-82.458
X202.192Y-84.998
X202.192Y-92.618
T6
X137.115Y-167.523
X140.615Y-165.923
X140.615Y-168.423
X144.115Y-165.923
X144.115Y-168.423
X147.615Y-165.923
X147.615Y-168.423
X151.115Y-165.923
X151.115Y-168.423
X154.615Y-165.923
X154.615Y-168.423
X158.115Y-165.923
X158.115Y-168.423
X161.615Y-167.523
X181.26Y-170.079
X184.76Y-168.379
X188.26Y-168.379
X191.76Y-170.079
M30
