%TF.GenerationSoftware,KiCad,Pcbnew,7.0.10*%
%TF.CreationDate,2024-11-26T20:55:45-08:00*%
%TF.ProjectId,Main_Board,4d61696e-5f42-46f6-9172-642e6b696361,rev?*%
%TF.SameCoordinates,Original*%
%TF.FileFunction,Soldermask,Top*%
%TF.FilePolarity,Negative*%
%FSLAX46Y46*%
G04 Gerber Fmt 4.6, Leading zero omitted, Abs format (unit mm)*
G04 Created by KiCad (PCBNEW 7.0.10) date 2024-11-26 20:55:45*
%MOMM*%
%LPD*%
G01*
G04 APERTURE LIST*
G04 Aperture macros list*
%AMRoundRect*
0 Rectangle with rounded corners*
0 $1 Rounding radius*
0 $2 $3 $4 $5 $6 $7 $8 $9 X,Y pos of 4 corners*
0 Add a 4 corners polygon primitive as box body*
4,1,4,$2,$3,$4,$5,$6,$7,$8,$9,$2,$3,0*
0 Add four circle primitives for the rounded corners*
1,1,$1+$1,$2,$3*
1,1,$1+$1,$4,$5*
1,1,$1+$1,$6,$7*
1,1,$1+$1,$8,$9*
0 Add four rect primitives between the rounded corners*
20,1,$1+$1,$2,$3,$4,$5,0*
20,1,$1+$1,$4,$5,$6,$7,0*
20,1,$1+$1,$6,$7,$8,$9,0*
20,1,$1+$1,$8,$9,$2,$3,0*%
G04 Aperture macros list end*
%ADD10C,1.400000*%
%ADD11O,1.400000X1.400000*%
%ADD12R,1.270000X1.270000*%
%ADD13C,1.270000*%
%ADD14R,1.100000X1.100000*%
%ADD15C,1.100000*%
%ADD16R,2.000000X2.000000*%
%ADD17C,2.000000*%
%ADD18R,1.600000X1.600000*%
%ADD19O,1.600000X1.600000*%
%ADD20C,1.625600*%
%ADD21RoundRect,0.025400X0.736600X0.736600X-0.736600X0.736600X-0.736600X-0.736600X0.736600X-0.736600X0*%
%ADD22R,1.981200X1.981200*%
%ADD23C,1.981200*%
G04 APERTURE END LIST*
%TO.C,G\u002A\u002A\u002A*%
G36*
X153881468Y-108323910D02*
G01*
X154117266Y-108326369D01*
X154415431Y-108331492D01*
X154680287Y-108338604D01*
X154920256Y-108348392D01*
X155143757Y-108361549D01*
X155359210Y-108378762D01*
X155575036Y-108400722D01*
X155799654Y-108428118D01*
X156041484Y-108461640D01*
X156308945Y-108501977D01*
X156361189Y-108510129D01*
X156488228Y-108530148D01*
X156593809Y-108547252D01*
X156685988Y-108563037D01*
X156772821Y-108579100D01*
X156862366Y-108597038D01*
X156962677Y-108618445D01*
X157081813Y-108644921D01*
X157227829Y-108678059D01*
X157352691Y-108706614D01*
X157938886Y-108856000D01*
X158537474Y-109037926D01*
X159139081Y-109249307D01*
X159734337Y-109487058D01*
X159768704Y-109501692D01*
X159877091Y-109549772D01*
X160018304Y-109615199D01*
X160188218Y-109695892D01*
X160382708Y-109789769D01*
X160597652Y-109894749D01*
X160828920Y-110008750D01*
X161072392Y-110129691D01*
X161323941Y-110255490D01*
X161579442Y-110384067D01*
X161834771Y-110513338D01*
X162085802Y-110641224D01*
X162328412Y-110765644D01*
X162558473Y-110884513D01*
X162771864Y-110995754D01*
X162964458Y-111097283D01*
X163132131Y-111187019D01*
X163270757Y-111262880D01*
X163366986Y-111317405D01*
X164032112Y-111726396D01*
X164667156Y-112162930D01*
X165273658Y-112628381D01*
X165853160Y-113124121D01*
X166407206Y-113651526D01*
X166937335Y-114211970D01*
X167445092Y-114806826D01*
X167815690Y-115281071D01*
X168090589Y-115660556D01*
X168365815Y-116067770D01*
X168636009Y-116493715D01*
X168895811Y-116929390D01*
X169139865Y-117365796D01*
X169362810Y-117793933D01*
X169559289Y-118204801D01*
X169568112Y-118224263D01*
X169611287Y-118319660D01*
X169656047Y-118418390D01*
X169693686Y-118501249D01*
X169698324Y-118511441D01*
X169745908Y-118620019D01*
X169804260Y-118759614D01*
X169870120Y-118921922D01*
X169940229Y-119098638D01*
X170011328Y-119281459D01*
X170080157Y-119462080D01*
X170143457Y-119632199D01*
X170197968Y-119783511D01*
X170200838Y-119791668D01*
X170447413Y-120543763D01*
X170661123Y-121303874D01*
X170842722Y-122075871D01*
X170992962Y-122863623D01*
X171112597Y-123670999D01*
X171202381Y-124501868D01*
X171254083Y-125200491D01*
X171260733Y-125342779D01*
X171266096Y-125519492D01*
X171270171Y-125723329D01*
X171272958Y-125946988D01*
X171274456Y-126183166D01*
X171274665Y-126424562D01*
X171273585Y-126663874D01*
X171271216Y-126893798D01*
X171267556Y-127107035D01*
X171262605Y-127296282D01*
X171256364Y-127454236D01*
X171254201Y-127495089D01*
X171177030Y-128484054D01*
X171058678Y-129466421D01*
X170899262Y-130441729D01*
X170698896Y-131409515D01*
X170457695Y-132369315D01*
X170175773Y-133320666D01*
X169853245Y-134263104D01*
X169490227Y-135196167D01*
X169151821Y-135977346D01*
X169111049Y-136067334D01*
X169063472Y-136172528D01*
X169019652Y-136269577D01*
X168971200Y-136373412D01*
X168906430Y-136506881D01*
X168828957Y-136662934D01*
X168742392Y-136834525D01*
X168650352Y-137014603D01*
X168556449Y-137196122D01*
X168464299Y-137372032D01*
X168377514Y-137535286D01*
X168299710Y-137678835D01*
X168263714Y-137743865D01*
X167779873Y-138574881D01*
X167275830Y-139371416D01*
X166749077Y-140136800D01*
X166197104Y-140874369D01*
X165617400Y-141587452D01*
X165007457Y-142279384D01*
X164364766Y-142953494D01*
X164263969Y-143054691D01*
X163912876Y-143399909D01*
X163577897Y-143717913D01*
X163251175Y-144015668D01*
X162924851Y-144300137D01*
X162591066Y-144578285D01*
X162241962Y-144857074D01*
X162143128Y-144934082D01*
X161415317Y-145474279D01*
X160671979Y-145978620D01*
X159914379Y-146446565D01*
X159143788Y-146877578D01*
X158361468Y-147271118D01*
X157568689Y-147626647D01*
X156766715Y-147943628D01*
X155956815Y-148221521D01*
X155140254Y-148459787D01*
X154318300Y-148657890D01*
X153492218Y-148815289D01*
X152770913Y-148918726D01*
X152590663Y-148939981D01*
X152426914Y-148957652D01*
X152272922Y-148972097D01*
X152121935Y-148983673D01*
X151967207Y-148992740D01*
X151801992Y-148999654D01*
X151619540Y-149004775D01*
X151413105Y-149008459D01*
X151175939Y-149011066D01*
X151007086Y-149012320D01*
X150810946Y-149013405D01*
X150625150Y-149014091D01*
X150454402Y-149014387D01*
X150303409Y-149014297D01*
X150176876Y-149013830D01*
X150079510Y-149012993D01*
X150016016Y-149011792D01*
X149994711Y-149010784D01*
X149942954Y-149006418D01*
X149860118Y-148999767D01*
X149756754Y-148991666D01*
X149643412Y-148982947D01*
X149618985Y-148981089D01*
X148922316Y-148910183D01*
X148220501Y-148803531D01*
X147521584Y-148662848D01*
X146833611Y-148489850D01*
X146164627Y-148286254D01*
X145851281Y-148177678D01*
X145738311Y-148136270D01*
X145611960Y-148088908D01*
X145478868Y-148038194D01*
X145345669Y-147986724D01*
X145219003Y-147937099D01*
X145105506Y-147891915D01*
X145011813Y-147853772D01*
X144944564Y-147825268D01*
X144911965Y-147809910D01*
X144880588Y-147794148D01*
X144820861Y-147765550D01*
X144742384Y-147728677D01*
X144682354Y-147700810D01*
X144580633Y-147653654D01*
X144484314Y-147608574D01*
X144389703Y-147563727D01*
X144293109Y-147517274D01*
X144190839Y-147467375D01*
X144079201Y-147412185D01*
X143954501Y-147349868D01*
X143813049Y-147278581D01*
X143651151Y-147196483D01*
X143465115Y-147101735D01*
X143251249Y-146992493D01*
X143005860Y-146866919D01*
X142866342Y-146795460D01*
X142571524Y-146644125D01*
X142310349Y-146509306D01*
X142079085Y-146388920D01*
X141873999Y-146280883D01*
X141691358Y-146183111D01*
X141527430Y-146093522D01*
X141485077Y-146069780D01*
X141947899Y-146069780D01*
X141958336Y-146080218D01*
X141968773Y-146069780D01*
X141958336Y-146059343D01*
X141947899Y-146069780D01*
X141485077Y-146069780D01*
X141378485Y-146010030D01*
X141240788Y-145930553D01*
X141110607Y-145853007D01*
X140984211Y-145775310D01*
X140857867Y-145695376D01*
X140727842Y-145611121D01*
X140632856Y-145548604D01*
X140189614Y-145245209D01*
X139775493Y-144939741D01*
X139380750Y-144624223D01*
X138995644Y-144290679D01*
X138610435Y-143931134D01*
X138377720Y-143702126D01*
X137837704Y-143134274D01*
X137331798Y-142546360D01*
X136857809Y-141935413D01*
X136413540Y-141298469D01*
X135996798Y-140632559D01*
X135643423Y-140005970D01*
X135594546Y-139913476D01*
X135538176Y-139804463D01*
X135477204Y-139684771D01*
X135414519Y-139560244D01*
X135353010Y-139436723D01*
X135295568Y-139320050D01*
X135245084Y-139216067D01*
X135204447Y-139130615D01*
X135176546Y-139069538D01*
X135164272Y-139038676D01*
X135163946Y-139036737D01*
X135155713Y-139015392D01*
X135133829Y-138965816D01*
X135102519Y-138897510D01*
X135092221Y-138875432D01*
X135009991Y-138691600D01*
X134919431Y-138474652D01*
X134823139Y-138231760D01*
X134723716Y-137970096D01*
X134623761Y-137696837D01*
X134525876Y-137419154D01*
X134432661Y-137144222D01*
X134346715Y-136879215D01*
X134270638Y-136631304D01*
X134237473Y-136517265D01*
X134044784Y-135786901D01*
X133881650Y-135051722D01*
X133747090Y-134305748D01*
X133640124Y-133542997D01*
X133559770Y-132757489D01*
X133513754Y-132104584D01*
X133507050Y-131951060D01*
X133502199Y-131763005D01*
X133499129Y-131547072D01*
X133497762Y-131309913D01*
X133498028Y-131058178D01*
X133498236Y-131028615D01*
X133719623Y-131028615D01*
X133725895Y-131591524D01*
X133746123Y-132133481D01*
X133780831Y-132663860D01*
X133830548Y-133192039D01*
X133895802Y-133727394D01*
X133922853Y-133921286D01*
X134066793Y-134787765D01*
X134246351Y-135635137D01*
X134461253Y-136462723D01*
X134711228Y-137269843D01*
X134996001Y-138055817D01*
X135315302Y-138819965D01*
X135668854Y-139561609D01*
X136056389Y-140280070D01*
X136477630Y-140974666D01*
X136932308Y-141644720D01*
X137134297Y-141920153D01*
X137357579Y-142212455D01*
X137569988Y-142478629D01*
X137780574Y-142729233D01*
X137998392Y-142974826D01*
X138232491Y-143225964D01*
X138421945Y-143422007D01*
X138949666Y-143936556D01*
X139490138Y-144414161D01*
X140048731Y-144858966D01*
X140630814Y-145275117D01*
X141241760Y-145666758D01*
X141613920Y-145885723D01*
X141733899Y-145953948D01*
X141821406Y-146003084D01*
X141880102Y-146034963D01*
X141913643Y-146051412D01*
X141925690Y-146054261D01*
X141919900Y-146045339D01*
X141905406Y-146031429D01*
X141876602Y-146006977D01*
X141823698Y-145963656D01*
X141755334Y-145908500D01*
X141707852Y-145870552D01*
X141312673Y-145541270D01*
X141302778Y-145532326D01*
X147126179Y-145532326D01*
X147485449Y-145638242D01*
X148116771Y-145809602D01*
X148736077Y-145947100D01*
X149353218Y-146052438D01*
X149978045Y-146127317D01*
X150568738Y-146170799D01*
X150698907Y-146175753D01*
X150860886Y-146178929D01*
X151044781Y-146180381D01*
X151240695Y-146180166D01*
X151438732Y-146178340D01*
X151628996Y-146174956D01*
X151801591Y-146170072D01*
X151946621Y-146163742D01*
X151959742Y-146163002D01*
X152726075Y-146097927D01*
X153489989Y-145991531D01*
X154251895Y-145843727D01*
X155012206Y-145654424D01*
X155771334Y-145423534D01*
X156362638Y-145214611D01*
X156479850Y-145169739D01*
X156609017Y-145118707D01*
X156744648Y-145063849D01*
X156881258Y-145007499D01*
X157013359Y-144951989D01*
X157135461Y-144899657D01*
X157242078Y-144852833D01*
X157327721Y-144813853D01*
X157386904Y-144785049D01*
X157414138Y-144768756D01*
X157415312Y-144766926D01*
X157397406Y-144755545D01*
X157346583Y-144727562D01*
X157267187Y-144685204D01*
X157163561Y-144630697D01*
X157040048Y-144566269D01*
X156900992Y-144494148D01*
X156750735Y-144416559D01*
X156593621Y-144335731D01*
X156433992Y-144253890D01*
X156276195Y-144173264D01*
X156124569Y-144096078D01*
X155983460Y-144024562D01*
X155857209Y-143960941D01*
X155750162Y-143907443D01*
X155666659Y-143866295D01*
X155611046Y-143839724D01*
X155588259Y-143830070D01*
X155557861Y-143835195D01*
X155501723Y-143854545D01*
X155431621Y-143884025D01*
X155426895Y-143886179D01*
X154684124Y-144206568D01*
X153943609Y-144486018D01*
X153203152Y-144725098D01*
X152460549Y-144924377D01*
X151713601Y-145084422D01*
X150960105Y-145205806D01*
X150197862Y-145289096D01*
X149921653Y-145309813D01*
X149736694Y-145318974D01*
X149520229Y-145324570D01*
X149280787Y-145326763D01*
X149026898Y-145325718D01*
X148767092Y-145321598D01*
X148509896Y-145314567D01*
X148263843Y-145304788D01*
X148037461Y-145292425D01*
X147839280Y-145277641D01*
X147740352Y-145267993D01*
X147587175Y-145251250D01*
X147470264Y-145238891D01*
X147384330Y-145231273D01*
X147324086Y-145228749D01*
X147284245Y-145231675D01*
X147259519Y-145240407D01*
X147244620Y-145255299D01*
X147234261Y-145276707D01*
X147224109Y-145302672D01*
X147192993Y-145377363D01*
X147160994Y-145452331D01*
X147159123Y-145456637D01*
X147126179Y-145532326D01*
X141302778Y-145532326D01*
X140904781Y-145172591D01*
X140716983Y-144990391D01*
X147360078Y-144990391D01*
X147435409Y-145002345D01*
X147487173Y-145009114D01*
X147571472Y-145018534D01*
X147679244Y-145029735D01*
X147801424Y-145041847D01*
X147928951Y-145054000D01*
X148052762Y-145065325D01*
X148163792Y-145074951D01*
X148252980Y-145082006D01*
X148293504Y-145084720D01*
X148394313Y-145088914D01*
X148528886Y-145092006D01*
X148689496Y-145094032D01*
X148868414Y-145095026D01*
X149057911Y-145095022D01*
X149250260Y-145094056D01*
X149437731Y-145092161D01*
X149612595Y-145089372D01*
X149767125Y-145085722D01*
X149893592Y-145081247D01*
X149966959Y-145077263D01*
X150743380Y-145003300D01*
X151515479Y-144887920D01*
X152283396Y-144731091D01*
X153047273Y-144532779D01*
X153807253Y-144292950D01*
X154563479Y-144011568D01*
X154753915Y-143933917D01*
X154948190Y-143852306D01*
X155105574Y-143783890D01*
X155228384Y-143727516D01*
X155318930Y-143682034D01*
X155379529Y-143646288D01*
X155412494Y-143619130D01*
X155420520Y-143602033D01*
X155414177Y-143577048D01*
X155395982Y-143514609D01*
X155366579Y-143416766D01*
X155326613Y-143285567D01*
X155276727Y-143123060D01*
X155217565Y-142931295D01*
X155149771Y-142712318D01*
X155073989Y-142468180D01*
X154990862Y-142200929D01*
X154901034Y-141912612D01*
X154805151Y-141605280D01*
X154703854Y-141280980D01*
X154597789Y-140941761D01*
X154487597Y-140589672D01*
X154373925Y-140226760D01*
X154257416Y-139855075D01*
X154138713Y-139476665D01*
X154018460Y-139093579D01*
X153897302Y-138707865D01*
X153775880Y-138321572D01*
X153654842Y-137936748D01*
X153534828Y-137555442D01*
X153416485Y-137179703D01*
X153300454Y-136811579D01*
X153187381Y-136453118D01*
X153077908Y-136106369D01*
X152972682Y-135773382D01*
X152872344Y-135456203D01*
X152777537Y-135156882D01*
X152688909Y-134877468D01*
X152607100Y-134620009D01*
X152532756Y-134386553D01*
X152466519Y-134179149D01*
X152409034Y-133999846D01*
X152360946Y-133850691D01*
X152322897Y-133733735D01*
X152295531Y-133651025D01*
X152279493Y-133604610D01*
X152275301Y-133594828D01*
X152263943Y-133616715D01*
X152238002Y-133672861D01*
X152199303Y-133759134D01*
X152149667Y-133871402D01*
X152090917Y-134005534D01*
X152024877Y-134157401D01*
X151953367Y-134322868D01*
X151923678Y-134391850D01*
X151829077Y-134611888D01*
X151734428Y-134831984D01*
X151638335Y-135055380D01*
X151539401Y-135285320D01*
X151436229Y-135525047D01*
X151327425Y-135777804D01*
X151211592Y-136046832D01*
X151087333Y-136335376D01*
X150953252Y-136646677D01*
X150807953Y-136983980D01*
X150650040Y-137350526D01*
X150478117Y-137749559D01*
X150328832Y-138096026D01*
X150218466Y-138352185D01*
X150104987Y-138615616D01*
X149990710Y-138880938D01*
X149877950Y-139142774D01*
X149769026Y-139395742D01*
X149666252Y-139634464D01*
X149571947Y-139853560D01*
X149488425Y-140047648D01*
X149418002Y-140211352D01*
X149389631Y-140277328D01*
X149326292Y-140424599D01*
X149248745Y-140604829D01*
X149159308Y-140812637D01*
X149060296Y-141042644D01*
X148954025Y-141289471D01*
X148842811Y-141547738D01*
X148728972Y-141812064D01*
X148614823Y-142077072D01*
X148502681Y-142337379D01*
X148450439Y-142458630D01*
X148343119Y-142707707D01*
X148234988Y-142958687D01*
X148128051Y-143206908D01*
X148024315Y-143447713D01*
X147925788Y-143676443D01*
X147834475Y-143888441D01*
X147752383Y-144079048D01*
X147681519Y-144243603D01*
X147623890Y-144377450D01*
X147594962Y-144444653D01*
X147360078Y-144990391D01*
X140716983Y-144990391D01*
X140484026Y-144764379D01*
X140476044Y-144756378D01*
X140003041Y-144262682D01*
X139564175Y-143763536D01*
X139153250Y-143251025D01*
X138764075Y-142717227D01*
X138390456Y-142154225D01*
X138197580Y-141842856D01*
X137785435Y-141122009D01*
X137408224Y-140379214D01*
X137066169Y-139615713D01*
X136759490Y-138832749D01*
X136488407Y-138031561D01*
X136253143Y-137213395D01*
X136053917Y-136379490D01*
X135890950Y-135531090D01*
X135764463Y-134669436D01*
X135674677Y-133795771D01*
X135621812Y-132911336D01*
X135606089Y-132017373D01*
X135609026Y-131894886D01*
X138201382Y-131894886D01*
X138202975Y-132143749D01*
X138206427Y-132378590D01*
X138211771Y-132592488D01*
X138219035Y-132778526D01*
X138228252Y-132929782D01*
X138228252Y-132929785D01*
X138305113Y-133725154D01*
X138410592Y-134493138D01*
X138545573Y-135237551D01*
X138710938Y-135962211D01*
X138907566Y-136670930D01*
X139136340Y-137367525D01*
X139398142Y-138055809D01*
X139431719Y-138137783D01*
X139507324Y-138313563D01*
X139599596Y-138516141D01*
X139704221Y-138736892D01*
X139816881Y-138967190D01*
X139933262Y-139198409D01*
X140049048Y-139421924D01*
X140159922Y-139629111D01*
X140261570Y-139811342D01*
X140314239Y-139901601D01*
X140714584Y-140536470D01*
X141139882Y-141139034D01*
X141592042Y-141711801D01*
X142072975Y-142257281D01*
X142252810Y-142446721D01*
X142340560Y-142537009D01*
X142418088Y-142616054D01*
X142480864Y-142679300D01*
X142524359Y-142722185D01*
X142544047Y-142740157D01*
X142544632Y-142740425D01*
X142544452Y-142723788D01*
X142535407Y-142693459D01*
X142527808Y-142670147D01*
X142507958Y-142608556D01*
X142476330Y-142510165D01*
X142433401Y-142376456D01*
X142379643Y-142208909D01*
X142315532Y-142009004D01*
X142241542Y-141778223D01*
X142158146Y-141518045D01*
X142065820Y-141229953D01*
X141965037Y-140915426D01*
X141856274Y-140575945D01*
X141740002Y-140212990D01*
X141616698Y-139828044D01*
X141486835Y-139422585D01*
X141350887Y-138998094D01*
X141209330Y-138556053D01*
X141062637Y-138097943D01*
X140911283Y-137625243D01*
X140755743Y-137139433D01*
X140596489Y-136641996D01*
X140433997Y-136134412D01*
X140422639Y-136098931D01*
X140260110Y-135591315D01*
X140100830Y-135094049D01*
X139945268Y-134608597D01*
X139793897Y-134136424D01*
X139647187Y-133678992D01*
X139505609Y-133237767D01*
X139369636Y-132814214D01*
X139239737Y-132409796D01*
X139116386Y-132025977D01*
X139000052Y-131664222D01*
X138891207Y-131325995D01*
X138790322Y-131012761D01*
X138697869Y-130725983D01*
X138614318Y-130467126D01*
X138540141Y-130237656D01*
X138475809Y-130039034D01*
X138421794Y-129872726D01*
X138378566Y-129740196D01*
X138346597Y-129642909D01*
X138326358Y-129582329D01*
X138318320Y-129559919D01*
X138318213Y-129559823D01*
X138313743Y-129573616D01*
X138308033Y-129609114D01*
X138300781Y-129669354D01*
X138291681Y-129757374D01*
X138280427Y-129876210D01*
X138266715Y-130028898D01*
X138250239Y-130218476D01*
X138239729Y-130341446D01*
X138229162Y-130494723D01*
X138220241Y-130682414D01*
X138212994Y-130897598D01*
X138207455Y-131133357D01*
X138203652Y-131382771D01*
X138201618Y-131638921D01*
X138201382Y-131894886D01*
X135609026Y-131894886D01*
X135627728Y-131115124D01*
X135686951Y-130205832D01*
X135783978Y-129290738D01*
X135826556Y-128984978D01*
X138397919Y-128984978D01*
X138401011Y-129022780D01*
X138408173Y-129054678D01*
X138409074Y-129057713D01*
X138417282Y-129083696D01*
X138437765Y-129147990D01*
X138470060Y-129249151D01*
X138513704Y-129385735D01*
X138568234Y-129556295D01*
X138633188Y-129759388D01*
X138708104Y-129993568D01*
X138792518Y-130257389D01*
X138885969Y-130549408D01*
X138987994Y-130868179D01*
X139098130Y-131212258D01*
X139215915Y-131580198D01*
X139340886Y-131970556D01*
X139472581Y-132381886D01*
X139610537Y-132812743D01*
X139754291Y-133261683D01*
X139903382Y-133727260D01*
X140057346Y-134208029D01*
X140215721Y-134702545D01*
X140378044Y-135209363D01*
X140543855Y-135727039D01*
X140664146Y-136102587D01*
X142893984Y-143063968D01*
X143146303Y-143277057D01*
X143435019Y-143514046D01*
X143719831Y-143733072D01*
X144015909Y-143945460D01*
X144285753Y-144127907D01*
X144468089Y-144247765D01*
X144617992Y-144345160D01*
X144735065Y-144419840D01*
X144818903Y-144471552D01*
X144869107Y-144500044D01*
X144885032Y-144505818D01*
X144879019Y-144485923D01*
X144860664Y-144427513D01*
X144830363Y-144331825D01*
X144788512Y-144200100D01*
X144735509Y-144033579D01*
X144671749Y-143833500D01*
X144597629Y-143601104D01*
X144513545Y-143337630D01*
X144419893Y-143044318D01*
X144317071Y-142722408D01*
X144205475Y-142373140D01*
X144085499Y-141997754D01*
X143957541Y-141597490D01*
X143821998Y-141173587D01*
X143679265Y-140727285D01*
X143529740Y-140259824D01*
X143373817Y-139772445D01*
X143211894Y-139266386D01*
X143044368Y-138742888D01*
X142871634Y-138203190D01*
X142694088Y-137648533D01*
X142512128Y-137080156D01*
X142326150Y-136499299D01*
X142269299Y-136321762D01*
X145722612Y-136321762D01*
X146218604Y-137871367D01*
X146296893Y-138115483D01*
X146371614Y-138347540D01*
X146441784Y-138564543D01*
X146506422Y-138763500D01*
X146564546Y-138941420D01*
X146615173Y-139095308D01*
X146657323Y-139222171D01*
X146690013Y-139319017D01*
X146712262Y-139382854D01*
X146723087Y-139410688D01*
X146723912Y-139411655D01*
X146735492Y-139389850D01*
X146759801Y-139337804D01*
X146793123Y-139263639D01*
X146826512Y-139187530D01*
X146853549Y-139125108D01*
X146895611Y-139027784D01*
X146951215Y-138898997D01*
X147018879Y-138742188D01*
X147097118Y-138560800D01*
X147184451Y-138358273D01*
X147279395Y-138138049D01*
X147380467Y-137903568D01*
X147486184Y-137658272D01*
X147595062Y-137405603D01*
X147705620Y-137149001D01*
X147816374Y-136891908D01*
X147925841Y-136637765D01*
X148032539Y-136390013D01*
X148134984Y-136152094D01*
X148231694Y-135927447D01*
X148321186Y-135719517D01*
X148401977Y-135531743D01*
X148470674Y-135372008D01*
X148534014Y-135224741D01*
X148611564Y-135044515D01*
X148701010Y-134836712D01*
X148800032Y-134606712D01*
X148906316Y-134359891D01*
X149017546Y-134101631D01*
X149131403Y-133837310D01*
X149245572Y-133572308D01*
X149357737Y-133312004D01*
X149389628Y-133238005D01*
X152421741Y-133238005D01*
X154046765Y-138424029D01*
X155671789Y-143610053D01*
X156579646Y-144071503D01*
X156759666Y-144162820D01*
X156928070Y-144247887D01*
X157081265Y-144324914D01*
X157215654Y-144392112D01*
X157327647Y-144447689D01*
X157413648Y-144489857D01*
X157470062Y-144516824D01*
X157493295Y-144526800D01*
X157493676Y-144526779D01*
X157487983Y-144506625D01*
X157470253Y-144448097D01*
X157440940Y-144352649D01*
X157400500Y-144221740D01*
X157349385Y-144056830D01*
X157288054Y-143859374D01*
X157216960Y-143630832D01*
X157136557Y-143372661D01*
X157114658Y-143302405D01*
X159989675Y-143302405D01*
X159991094Y-143304001D01*
X159992504Y-143304015D01*
X160011256Y-143292432D01*
X160058363Y-143260244D01*
X160128336Y-143211289D01*
X160215687Y-143149404D01*
X160310087Y-143081905D01*
X161013817Y-142551031D01*
X161694279Y-141985969D01*
X162350493Y-141387825D01*
X162981480Y-140757711D01*
X163586261Y-140096735D01*
X164163857Y-139406007D01*
X164713289Y-138686637D01*
X165233577Y-137939732D01*
X165723743Y-137166404D01*
X166094077Y-136528480D01*
X166515924Y-135732070D01*
X166901648Y-134921217D01*
X167250897Y-134097656D01*
X167563317Y-133263128D01*
X167838556Y-132419370D01*
X168076263Y-131568120D01*
X168276085Y-130711118D01*
X168437671Y-129850101D01*
X168560666Y-128986806D01*
X168644718Y-128122975D01*
X168689476Y-127260343D01*
X168694587Y-126400649D01*
X168659698Y-125545631D01*
X168584458Y-124697029D01*
X168550016Y-124413315D01*
X168528201Y-124242837D01*
X168510872Y-124112029D01*
X168495926Y-124019340D01*
X168481259Y-123963216D01*
X168464765Y-123942102D01*
X168444342Y-123954448D01*
X168417885Y-123998700D01*
X168383290Y-124073304D01*
X168338452Y-124176709D01*
X168312006Y-124237648D01*
X168248687Y-124382729D01*
X168176676Y-124547866D01*
X168099275Y-124725472D01*
X168019786Y-124907962D01*
X167941513Y-125087751D01*
X167867758Y-125257253D01*
X167801824Y-125408882D01*
X167747013Y-125535052D01*
X167717486Y-125603116D01*
X167672456Y-125706866D01*
X167617479Y-125833303D01*
X167554820Y-125977234D01*
X167486747Y-126133466D01*
X167415527Y-126296806D01*
X167343426Y-126462062D01*
X167272712Y-126624042D01*
X167205650Y-126777552D01*
X167144509Y-126917399D01*
X167091554Y-127038391D01*
X167049052Y-127135336D01*
X167019272Y-127203040D01*
X167006753Y-127231265D01*
X166921237Y-127422405D01*
X166851148Y-127580223D01*
X166794739Y-127709451D01*
X166750265Y-127814821D01*
X166715981Y-127901062D01*
X166690142Y-127972907D01*
X166671002Y-128035088D01*
X166656817Y-128092333D01*
X166645841Y-128149375D01*
X166636327Y-128210946D01*
X166630831Y-128250324D01*
X166486214Y-129151424D01*
X166300811Y-130046459D01*
X166075350Y-130933733D01*
X165810561Y-131811553D01*
X165507176Y-132678225D01*
X165165921Y-133532054D01*
X164787531Y-134371348D01*
X164372732Y-135194411D01*
X163922257Y-135999550D01*
X163436834Y-136785070D01*
X162917194Y-137549279D01*
X162364068Y-138290481D01*
X162231180Y-138458790D01*
X162160307Y-138547538D01*
X162100701Y-138623009D01*
X162049869Y-138689809D01*
X162005322Y-138752544D01*
X161964564Y-138815821D01*
X161925106Y-138884246D01*
X161884453Y-138962427D01*
X161840116Y-139054969D01*
X161789600Y-139166479D01*
X161730415Y-139301562D01*
X161660069Y-139464827D01*
X161576068Y-139660879D01*
X161557893Y-139703301D01*
X161531778Y-139764185D01*
X161506959Y-139821860D01*
X161481532Y-139880688D01*
X161453590Y-139945027D01*
X161421228Y-140019234D01*
X161382542Y-140107670D01*
X161335624Y-140214694D01*
X161278570Y-140344662D01*
X161209473Y-140501937D01*
X161126429Y-140690874D01*
X161078821Y-140799171D01*
X161013079Y-140948927D01*
X160947601Y-141098467D01*
X160885888Y-141239768D01*
X160831444Y-141364804D01*
X160787768Y-141465545D01*
X160764622Y-141519313D01*
X160741104Y-141574203D01*
X160719363Y-141624821D01*
X160697570Y-141675348D01*
X160673901Y-141729961D01*
X160646531Y-141792839D01*
X160613633Y-141868160D01*
X160573383Y-141960104D01*
X160523954Y-142072848D01*
X160463523Y-142210571D01*
X160390262Y-142377452D01*
X160302346Y-142577669D01*
X160285873Y-142615183D01*
X160206717Y-142795450D01*
X160142774Y-142941165D01*
X160092480Y-143056002D01*
X160054268Y-143143638D01*
X160026574Y-143207746D01*
X160007834Y-143252001D01*
X159996480Y-143280080D01*
X159990949Y-143295656D01*
X159989675Y-143302405D01*
X157114658Y-143302405D01*
X157047303Y-143086318D01*
X156949651Y-142773263D01*
X156844056Y-142434953D01*
X156730975Y-142072845D01*
X156610861Y-141688397D01*
X156484170Y-141283069D01*
X156351357Y-140858317D01*
X156212876Y-140415599D01*
X156069185Y-139956373D01*
X155920736Y-139482097D01*
X155767985Y-138994230D01*
X155611387Y-138494228D01*
X155451399Y-137983550D01*
X155406837Y-137841338D01*
X154642455Y-135402024D01*
X157842842Y-135402024D01*
X157843029Y-135421198D01*
X157845963Y-135437383D01*
X157850195Y-135452077D01*
X157860113Y-135484095D01*
X157881467Y-135552651D01*
X157913224Y-135654444D01*
X157954353Y-135786169D01*
X158003823Y-135944523D01*
X158060600Y-136126203D01*
X158123653Y-136327905D01*
X158191948Y-136546328D01*
X158264456Y-136778166D01*
X158338461Y-137014745D01*
X158803413Y-138500930D01*
X158852223Y-138392409D01*
X158874007Y-138343532D01*
X158909673Y-138262973D01*
X158956337Y-138157282D01*
X159011105Y-138033008D01*
X159045512Y-137954826D01*
X162328124Y-137954826D01*
X162330971Y-137956042D01*
X162337638Y-137949911D01*
X162356026Y-137926935D01*
X162394734Y-137876284D01*
X162449300Y-137803872D01*
X162515262Y-137715620D01*
X162573781Y-137636850D01*
X162786268Y-137341899D01*
X163009286Y-137017135D01*
X163237263Y-136671261D01*
X163464620Y-136312977D01*
X163685785Y-135950986D01*
X163895180Y-135593991D01*
X163991424Y-135424192D01*
X164066078Y-135287555D01*
X164154086Y-135121058D01*
X164251407Y-134932792D01*
X164353997Y-134730850D01*
X164457816Y-134523322D01*
X164558820Y-134318298D01*
X164652969Y-134123870D01*
X164736220Y-133948130D01*
X164804531Y-133799167D01*
X164815216Y-133775170D01*
X165127415Y-133030518D01*
X165412914Y-132268577D01*
X165669324Y-131496850D01*
X165894257Y-130722836D01*
X166085322Y-129954040D01*
X166191441Y-129454502D01*
X166226374Y-129277678D01*
X166253688Y-129138444D01*
X166273804Y-129033425D01*
X166287137Y-128959244D01*
X166294110Y-128912525D01*
X166295139Y-128889892D01*
X166290645Y-128887970D01*
X166281047Y-128903381D01*
X166266763Y-128932751D01*
X166252359Y-128963782D01*
X166216718Y-129041961D01*
X166173730Y-129138160D01*
X166132487Y-129232023D01*
X166131134Y-129235140D01*
X166103921Y-129297557D01*
X166063030Y-129391004D01*
X166011610Y-129508308D01*
X165952808Y-129642290D01*
X165889771Y-129785774D01*
X165838179Y-129903098D01*
X165772398Y-130052845D01*
X165706886Y-130202377D01*
X165645145Y-130343671D01*
X165590678Y-130468703D01*
X165546987Y-130569446D01*
X165523825Y-130623241D01*
X165497891Y-130683750D01*
X165473278Y-130740992D01*
X165448084Y-130799312D01*
X165420410Y-130863062D01*
X165388355Y-130936586D01*
X165350020Y-131024235D01*
X165303503Y-131130355D01*
X165246904Y-131259293D01*
X165178323Y-131415399D01*
X165095858Y-131603021D01*
X165044825Y-131719111D01*
X164979082Y-131868866D01*
X164913604Y-132018407D01*
X164851892Y-132159708D01*
X164797447Y-132284742D01*
X164753771Y-132385484D01*
X164730625Y-132439253D01*
X164704691Y-132499762D01*
X164680077Y-132557003D01*
X164654883Y-132615324D01*
X164627210Y-132679073D01*
X164595155Y-132752598D01*
X164556819Y-132840247D01*
X164510303Y-132946367D01*
X164453703Y-133075306D01*
X164385122Y-133231412D01*
X164302657Y-133419033D01*
X164251624Y-133535122D01*
X164185881Y-133684878D01*
X164120404Y-133834420D01*
X164058692Y-133975721D01*
X164004246Y-134100755D01*
X163960571Y-134201497D01*
X163937424Y-134255265D01*
X163911490Y-134315774D01*
X163886876Y-134373015D01*
X163861682Y-134431337D01*
X163834009Y-134495086D01*
X163801954Y-134568611D01*
X163763619Y-134656259D01*
X163717101Y-134762379D01*
X163660503Y-134891318D01*
X163591921Y-135047424D01*
X163509457Y-135235044D01*
X163458423Y-135351134D01*
X163392681Y-135500890D01*
X163327203Y-135650431D01*
X163265491Y-135791732D01*
X163211045Y-135916767D01*
X163167370Y-136017509D01*
X163144223Y-136071277D01*
X163118880Y-136130411D01*
X163094777Y-136186484D01*
X163070137Y-136243558D01*
X163043185Y-136305696D01*
X163012146Y-136376961D01*
X162975244Y-136461415D01*
X162930704Y-136563120D01*
X162876750Y-136686139D01*
X162811607Y-136834536D01*
X162733499Y-137012371D01*
X162640650Y-137223708D01*
X162624230Y-137261078D01*
X162543060Y-137445918D01*
X162477324Y-137595947D01*
X162425615Y-137714555D01*
X162386522Y-137805127D01*
X162358636Y-137871053D01*
X162340547Y-137915719D01*
X162330847Y-137942514D01*
X162328124Y-137954826D01*
X159045512Y-137954826D01*
X159071092Y-137896700D01*
X159121102Y-137782921D01*
X159186272Y-137634353D01*
X159251275Y-137485783D01*
X159312542Y-137345396D01*
X159366503Y-137221379D01*
X159409590Y-137121915D01*
X159430543Y-137073215D01*
X159456478Y-137012706D01*
X159481092Y-136955465D01*
X159506285Y-136897144D01*
X159533959Y-136833394D01*
X159566013Y-136759869D01*
X159604349Y-136672221D01*
X159650866Y-136566101D01*
X159707465Y-136437162D01*
X159776047Y-136281056D01*
X159858511Y-136093435D01*
X159909545Y-135977346D01*
X159975287Y-135827590D01*
X160040764Y-135678048D01*
X160102477Y-135536747D01*
X160156922Y-135411713D01*
X160200597Y-135310971D01*
X160223744Y-135257203D01*
X160249679Y-135196694D01*
X160274292Y-135139453D01*
X160299485Y-135081131D01*
X160327160Y-135017382D01*
X160359214Y-134943857D01*
X160397550Y-134856209D01*
X160444067Y-134750089D01*
X160500666Y-134621150D01*
X160569247Y-134465044D01*
X160651711Y-134277424D01*
X160702745Y-134161334D01*
X160768487Y-134011577D01*
X160833966Y-133862036D01*
X160895678Y-133720736D01*
X160950122Y-133595701D01*
X160993798Y-133494959D01*
X161016944Y-133441191D01*
X161041548Y-133383777D01*
X161064589Y-133330161D01*
X161087928Y-133276089D01*
X161113425Y-133217305D01*
X161142938Y-133149552D01*
X161178330Y-133068574D01*
X161221457Y-132970116D01*
X161274182Y-132849920D01*
X161338363Y-132703731D01*
X161415860Y-132527294D01*
X161495805Y-132345321D01*
X161562215Y-132193970D01*
X161629011Y-132041380D01*
X161692537Y-131895938D01*
X161749131Y-131766028D01*
X161795135Y-131660037D01*
X161819188Y-131604305D01*
X161851583Y-131529372D01*
X161897967Y-131422687D01*
X161955519Y-131290711D01*
X162021415Y-131139905D01*
X162092833Y-130976729D01*
X162166951Y-130807644D01*
X162215825Y-130696299D01*
X162290178Y-130526851D01*
X162363687Y-130359061D01*
X162433529Y-130199390D01*
X162496882Y-130054298D01*
X162550924Y-129930246D01*
X162592832Y-129833696D01*
X162612425Y-129788293D01*
X162644811Y-129713360D01*
X162691187Y-129606675D01*
X162748731Y-129474700D01*
X162814621Y-129323895D01*
X162886035Y-129160719D01*
X162960150Y-128991635D01*
X163009025Y-128880286D01*
X163083380Y-128710839D01*
X163156889Y-128543051D01*
X163226730Y-128383379D01*
X163290083Y-128238287D01*
X163344124Y-128114236D01*
X163386033Y-128017684D01*
X163405625Y-127972281D01*
X163438012Y-127897349D01*
X163484388Y-127790664D01*
X163541931Y-127658689D01*
X163607822Y-127507883D01*
X163679236Y-127344707D01*
X163753351Y-127175623D01*
X163802226Y-127064276D01*
X163876580Y-126894828D01*
X163950089Y-126727038D01*
X164019931Y-126567367D01*
X164083284Y-126422275D01*
X164137325Y-126298223D01*
X164179234Y-126201673D01*
X164198826Y-126156270D01*
X164231212Y-126081337D01*
X164277589Y-125974652D01*
X164335133Y-125842677D01*
X164401022Y-125691871D01*
X164472436Y-125528696D01*
X164546553Y-125359612D01*
X164595426Y-125248263D01*
X164669781Y-125078816D01*
X164743290Y-124911026D01*
X164813132Y-124751355D01*
X164876485Y-124606263D01*
X164930526Y-124482211D01*
X164972435Y-124385661D01*
X164992027Y-124340257D01*
X165024413Y-124265325D01*
X165070789Y-124158640D01*
X165128334Y-124026664D01*
X165194224Y-123875858D01*
X165265637Y-123712683D01*
X165339753Y-123543600D01*
X165388627Y-123432251D01*
X165462982Y-123262803D01*
X165536491Y-123095014D01*
X165606333Y-122935343D01*
X165669685Y-122790251D01*
X165723727Y-122666200D01*
X165765635Y-122569648D01*
X165785227Y-122524245D01*
X165817617Y-122449316D01*
X165864001Y-122342638D01*
X165921561Y-122210670D01*
X165987470Y-122059873D01*
X166058909Y-121896706D01*
X166133054Y-121727630D01*
X166181968Y-121616240D01*
X166255800Y-121448034D01*
X166328289Y-121282564D01*
X166396713Y-121126072D01*
X166458345Y-120984800D01*
X166510463Y-120864990D01*
X166550342Y-120772883D01*
X166569144Y-120729107D01*
X166603544Y-120649159D01*
X166651091Y-120539563D01*
X166708063Y-120408858D01*
X166770732Y-120265582D01*
X166835373Y-120118273D01*
X166869173Y-120041453D01*
X166926226Y-119910008D01*
X166976175Y-119791229D01*
X167016932Y-119690395D01*
X167046406Y-119612787D01*
X167062509Y-119563682D01*
X167064316Y-119548431D01*
X167037318Y-119531471D01*
X166978222Y-119499018D01*
X166891324Y-119453204D01*
X166780916Y-119396159D01*
X166651294Y-119330017D01*
X166506751Y-119256909D01*
X166351583Y-119178966D01*
X166190083Y-119098321D01*
X166026544Y-119017104D01*
X165865263Y-118937450D01*
X165710533Y-118861488D01*
X165566647Y-118791349D01*
X165437901Y-118729168D01*
X165328588Y-118677075D01*
X165243003Y-118637202D01*
X165185441Y-118611680D01*
X165160194Y-118602642D01*
X165159480Y-118602816D01*
X165145750Y-118627284D01*
X165118902Y-118683322D01*
X165082091Y-118764053D01*
X165038474Y-118862601D01*
X165007531Y-118933969D01*
X164965784Y-119030617D01*
X164910448Y-119158099D01*
X164844742Y-119309035D01*
X164771885Y-119476045D01*
X164695094Y-119651748D01*
X164617587Y-119828762D01*
X164575177Y-119925470D01*
X164500879Y-120094930D01*
X164427420Y-120262731D01*
X164357621Y-120422412D01*
X164294306Y-120567510D01*
X164240293Y-120691563D01*
X164198403Y-120788108D01*
X164178830Y-120833476D01*
X164146444Y-120908408D01*
X164100068Y-121015093D01*
X164042523Y-121147068D01*
X163976633Y-121297874D01*
X163905220Y-121461050D01*
X163831104Y-121630133D01*
X163782230Y-121741481D01*
X163707876Y-121910929D01*
X163634366Y-122078719D01*
X163564524Y-122238390D01*
X163501172Y-122383481D01*
X163447130Y-122507533D01*
X163405222Y-122604084D01*
X163385630Y-122649487D01*
X163353243Y-122724420D01*
X163306867Y-122831104D01*
X163249323Y-122963080D01*
X163183433Y-123113886D01*
X163112019Y-123277061D01*
X163037903Y-123446145D01*
X162989030Y-123557493D01*
X162914673Y-123726942D01*
X162841159Y-123894732D01*
X162771311Y-124054403D01*
X162707949Y-124199496D01*
X162653898Y-124323548D01*
X162611978Y-124420098D01*
X162592379Y-124465500D01*
X162560140Y-124540134D01*
X162513309Y-124648050D01*
X162454053Y-124784287D01*
X162384537Y-124943892D01*
X162306924Y-125121905D01*
X162223379Y-125313370D01*
X162136068Y-125513331D01*
X162047156Y-125716828D01*
X161958807Y-125918906D01*
X161873186Y-126114609D01*
X161792459Y-126298978D01*
X161718789Y-126467056D01*
X161654342Y-126613888D01*
X161621519Y-126688549D01*
X161571231Y-126803098D01*
X161508464Y-126946467D01*
X161437356Y-127109181D01*
X161362045Y-127281763D01*
X161286671Y-127454735D01*
X161224965Y-127596555D01*
X161152844Y-127762287D01*
X161077224Y-127935776D01*
X161002245Y-128107547D01*
X160932047Y-128268121D01*
X160870768Y-128408022D01*
X160828365Y-128504561D01*
X160778064Y-128619110D01*
X160715285Y-128762480D01*
X160644167Y-128925195D01*
X160568849Y-129097777D01*
X160493471Y-129270750D01*
X160431764Y-129412566D01*
X160359643Y-129578298D01*
X160284023Y-129751788D01*
X160209045Y-129923558D01*
X160138846Y-130084132D01*
X160077567Y-130224034D01*
X160035164Y-130320572D01*
X159984864Y-130435122D01*
X159922085Y-130578492D01*
X159850967Y-130741206D01*
X159775649Y-130913789D01*
X159700270Y-131086762D01*
X159638564Y-131228578D01*
X159566443Y-131394310D01*
X159490823Y-131567800D01*
X159415844Y-131739570D01*
X159345646Y-131900144D01*
X159284366Y-132040045D01*
X159241964Y-132136584D01*
X159191663Y-132251133D01*
X159128884Y-132394504D01*
X159057766Y-132557219D01*
X158982448Y-132729801D01*
X158907070Y-132902774D01*
X158845363Y-133044590D01*
X158773244Y-133210322D01*
X158697629Y-133383811D01*
X158622659Y-133555580D01*
X158552470Y-133716154D01*
X158491202Y-133856056D01*
X158448809Y-133952597D01*
X158331629Y-134218973D01*
X158230178Y-134449847D01*
X158143376Y-134647926D01*
X158070140Y-134815922D01*
X158009390Y-134956544D01*
X157960041Y-135072501D01*
X157921015Y-135166503D01*
X157891228Y-135241259D01*
X157869599Y-135299480D01*
X157855046Y-135343875D01*
X157846489Y-135377153D01*
X157842842Y-135402024D01*
X154642455Y-135402024D01*
X153313826Y-131162070D01*
X153057292Y-131758915D01*
X152981518Y-131935216D01*
X152900057Y-132124762D01*
X152817411Y-132317078D01*
X152738082Y-132501687D01*
X152666571Y-132668116D01*
X152611249Y-132796882D01*
X152421741Y-133238005D01*
X149389628Y-133238005D01*
X149410013Y-133190706D01*
X149520063Y-132935329D01*
X149632973Y-132673272D01*
X149746458Y-132409831D01*
X149858237Y-132150307D01*
X149966029Y-131899999D01*
X150067550Y-131664205D01*
X150160521Y-131448225D01*
X150242658Y-131257357D01*
X150311681Y-131096900D01*
X150340327Y-131030278D01*
X150419181Y-130846913D01*
X150500620Y-130657660D01*
X150581289Y-130470307D01*
X150657833Y-130292641D01*
X150726898Y-130132448D01*
X150785128Y-129997516D01*
X150816908Y-129923972D01*
X150874198Y-129790211D01*
X150915631Y-129689859D01*
X150942741Y-129618372D01*
X150957058Y-129571205D01*
X150960117Y-129543815D01*
X150953449Y-129531656D01*
X150949651Y-129530270D01*
X150922981Y-129530427D01*
X150858549Y-129533587D01*
X150760212Y-129539488D01*
X150631830Y-129547865D01*
X150477261Y-129558455D01*
X150300360Y-129570999D01*
X150104987Y-129585231D01*
X149895000Y-129600889D01*
X149743032Y-129612431D01*
X148570675Y-129702131D01*
X148329171Y-130267055D01*
X148262977Y-130421712D01*
X148184095Y-130605713D01*
X148096383Y-130810075D01*
X148003701Y-131025813D01*
X147909908Y-131243942D01*
X147818863Y-131455482D01*
X147750250Y-131614742D01*
X147659103Y-131826221D01*
X147557622Y-132061730D01*
X147450606Y-132310128D01*
X147342854Y-132560276D01*
X147239166Y-132801030D01*
X147144340Y-133021254D01*
X147093856Y-133138522D01*
X147025038Y-133298373D01*
X146942464Y-133490142D01*
X146848900Y-133707409D01*
X146747110Y-133943752D01*
X146639863Y-134192751D01*
X146529921Y-134447985D01*
X146420052Y-134703031D01*
X146313019Y-134951470D01*
X146248746Y-135100650D01*
X145722612Y-136321762D01*
X142269299Y-136321762D01*
X142136549Y-135907202D01*
X141953200Y-135334700D01*
X141760511Y-134733189D01*
X141570988Y-134141814D01*
X141385032Y-133561813D01*
X141203041Y-132994423D01*
X141025413Y-132440880D01*
X140852548Y-131902421D01*
X140684843Y-131380283D01*
X140522698Y-130875702D01*
X140366511Y-130389916D01*
X140216681Y-129924162D01*
X140073606Y-129479675D01*
X139937685Y-129057692D01*
X139809317Y-128659452D01*
X139688901Y-128286190D01*
X139576834Y-127939141D01*
X139473517Y-127619545D01*
X139379346Y-127328637D01*
X139294722Y-127067655D01*
X139220042Y-126837834D01*
X139155705Y-126640412D01*
X139102111Y-126476626D01*
X139059656Y-126347712D01*
X139028741Y-126254906D01*
X139009764Y-126199446D01*
X139003152Y-126182482D01*
X138991879Y-126209055D01*
X138972068Y-126270441D01*
X138945300Y-126360947D01*
X138913155Y-126474884D01*
X138877213Y-126606562D01*
X138839056Y-126750289D01*
X138800263Y-126900376D01*
X138766914Y-127032965D01*
X138633262Y-127613540D01*
X138512624Y-128223817D01*
X138463672Y-128502317D01*
X138437773Y-128657536D01*
X138418824Y-128777551D01*
X138406249Y-128868224D01*
X138399473Y-128935413D01*
X138397919Y-128984978D01*
X135826556Y-128984978D01*
X135864389Y-128713297D01*
X136028901Y-127767397D01*
X136234446Y-126822069D01*
X136480352Y-125879715D01*
X136765942Y-124942740D01*
X137090544Y-124013541D01*
X137417190Y-123181766D01*
X137459684Y-123079407D01*
X137498813Y-122985782D01*
X137530606Y-122910355D01*
X137551089Y-122862585D01*
X137553015Y-122858224D01*
X137579045Y-122799836D01*
X137611258Y-122727695D01*
X137622890Y-122701672D01*
X137655794Y-122627817D01*
X137694658Y-122540217D01*
X137717465Y-122488644D01*
X137816766Y-122269766D01*
X137932834Y-122024217D01*
X138061068Y-121761191D01*
X138169416Y-121544726D01*
X140989505Y-121544726D01*
X143300338Y-128760024D01*
X143471112Y-129293085D01*
X143638686Y-129815840D01*
X143802609Y-130326894D01*
X143962431Y-130824855D01*
X144117703Y-131308328D01*
X144267975Y-131775921D01*
X144412796Y-132226238D01*
X144551716Y-132657887D01*
X144684287Y-133069475D01*
X144810057Y-133459607D01*
X144928577Y-133826892D01*
X145039396Y-134169933D01*
X145142065Y-134487338D01*
X145236134Y-134777715D01*
X145321153Y-135039669D01*
X145396672Y-135271807D01*
X145462241Y-135472733D01*
X145517409Y-135641057D01*
X145561729Y-135775384D01*
X145594748Y-135874320D01*
X145616018Y-135936472D01*
X145625086Y-135960446D01*
X145625356Y-135960678D01*
X145637541Y-135937869D01*
X145663413Y-135882589D01*
X145700303Y-135800780D01*
X145745542Y-135698380D01*
X145796457Y-135581331D01*
X145810208Y-135549435D01*
X145861917Y-135429272D01*
X145926440Y-135279332D01*
X146000089Y-135108185D01*
X146079176Y-134924402D01*
X146160012Y-134736554D01*
X146238911Y-134553210D01*
X146268317Y-134484876D01*
X146325936Y-134351010D01*
X146397883Y-134183907D01*
X146481957Y-133988670D01*
X146575962Y-133770400D01*
X146677701Y-133534200D01*
X146784976Y-133285169D01*
X146895591Y-133028412D01*
X147007345Y-132769029D01*
X147118044Y-132512122D01*
X147176429Y-132376632D01*
X147338053Y-132001550D01*
X147483916Y-131662980D01*
X147614796Y-131359100D01*
X147731471Y-131088092D01*
X147834720Y-130848136D01*
X147925319Y-130637411D01*
X148004050Y-130454097D01*
X148071687Y-130296375D01*
X148129011Y-130162424D01*
X148176799Y-130050424D01*
X148215828Y-129958555D01*
X148246879Y-129884999D01*
X148270728Y-129827933D01*
X148288155Y-129785539D01*
X148299936Y-129755995D01*
X148306851Y-129737483D01*
X148309677Y-129728182D01*
X148309662Y-129726192D01*
X148288246Y-129726773D01*
X148230185Y-129730271D01*
X148140452Y-129736336D01*
X148024021Y-129744616D01*
X147885865Y-129754761D01*
X147730959Y-129766421D01*
X147635983Y-129773694D01*
X146968024Y-129825159D01*
X145882592Y-129271822D01*
X145644656Y-129150265D01*
X145441649Y-129045930D01*
X145271111Y-128957475D01*
X145130579Y-128883553D01*
X145017593Y-128822819D01*
X144929690Y-128773928D01*
X144864412Y-128735534D01*
X144819295Y-128706294D01*
X144791879Y-128684860D01*
X144779703Y-128669890D01*
X144779266Y-128668801D01*
X144778878Y-128642876D01*
X144781439Y-128575959D01*
X144782541Y-128554347D01*
X145006182Y-128554347D01*
X145006572Y-128564378D01*
X145029413Y-128578298D01*
X145084646Y-128608186D01*
X145167987Y-128651890D01*
X145275155Y-128707260D01*
X145401869Y-128772146D01*
X145543845Y-128844396D01*
X145696804Y-128921862D01*
X145856464Y-129002392D01*
X146018542Y-129083835D01*
X146178759Y-129164043D01*
X146332831Y-129240863D01*
X146476477Y-129312144D01*
X146605417Y-129375738D01*
X146715368Y-129429494D01*
X146802049Y-129471260D01*
X146861178Y-129498887D01*
X146888473Y-129510225D01*
X146889821Y-129510262D01*
X146891641Y-129488588D01*
X146896243Y-129426739D01*
X146903522Y-129326185D01*
X146913377Y-129188397D01*
X146925703Y-129014849D01*
X146940397Y-128807010D01*
X146957360Y-128566354D01*
X146976484Y-128294351D01*
X146997669Y-127992471D01*
X147020812Y-127662189D01*
X147045809Y-127304975D01*
X147072559Y-126922298D01*
X147085960Y-126730386D01*
X149714432Y-126730386D01*
X149725360Y-126746254D01*
X149757366Y-126742877D01*
X149782480Y-126740347D01*
X149847370Y-126734784D01*
X149950185Y-126726330D01*
X150089073Y-126715132D01*
X150262185Y-126701332D01*
X150467669Y-126685077D01*
X150703676Y-126666508D01*
X150968355Y-126645771D01*
X151259854Y-126623011D01*
X151576322Y-126598372D01*
X151915909Y-126571998D01*
X152276766Y-126544034D01*
X152657039Y-126514623D01*
X153054880Y-126483910D01*
X153468438Y-126452040D01*
X153895861Y-126419157D01*
X154335299Y-126385404D01*
X154654754Y-126360903D01*
X155100916Y-126326656D01*
X155536004Y-126293171D01*
X155958189Y-126260591D01*
X156365647Y-126229062D01*
X156756551Y-126198724D01*
X157129075Y-126169725D01*
X157481394Y-126142207D01*
X157811682Y-126116315D01*
X158118114Y-126092191D01*
X158398863Y-126069981D01*
X158652103Y-126049828D01*
X158876008Y-126031877D01*
X159068755Y-126016270D01*
X159228514Y-126003153D01*
X159353462Y-125992669D01*
X159441772Y-125984962D01*
X159491619Y-125980177D01*
X159502671Y-125978607D01*
X159484648Y-125967291D01*
X159433037Y-125939108D01*
X159351532Y-125895977D01*
X159243829Y-125839815D01*
X159113621Y-125772542D01*
X158964604Y-125696074D01*
X158800472Y-125612331D01*
X158652078Y-125536986D01*
X157801475Y-125106035D01*
X153806870Y-125414807D01*
X153256807Y-125457437D01*
X152748170Y-125497089D01*
X152280748Y-125533781D01*
X151854326Y-125567531D01*
X151468691Y-125598356D01*
X151123632Y-125626273D01*
X150818934Y-125651301D01*
X150554385Y-125673458D01*
X150329771Y-125692760D01*
X150144881Y-125709225D01*
X149999500Y-125722873D01*
X149893416Y-125733719D01*
X149826416Y-125741782D01*
X149798286Y-125747079D01*
X149797350Y-125747712D01*
X149791603Y-125775110D01*
X149784239Y-125837510D01*
X149775868Y-125928227D01*
X149767093Y-126040577D01*
X149758521Y-126167873D01*
X149756936Y-126193668D01*
X149748521Y-126326755D01*
X149740058Y-126449666D01*
X149732127Y-126554775D01*
X149725308Y-126634458D01*
X149720179Y-126681088D01*
X149719661Y-126684359D01*
X149714432Y-126730386D01*
X147085960Y-126730386D01*
X147100956Y-126515634D01*
X147130900Y-126086452D01*
X147162286Y-125636224D01*
X147172366Y-125491536D01*
X149805166Y-125491536D01*
X149825815Y-125490282D01*
X149886080Y-125485963D01*
X149983955Y-125478733D01*
X150117431Y-125468743D01*
X150284503Y-125456149D01*
X150483162Y-125441102D01*
X150711401Y-125423756D01*
X150967216Y-125404263D01*
X151248597Y-125382778D01*
X151553538Y-125359452D01*
X151880031Y-125334441D01*
X152226070Y-125307895D01*
X152589646Y-125279969D01*
X152968755Y-125250814D01*
X153361389Y-125220587D01*
X153765540Y-125189438D01*
X153822193Y-125185069D01*
X154353133Y-125144234D01*
X154848992Y-125106332D01*
X155309274Y-125071398D01*
X155733488Y-125039470D01*
X156121138Y-125010580D01*
X156471732Y-124984766D01*
X156784775Y-124962062D01*
X157059775Y-124942504D01*
X157296235Y-124926127D01*
X157493665Y-124912967D01*
X157651569Y-124903058D01*
X157769455Y-124896437D01*
X157846828Y-124893138D01*
X157883194Y-124893198D01*
X157885640Y-124893666D01*
X157922484Y-124910133D01*
X157990900Y-124943153D01*
X158086786Y-124990615D01*
X158206039Y-125050405D01*
X158344557Y-125120413D01*
X158498238Y-125198526D01*
X158662978Y-125282632D01*
X158834677Y-125370618D01*
X159009231Y-125460372D01*
X159182538Y-125549783D01*
X159350495Y-125636738D01*
X159509002Y-125719125D01*
X159653954Y-125794833D01*
X159781250Y-125861749D01*
X159886787Y-125917760D01*
X159966463Y-125960755D01*
X160016176Y-125988621D01*
X160031473Y-125998458D01*
X160039062Y-126007095D01*
X160045247Y-126019019D01*
X160049909Y-126037303D01*
X160052922Y-126065017D01*
X160054167Y-126105234D01*
X160053518Y-126161023D01*
X160050853Y-126235458D01*
X160046050Y-126331608D01*
X160038987Y-126452548D01*
X160029539Y-126601347D01*
X160017584Y-126781076D01*
X160003001Y-126994808D01*
X159985666Y-127245615D01*
X159976173Y-127382355D01*
X159959617Y-127616405D01*
X159943313Y-127838825D01*
X159927563Y-128046001D01*
X159912668Y-128234321D01*
X159898930Y-128400171D01*
X159886651Y-128539937D01*
X159876131Y-128650009D01*
X159867674Y-128726772D01*
X159861580Y-128766614D01*
X159860217Y-128770907D01*
X159828592Y-128810063D01*
X159805771Y-128825052D01*
X159780741Y-128828408D01*
X159717023Y-128834700D01*
X159617562Y-128843686D01*
X159485296Y-128855124D01*
X159323166Y-128868770D01*
X159134112Y-128884383D01*
X158921076Y-128901720D01*
X158686998Y-128920540D01*
X158434819Y-128940599D01*
X158167478Y-128961655D01*
X157887918Y-128983466D01*
X157821699Y-128988603D01*
X157454478Y-129017291D01*
X157124277Y-129043576D01*
X156831617Y-129067412D01*
X156577020Y-129088752D01*
X156361003Y-129107550D01*
X156184087Y-129123759D01*
X156046793Y-129137335D01*
X155949641Y-129148229D01*
X155893150Y-129156396D01*
X155877511Y-129161405D01*
X155884550Y-129183482D01*
X155903363Y-129243178D01*
X155933255Y-129338271D01*
X155973529Y-129466539D01*
X156023489Y-129625759D01*
X156082437Y-129813710D01*
X156149678Y-130028169D01*
X156224515Y-130266916D01*
X156306250Y-130527727D01*
X156394187Y-130808380D01*
X156487631Y-131106653D01*
X156585884Y-131420325D01*
X156688250Y-131747174D01*
X156794031Y-132084976D01*
X156801663Y-132109351D01*
X156907574Y-132447211D01*
X157010200Y-132773839D01*
X157108842Y-133087049D01*
X157202801Y-133384652D01*
X157291380Y-133664465D01*
X157373880Y-133924296D01*
X157449602Y-134161961D01*
X157517849Y-134375272D01*
X157577923Y-134562042D01*
X157629123Y-134720083D01*
X157670753Y-134847210D01*
X157702114Y-134941234D01*
X157722509Y-134999969D01*
X157731236Y-135021228D01*
X157731423Y-135021232D01*
X157743850Y-134998027D01*
X157769581Y-134943185D01*
X157805549Y-134863471D01*
X157848688Y-134765650D01*
X157879961Y-134693613D01*
X157923460Y-134593080D01*
X157981336Y-134459758D01*
X158051210Y-134299095D01*
X158130704Y-134116539D01*
X158217439Y-133917539D01*
X158309036Y-133707543D01*
X158403119Y-133492001D01*
X158497309Y-133276359D01*
X158589227Y-133066067D01*
X158676496Y-132866573D01*
X158756737Y-132683325D01*
X158827572Y-132521773D01*
X158886622Y-132387363D01*
X158886751Y-132387069D01*
X158937039Y-132272520D01*
X158999807Y-132129151D01*
X159070914Y-131966436D01*
X159146225Y-131793855D01*
X159221599Y-131620882D01*
X159283306Y-131479063D01*
X159355427Y-131313330D01*
X159431046Y-131139840D01*
X159506025Y-130968071D01*
X159576224Y-130807496D01*
X159637503Y-130667595D01*
X159679906Y-130571056D01*
X159730207Y-130456507D01*
X159792985Y-130313137D01*
X159864103Y-130150422D01*
X159939421Y-129977840D01*
X160014800Y-129804866D01*
X160076506Y-129663050D01*
X160148627Y-129497318D01*
X160224247Y-129323829D01*
X160299226Y-129152059D01*
X160369424Y-128991485D01*
X160430703Y-128851583D01*
X160473107Y-128755044D01*
X160523407Y-128640496D01*
X160586186Y-128497126D01*
X160657304Y-128334411D01*
X160732622Y-128161829D01*
X160808001Y-127988856D01*
X160869707Y-127847040D01*
X160941828Y-127681308D01*
X161017448Y-127507818D01*
X161092427Y-127336047D01*
X161162625Y-127175473D01*
X161223904Y-127035572D01*
X161266307Y-126939034D01*
X161316608Y-126824484D01*
X161379387Y-126681113D01*
X161450505Y-126518399D01*
X161525822Y-126345817D01*
X161601201Y-126172843D01*
X161662907Y-126031027D01*
X161735029Y-125865295D01*
X161810649Y-125691805D01*
X161885627Y-125520036D01*
X161955826Y-125359461D01*
X162017104Y-125219560D01*
X162059508Y-125123021D01*
X162109808Y-125008472D01*
X162172587Y-124865101D01*
X162243705Y-124702387D01*
X162319023Y-124529804D01*
X162394402Y-124356831D01*
X162456108Y-124215015D01*
X162528229Y-124049283D01*
X162603849Y-123875794D01*
X162678828Y-123704023D01*
X162749026Y-123543450D01*
X162810305Y-123403548D01*
X162852708Y-123307009D01*
X162903009Y-123192460D01*
X162965788Y-123049089D01*
X163036906Y-122886374D01*
X163112224Y-122713793D01*
X163187602Y-122540820D01*
X163249309Y-122399003D01*
X163321430Y-122233270D01*
X163397050Y-122059781D01*
X163472029Y-121888011D01*
X163542227Y-121727437D01*
X163603507Y-121587535D01*
X163645909Y-121490997D01*
X163696210Y-121376447D01*
X163758987Y-121233075D01*
X163830103Y-121070360D01*
X163905419Y-120897776D01*
X163980795Y-120724803D01*
X164042496Y-120582991D01*
X164113916Y-120418847D01*
X164188194Y-120248386D01*
X164261345Y-120080736D01*
X164329385Y-119925023D01*
X164388326Y-119790377D01*
X164429816Y-119695858D01*
X164544902Y-119433941D01*
X164643934Y-119207940D01*
X164727855Y-119015642D01*
X164797611Y-118854835D01*
X164854146Y-118723304D01*
X164898404Y-118618839D01*
X164931330Y-118539223D01*
X164953869Y-118482246D01*
X164966965Y-118445693D01*
X164971563Y-118427354D01*
X164971592Y-118426535D01*
X164961845Y-118396055D01*
X164934535Y-118334748D01*
X164892557Y-118248176D01*
X164838807Y-118141905D01*
X164776179Y-118021497D01*
X164707570Y-117892515D01*
X164635875Y-117760523D01*
X164563989Y-117631085D01*
X164494808Y-117509764D01*
X164491535Y-117504120D01*
X164377911Y-117314465D01*
X164244978Y-117102764D01*
X164099675Y-116879433D01*
X163948938Y-116654891D01*
X163799708Y-116439553D01*
X163658924Y-116243838D01*
X163594754Y-116157766D01*
X163214800Y-115675919D01*
X162828480Y-115228195D01*
X162428329Y-114806979D01*
X162006883Y-114404661D01*
X161556679Y-114013631D01*
X161245715Y-113762401D01*
X161113888Y-113658700D01*
X161505253Y-113658700D01*
X161529371Y-113685061D01*
X161581510Y-113732214D01*
X161662965Y-113801920D01*
X161775031Y-113895934D01*
X161809226Y-113924479D01*
X161932975Y-114031841D01*
X162078420Y-114164862D01*
X162239805Y-114317752D01*
X162411375Y-114484715D01*
X162587374Y-114659961D01*
X162762047Y-114837695D01*
X162929637Y-115012126D01*
X163084391Y-115177460D01*
X163220552Y-115327905D01*
X163331410Y-115456520D01*
X163771203Y-116012268D01*
X164182844Y-116588191D01*
X164562570Y-117178554D01*
X164906609Y-117777621D01*
X165096834Y-118143860D01*
X165190766Y-118332276D01*
X166067462Y-118780693D01*
X166244200Y-118870928D01*
X166409299Y-118954904D01*
X166559103Y-119030784D01*
X166689959Y-119096732D01*
X166798210Y-119150913D01*
X166880204Y-119191489D01*
X166932286Y-119216625D01*
X166950778Y-119224512D01*
X166945727Y-119205110D01*
X166925910Y-119159343D01*
X166901149Y-119108252D01*
X166743620Y-118811873D01*
X166560227Y-118495156D01*
X166356071Y-118165759D01*
X166136257Y-117831339D01*
X165905889Y-117499554D01*
X165670070Y-117178061D01*
X165433904Y-116874519D01*
X165317556Y-116732197D01*
X164891375Y-116246876D01*
X164437387Y-115780472D01*
X163959896Y-115336525D01*
X163463206Y-114918575D01*
X162951619Y-114530163D01*
X162429442Y-114174830D01*
X161900978Y-113856115D01*
X161663110Y-113726031D01*
X161588084Y-113686798D01*
X161535904Y-113661326D01*
X161507862Y-113651374D01*
X161505253Y-113658700D01*
X161113888Y-113658700D01*
X161053472Y-113611174D01*
X161423063Y-113611174D01*
X161433500Y-113621612D01*
X161443936Y-113611174D01*
X161433500Y-113600737D01*
X161423063Y-113611174D01*
X161053472Y-113611174D01*
X160953561Y-113532579D01*
X160938633Y-113592751D01*
X160934290Y-113625324D01*
X160927665Y-113695187D01*
X160919094Y-113797963D01*
X160908903Y-113929275D01*
X160897426Y-114084747D01*
X160884993Y-114260001D01*
X160871936Y-114450663D01*
X160859100Y-114644422D01*
X160845697Y-114845163D01*
X160832453Y-115034198D01*
X160819713Y-115207230D01*
X160807822Y-115359965D01*
X160797127Y-115488105D01*
X160787972Y-115587354D01*
X160780700Y-115653416D01*
X160775760Y-115681763D01*
X160738441Y-115722690D01*
X160677788Y-115748635D01*
X160650065Y-115752106D01*
X160582534Y-115758595D01*
X160477017Y-115767955D01*
X160335334Y-115780043D01*
X160159304Y-115794715D01*
X159950750Y-115811823D01*
X159711491Y-115831226D01*
X159443346Y-115852777D01*
X159148139Y-115876332D01*
X158827687Y-115901746D01*
X158483812Y-115928875D01*
X158118334Y-115957573D01*
X157733074Y-115987696D01*
X157329852Y-116019099D01*
X156910489Y-116051638D01*
X156476804Y-116085168D01*
X156030619Y-116119542D01*
X155573754Y-116154619D01*
X155515805Y-116159060D01*
X155058790Y-116194084D01*
X154612780Y-116228289D01*
X154179561Y-116261537D01*
X153760916Y-116293690D01*
X153358631Y-116324609D01*
X152974491Y-116354158D01*
X152610280Y-116382199D01*
X152267786Y-116408593D01*
X151948788Y-116433204D01*
X151655075Y-116455892D01*
X151388431Y-116476521D01*
X151150642Y-116494952D01*
X150943491Y-116511048D01*
X150768763Y-116524671D01*
X150628244Y-116535683D01*
X150523719Y-116543946D01*
X150456972Y-116549323D01*
X150429786Y-116551676D01*
X150429229Y-116551761D01*
X150426427Y-116573157D01*
X150421288Y-116631689D01*
X150414114Y-116722849D01*
X150405209Y-116842124D01*
X150394876Y-116985005D01*
X150383416Y-117146981D01*
X150371134Y-117323542D01*
X150358332Y-117510178D01*
X150345312Y-117702377D01*
X150332379Y-117895630D01*
X150319834Y-118085426D01*
X150307980Y-118267254D01*
X150297121Y-118436605D01*
X150287558Y-118588968D01*
X150279595Y-118719831D01*
X150273535Y-118824686D01*
X150269680Y-118899021D01*
X150268334Y-118938326D01*
X150268648Y-118943411D01*
X150290288Y-118943120D01*
X150350855Y-118939799D01*
X150447654Y-118933640D01*
X150577988Y-118924836D01*
X150739163Y-118913585D01*
X150928484Y-118900077D01*
X151143254Y-118884507D01*
X151380779Y-118867071D01*
X151638363Y-118847961D01*
X151913309Y-118827372D01*
X152202924Y-118805497D01*
X152504510Y-118782533D01*
X152526392Y-118780859D01*
X152830170Y-118757677D01*
X153123140Y-118735428D01*
X153402507Y-118714318D01*
X153665480Y-118694555D01*
X153909265Y-118676343D01*
X154131072Y-118659890D01*
X154328107Y-118645402D01*
X154497577Y-118633083D01*
X154636691Y-118623142D01*
X154742657Y-118615784D01*
X154812682Y-118611217D01*
X154843973Y-118609644D01*
X154844333Y-118609646D01*
X154877781Y-118619131D01*
X154943503Y-118645858D01*
X155037449Y-118687774D01*
X155155571Y-118742826D01*
X155293822Y-118808958D01*
X155448156Y-118884118D01*
X155614522Y-118966252D01*
X155788876Y-119053306D01*
X155967168Y-119143225D01*
X156145351Y-119233958D01*
X156319378Y-119323449D01*
X156485200Y-119409645D01*
X156638771Y-119490493D01*
X156776042Y-119563938D01*
X156892966Y-119627927D01*
X156985495Y-119680405D01*
X157049582Y-119719320D01*
X157081179Y-119742617D01*
X157083554Y-119745820D01*
X157085194Y-119773047D01*
X157083987Y-119837598D01*
X157080220Y-119935169D01*
X157074178Y-120061454D01*
X157066143Y-120212149D01*
X157056402Y-120382949D01*
X157045240Y-120569548D01*
X157032939Y-120767640D01*
X157019786Y-120972921D01*
X157006066Y-121181086D01*
X156992062Y-121387830D01*
X156978059Y-121588848D01*
X156964343Y-121779834D01*
X156951198Y-121956483D01*
X156938908Y-122114491D01*
X156927759Y-122249551D01*
X156918034Y-122357360D01*
X156910018Y-122433612D01*
X156903998Y-122474001D01*
X156902890Y-122477859D01*
X156873658Y-122517075D01*
X156844048Y-122538958D01*
X156817930Y-122543489D01*
X156751845Y-122550974D01*
X156647461Y-122561277D01*
X156506441Y-122574258D01*
X156330454Y-122589779D01*
X156121164Y-122607702D01*
X155880237Y-122627890D01*
X155609341Y-122650203D01*
X155310141Y-122674504D01*
X154984302Y-122700655D01*
X154633492Y-122728518D01*
X154259374Y-122757952D01*
X153863618Y-122788823D01*
X153447888Y-122820990D01*
X153386687Y-122825704D01*
X149973838Y-123088459D01*
X149967480Y-123171642D01*
X149962954Y-123232554D01*
X149956213Y-123325601D01*
X149947574Y-123446242D01*
X149937354Y-123589936D01*
X149925871Y-123752144D01*
X149913442Y-123928326D01*
X149900386Y-124113942D01*
X149887021Y-124304451D01*
X149873663Y-124495313D01*
X149860631Y-124681989D01*
X149848241Y-124859939D01*
X149836812Y-125024621D01*
X149826662Y-125171496D01*
X149818107Y-125296025D01*
X149811466Y-125393666D01*
X149807057Y-125459879D01*
X149805196Y-125490126D01*
X149805166Y-125491536D01*
X147172366Y-125491536D01*
X147195013Y-125166422D01*
X147228977Y-124678516D01*
X147264075Y-124173980D01*
X147300203Y-123654284D01*
X147337261Y-123120899D01*
X147375144Y-122575299D01*
X147413749Y-122018952D01*
X147416282Y-121982448D01*
X147454895Y-121425555D01*
X147492731Y-120879354D01*
X147529691Y-120345315D01*
X147543586Y-120144356D01*
X150173417Y-120144356D01*
X150175726Y-120180338D01*
X150188535Y-120194548D01*
X150209098Y-120196828D01*
X150234445Y-120195251D01*
X150299099Y-120190640D01*
X150400739Y-120183170D01*
X150537050Y-120173017D01*
X150705712Y-120160357D01*
X150904408Y-120145365D01*
X151130820Y-120128218D01*
X151382630Y-120109090D01*
X151657519Y-120088160D01*
X151953169Y-120065601D01*
X152267265Y-120041590D01*
X152597484Y-120016304D01*
X152941512Y-119989917D01*
X153297031Y-119962605D01*
X153368941Y-119957076D01*
X153726435Y-119929567D01*
X154072878Y-119902877D01*
X154405951Y-119877187D01*
X154723338Y-119852676D01*
X155022725Y-119829523D01*
X155301795Y-119807911D01*
X155558230Y-119788017D01*
X155789717Y-119770022D01*
X155993938Y-119754106D01*
X156168577Y-119740448D01*
X156311319Y-119729229D01*
X156419846Y-119720628D01*
X156491844Y-119714825D01*
X156524995Y-119712001D01*
X156526759Y-119711810D01*
X156517108Y-119701580D01*
X156473632Y-119674445D01*
X156399788Y-119632281D01*
X156299035Y-119576961D01*
X156174830Y-119510365D01*
X156030630Y-119434367D01*
X155869896Y-119350843D01*
X155712684Y-119270140D01*
X154858284Y-118833984D01*
X152562176Y-119007376D01*
X152256468Y-119030562D01*
X151962456Y-119053057D01*
X151682814Y-119074645D01*
X151420217Y-119095111D01*
X151177338Y-119114241D01*
X150956853Y-119131819D01*
X150761433Y-119147629D01*
X150593753Y-119161460D01*
X150456489Y-119173093D01*
X150352313Y-119182315D01*
X150283900Y-119188911D01*
X150253923Y-119192665D01*
X150252784Y-119193048D01*
X150247260Y-119216866D01*
X150240049Y-119275506D01*
X150231806Y-119362106D01*
X150223193Y-119469806D01*
X150215542Y-119581053D01*
X150206926Y-119711980D01*
X150198172Y-119837588D01*
X150189991Y-119948199D01*
X150183094Y-120034132D01*
X150179166Y-120076804D01*
X150173417Y-120144356D01*
X147543586Y-120144356D01*
X147565674Y-119824907D01*
X147600579Y-119319600D01*
X147634306Y-118830862D01*
X147666753Y-118360164D01*
X147697821Y-117908973D01*
X147727408Y-117478760D01*
X147755413Y-117070992D01*
X147781737Y-116687142D01*
X147806278Y-116328675D01*
X147828936Y-115997064D01*
X147849610Y-115693775D01*
X147868200Y-115420280D01*
X147884603Y-115178047D01*
X147898722Y-114968544D01*
X147910454Y-114793243D01*
X147919698Y-114653612D01*
X147926354Y-114551118D01*
X147930322Y-114487234D01*
X147931501Y-114463427D01*
X147931477Y-114463300D01*
X147911920Y-114471300D01*
X147862408Y-114499079D01*
X147787901Y-114543523D01*
X147693353Y-114601516D01*
X147583719Y-114669941D01*
X147463958Y-114745686D01*
X147339022Y-114825632D01*
X147213871Y-114906665D01*
X147093459Y-114985670D01*
X146982743Y-115059531D01*
X146979160Y-115061946D01*
X146877246Y-115131786D01*
X146761201Y-115213126D01*
X146635973Y-115302318D01*
X146506508Y-115395718D01*
X146377752Y-115489678D01*
X146254654Y-115580551D01*
X146142160Y-115664693D01*
X146045216Y-115738455D01*
X145968771Y-115798192D01*
X145917769Y-115840256D01*
X145899157Y-115858053D01*
X145895921Y-115880752D01*
X145889978Y-115943109D01*
X145881465Y-116043173D01*
X145870519Y-116178991D01*
X145857277Y-116348611D01*
X145841876Y-116550083D01*
X145824454Y-116781456D01*
X145805147Y-117040778D01*
X145784093Y-117326098D01*
X145761428Y-117635462D01*
X145737291Y-117966923D01*
X145711817Y-118318526D01*
X145685143Y-118688322D01*
X145657409Y-119074358D01*
X145628749Y-119474682D01*
X145599300Y-119887345D01*
X145569202Y-120310394D01*
X145538590Y-120741879D01*
X145507600Y-121179847D01*
X145476371Y-121622346D01*
X145445040Y-122067427D01*
X145413744Y-122513137D01*
X145382619Y-122957525D01*
X145351803Y-123398639D01*
X145321432Y-123834529D01*
X145291645Y-124263243D01*
X145262578Y-124682828D01*
X145234367Y-125091335D01*
X145207151Y-125486811D01*
X145181067Y-125867305D01*
X145156250Y-126230867D01*
X145132839Y-126575544D01*
X145110970Y-126899384D01*
X145090781Y-127200437D01*
X145072409Y-127476752D01*
X145055990Y-127726376D01*
X145041662Y-127947358D01*
X145029562Y-128137747D01*
X145019827Y-128295593D01*
X145012594Y-128418942D01*
X145008000Y-128505844D01*
X145006182Y-128554347D01*
X144782541Y-128554347D01*
X144786906Y-128468699D01*
X144795238Y-128321742D01*
X144806391Y-128135739D01*
X144820321Y-127911337D01*
X144836988Y-127649183D01*
X144856348Y-127349927D01*
X144878358Y-127014217D01*
X144902975Y-126642699D01*
X144930157Y-126236024D01*
X144959860Y-125794839D01*
X144992043Y-125319792D01*
X145026662Y-124811531D01*
X145063675Y-124270706D01*
X145103039Y-123697963D01*
X145144711Y-123093950D01*
X145188648Y-122459318D01*
X145192658Y-122401502D01*
X145227773Y-121894782D01*
X145262093Y-121398616D01*
X145295506Y-120914634D01*
X145327901Y-120444471D01*
X145359167Y-119989754D01*
X145389196Y-119552119D01*
X145417874Y-119133193D01*
X145445094Y-118734611D01*
X145470743Y-118358003D01*
X145494710Y-118004999D01*
X145516887Y-117677233D01*
X145537161Y-117376334D01*
X145555423Y-117103935D01*
X145571561Y-116861666D01*
X145585467Y-116651161D01*
X145597027Y-116474048D01*
X145606133Y-116331962D01*
X145612673Y-116226531D01*
X145616536Y-116159388D01*
X145617615Y-116132164D01*
X145617589Y-116131842D01*
X145613145Y-116114427D01*
X145602221Y-116108528D01*
X145580299Y-116117047D01*
X145542858Y-116142888D01*
X145485378Y-116188952D01*
X145403341Y-116258145D01*
X145350313Y-116303511D01*
X144832861Y-116763808D01*
X144321518Y-117251201D01*
X143824851Y-117756945D01*
X143351430Y-118272301D01*
X142909823Y-118788525D01*
X142884666Y-118819163D01*
X142400183Y-119435103D01*
X141931047Y-120080148D01*
X141485800Y-120742212D01*
X141179839Y-121230848D01*
X140989505Y-121544726D01*
X138169416Y-121544726D01*
X138196868Y-121489881D01*
X138335638Y-121219482D01*
X138472777Y-120959188D01*
X138597654Y-120729107D01*
X138777628Y-120410904D01*
X138976241Y-120073683D01*
X139188152Y-119725854D01*
X139408017Y-119375826D01*
X139630494Y-119032009D01*
X139850239Y-118702811D01*
X140061910Y-118396644D01*
X140215569Y-118182515D01*
X140817522Y-117392618D01*
X141444599Y-116634578D01*
X142096123Y-115909083D01*
X142771419Y-115216819D01*
X143469811Y-114558472D01*
X144190623Y-113934729D01*
X144425135Y-113748886D01*
X149264132Y-113748886D01*
X149389374Y-113737086D01*
X149421222Y-113734441D01*
X149492864Y-113728737D01*
X149602471Y-113720116D01*
X149748214Y-113708719D01*
X149928262Y-113694688D01*
X150140787Y-113678165D01*
X150383957Y-113659290D01*
X150655945Y-113638207D01*
X150954920Y-113615056D01*
X151279051Y-113589978D01*
X151626510Y-113563117D01*
X151995466Y-113534612D01*
X152384091Y-113504607D01*
X152790553Y-113473241D01*
X153213025Y-113440658D01*
X153649676Y-113406999D01*
X154098676Y-113372404D01*
X154558196Y-113337016D01*
X154661897Y-113329032D01*
X155122037Y-113293611D01*
X155571292Y-113259027D01*
X156007881Y-113225420D01*
X156430026Y-113192925D01*
X156835945Y-113161680D01*
X157223858Y-113131823D01*
X157591984Y-113103490D01*
X157938543Y-113076818D01*
X158261754Y-113051944D01*
X158559836Y-113029004D01*
X158831011Y-113008138D01*
X159073495Y-112989481D01*
X159285511Y-112973169D01*
X159465276Y-112959340D01*
X159611011Y-112948132D01*
X159720935Y-112939682D01*
X159793268Y-112934125D01*
X159826229Y-112931600D01*
X159828138Y-112931456D01*
X159832197Y-112926744D01*
X159807179Y-112914566D01*
X159750775Y-112894126D01*
X159660671Y-112864629D01*
X159534558Y-112825278D01*
X159404727Y-112785726D01*
X158714933Y-112597361D01*
X158025892Y-112449993D01*
X157334243Y-112343077D01*
X156636624Y-112276066D01*
X156121142Y-112252017D01*
X156003883Y-112249319D01*
X155896499Y-112247907D01*
X155793362Y-112248026D01*
X155688844Y-112249926D01*
X155577316Y-112253855D01*
X155453149Y-112260060D01*
X155310714Y-112268791D01*
X155144385Y-112280292D01*
X154948531Y-112294815D01*
X154717523Y-112312607D01*
X154680857Y-112315465D01*
X154423996Y-112335598D01*
X154204270Y-112353088D01*
X154017186Y-112368427D01*
X153858248Y-112382112D01*
X153722962Y-112394637D01*
X153606836Y-112406497D01*
X153505374Y-112418187D01*
X153414082Y-112430201D01*
X153328466Y-112443036D01*
X153244032Y-112457183D01*
X153156286Y-112473140D01*
X153060734Y-112491401D01*
X153031834Y-112497021D01*
X152366309Y-112642818D01*
X151699002Y-112820386D01*
X151038899Y-113026850D01*
X150394981Y-113259333D01*
X149776235Y-113514956D01*
X149587674Y-113599952D01*
X149264132Y-113748886D01*
X144425135Y-113748886D01*
X144933180Y-113346275D01*
X145099828Y-113221298D01*
X145821709Y-112708013D01*
X146555775Y-112230570D01*
X147300841Y-111789233D01*
X148055725Y-111384263D01*
X148819245Y-111015922D01*
X149590215Y-110684473D01*
X150367454Y-110390178D01*
X151149778Y-110133300D01*
X151627815Y-110000023D01*
X160295882Y-110000023D01*
X160306320Y-110010461D01*
X160316756Y-110000023D01*
X160306320Y-109989587D01*
X160295882Y-110000023D01*
X151627815Y-110000023D01*
X151936004Y-109914101D01*
X152724946Y-109732842D01*
X153515425Y-109589787D01*
X154306256Y-109485197D01*
X155096256Y-109419335D01*
X155884240Y-109392463D01*
X156669026Y-109404844D01*
X157449431Y-109456739D01*
X158224271Y-109548411D01*
X158992363Y-109680123D01*
X159752525Y-109852136D01*
X160002242Y-109918010D01*
X160099870Y-109944030D01*
X160181853Y-109964636D01*
X160240430Y-109977967D01*
X160267840Y-109982164D01*
X160268823Y-109981857D01*
X160253146Y-109971470D01*
X160205277Y-109947053D01*
X160131192Y-109911484D01*
X160036869Y-109867644D01*
X159946690Y-109826675D01*
X159313055Y-109558310D01*
X158677882Y-109323336D01*
X158036080Y-109120442D01*
X157382558Y-108948319D01*
X156712224Y-108805656D01*
X156019987Y-108691143D01*
X155300758Y-108603469D01*
X155129642Y-108586839D01*
X155020200Y-108579159D01*
X154875220Y-108572740D01*
X154700893Y-108567580D01*
X154503410Y-108563679D01*
X154288961Y-108561034D01*
X154063737Y-108559646D01*
X153833927Y-108559513D01*
X153605725Y-108560634D01*
X153385318Y-108563007D01*
X153178899Y-108566632D01*
X152992657Y-108571508D01*
X152832785Y-108577635D01*
X152705471Y-108585010D01*
X152676981Y-108587258D01*
X151828828Y-108680282D01*
X150987419Y-108814440D01*
X150153136Y-108989604D01*
X149326356Y-109205651D01*
X148507457Y-109462454D01*
X147696818Y-109759885D01*
X146894817Y-110097822D01*
X146101834Y-110476137D01*
X145318245Y-110894704D01*
X144765849Y-111217439D01*
X143982401Y-111716034D01*
X143219854Y-112250125D01*
X142479151Y-112818538D01*
X141761232Y-113420098D01*
X141067040Y-114053637D01*
X140397518Y-114717980D01*
X139753608Y-115411953D01*
X139136252Y-116134385D01*
X138546390Y-116884104D01*
X137984967Y-117659936D01*
X137452923Y-118460709D01*
X136951202Y-119285249D01*
X136480743Y-120132386D01*
X136042491Y-121000946D01*
X135637388Y-121889755D01*
X135266374Y-122797643D01*
X135095233Y-123254825D01*
X134805065Y-124107652D01*
X134547339Y-124977110D01*
X134322916Y-125858670D01*
X134132662Y-126747803D01*
X133977438Y-127639981D01*
X133858109Y-128530675D01*
X133775537Y-129415355D01*
X133730585Y-130289495D01*
X133726776Y-130435377D01*
X133719623Y-131028615D01*
X133498236Y-131028615D01*
X133499852Y-130798518D01*
X133503157Y-130537584D01*
X133507870Y-130282028D01*
X133513917Y-130038500D01*
X133521224Y-129813651D01*
X133529717Y-129614134D01*
X133539321Y-129446598D01*
X133544160Y-129381256D01*
X133637776Y-128438563D01*
X133764015Y-127518200D01*
X133923882Y-126615236D01*
X134118380Y-125724743D01*
X134348514Y-124841789D01*
X134615286Y-123961448D01*
X134700428Y-123703609D01*
X135044637Y-122744552D01*
X135425362Y-121805712D01*
X135842572Y-120887152D01*
X136296234Y-119988930D01*
X136786314Y-119111108D01*
X137312779Y-118253746D01*
X137875598Y-117416903D01*
X138474736Y-116600641D01*
X138790772Y-116196670D01*
X139271478Y-115616954D01*
X139785097Y-115038758D01*
X140323437Y-114470533D01*
X140878308Y-113920734D01*
X141441517Y-113397814D01*
X141843531Y-113046160D01*
X142544899Y-112473351D01*
X143263805Y-111934578D01*
X143998847Y-111430476D01*
X144748623Y-110961684D01*
X145511731Y-110528836D01*
X146286771Y-110132571D01*
X147072339Y-109773523D01*
X147867036Y-109452330D01*
X148669459Y-109169628D01*
X149478206Y-108926053D01*
X150291879Y-108722242D01*
X151109071Y-108558831D01*
X151928385Y-108436455D01*
X152019460Y-108425423D01*
X152299238Y-108394097D01*
X152559187Y-108369098D01*
X152808450Y-108349995D01*
X153056168Y-108336357D01*
X153311482Y-108327751D01*
X153583535Y-108323746D01*
X153881468Y-108323910D01*
G37*
%TD*%
D10*
%TO.C,R33*%
X125987250Y-42184550D03*
D11*
X131067250Y-42184550D03*
%TD*%
D12*
%TO.C,LED9*%
X186022110Y-141024110D03*
D13*
X183482110Y-141024110D03*
%TD*%
D12*
%TO.C,LED3*%
X127887250Y-71047110D03*
D13*
X130427250Y-71047110D03*
%TD*%
D14*
%TO.C,U2*%
X118138750Y-33929550D03*
D15*
X118138750Y-31389550D03*
X110518750Y-31389550D03*
X110518750Y-33929550D03*
%TD*%
D16*
%TO.C,K8*%
X197112250Y-82458090D03*
D17*
X197112250Y-84998090D03*
X197112250Y-92618090D03*
X202192250Y-92618090D03*
X202192250Y-84998090D03*
X202192250Y-82458090D03*
%TD*%
D10*
%TO.C,R7*%
X188045750Y-50947550D03*
D11*
X182965750Y-50947550D03*
%TD*%
D14*
%TO.C,U1*%
X103940250Y-33929550D03*
D15*
X103940250Y-31389550D03*
X96320250Y-31389550D03*
X96320250Y-33929550D03*
%TD*%
D14*
%TO.C,U5*%
X160734250Y-33929550D03*
D15*
X160734250Y-31389550D03*
X153114250Y-31389550D03*
X153114250Y-33929550D03*
%TD*%
D10*
%TO.C,R2*%
X117053250Y-50947550D03*
D11*
X111973250Y-50947550D03*
%TD*%
D18*
%TO.C,D6*%
X174932750Y-59921130D03*
D19*
X167312750Y-59921130D03*
%TD*%
D10*
%TO.C,R55*%
X154384250Y-42184550D03*
D11*
X159464250Y-42184550D03*
%TD*%
D10*
%TO.C,R5*%
X159648750Y-50947550D03*
D11*
X154568750Y-50947550D03*
%TD*%
D14*
%TO.C,U8*%
X203329750Y-33929550D03*
D15*
X203329750Y-31389550D03*
X195709750Y-31389550D03*
X195709750Y-33929550D03*
%TD*%
D12*
%TO.C,LED8*%
X198879750Y-71047110D03*
D13*
X201419750Y-71047110D03*
%TD*%
D10*
%TO.C,R3*%
X131251750Y-50947550D03*
D11*
X126171750Y-50947550D03*
%TD*%
D10*
%TO.C,R6*%
X173847250Y-50947550D03*
D11*
X168767250Y-50947550D03*
%TD*%
D18*
%TO.C,D2*%
X118138750Y-59921130D03*
D19*
X110518750Y-59921130D03*
%TD*%
D18*
%TO.C,D1*%
X103940250Y-59921130D03*
D19*
X96320250Y-59921130D03*
%TD*%
D20*
%TO.C,U10*%
X108188750Y-175915550D03*
D21*
X108188750Y-173375550D03*
D20*
X108188750Y-170835550D03*
X108188750Y-168295550D03*
X108188750Y-165755550D03*
X108188750Y-163215550D03*
X108188750Y-160675550D03*
X108188750Y-158135550D03*
X108188750Y-155595550D03*
X108188750Y-153055550D03*
X108188750Y-150515550D03*
X108188750Y-147975550D03*
X108188750Y-145435550D03*
X108188750Y-142895550D03*
X108188750Y-140355550D03*
X108188750Y-137815550D03*
X108188750Y-135275550D03*
X123428750Y-135275550D03*
X123428750Y-137815550D03*
X123428750Y-140355550D03*
X123428750Y-142895550D03*
X123428750Y-145435550D03*
X123428750Y-147975550D03*
X123428750Y-150515550D03*
D21*
X123428750Y-153055550D03*
D20*
X123428750Y-155595550D03*
X123428750Y-158135550D03*
X123428750Y-160675550D03*
X123428750Y-163215550D03*
X123428750Y-165755550D03*
X123428750Y-168295550D03*
X123428750Y-170835550D03*
X123428750Y-173375550D03*
X123428750Y-175915550D03*
%TD*%
D16*
%TO.C,K5*%
X154516750Y-82458090D03*
D17*
X154516750Y-84998090D03*
X154516750Y-92618090D03*
X159596750Y-92618090D03*
X159596750Y-84998090D03*
X159596750Y-82458090D03*
%TD*%
D16*
%TO.C,K6*%
X168715250Y-82458090D03*
D17*
X168715250Y-84998090D03*
X168715250Y-92618090D03*
X173795250Y-92618090D03*
X173795250Y-84998090D03*
X173795250Y-82458090D03*
%TD*%
D18*
%TO.C,D8*%
X203329750Y-59921130D03*
D19*
X195709750Y-59921130D03*
%TD*%
D16*
%TO.C,K4*%
X140318250Y-82458090D03*
D17*
X140318250Y-84998090D03*
X140318250Y-92618090D03*
X145398250Y-92618090D03*
X145398250Y-84998090D03*
X145398250Y-82458090D03*
%TD*%
D10*
%TO.C,R77*%
X182781250Y-42184550D03*
D11*
X187861250Y-42184550D03*
%TD*%
D14*
%TO.C,U7*%
X189131250Y-33929550D03*
D15*
X189131250Y-31389550D03*
X181511250Y-31389550D03*
X181511250Y-33929550D03*
%TD*%
D14*
%TO.C,U6*%
X174932750Y-33929550D03*
D15*
X174932750Y-31389550D03*
X167312750Y-31389550D03*
X167312750Y-33929550D03*
%TD*%
D22*
%TO.C,J10*%
X140614745Y-165922550D03*
D23*
X144114748Y-165922550D03*
X147614749Y-165922550D03*
X151114750Y-165922550D03*
X154614750Y-165922550D03*
X158114751Y-165922550D03*
X140614745Y-168422550D03*
X144114748Y-168422550D03*
X147614749Y-168422550D03*
X151114750Y-168422550D03*
X154614750Y-168422550D03*
X158114751Y-168422550D03*
X137114747Y-167522562D03*
X161614749Y-167522562D03*
%TD*%
D16*
%TO.C,K7*%
X182913750Y-82458090D03*
D17*
X182913750Y-84998090D03*
X182913750Y-92618090D03*
X187993750Y-92618090D03*
X187993750Y-84998090D03*
X187993750Y-82458090D03*
%TD*%
D22*
%TO.C,J12*%
X184759650Y-168378851D03*
D23*
X188259652Y-168378851D03*
X181259651Y-170078850D03*
X191759650Y-170078850D03*
%TD*%
D16*
%TO.C,K3*%
X126119750Y-82458090D03*
D17*
X126119750Y-84998090D03*
X126119750Y-92618090D03*
X131199750Y-92618090D03*
X131199750Y-84998090D03*
X131199750Y-82458090D03*
%TD*%
D12*
%TO.C,LED1*%
X99490250Y-71047110D03*
D13*
X102030250Y-71047110D03*
%TD*%
D12*
%TO.C,LED4*%
X142085750Y-71047110D03*
D13*
X144625750Y-71047110D03*
%TD*%
D12*
%TO.C,LED2*%
X113688750Y-71047110D03*
D13*
X116228750Y-71047110D03*
%TD*%
D18*
%TO.C,D4*%
X146535750Y-59921130D03*
D19*
X138915750Y-59921130D03*
%TD*%
D14*
%TO.C,U3*%
X132337250Y-33929550D03*
D15*
X132337250Y-31389550D03*
X124717250Y-31389550D03*
X124717250Y-33929550D03*
%TD*%
D12*
%TO.C,LED5*%
X156284250Y-71047110D03*
D13*
X158824250Y-71047110D03*
%TD*%
D14*
%TO.C,U4*%
X146535750Y-33929550D03*
D15*
X146535750Y-31389550D03*
X138915750Y-31389550D03*
X138915750Y-33929550D03*
%TD*%
D10*
%TO.C,R66*%
X168582750Y-42184550D03*
D11*
X173662750Y-42184550D03*
%TD*%
D10*
%TO.C,R8*%
X202244250Y-50947550D03*
D11*
X197164250Y-50947550D03*
%TD*%
D18*
%TO.C,D5*%
X160734250Y-59921130D03*
D19*
X153114250Y-59921130D03*
%TD*%
D10*
%TO.C,R11*%
X97590250Y-42184550D03*
D11*
X102670250Y-42184550D03*
%TD*%
D12*
%TO.C,LED7*%
X184681250Y-71047110D03*
D13*
X187221250Y-71047110D03*
%TD*%
D10*
%TO.C,R99*%
X195691750Y-145435550D03*
D11*
X195691750Y-150515550D03*
%TD*%
D12*
%TO.C,LED6*%
X170482750Y-71047110D03*
D13*
X173022750Y-71047110D03*
%TD*%
D18*
%TO.C,D7*%
X189131250Y-59921130D03*
D19*
X181511250Y-59921130D03*
%TD*%
D16*
%TO.C,K1*%
X97722750Y-82458090D03*
D17*
X97722750Y-84998090D03*
X97722750Y-92618090D03*
X102802750Y-92618090D03*
X102802750Y-84998090D03*
X102802750Y-82458090D03*
%TD*%
D10*
%TO.C,R1*%
X102854750Y-50947550D03*
D11*
X97774750Y-50947550D03*
%TD*%
D10*
%TO.C,R22*%
X111788750Y-42184550D03*
D11*
X116868750Y-42184550D03*
%TD*%
D10*
%TO.C,R9*%
X201660750Y-145435550D03*
D11*
X201660750Y-150515550D03*
%TD*%
D10*
%TO.C,R4*%
X145450250Y-50947550D03*
D11*
X140370250Y-50947550D03*
%TD*%
D10*
%TO.C,R88*%
X196979750Y-42184550D03*
D11*
X202059750Y-42184550D03*
%TD*%
D16*
%TO.C,K2*%
X111921250Y-82458090D03*
D17*
X111921250Y-84998090D03*
X111921250Y-92618090D03*
X117001250Y-92618090D03*
X117001250Y-84998090D03*
X117001250Y-82458090D03*
%TD*%
D18*
%TO.C,D3*%
X132337250Y-59921130D03*
D19*
X124717250Y-59921130D03*
%TD*%
D14*
%TO.C,U9*%
X189214750Y-155722550D03*
D15*
X189214750Y-153182550D03*
X181594750Y-153182550D03*
X181594750Y-155722550D03*
%TD*%
D10*
%TO.C,R44*%
X140185750Y-42184550D03*
D11*
X145265750Y-42184550D03*
%TD*%
M02*
