%TF.GenerationSoftware,KiCad,Pcbnew,7.0.10*%
%TF.CreationDate,2024-11-26T20:55:45-08:00*%
%TF.ProjectId,Main_Board,4d61696e-5f42-46f6-9172-642e6b696361,rev?*%
%TF.SameCoordinates,Original*%
%TF.FileFunction,Soldermask,Bot*%
%TF.FilePolarity,Negative*%
%FSLAX46Y46*%
G04 Gerber Fmt 4.6, Leading zero omitted, Abs format (unit mm)*
G04 Created by KiCad (PCBNEW 7.0.10) date 2024-11-26 20:55:45*
%MOMM*%
%LPD*%
G01*
G04 APERTURE LIST*
G04 Aperture macros list*
%AMRoundRect*
0 Rectangle with rounded corners*
0 $1 Rounding radius*
0 $2 $3 $4 $5 $6 $7 $8 $9 X,Y pos of 4 corners*
0 Add a 4 corners polygon primitive as box body*
4,1,4,$2,$3,$4,$5,$6,$7,$8,$9,$2,$3,0*
0 Add four circle primitives for the rounded corners*
1,1,$1+$1,$2,$3*
1,1,$1+$1,$4,$5*
1,1,$1+$1,$6,$7*
1,1,$1+$1,$8,$9*
0 Add four rect primitives between the rounded corners*
20,1,$1+$1,$2,$3,$4,$5,0*
20,1,$1+$1,$4,$5,$6,$7,0*
20,1,$1+$1,$6,$7,$8,$9,0*
20,1,$1+$1,$8,$9,$2,$3,0*%
G04 Aperture macros list end*
%ADD10C,1.400000*%
%ADD11O,1.400000X1.400000*%
%ADD12R,1.270000X1.270000*%
%ADD13C,1.270000*%
%ADD14R,1.100000X1.100000*%
%ADD15C,1.100000*%
%ADD16R,2.000000X2.000000*%
%ADD17C,2.000000*%
%ADD18R,1.600000X1.600000*%
%ADD19O,1.600000X1.600000*%
%ADD20C,1.625600*%
%ADD21RoundRect,0.025400X0.736600X0.736600X-0.736600X0.736600X-0.736600X-0.736600X0.736600X-0.736600X0*%
%ADD22R,1.981200X1.981200*%
%ADD23C,1.981200*%
G04 APERTURE END LIST*
D10*
%TO.C,R33*%
X125987250Y-42184550D03*
D11*
X131067250Y-42184550D03*
%TD*%
D12*
%TO.C,LED9*%
X186022110Y-141024110D03*
D13*
X183482110Y-141024110D03*
%TD*%
D12*
%TO.C,LED3*%
X127887250Y-71047110D03*
D13*
X130427250Y-71047110D03*
%TD*%
D14*
%TO.C,U2*%
X118138750Y-33929550D03*
D15*
X118138750Y-31389550D03*
X110518750Y-31389550D03*
X110518750Y-33929550D03*
%TD*%
D16*
%TO.C,K8*%
X197112250Y-82458090D03*
D17*
X197112250Y-84998090D03*
X197112250Y-92618090D03*
X202192250Y-92618090D03*
X202192250Y-84998090D03*
X202192250Y-82458090D03*
%TD*%
D10*
%TO.C,R7*%
X188045750Y-50947550D03*
D11*
X182965750Y-50947550D03*
%TD*%
D14*
%TO.C,U1*%
X103940250Y-33929550D03*
D15*
X103940250Y-31389550D03*
X96320250Y-31389550D03*
X96320250Y-33929550D03*
%TD*%
D14*
%TO.C,U5*%
X160734250Y-33929550D03*
D15*
X160734250Y-31389550D03*
X153114250Y-31389550D03*
X153114250Y-33929550D03*
%TD*%
D10*
%TO.C,R2*%
X117053250Y-50947550D03*
D11*
X111973250Y-50947550D03*
%TD*%
D18*
%TO.C,D6*%
X174932750Y-59921130D03*
D19*
X167312750Y-59921130D03*
%TD*%
D10*
%TO.C,R55*%
X154384250Y-42184550D03*
D11*
X159464250Y-42184550D03*
%TD*%
D10*
%TO.C,R5*%
X159648750Y-50947550D03*
D11*
X154568750Y-50947550D03*
%TD*%
D14*
%TO.C,U8*%
X203329750Y-33929550D03*
D15*
X203329750Y-31389550D03*
X195709750Y-31389550D03*
X195709750Y-33929550D03*
%TD*%
D12*
%TO.C,LED8*%
X198879750Y-71047110D03*
D13*
X201419750Y-71047110D03*
%TD*%
D10*
%TO.C,R3*%
X131251750Y-50947550D03*
D11*
X126171750Y-50947550D03*
%TD*%
D10*
%TO.C,R6*%
X173847250Y-50947550D03*
D11*
X168767250Y-50947550D03*
%TD*%
D18*
%TO.C,D2*%
X118138750Y-59921130D03*
D19*
X110518750Y-59921130D03*
%TD*%
D18*
%TO.C,D1*%
X103940250Y-59921130D03*
D19*
X96320250Y-59921130D03*
%TD*%
D20*
%TO.C,U10*%
X108188750Y-175915550D03*
D21*
X108188750Y-173375550D03*
D20*
X108188750Y-170835550D03*
X108188750Y-168295550D03*
X108188750Y-165755550D03*
X108188750Y-163215550D03*
X108188750Y-160675550D03*
X108188750Y-158135550D03*
X108188750Y-155595550D03*
X108188750Y-153055550D03*
X108188750Y-150515550D03*
X108188750Y-147975550D03*
X108188750Y-145435550D03*
X108188750Y-142895550D03*
X108188750Y-140355550D03*
X108188750Y-137815550D03*
X108188750Y-135275550D03*
X123428750Y-135275550D03*
X123428750Y-137815550D03*
X123428750Y-140355550D03*
X123428750Y-142895550D03*
X123428750Y-145435550D03*
X123428750Y-147975550D03*
X123428750Y-150515550D03*
D21*
X123428750Y-153055550D03*
D20*
X123428750Y-155595550D03*
X123428750Y-158135550D03*
X123428750Y-160675550D03*
X123428750Y-163215550D03*
X123428750Y-165755550D03*
X123428750Y-168295550D03*
X123428750Y-170835550D03*
X123428750Y-173375550D03*
X123428750Y-175915550D03*
%TD*%
D16*
%TO.C,K5*%
X154516750Y-82458090D03*
D17*
X154516750Y-84998090D03*
X154516750Y-92618090D03*
X159596750Y-92618090D03*
X159596750Y-84998090D03*
X159596750Y-82458090D03*
%TD*%
D16*
%TO.C,K6*%
X168715250Y-82458090D03*
D17*
X168715250Y-84998090D03*
X168715250Y-92618090D03*
X173795250Y-92618090D03*
X173795250Y-84998090D03*
X173795250Y-82458090D03*
%TD*%
D18*
%TO.C,D8*%
X203329750Y-59921130D03*
D19*
X195709750Y-59921130D03*
%TD*%
D16*
%TO.C,K4*%
X140318250Y-82458090D03*
D17*
X140318250Y-84998090D03*
X140318250Y-92618090D03*
X145398250Y-92618090D03*
X145398250Y-84998090D03*
X145398250Y-82458090D03*
%TD*%
D10*
%TO.C,R77*%
X182781250Y-42184550D03*
D11*
X187861250Y-42184550D03*
%TD*%
D14*
%TO.C,U7*%
X189131250Y-33929550D03*
D15*
X189131250Y-31389550D03*
X181511250Y-31389550D03*
X181511250Y-33929550D03*
%TD*%
D14*
%TO.C,U6*%
X174932750Y-33929550D03*
D15*
X174932750Y-31389550D03*
X167312750Y-31389550D03*
X167312750Y-33929550D03*
%TD*%
D22*
%TO.C,J10*%
X140614745Y-165922550D03*
D23*
X144114748Y-165922550D03*
X147614749Y-165922550D03*
X151114750Y-165922550D03*
X154614750Y-165922550D03*
X158114751Y-165922550D03*
X140614745Y-168422550D03*
X144114748Y-168422550D03*
X147614749Y-168422550D03*
X151114750Y-168422550D03*
X154614750Y-168422550D03*
X158114751Y-168422550D03*
X137114747Y-167522562D03*
X161614749Y-167522562D03*
%TD*%
D16*
%TO.C,K7*%
X182913750Y-82458090D03*
D17*
X182913750Y-84998090D03*
X182913750Y-92618090D03*
X187993750Y-92618090D03*
X187993750Y-84998090D03*
X187993750Y-82458090D03*
%TD*%
D22*
%TO.C,J12*%
X184759650Y-168378851D03*
D23*
X188259652Y-168378851D03*
X181259651Y-170078850D03*
X191759650Y-170078850D03*
%TD*%
D16*
%TO.C,K3*%
X126119750Y-82458090D03*
D17*
X126119750Y-84998090D03*
X126119750Y-92618090D03*
X131199750Y-92618090D03*
X131199750Y-84998090D03*
X131199750Y-82458090D03*
%TD*%
D12*
%TO.C,LED1*%
X99490250Y-71047110D03*
D13*
X102030250Y-71047110D03*
%TD*%
D12*
%TO.C,LED4*%
X142085750Y-71047110D03*
D13*
X144625750Y-71047110D03*
%TD*%
D12*
%TO.C,LED2*%
X113688750Y-71047110D03*
D13*
X116228750Y-71047110D03*
%TD*%
D18*
%TO.C,D4*%
X146535750Y-59921130D03*
D19*
X138915750Y-59921130D03*
%TD*%
D14*
%TO.C,U3*%
X132337250Y-33929550D03*
D15*
X132337250Y-31389550D03*
X124717250Y-31389550D03*
X124717250Y-33929550D03*
%TD*%
D12*
%TO.C,LED5*%
X156284250Y-71047110D03*
D13*
X158824250Y-71047110D03*
%TD*%
D14*
%TO.C,U4*%
X146535750Y-33929550D03*
D15*
X146535750Y-31389550D03*
X138915750Y-31389550D03*
X138915750Y-33929550D03*
%TD*%
D10*
%TO.C,R66*%
X168582750Y-42184550D03*
D11*
X173662750Y-42184550D03*
%TD*%
D10*
%TO.C,R8*%
X202244250Y-50947550D03*
D11*
X197164250Y-50947550D03*
%TD*%
D18*
%TO.C,D5*%
X160734250Y-59921130D03*
D19*
X153114250Y-59921130D03*
%TD*%
D10*
%TO.C,R11*%
X97590250Y-42184550D03*
D11*
X102670250Y-42184550D03*
%TD*%
D12*
%TO.C,LED7*%
X184681250Y-71047110D03*
D13*
X187221250Y-71047110D03*
%TD*%
D10*
%TO.C,R99*%
X195691750Y-145435550D03*
D11*
X195691750Y-150515550D03*
%TD*%
D12*
%TO.C,LED6*%
X170482750Y-71047110D03*
D13*
X173022750Y-71047110D03*
%TD*%
D18*
%TO.C,D7*%
X189131250Y-59921130D03*
D19*
X181511250Y-59921130D03*
%TD*%
D16*
%TO.C,K1*%
X97722750Y-82458090D03*
D17*
X97722750Y-84998090D03*
X97722750Y-92618090D03*
X102802750Y-92618090D03*
X102802750Y-84998090D03*
X102802750Y-82458090D03*
%TD*%
D10*
%TO.C,R1*%
X102854750Y-50947550D03*
D11*
X97774750Y-50947550D03*
%TD*%
D10*
%TO.C,R22*%
X111788750Y-42184550D03*
D11*
X116868750Y-42184550D03*
%TD*%
D10*
%TO.C,R9*%
X201660750Y-145435550D03*
D11*
X201660750Y-150515550D03*
%TD*%
D10*
%TO.C,R4*%
X145450250Y-50947550D03*
D11*
X140370250Y-50947550D03*
%TD*%
D10*
%TO.C,R88*%
X196979750Y-42184550D03*
D11*
X202059750Y-42184550D03*
%TD*%
D16*
%TO.C,K2*%
X111921250Y-82458090D03*
D17*
X111921250Y-84998090D03*
X111921250Y-92618090D03*
X117001250Y-92618090D03*
X117001250Y-84998090D03*
X117001250Y-82458090D03*
%TD*%
D18*
%TO.C,D3*%
X132337250Y-59921130D03*
D19*
X124717250Y-59921130D03*
%TD*%
D14*
%TO.C,U9*%
X189214750Y-155722550D03*
D15*
X189214750Y-153182550D03*
X181594750Y-153182550D03*
X181594750Y-155722550D03*
%TD*%
D10*
%TO.C,R44*%
X140185750Y-42184550D03*
D11*
X145265750Y-42184550D03*
%TD*%
M02*
