%TF.GenerationSoftware,KiCad,Pcbnew,7.0.10*%
%TF.CreationDate,2024-11-26T20:55:45-08:00*%
%TF.ProjectId,Main_Board,4d61696e-5f42-46f6-9172-642e6b696361,rev?*%
%TF.SameCoordinates,Original*%
%TF.FileFunction,Legend,Bot*%
%TF.FilePolarity,Positive*%
%FSLAX46Y46*%
G04 Gerber Fmt 4.6, Leading zero omitted, Abs format (unit mm)*
G04 Created by KiCad (PCBNEW 7.0.10) date 2024-11-26 20:55:45*
%MOMM*%
%LPD*%
G01*
G04 APERTURE LIST*
%ADD10C,0.508000*%
%ADD11C,0.350000*%
G04 APERTURE END LIST*
D10*
%TO.C,J10*%
X198284848Y-165675440D02*
G75*
G03*
X197522848Y-165675440I-381000J0D01*
G01*
X197522848Y-165675440D02*
G75*
G03*
X198284848Y-165675440I381000J0D01*
G01*
%TO.C,J12*%
X242440150Y-168131741D02*
G75*
G03*
X241678150Y-168131741I-381000J0D01*
G01*
X241678150Y-168131741D02*
G75*
G03*
X242440150Y-168131741I381000J0D01*
G01*
%TD*%
D11*
X191887250Y-41937440D03*
X196967250Y-41937440D03*
X251922110Y-140777000D03*
X249382110Y-140777000D03*
X193787250Y-70800000D03*
X196327250Y-70800000D03*
X184038750Y-33682440D03*
X184038750Y-31142440D03*
X176418750Y-31142440D03*
X176418750Y-33682440D03*
X263012250Y-82210980D03*
X263012250Y-84750980D03*
X263012250Y-92370980D03*
X268092250Y-92370980D03*
X268092250Y-84750980D03*
X268092250Y-82210980D03*
X253945750Y-50700440D03*
X248865750Y-50700440D03*
X169840250Y-33682440D03*
X169840250Y-31142440D03*
X162220250Y-31142440D03*
X162220250Y-33682440D03*
X226634250Y-33682440D03*
X226634250Y-31142440D03*
X219014250Y-31142440D03*
X219014250Y-33682440D03*
X182953250Y-50700440D03*
X177873250Y-50700440D03*
X240832750Y-59674020D03*
X233212750Y-59674020D03*
X220284250Y-41937440D03*
X225364250Y-41937440D03*
X225548750Y-50700440D03*
X220468750Y-50700440D03*
X269229750Y-33682440D03*
X269229750Y-31142440D03*
X261609750Y-31142440D03*
X261609750Y-33682440D03*
X264779750Y-70800000D03*
X267319750Y-70800000D03*
X197151750Y-50700440D03*
X192071750Y-50700440D03*
X239747250Y-50700440D03*
X234667250Y-50700440D03*
X184038750Y-59674020D03*
X176418750Y-59674020D03*
X169840250Y-59674020D03*
X162220250Y-59674020D03*
X174088750Y-175668440D03*
X174088750Y-173128440D03*
X174088750Y-170588440D03*
X174088750Y-168048440D03*
X174088750Y-165508440D03*
X174088750Y-162968440D03*
X174088750Y-160428440D03*
X174088750Y-157888440D03*
X174088750Y-155348440D03*
X174088750Y-152808440D03*
X174088750Y-150268440D03*
X174088750Y-147728440D03*
X174088750Y-145188440D03*
X174088750Y-142648440D03*
X174088750Y-140108440D03*
X174088750Y-137568440D03*
X174088750Y-135028440D03*
X189328750Y-135028440D03*
X189328750Y-137568440D03*
X189328750Y-140108440D03*
X189328750Y-142648440D03*
X189328750Y-145188440D03*
X189328750Y-147728440D03*
X189328750Y-150268440D03*
X189328750Y-152808440D03*
X189328750Y-155348440D03*
X189328750Y-157888440D03*
X189328750Y-160428440D03*
X189328750Y-162968440D03*
X189328750Y-165508440D03*
X189328750Y-168048440D03*
X189328750Y-170588440D03*
X189328750Y-173128440D03*
X189328750Y-175668440D03*
X220416750Y-82210980D03*
X220416750Y-84750980D03*
X220416750Y-92370980D03*
X225496750Y-92370980D03*
X225496750Y-84750980D03*
X225496750Y-82210980D03*
X234615250Y-82210980D03*
X234615250Y-84750980D03*
X234615250Y-92370980D03*
X239695250Y-92370980D03*
X239695250Y-84750980D03*
X239695250Y-82210980D03*
X269229750Y-59674020D03*
X261609750Y-59674020D03*
X206218250Y-82210980D03*
X206218250Y-84750980D03*
X206218250Y-92370980D03*
X211298250Y-92370980D03*
X211298250Y-84750980D03*
X211298250Y-82210980D03*
X248681250Y-41937440D03*
X253761250Y-41937440D03*
X255031250Y-33682440D03*
X255031250Y-31142440D03*
X247411250Y-31142440D03*
X247411250Y-33682440D03*
X240832750Y-33682440D03*
X240832750Y-31142440D03*
X233212750Y-31142440D03*
X233212750Y-33682440D03*
X206514745Y-165675440D03*
X210014748Y-165675440D03*
X213514749Y-165675440D03*
X217014750Y-165675440D03*
X220514750Y-165675440D03*
X224014751Y-165675440D03*
X206514745Y-168175440D03*
X210014748Y-168175440D03*
X213514749Y-168175440D03*
X217014750Y-168175440D03*
X220514750Y-168175440D03*
X224014751Y-168175440D03*
X203014747Y-167275452D03*
X227514749Y-167275452D03*
X248813750Y-82210980D03*
X248813750Y-84750980D03*
X248813750Y-92370980D03*
X253893750Y-92370980D03*
X253893750Y-84750980D03*
X253893750Y-82210980D03*
X250659650Y-168131741D03*
X254159652Y-168131741D03*
X247159651Y-169831740D03*
X257659650Y-169831740D03*
X192019750Y-82210980D03*
X192019750Y-84750980D03*
X192019750Y-92370980D03*
X197099750Y-92370980D03*
X197099750Y-84750980D03*
X197099750Y-82210980D03*
X165390250Y-70800000D03*
X167930250Y-70800000D03*
X207985750Y-70800000D03*
X210525750Y-70800000D03*
X179588750Y-70800000D03*
X182128750Y-70800000D03*
X212435750Y-59674020D03*
X204815750Y-59674020D03*
X198237250Y-33682440D03*
X198237250Y-31142440D03*
X190617250Y-31142440D03*
X190617250Y-33682440D03*
X222184250Y-70800000D03*
X224724250Y-70800000D03*
X212435750Y-33682440D03*
X212435750Y-31142440D03*
X204815750Y-31142440D03*
X204815750Y-33682440D03*
X234482750Y-41937440D03*
X239562750Y-41937440D03*
X268144250Y-50700440D03*
X263064250Y-50700440D03*
X226634250Y-59674020D03*
X219014250Y-59674020D03*
X163490250Y-41937440D03*
X168570250Y-41937440D03*
X250581250Y-70800000D03*
X253121250Y-70800000D03*
X261591750Y-145188440D03*
X261591750Y-150268440D03*
X236382750Y-70800000D03*
X238922750Y-70800000D03*
X255031250Y-59674020D03*
X247411250Y-59674020D03*
X163622750Y-82210980D03*
X163622750Y-84750980D03*
X163622750Y-92370980D03*
X168702750Y-92370980D03*
X168702750Y-84750980D03*
X168702750Y-82210980D03*
X168754750Y-50700440D03*
X163674750Y-50700440D03*
X177688750Y-41937440D03*
X182768750Y-41937440D03*
X267560750Y-145188440D03*
X267560750Y-150268440D03*
X211350250Y-50700440D03*
X206270250Y-50700440D03*
X262879750Y-41937440D03*
X267959750Y-41937440D03*
X177821250Y-82210980D03*
X177821250Y-84750980D03*
X177821250Y-92370980D03*
X182901250Y-92370980D03*
X182901250Y-84750980D03*
X182901250Y-82210980D03*
X198237250Y-59674020D03*
X190617250Y-59674020D03*
X255114750Y-155475440D03*
X255114750Y-152935440D03*
X247494750Y-152935440D03*
X247494750Y-155475440D03*
X206085750Y-41937440D03*
X211165750Y-41937440D03*
M02*
