M48
; DRILL file {KiCad 7.0.10} date Tue Nov 26 20:55:46 2024
; FORMAT={-:-/ absolute / metric / decimal}
; #@! TF.CreationDate,2024-11-26T20:55:46-08:00
; #@! TF.GenerationSoftware,Kicad,Pcbnew,7.0.10
; #@! TF.FileFunction,Plated,1,2,PTH
FMAT,2
METRIC
; #@! TA.AperFunction,Plated,PTH,ComponentDrill
T1C0.700
; #@! TA.AperFunction,Plated,PTH,ComponentDrill
T2C0.762
; #@! TA.AperFunction,Plated,PTH,ComponentDrill
T3C0.800
; #@! TA.AperFunction,Plated,PTH,ComponentDrill
T4C0.900
; #@! TA.AperFunction,Plated,PTH,ComponentDrill
T5C1.000
; #@! TA.AperFunction,Plated,PTH,ComponentDrill
T6C1.473
%
G90
G05
T1
X162.22Y-31.142
X162.22Y-33.682
X163.49Y-41.937
X163.675Y-50.7
X168.57Y-41.937
X168.755Y-50.7
X169.84Y-31.142
X169.84Y-33.682
X176.419Y-31.142
X176.419Y-33.682
X177.689Y-41.937
X177.873Y-50.7
X182.769Y-41.937
X182.953Y-50.7
X184.039Y-31.142
X184.039Y-33.682
X190.617Y-31.142
X190.617Y-33.682
X191.887Y-41.937
X192.072Y-50.7
X196.967Y-41.937
X197.152Y-50.7
X198.237Y-31.142
X198.237Y-33.682
X204.816Y-31.142
X204.816Y-33.682
X206.086Y-41.937
X206.27Y-50.7
X211.166Y-41.937
X211.35Y-50.7
X212.436Y-31.142
X212.436Y-33.682
X219.014Y-31.142
X219.014Y-33.682
X220.284Y-41.937
X220.469Y-50.7
X225.364Y-41.937
X225.549Y-50.7
X226.634Y-31.142
X226.634Y-33.682
X233.213Y-31.142
X233.213Y-33.682
X234.483Y-41.937
X234.667Y-50.7
X239.563Y-41.937
X239.747Y-50.7
X240.833Y-31.142
X240.833Y-33.682
X247.411Y-31.142
X247.411Y-33.682
X247.495Y-152.935
X247.495Y-155.475
X248.681Y-41.937
X248.866Y-50.7
X253.761Y-41.937
X253.946Y-50.7
X255.031Y-31.142
X255.031Y-33.682
X255.115Y-152.935
X255.115Y-155.475
X261.592Y-145.188
X261.592Y-150.268
X261.61Y-31.142
X261.61Y-33.682
X262.88Y-41.937
X263.064Y-50.7
X267.561Y-145.188
X267.561Y-150.268
X267.96Y-41.937
X268.144Y-50.7
X269.23Y-31.142
X269.23Y-33.682
T2
X165.39Y-70.8
X167.93Y-70.8
X179.589Y-70.8
X182.129Y-70.8
X193.787Y-70.8
X196.327Y-70.8
X207.986Y-70.8
X210.526Y-70.8
X222.184Y-70.8
X224.724Y-70.8
X236.383Y-70.8
X238.923Y-70.8
X249.382Y-140.777
X250.581Y-70.8
X251.922Y-140.777
X253.121Y-70.8
X264.78Y-70.8
X267.32Y-70.8
T3
X162.22Y-59.674
X169.84Y-59.674
X176.419Y-59.674
X184.039Y-59.674
X190.617Y-59.674
X198.237Y-59.674
X204.816Y-59.674
X212.436Y-59.674
X219.014Y-59.674
X226.634Y-59.674
X233.213Y-59.674
X240.833Y-59.674
X247.411Y-59.674
X255.031Y-59.674
X261.61Y-59.674
X269.23Y-59.674
T4
X174.089Y-135.028
X174.089Y-137.568
X174.089Y-140.108
X174.089Y-142.648
X174.089Y-145.188
X174.089Y-147.728
X174.089Y-150.268
X174.089Y-152.808
X174.089Y-155.348
X174.089Y-157.888
X174.089Y-160.428
X174.089Y-162.968
X174.089Y-165.508
X174.089Y-168.048
X174.089Y-170.588
X174.089Y-173.128
X174.089Y-175.668
X189.329Y-135.028
X189.329Y-137.568
X189.329Y-140.108
X189.329Y-142.648
X189.329Y-145.188
X189.329Y-147.728
X189.329Y-150.268
X189.329Y-152.808
X189.329Y-155.348
X189.329Y-157.888
X189.329Y-160.428
X189.329Y-162.968
X189.329Y-165.508
X189.329Y-168.048
X189.329Y-170.588
X189.329Y-173.128
X189.329Y-175.668
T5
X163.623Y-82.211
X163.623Y-84.751
X163.623Y-92.371
X168.703Y-82.211
X168.703Y-84.751
X168.703Y-92.371
X177.821Y-82.211
X177.821Y-84.751
X177.821Y-92.371
X182.901Y-82.211
X182.901Y-84.751
X182.901Y-92.371
X192.02Y-82.211
X192.02Y-84.751
X192.02Y-92.371
X197.1Y-82.211
X197.1Y-84.751
X197.1Y-92.371
X206.218Y-82.211
X206.218Y-84.751
X206.218Y-92.371
X211.298Y-82.211
X211.298Y-84.751
X211.298Y-92.371
X220.417Y-82.211
X220.417Y-84.751
X220.417Y-92.371
X225.497Y-82.211
X225.497Y-84.751
X225.497Y-92.371
X234.615Y-82.211
X234.615Y-84.751
X234.615Y-92.371
X239.695Y-82.211
X239.695Y-84.751
X239.695Y-92.371
X248.814Y-82.211
X248.814Y-84.751
X248.814Y-92.371
X253.894Y-82.211
X253.894Y-84.751
X253.894Y-92.371
X263.012Y-82.211
X263.012Y-84.751
X263.012Y-92.371
X268.092Y-82.211
X268.092Y-84.751
X268.092Y-92.371
T6
X203.015Y-167.275
X206.515Y-165.675
X206.515Y-168.175
X210.015Y-165.675
X210.015Y-168.175
X213.515Y-165.675
X213.515Y-168.175
X217.015Y-165.675
X217.015Y-168.175
X220.515Y-165.675
X220.515Y-168.175
X224.015Y-165.675
X224.015Y-168.175
X227.515Y-167.275
X247.16Y-169.832
X250.66Y-168.132
X254.16Y-168.132
X257.66Y-169.832
M30
