%TF.GenerationSoftware,KiCad,Pcbnew,7.0.10*%
%TF.CreationDate,2024-11-26T20:55:46-08:00*%
%TF.ProjectId,Main_Board,4d61696e-5f42-46f6-9172-642e6b696361,rev?*%
%TF.SameCoordinates,Original*%
%TF.FileFunction,Soldermask,Top*%
%TF.FilePolarity,Negative*%
%FSLAX46Y46*%
G04 Gerber Fmt 4.6, Leading zero omitted, Abs format (unit mm)*
G04 Created by KiCad (PCBNEW 7.0.10) date 2024-11-26 20:55:46*
%MOMM*%
%LPD*%
G01*
G04 APERTURE LIST*
G04 Aperture macros list*
%AMRoundRect*
0 Rectangle with rounded corners*
0 $1 Rounding radius*
0 $2 $3 $4 $5 $6 $7 $8 $9 X,Y pos of 4 corners*
0 Add a 4 corners polygon primitive as box body*
4,1,4,$2,$3,$4,$5,$6,$7,$8,$9,$2,$3,0*
0 Add four circle primitives for the rounded corners*
1,1,$1+$1,$2,$3*
1,1,$1+$1,$4,$5*
1,1,$1+$1,$6,$7*
1,1,$1+$1,$8,$9*
0 Add four rect primitives between the rounded corners*
20,1,$1+$1,$2,$3,$4,$5,0*
20,1,$1+$1,$4,$5,$6,$7,0*
20,1,$1+$1,$6,$7,$8,$9,0*
20,1,$1+$1,$8,$9,$2,$3,0*%
G04 Aperture macros list end*
%ADD10C,1.400000*%
%ADD11O,1.400000X1.400000*%
%ADD12R,1.270000X1.270000*%
%ADD13C,1.270000*%
%ADD14R,1.100000X1.100000*%
%ADD15C,1.100000*%
%ADD16R,2.000000X2.000000*%
%ADD17C,2.000000*%
%ADD18R,1.600000X1.600000*%
%ADD19O,1.600000X1.600000*%
%ADD20C,1.625600*%
%ADD21RoundRect,0.025400X0.736600X0.736600X-0.736600X0.736600X-0.736600X-0.736600X0.736600X-0.736600X0*%
%ADD22R,1.981200X1.981200*%
%ADD23C,1.981200*%
G04 APERTURE END LIST*
%TO.C,G\u002A\u002A\u002A*%
G36*
X219781468Y-108076800D02*
G01*
X220017266Y-108079259D01*
X220315431Y-108084382D01*
X220580287Y-108091494D01*
X220820256Y-108101282D01*
X221043757Y-108114439D01*
X221259210Y-108131652D01*
X221475036Y-108153612D01*
X221699654Y-108181008D01*
X221941484Y-108214530D01*
X222208945Y-108254867D01*
X222261189Y-108263019D01*
X222388228Y-108283038D01*
X222493809Y-108300142D01*
X222585988Y-108315927D01*
X222672821Y-108331990D01*
X222762366Y-108349928D01*
X222862677Y-108371335D01*
X222981813Y-108397811D01*
X223127829Y-108430949D01*
X223252691Y-108459504D01*
X223838886Y-108608890D01*
X224437474Y-108790816D01*
X225039081Y-109002197D01*
X225634337Y-109239948D01*
X225668704Y-109254582D01*
X225777091Y-109302662D01*
X225918304Y-109368089D01*
X226088218Y-109448782D01*
X226282708Y-109542659D01*
X226497652Y-109647639D01*
X226728920Y-109761640D01*
X226972392Y-109882581D01*
X227223941Y-110008380D01*
X227479442Y-110136957D01*
X227734771Y-110266228D01*
X227985802Y-110394114D01*
X228228412Y-110518534D01*
X228458473Y-110637403D01*
X228671864Y-110748644D01*
X228864458Y-110850173D01*
X229032131Y-110939909D01*
X229170757Y-111015770D01*
X229266986Y-111070295D01*
X229932112Y-111479286D01*
X230567156Y-111915820D01*
X231173658Y-112381271D01*
X231753160Y-112877011D01*
X232307206Y-113404416D01*
X232837335Y-113964860D01*
X233345092Y-114559716D01*
X233715690Y-115033961D01*
X233990589Y-115413446D01*
X234265815Y-115820660D01*
X234536009Y-116246605D01*
X234795811Y-116682280D01*
X235039865Y-117118686D01*
X235262810Y-117546823D01*
X235459289Y-117957691D01*
X235468112Y-117977153D01*
X235511287Y-118072550D01*
X235556047Y-118171280D01*
X235593686Y-118254139D01*
X235598324Y-118264331D01*
X235645908Y-118372909D01*
X235704260Y-118512504D01*
X235770120Y-118674812D01*
X235840229Y-118851528D01*
X235911328Y-119034349D01*
X235980157Y-119214970D01*
X236043457Y-119385089D01*
X236097968Y-119536401D01*
X236100838Y-119544558D01*
X236347413Y-120296653D01*
X236561123Y-121056764D01*
X236742722Y-121828761D01*
X236892962Y-122616513D01*
X237012597Y-123423889D01*
X237102381Y-124254758D01*
X237154083Y-124953381D01*
X237160733Y-125095669D01*
X237166096Y-125272382D01*
X237170171Y-125476219D01*
X237172958Y-125699878D01*
X237174456Y-125936056D01*
X237174665Y-126177452D01*
X237173585Y-126416764D01*
X237171216Y-126646688D01*
X237167556Y-126859925D01*
X237162605Y-127049172D01*
X237156364Y-127207126D01*
X237154201Y-127247979D01*
X237077030Y-128236944D01*
X236958678Y-129219311D01*
X236799262Y-130194619D01*
X236598896Y-131162405D01*
X236357695Y-132122205D01*
X236075773Y-133073556D01*
X235753245Y-134015994D01*
X235390227Y-134949057D01*
X235051821Y-135730236D01*
X235011049Y-135820224D01*
X234963472Y-135925418D01*
X234919652Y-136022467D01*
X234871200Y-136126302D01*
X234806430Y-136259771D01*
X234728957Y-136415824D01*
X234642392Y-136587415D01*
X234550352Y-136767493D01*
X234456449Y-136949012D01*
X234364299Y-137124922D01*
X234277514Y-137288176D01*
X234199710Y-137431725D01*
X234163714Y-137496755D01*
X233679873Y-138327771D01*
X233175830Y-139124306D01*
X232649077Y-139889690D01*
X232097104Y-140627259D01*
X231517400Y-141340342D01*
X230907457Y-142032274D01*
X230264766Y-142706384D01*
X230163969Y-142807581D01*
X229812876Y-143152799D01*
X229477897Y-143470803D01*
X229151175Y-143768558D01*
X228824851Y-144053027D01*
X228491066Y-144331175D01*
X228141962Y-144609964D01*
X228043128Y-144686972D01*
X227315317Y-145227169D01*
X226571979Y-145731510D01*
X225814379Y-146199455D01*
X225043788Y-146630468D01*
X224261468Y-147024008D01*
X223468689Y-147379537D01*
X222666715Y-147696518D01*
X221856815Y-147974411D01*
X221040254Y-148212677D01*
X220218300Y-148410780D01*
X219392218Y-148568179D01*
X218670913Y-148671616D01*
X218490663Y-148692871D01*
X218326914Y-148710542D01*
X218172922Y-148724987D01*
X218021935Y-148736563D01*
X217867207Y-148745630D01*
X217701992Y-148752544D01*
X217519540Y-148757665D01*
X217313105Y-148761349D01*
X217075939Y-148763956D01*
X216907086Y-148765210D01*
X216710946Y-148766295D01*
X216525150Y-148766981D01*
X216354402Y-148767277D01*
X216203409Y-148767187D01*
X216076876Y-148766720D01*
X215979510Y-148765883D01*
X215916016Y-148764682D01*
X215894711Y-148763674D01*
X215842954Y-148759308D01*
X215760118Y-148752657D01*
X215656754Y-148744556D01*
X215543412Y-148735837D01*
X215518985Y-148733979D01*
X214822316Y-148663073D01*
X214120501Y-148556421D01*
X213421584Y-148415738D01*
X212733611Y-148242740D01*
X212064627Y-148039144D01*
X211751281Y-147930568D01*
X211638311Y-147889160D01*
X211511960Y-147841798D01*
X211378868Y-147791084D01*
X211245669Y-147739614D01*
X211119003Y-147689989D01*
X211005506Y-147644805D01*
X210911813Y-147606662D01*
X210844564Y-147578158D01*
X210811965Y-147562800D01*
X210780588Y-147547038D01*
X210720861Y-147518440D01*
X210642384Y-147481567D01*
X210582354Y-147453700D01*
X210480633Y-147406544D01*
X210384314Y-147361464D01*
X210289703Y-147316617D01*
X210193109Y-147270164D01*
X210090839Y-147220265D01*
X209979201Y-147165075D01*
X209854501Y-147102758D01*
X209713049Y-147031471D01*
X209551151Y-146949373D01*
X209365115Y-146854625D01*
X209151249Y-146745383D01*
X208905860Y-146619809D01*
X208766342Y-146548350D01*
X208471524Y-146397015D01*
X208210349Y-146262196D01*
X207979085Y-146141810D01*
X207773999Y-146033773D01*
X207591358Y-145936001D01*
X207427430Y-145846412D01*
X207385077Y-145822670D01*
X207847899Y-145822670D01*
X207858336Y-145833108D01*
X207868773Y-145822670D01*
X207858336Y-145812233D01*
X207847899Y-145822670D01*
X207385077Y-145822670D01*
X207278485Y-145762920D01*
X207140788Y-145683443D01*
X207010607Y-145605897D01*
X206884211Y-145528200D01*
X206757867Y-145448266D01*
X206627842Y-145364011D01*
X206532856Y-145301494D01*
X206089614Y-144998099D01*
X205675493Y-144692631D01*
X205280750Y-144377113D01*
X204895644Y-144043569D01*
X204510435Y-143684024D01*
X204277720Y-143455016D01*
X203737704Y-142887164D01*
X203231798Y-142299250D01*
X202757809Y-141688303D01*
X202313540Y-141051359D01*
X201896798Y-140385449D01*
X201543423Y-139758860D01*
X201494546Y-139666366D01*
X201438176Y-139557353D01*
X201377204Y-139437661D01*
X201314519Y-139313134D01*
X201253010Y-139189613D01*
X201195568Y-139072940D01*
X201145084Y-138968957D01*
X201104447Y-138883505D01*
X201076546Y-138822428D01*
X201064272Y-138791566D01*
X201063946Y-138789627D01*
X201055713Y-138768282D01*
X201033829Y-138718706D01*
X201002519Y-138650400D01*
X200992221Y-138628322D01*
X200909991Y-138444490D01*
X200819431Y-138227542D01*
X200723139Y-137984650D01*
X200623716Y-137722986D01*
X200523761Y-137449727D01*
X200425876Y-137172044D01*
X200332661Y-136897112D01*
X200246715Y-136632105D01*
X200170638Y-136384194D01*
X200137473Y-136270155D01*
X199944784Y-135539791D01*
X199781650Y-134804612D01*
X199647090Y-134058638D01*
X199540124Y-133295887D01*
X199459770Y-132510379D01*
X199413754Y-131857474D01*
X199407050Y-131703950D01*
X199402199Y-131515895D01*
X199399129Y-131299962D01*
X199397762Y-131062803D01*
X199398028Y-130811068D01*
X199398236Y-130781505D01*
X199619623Y-130781505D01*
X199625895Y-131344414D01*
X199646123Y-131886371D01*
X199680831Y-132416750D01*
X199730548Y-132944929D01*
X199795802Y-133480284D01*
X199822853Y-133674176D01*
X199966793Y-134540655D01*
X200146351Y-135388027D01*
X200361253Y-136215613D01*
X200611228Y-137022733D01*
X200896001Y-137808707D01*
X201215302Y-138572855D01*
X201568854Y-139314499D01*
X201956389Y-140032960D01*
X202377630Y-140727556D01*
X202832308Y-141397610D01*
X203034297Y-141673043D01*
X203257579Y-141965345D01*
X203469988Y-142231519D01*
X203680574Y-142482123D01*
X203898392Y-142727716D01*
X204132491Y-142978854D01*
X204321945Y-143174897D01*
X204849666Y-143689446D01*
X205390138Y-144167051D01*
X205948731Y-144611856D01*
X206530814Y-145028007D01*
X207141760Y-145419648D01*
X207513920Y-145638613D01*
X207633899Y-145706838D01*
X207721406Y-145755974D01*
X207780102Y-145787853D01*
X207813643Y-145804302D01*
X207825690Y-145807151D01*
X207819900Y-145798229D01*
X207805406Y-145784319D01*
X207776602Y-145759867D01*
X207723698Y-145716546D01*
X207655334Y-145661390D01*
X207607852Y-145623442D01*
X207212673Y-145294160D01*
X207202778Y-145285216D01*
X213026179Y-145285216D01*
X213385449Y-145391132D01*
X214016771Y-145562492D01*
X214636077Y-145699990D01*
X215253218Y-145805328D01*
X215878045Y-145880207D01*
X216468738Y-145923689D01*
X216598907Y-145928643D01*
X216760886Y-145931819D01*
X216944781Y-145933271D01*
X217140695Y-145933056D01*
X217338732Y-145931230D01*
X217528996Y-145927846D01*
X217701591Y-145922962D01*
X217846621Y-145916632D01*
X217859742Y-145915892D01*
X218626075Y-145850817D01*
X219389989Y-145744421D01*
X220151895Y-145596617D01*
X220912206Y-145407314D01*
X221671334Y-145176424D01*
X222262638Y-144967501D01*
X222379850Y-144922629D01*
X222509017Y-144871597D01*
X222644648Y-144816739D01*
X222781258Y-144760389D01*
X222913359Y-144704879D01*
X223035461Y-144652547D01*
X223142078Y-144605723D01*
X223227721Y-144566743D01*
X223286904Y-144537939D01*
X223314138Y-144521646D01*
X223315312Y-144519816D01*
X223297406Y-144508435D01*
X223246583Y-144480452D01*
X223167187Y-144438094D01*
X223063561Y-144383587D01*
X222940048Y-144319159D01*
X222800992Y-144247038D01*
X222650735Y-144169449D01*
X222493621Y-144088621D01*
X222333992Y-144006780D01*
X222176195Y-143926154D01*
X222024569Y-143848968D01*
X221883460Y-143777452D01*
X221757209Y-143713831D01*
X221650162Y-143660333D01*
X221566659Y-143619185D01*
X221511046Y-143592614D01*
X221488259Y-143582960D01*
X221457861Y-143588085D01*
X221401723Y-143607435D01*
X221331621Y-143636915D01*
X221326895Y-143639069D01*
X220584124Y-143959458D01*
X219843609Y-144238908D01*
X219103152Y-144477988D01*
X218360549Y-144677267D01*
X217613601Y-144837312D01*
X216860105Y-144958696D01*
X216097862Y-145041986D01*
X215821653Y-145062703D01*
X215636694Y-145071864D01*
X215420229Y-145077460D01*
X215180787Y-145079653D01*
X214926898Y-145078608D01*
X214667092Y-145074488D01*
X214409896Y-145067457D01*
X214163843Y-145057678D01*
X213937461Y-145045315D01*
X213739280Y-145030531D01*
X213640352Y-145020883D01*
X213487175Y-145004140D01*
X213370264Y-144991781D01*
X213284330Y-144984163D01*
X213224086Y-144981639D01*
X213184245Y-144984565D01*
X213159519Y-144993297D01*
X213144620Y-145008189D01*
X213134261Y-145029597D01*
X213124109Y-145055562D01*
X213092993Y-145130253D01*
X213060994Y-145205221D01*
X213059123Y-145209527D01*
X213026179Y-145285216D01*
X207202778Y-145285216D01*
X206804781Y-144925481D01*
X206616983Y-144743281D01*
X213260078Y-144743281D01*
X213335409Y-144755235D01*
X213387173Y-144762004D01*
X213471472Y-144771424D01*
X213579244Y-144782625D01*
X213701424Y-144794737D01*
X213828951Y-144806890D01*
X213952762Y-144818215D01*
X214063792Y-144827841D01*
X214152980Y-144834896D01*
X214193504Y-144837610D01*
X214294313Y-144841804D01*
X214428886Y-144844896D01*
X214589496Y-144846922D01*
X214768414Y-144847916D01*
X214957911Y-144847912D01*
X215150260Y-144846946D01*
X215337731Y-144845051D01*
X215512595Y-144842262D01*
X215667125Y-144838612D01*
X215793592Y-144834137D01*
X215866959Y-144830153D01*
X216643380Y-144756190D01*
X217415479Y-144640810D01*
X218183396Y-144483981D01*
X218947273Y-144285669D01*
X219707253Y-144045840D01*
X220463479Y-143764458D01*
X220653915Y-143686807D01*
X220848190Y-143605196D01*
X221005574Y-143536780D01*
X221128384Y-143480406D01*
X221218930Y-143434924D01*
X221279529Y-143399178D01*
X221312494Y-143372020D01*
X221320520Y-143354923D01*
X221314177Y-143329938D01*
X221295982Y-143267499D01*
X221266579Y-143169656D01*
X221226613Y-143038457D01*
X221176727Y-142875950D01*
X221117565Y-142684185D01*
X221049771Y-142465208D01*
X220973989Y-142221070D01*
X220890862Y-141953819D01*
X220801034Y-141665502D01*
X220705151Y-141358170D01*
X220603854Y-141033870D01*
X220497789Y-140694651D01*
X220387597Y-140342562D01*
X220273925Y-139979650D01*
X220157416Y-139607965D01*
X220038713Y-139229555D01*
X219918460Y-138846469D01*
X219797302Y-138460755D01*
X219675880Y-138074462D01*
X219554842Y-137689638D01*
X219434828Y-137308332D01*
X219316485Y-136932593D01*
X219200454Y-136564469D01*
X219087381Y-136206008D01*
X218977908Y-135859259D01*
X218872682Y-135526272D01*
X218772344Y-135209093D01*
X218677537Y-134909772D01*
X218588909Y-134630358D01*
X218507100Y-134372899D01*
X218432756Y-134139443D01*
X218366519Y-133932039D01*
X218309034Y-133752736D01*
X218260946Y-133603581D01*
X218222897Y-133486625D01*
X218195531Y-133403915D01*
X218179493Y-133357500D01*
X218175301Y-133347718D01*
X218163943Y-133369605D01*
X218138002Y-133425751D01*
X218099303Y-133512024D01*
X218049667Y-133624292D01*
X217990917Y-133758424D01*
X217924877Y-133910291D01*
X217853367Y-134075758D01*
X217823678Y-134144740D01*
X217729077Y-134364778D01*
X217634428Y-134584874D01*
X217538335Y-134808270D01*
X217439401Y-135038210D01*
X217336229Y-135277937D01*
X217227425Y-135530694D01*
X217111592Y-135799722D01*
X216987333Y-136088266D01*
X216853252Y-136399567D01*
X216707953Y-136736870D01*
X216550040Y-137103416D01*
X216378117Y-137502449D01*
X216228832Y-137848916D01*
X216118466Y-138105075D01*
X216004987Y-138368506D01*
X215890710Y-138633828D01*
X215777950Y-138895664D01*
X215669026Y-139148632D01*
X215566252Y-139387354D01*
X215471947Y-139606450D01*
X215388425Y-139800538D01*
X215318002Y-139964242D01*
X215289631Y-140030218D01*
X215226292Y-140177489D01*
X215148745Y-140357719D01*
X215059308Y-140565527D01*
X214960296Y-140795534D01*
X214854025Y-141042361D01*
X214742811Y-141300628D01*
X214628972Y-141564954D01*
X214514823Y-141829962D01*
X214402681Y-142090269D01*
X214350439Y-142211520D01*
X214243119Y-142460597D01*
X214134988Y-142711577D01*
X214028051Y-142959798D01*
X213924315Y-143200603D01*
X213825788Y-143429333D01*
X213734475Y-143641331D01*
X213652383Y-143831938D01*
X213581519Y-143996493D01*
X213523890Y-144130340D01*
X213494962Y-144197543D01*
X213260078Y-144743281D01*
X206616983Y-144743281D01*
X206384026Y-144517269D01*
X206376044Y-144509268D01*
X205903041Y-144015572D01*
X205464175Y-143516426D01*
X205053250Y-143003915D01*
X204664075Y-142470117D01*
X204290456Y-141907115D01*
X204097580Y-141595746D01*
X203685435Y-140874899D01*
X203308224Y-140132104D01*
X202966169Y-139368603D01*
X202659490Y-138585639D01*
X202388407Y-137784451D01*
X202153143Y-136966285D01*
X201953917Y-136132380D01*
X201790950Y-135283980D01*
X201664463Y-134422326D01*
X201574677Y-133548661D01*
X201521812Y-132664226D01*
X201506089Y-131770263D01*
X201509026Y-131647776D01*
X204101382Y-131647776D01*
X204102975Y-131896639D01*
X204106427Y-132131480D01*
X204111771Y-132345378D01*
X204119035Y-132531416D01*
X204128252Y-132682672D01*
X204128252Y-132682675D01*
X204205113Y-133478044D01*
X204310592Y-134246028D01*
X204445573Y-134990441D01*
X204610938Y-135715101D01*
X204807566Y-136423820D01*
X205036340Y-137120415D01*
X205298142Y-137808699D01*
X205331719Y-137890673D01*
X205407324Y-138066453D01*
X205499596Y-138269031D01*
X205604221Y-138489782D01*
X205716881Y-138720080D01*
X205833262Y-138951299D01*
X205949048Y-139174814D01*
X206059922Y-139382001D01*
X206161570Y-139564232D01*
X206214239Y-139654491D01*
X206614584Y-140289360D01*
X207039882Y-140891924D01*
X207492042Y-141464691D01*
X207972975Y-142010171D01*
X208152810Y-142199611D01*
X208240560Y-142289899D01*
X208318088Y-142368944D01*
X208380864Y-142432190D01*
X208424359Y-142475075D01*
X208444047Y-142493047D01*
X208444632Y-142493315D01*
X208444452Y-142476678D01*
X208435407Y-142446349D01*
X208427808Y-142423037D01*
X208407958Y-142361446D01*
X208376330Y-142263055D01*
X208333401Y-142129346D01*
X208279643Y-141961799D01*
X208215532Y-141761894D01*
X208141542Y-141531113D01*
X208058146Y-141270935D01*
X207965820Y-140982843D01*
X207865037Y-140668316D01*
X207756274Y-140328835D01*
X207640002Y-139965880D01*
X207516698Y-139580934D01*
X207386835Y-139175475D01*
X207250887Y-138750984D01*
X207109330Y-138308943D01*
X206962637Y-137850833D01*
X206811283Y-137378133D01*
X206655743Y-136892323D01*
X206496489Y-136394886D01*
X206333997Y-135887302D01*
X206322639Y-135851821D01*
X206160110Y-135344205D01*
X206000830Y-134846939D01*
X205845268Y-134361487D01*
X205693897Y-133889314D01*
X205547187Y-133431882D01*
X205405609Y-132990657D01*
X205269636Y-132567104D01*
X205139737Y-132162686D01*
X205016386Y-131778867D01*
X204900052Y-131417112D01*
X204791207Y-131078885D01*
X204690322Y-130765651D01*
X204597869Y-130478873D01*
X204514318Y-130220016D01*
X204440141Y-129990546D01*
X204375809Y-129791924D01*
X204321794Y-129625616D01*
X204278566Y-129493086D01*
X204246597Y-129395799D01*
X204226358Y-129335219D01*
X204218320Y-129312809D01*
X204218213Y-129312713D01*
X204213743Y-129326506D01*
X204208033Y-129362004D01*
X204200781Y-129422244D01*
X204191681Y-129510264D01*
X204180427Y-129629100D01*
X204166715Y-129781788D01*
X204150239Y-129971366D01*
X204139729Y-130094336D01*
X204129162Y-130247613D01*
X204120241Y-130435304D01*
X204112994Y-130650488D01*
X204107455Y-130886247D01*
X204103652Y-131135661D01*
X204101618Y-131391811D01*
X204101382Y-131647776D01*
X201509026Y-131647776D01*
X201527728Y-130868014D01*
X201586951Y-129958722D01*
X201683978Y-129043628D01*
X201726556Y-128737868D01*
X204297919Y-128737868D01*
X204301011Y-128775670D01*
X204308173Y-128807568D01*
X204309074Y-128810603D01*
X204317282Y-128836586D01*
X204337765Y-128900880D01*
X204370060Y-129002041D01*
X204413704Y-129138625D01*
X204468234Y-129309185D01*
X204533188Y-129512278D01*
X204608104Y-129746458D01*
X204692518Y-130010279D01*
X204785969Y-130302298D01*
X204887994Y-130621069D01*
X204998130Y-130965148D01*
X205115915Y-131333088D01*
X205240886Y-131723446D01*
X205372581Y-132134776D01*
X205510537Y-132565633D01*
X205654291Y-133014573D01*
X205803382Y-133480150D01*
X205957346Y-133960919D01*
X206115721Y-134455435D01*
X206278044Y-134962253D01*
X206443855Y-135479929D01*
X206564146Y-135855477D01*
X208793984Y-142816858D01*
X209046303Y-143029947D01*
X209335019Y-143266936D01*
X209619831Y-143485962D01*
X209915909Y-143698350D01*
X210185753Y-143880797D01*
X210368089Y-144000655D01*
X210517992Y-144098050D01*
X210635065Y-144172730D01*
X210718903Y-144224442D01*
X210769107Y-144252934D01*
X210785032Y-144258708D01*
X210779019Y-144238813D01*
X210760664Y-144180403D01*
X210730363Y-144084715D01*
X210688512Y-143952990D01*
X210635509Y-143786469D01*
X210571749Y-143586390D01*
X210497629Y-143353994D01*
X210413545Y-143090520D01*
X210319893Y-142797208D01*
X210217071Y-142475298D01*
X210105475Y-142126030D01*
X209985499Y-141750644D01*
X209857541Y-141350380D01*
X209721998Y-140926477D01*
X209579265Y-140480175D01*
X209429740Y-140012714D01*
X209273817Y-139525335D01*
X209111894Y-139019276D01*
X208944368Y-138495778D01*
X208771634Y-137956080D01*
X208594088Y-137401423D01*
X208412128Y-136833046D01*
X208226150Y-136252189D01*
X208169299Y-136074652D01*
X211622612Y-136074652D01*
X212118604Y-137624257D01*
X212196893Y-137868373D01*
X212271614Y-138100430D01*
X212341784Y-138317433D01*
X212406422Y-138516390D01*
X212464546Y-138694310D01*
X212515173Y-138848198D01*
X212557323Y-138975061D01*
X212590013Y-139071907D01*
X212612262Y-139135744D01*
X212623087Y-139163578D01*
X212623912Y-139164545D01*
X212635492Y-139142740D01*
X212659801Y-139090694D01*
X212693123Y-139016529D01*
X212726512Y-138940420D01*
X212753549Y-138877998D01*
X212795611Y-138780674D01*
X212851215Y-138651887D01*
X212918879Y-138495078D01*
X212997118Y-138313690D01*
X213084451Y-138111163D01*
X213179395Y-137890939D01*
X213280467Y-137656458D01*
X213386184Y-137411162D01*
X213495062Y-137158493D01*
X213605620Y-136901891D01*
X213716374Y-136644798D01*
X213825841Y-136390655D01*
X213932539Y-136142903D01*
X214034984Y-135904984D01*
X214131694Y-135680337D01*
X214221186Y-135472407D01*
X214301977Y-135284633D01*
X214370674Y-135124898D01*
X214434014Y-134977631D01*
X214511564Y-134797405D01*
X214601010Y-134589602D01*
X214700032Y-134359602D01*
X214806316Y-134112781D01*
X214917546Y-133854521D01*
X215031403Y-133590200D01*
X215145572Y-133325198D01*
X215257737Y-133064894D01*
X215289628Y-132990895D01*
X218321741Y-132990895D01*
X219946765Y-138176919D01*
X221571789Y-143362943D01*
X222479646Y-143824393D01*
X222659666Y-143915710D01*
X222828070Y-144000777D01*
X222981265Y-144077804D01*
X223115654Y-144145002D01*
X223227647Y-144200579D01*
X223313648Y-144242747D01*
X223370062Y-144269714D01*
X223393295Y-144279690D01*
X223393676Y-144279669D01*
X223387983Y-144259515D01*
X223370253Y-144200987D01*
X223340940Y-144105539D01*
X223300500Y-143974630D01*
X223249385Y-143809720D01*
X223188054Y-143612264D01*
X223116960Y-143383722D01*
X223036557Y-143125551D01*
X223014658Y-143055295D01*
X225889675Y-143055295D01*
X225891094Y-143056891D01*
X225892504Y-143056905D01*
X225911256Y-143045322D01*
X225958363Y-143013134D01*
X226028336Y-142964179D01*
X226115687Y-142902294D01*
X226210087Y-142834795D01*
X226913817Y-142303921D01*
X227594279Y-141738859D01*
X228250493Y-141140715D01*
X228881480Y-140510601D01*
X229486261Y-139849625D01*
X230063857Y-139158897D01*
X230613289Y-138439527D01*
X231133577Y-137692622D01*
X231623743Y-136919294D01*
X231994077Y-136281370D01*
X232415924Y-135484960D01*
X232801648Y-134674107D01*
X233150897Y-133850546D01*
X233463317Y-133016018D01*
X233738556Y-132172260D01*
X233976263Y-131321010D01*
X234176085Y-130464008D01*
X234337671Y-129602991D01*
X234460666Y-128739696D01*
X234544718Y-127875865D01*
X234589476Y-127013233D01*
X234594587Y-126153539D01*
X234559698Y-125298521D01*
X234484458Y-124449919D01*
X234450016Y-124166205D01*
X234428201Y-123995727D01*
X234410872Y-123864919D01*
X234395926Y-123772230D01*
X234381259Y-123716106D01*
X234364765Y-123694992D01*
X234344342Y-123707338D01*
X234317885Y-123751590D01*
X234283290Y-123826194D01*
X234238452Y-123929599D01*
X234212006Y-123990538D01*
X234148687Y-124135619D01*
X234076676Y-124300756D01*
X233999275Y-124478362D01*
X233919786Y-124660852D01*
X233841513Y-124840641D01*
X233767758Y-125010143D01*
X233701824Y-125161772D01*
X233647013Y-125287942D01*
X233617486Y-125356006D01*
X233572456Y-125459756D01*
X233517479Y-125586193D01*
X233454820Y-125730124D01*
X233386747Y-125886356D01*
X233315527Y-126049696D01*
X233243426Y-126214952D01*
X233172712Y-126376932D01*
X233105650Y-126530442D01*
X233044509Y-126670289D01*
X232991554Y-126791281D01*
X232949052Y-126888226D01*
X232919272Y-126955930D01*
X232906753Y-126984155D01*
X232821237Y-127175295D01*
X232751148Y-127333113D01*
X232694739Y-127462341D01*
X232650265Y-127567711D01*
X232615981Y-127653952D01*
X232590142Y-127725797D01*
X232571002Y-127787978D01*
X232556817Y-127845223D01*
X232545841Y-127902265D01*
X232536327Y-127963836D01*
X232530831Y-128003214D01*
X232386214Y-128904314D01*
X232200811Y-129799349D01*
X231975350Y-130686623D01*
X231710561Y-131564443D01*
X231407176Y-132431115D01*
X231065921Y-133284944D01*
X230687531Y-134124238D01*
X230272732Y-134947301D01*
X229822257Y-135752440D01*
X229336834Y-136537960D01*
X228817194Y-137302169D01*
X228264068Y-138043371D01*
X228131180Y-138211680D01*
X228060307Y-138300428D01*
X228000701Y-138375899D01*
X227949869Y-138442699D01*
X227905322Y-138505434D01*
X227864564Y-138568711D01*
X227825106Y-138637136D01*
X227784453Y-138715317D01*
X227740116Y-138807859D01*
X227689600Y-138919369D01*
X227630415Y-139054452D01*
X227560069Y-139217717D01*
X227476068Y-139413769D01*
X227457893Y-139456191D01*
X227431778Y-139517075D01*
X227406959Y-139574750D01*
X227381532Y-139633578D01*
X227353590Y-139697917D01*
X227321228Y-139772124D01*
X227282542Y-139860560D01*
X227235624Y-139967584D01*
X227178570Y-140097552D01*
X227109473Y-140254827D01*
X227026429Y-140443764D01*
X226978821Y-140552061D01*
X226913079Y-140701817D01*
X226847601Y-140851357D01*
X226785888Y-140992658D01*
X226731444Y-141117694D01*
X226687768Y-141218435D01*
X226664622Y-141272203D01*
X226641104Y-141327093D01*
X226619363Y-141377711D01*
X226597570Y-141428238D01*
X226573901Y-141482851D01*
X226546531Y-141545729D01*
X226513633Y-141621050D01*
X226473383Y-141712994D01*
X226423954Y-141825738D01*
X226363523Y-141963461D01*
X226290262Y-142130342D01*
X226202346Y-142330559D01*
X226185873Y-142368073D01*
X226106717Y-142548340D01*
X226042774Y-142694055D01*
X225992480Y-142808892D01*
X225954268Y-142896528D01*
X225926574Y-142960636D01*
X225907834Y-143004891D01*
X225896480Y-143032970D01*
X225890949Y-143048546D01*
X225889675Y-143055295D01*
X223014658Y-143055295D01*
X222947303Y-142839208D01*
X222849651Y-142526153D01*
X222744056Y-142187843D01*
X222630975Y-141825735D01*
X222510861Y-141441287D01*
X222384170Y-141035959D01*
X222251357Y-140611207D01*
X222112876Y-140168489D01*
X221969185Y-139709263D01*
X221820736Y-139234987D01*
X221667985Y-138747120D01*
X221511387Y-138247118D01*
X221351399Y-137736440D01*
X221306837Y-137594228D01*
X220542455Y-135154914D01*
X223742842Y-135154914D01*
X223743029Y-135174088D01*
X223745963Y-135190273D01*
X223750195Y-135204967D01*
X223760113Y-135236985D01*
X223781467Y-135305541D01*
X223813224Y-135407334D01*
X223854353Y-135539059D01*
X223903823Y-135697413D01*
X223960600Y-135879093D01*
X224023653Y-136080795D01*
X224091948Y-136299218D01*
X224164456Y-136531056D01*
X224238461Y-136767635D01*
X224703413Y-138253820D01*
X224752223Y-138145299D01*
X224774007Y-138096422D01*
X224809673Y-138015863D01*
X224856337Y-137910172D01*
X224911105Y-137785898D01*
X224945512Y-137707716D01*
X228228124Y-137707716D01*
X228230971Y-137708932D01*
X228237638Y-137702801D01*
X228256026Y-137679825D01*
X228294734Y-137629174D01*
X228349300Y-137556762D01*
X228415262Y-137468510D01*
X228473781Y-137389740D01*
X228686268Y-137094789D01*
X228909286Y-136770025D01*
X229137263Y-136424151D01*
X229364620Y-136065867D01*
X229585785Y-135703876D01*
X229795180Y-135346881D01*
X229891424Y-135177082D01*
X229966078Y-135040445D01*
X230054086Y-134873948D01*
X230151407Y-134685682D01*
X230253997Y-134483740D01*
X230357816Y-134276212D01*
X230458820Y-134071188D01*
X230552969Y-133876760D01*
X230636220Y-133701020D01*
X230704531Y-133552057D01*
X230715216Y-133528060D01*
X231027415Y-132783408D01*
X231312914Y-132021467D01*
X231569324Y-131249740D01*
X231794257Y-130475726D01*
X231985322Y-129706930D01*
X232091441Y-129207392D01*
X232126374Y-129030568D01*
X232153688Y-128891334D01*
X232173804Y-128786315D01*
X232187137Y-128712134D01*
X232194110Y-128665415D01*
X232195139Y-128642782D01*
X232190645Y-128640860D01*
X232181047Y-128656271D01*
X232166763Y-128685641D01*
X232152359Y-128716672D01*
X232116718Y-128794851D01*
X232073730Y-128891050D01*
X232032487Y-128984913D01*
X232031134Y-128988030D01*
X232003921Y-129050447D01*
X231963030Y-129143894D01*
X231911610Y-129261198D01*
X231852808Y-129395180D01*
X231789771Y-129538664D01*
X231738179Y-129655988D01*
X231672398Y-129805735D01*
X231606886Y-129955267D01*
X231545145Y-130096561D01*
X231490678Y-130221593D01*
X231446987Y-130322336D01*
X231423825Y-130376131D01*
X231397891Y-130436640D01*
X231373278Y-130493882D01*
X231348084Y-130552202D01*
X231320410Y-130615952D01*
X231288355Y-130689476D01*
X231250020Y-130777125D01*
X231203503Y-130883245D01*
X231146904Y-131012183D01*
X231078323Y-131168289D01*
X230995858Y-131355911D01*
X230944825Y-131472001D01*
X230879082Y-131621756D01*
X230813604Y-131771297D01*
X230751892Y-131912598D01*
X230697447Y-132037632D01*
X230653771Y-132138374D01*
X230630625Y-132192143D01*
X230604691Y-132252652D01*
X230580077Y-132309893D01*
X230554883Y-132368214D01*
X230527210Y-132431963D01*
X230495155Y-132505488D01*
X230456819Y-132593137D01*
X230410303Y-132699257D01*
X230353703Y-132828196D01*
X230285122Y-132984302D01*
X230202657Y-133171923D01*
X230151624Y-133288012D01*
X230085881Y-133437768D01*
X230020404Y-133587310D01*
X229958692Y-133728611D01*
X229904246Y-133853645D01*
X229860571Y-133954387D01*
X229837424Y-134008155D01*
X229811490Y-134068664D01*
X229786876Y-134125905D01*
X229761682Y-134184227D01*
X229734009Y-134247976D01*
X229701954Y-134321501D01*
X229663619Y-134409149D01*
X229617101Y-134515269D01*
X229560503Y-134644208D01*
X229491921Y-134800314D01*
X229409457Y-134987934D01*
X229358423Y-135104024D01*
X229292681Y-135253780D01*
X229227203Y-135403321D01*
X229165491Y-135544622D01*
X229111045Y-135669657D01*
X229067370Y-135770399D01*
X229044223Y-135824167D01*
X229018880Y-135883301D01*
X228994777Y-135939374D01*
X228970137Y-135996448D01*
X228943185Y-136058586D01*
X228912146Y-136129851D01*
X228875244Y-136214305D01*
X228830704Y-136316010D01*
X228776750Y-136439029D01*
X228711607Y-136587426D01*
X228633499Y-136765261D01*
X228540650Y-136976598D01*
X228524230Y-137013968D01*
X228443060Y-137198808D01*
X228377324Y-137348837D01*
X228325615Y-137467445D01*
X228286522Y-137558017D01*
X228258636Y-137623943D01*
X228240547Y-137668609D01*
X228230847Y-137695404D01*
X228228124Y-137707716D01*
X224945512Y-137707716D01*
X224971092Y-137649590D01*
X225021102Y-137535811D01*
X225086272Y-137387243D01*
X225151275Y-137238673D01*
X225212542Y-137098286D01*
X225266503Y-136974269D01*
X225309590Y-136874805D01*
X225330543Y-136826105D01*
X225356478Y-136765596D01*
X225381092Y-136708355D01*
X225406285Y-136650034D01*
X225433959Y-136586284D01*
X225466013Y-136512759D01*
X225504349Y-136425111D01*
X225550866Y-136318991D01*
X225607465Y-136190052D01*
X225676047Y-136033946D01*
X225758511Y-135846325D01*
X225809545Y-135730236D01*
X225875287Y-135580480D01*
X225940764Y-135430938D01*
X226002477Y-135289637D01*
X226056922Y-135164603D01*
X226100597Y-135063861D01*
X226123744Y-135010093D01*
X226149679Y-134949584D01*
X226174292Y-134892343D01*
X226199485Y-134834021D01*
X226227160Y-134770272D01*
X226259214Y-134696747D01*
X226297550Y-134609099D01*
X226344067Y-134502979D01*
X226400666Y-134374040D01*
X226469247Y-134217934D01*
X226551711Y-134030314D01*
X226602745Y-133914224D01*
X226668487Y-133764467D01*
X226733966Y-133614926D01*
X226795678Y-133473626D01*
X226850122Y-133348591D01*
X226893798Y-133247849D01*
X226916944Y-133194081D01*
X226941548Y-133136667D01*
X226964589Y-133083051D01*
X226987928Y-133028979D01*
X227013425Y-132970195D01*
X227042938Y-132902442D01*
X227078330Y-132821464D01*
X227121457Y-132723006D01*
X227174182Y-132602810D01*
X227238363Y-132456621D01*
X227315860Y-132280184D01*
X227395805Y-132098211D01*
X227462215Y-131946860D01*
X227529011Y-131794270D01*
X227592537Y-131648828D01*
X227649131Y-131518918D01*
X227695135Y-131412927D01*
X227719188Y-131357195D01*
X227751583Y-131282262D01*
X227797967Y-131175577D01*
X227855519Y-131043601D01*
X227921415Y-130892795D01*
X227992833Y-130729619D01*
X228066951Y-130560534D01*
X228115825Y-130449189D01*
X228190178Y-130279741D01*
X228263687Y-130111951D01*
X228333529Y-129952280D01*
X228396882Y-129807188D01*
X228450924Y-129683136D01*
X228492832Y-129586586D01*
X228512425Y-129541183D01*
X228544811Y-129466250D01*
X228591187Y-129359565D01*
X228648731Y-129227590D01*
X228714621Y-129076785D01*
X228786035Y-128913609D01*
X228860150Y-128744525D01*
X228909025Y-128633176D01*
X228983380Y-128463729D01*
X229056889Y-128295941D01*
X229126730Y-128136269D01*
X229190083Y-127991177D01*
X229244124Y-127867126D01*
X229286033Y-127770574D01*
X229305625Y-127725171D01*
X229338012Y-127650239D01*
X229384388Y-127543554D01*
X229441931Y-127411579D01*
X229507822Y-127260773D01*
X229579236Y-127097597D01*
X229653351Y-126928513D01*
X229702226Y-126817166D01*
X229776580Y-126647718D01*
X229850089Y-126479928D01*
X229919931Y-126320257D01*
X229983284Y-126175165D01*
X230037325Y-126051113D01*
X230079234Y-125954563D01*
X230098826Y-125909160D01*
X230131212Y-125834227D01*
X230177589Y-125727542D01*
X230235133Y-125595567D01*
X230301022Y-125444761D01*
X230372436Y-125281586D01*
X230446553Y-125112502D01*
X230495426Y-125001153D01*
X230569781Y-124831706D01*
X230643290Y-124663916D01*
X230713132Y-124504245D01*
X230776485Y-124359153D01*
X230830526Y-124235101D01*
X230872435Y-124138551D01*
X230892027Y-124093147D01*
X230924413Y-124018215D01*
X230970789Y-123911530D01*
X231028334Y-123779554D01*
X231094224Y-123628748D01*
X231165637Y-123465573D01*
X231239753Y-123296490D01*
X231288627Y-123185141D01*
X231362982Y-123015693D01*
X231436491Y-122847904D01*
X231506333Y-122688233D01*
X231569685Y-122543141D01*
X231623727Y-122419090D01*
X231665635Y-122322538D01*
X231685227Y-122277135D01*
X231717617Y-122202206D01*
X231764001Y-122095528D01*
X231821561Y-121963560D01*
X231887470Y-121812763D01*
X231958909Y-121649596D01*
X232033054Y-121480520D01*
X232081968Y-121369130D01*
X232155800Y-121200924D01*
X232228289Y-121035454D01*
X232296713Y-120878962D01*
X232358345Y-120737690D01*
X232410463Y-120617880D01*
X232450342Y-120525773D01*
X232469144Y-120481997D01*
X232503544Y-120402049D01*
X232551091Y-120292453D01*
X232608063Y-120161748D01*
X232670732Y-120018472D01*
X232735373Y-119871163D01*
X232769173Y-119794343D01*
X232826226Y-119662898D01*
X232876175Y-119544119D01*
X232916932Y-119443285D01*
X232946406Y-119365677D01*
X232962509Y-119316572D01*
X232964316Y-119301321D01*
X232937318Y-119284361D01*
X232878222Y-119251908D01*
X232791324Y-119206094D01*
X232680916Y-119149049D01*
X232551294Y-119082907D01*
X232406751Y-119009799D01*
X232251583Y-118931856D01*
X232090083Y-118851211D01*
X231926544Y-118769994D01*
X231765263Y-118690340D01*
X231610533Y-118614378D01*
X231466647Y-118544239D01*
X231337901Y-118482058D01*
X231228588Y-118429965D01*
X231143003Y-118390092D01*
X231085441Y-118364570D01*
X231060194Y-118355532D01*
X231059480Y-118355706D01*
X231045750Y-118380174D01*
X231018902Y-118436212D01*
X230982091Y-118516943D01*
X230938474Y-118615491D01*
X230907531Y-118686859D01*
X230865784Y-118783507D01*
X230810448Y-118910989D01*
X230744742Y-119061925D01*
X230671885Y-119228935D01*
X230595094Y-119404638D01*
X230517587Y-119581652D01*
X230475177Y-119678360D01*
X230400879Y-119847820D01*
X230327420Y-120015621D01*
X230257621Y-120175302D01*
X230194306Y-120320400D01*
X230140293Y-120444453D01*
X230098403Y-120540998D01*
X230078830Y-120586366D01*
X230046444Y-120661298D01*
X230000068Y-120767983D01*
X229942523Y-120899958D01*
X229876633Y-121050764D01*
X229805220Y-121213940D01*
X229731104Y-121383023D01*
X229682230Y-121494371D01*
X229607876Y-121663819D01*
X229534366Y-121831609D01*
X229464524Y-121991280D01*
X229401172Y-122136371D01*
X229347130Y-122260423D01*
X229305222Y-122356974D01*
X229285630Y-122402377D01*
X229253243Y-122477310D01*
X229206867Y-122583994D01*
X229149323Y-122715970D01*
X229083433Y-122866776D01*
X229012019Y-123029951D01*
X228937903Y-123199035D01*
X228889030Y-123310383D01*
X228814673Y-123479832D01*
X228741159Y-123647622D01*
X228671311Y-123807293D01*
X228607949Y-123952386D01*
X228553898Y-124076438D01*
X228511978Y-124172988D01*
X228492379Y-124218390D01*
X228460140Y-124293024D01*
X228413309Y-124400940D01*
X228354053Y-124537177D01*
X228284537Y-124696782D01*
X228206924Y-124874795D01*
X228123379Y-125066260D01*
X228036068Y-125266221D01*
X227947156Y-125469718D01*
X227858807Y-125671796D01*
X227773186Y-125867499D01*
X227692459Y-126051868D01*
X227618789Y-126219946D01*
X227554342Y-126366778D01*
X227521519Y-126441439D01*
X227471231Y-126555988D01*
X227408464Y-126699357D01*
X227337356Y-126862071D01*
X227262045Y-127034653D01*
X227186671Y-127207625D01*
X227124965Y-127349445D01*
X227052844Y-127515177D01*
X226977224Y-127688666D01*
X226902245Y-127860437D01*
X226832047Y-128021011D01*
X226770768Y-128160912D01*
X226728365Y-128257451D01*
X226678064Y-128372000D01*
X226615285Y-128515370D01*
X226544167Y-128678085D01*
X226468849Y-128850667D01*
X226393471Y-129023640D01*
X226331764Y-129165456D01*
X226259643Y-129331188D01*
X226184023Y-129504678D01*
X226109045Y-129676448D01*
X226038846Y-129837022D01*
X225977567Y-129976924D01*
X225935164Y-130073462D01*
X225884864Y-130188012D01*
X225822085Y-130331382D01*
X225750967Y-130494096D01*
X225675649Y-130666679D01*
X225600270Y-130839652D01*
X225538564Y-130981468D01*
X225466443Y-131147200D01*
X225390823Y-131320690D01*
X225315844Y-131492460D01*
X225245646Y-131653034D01*
X225184366Y-131792935D01*
X225141964Y-131889474D01*
X225091663Y-132004023D01*
X225028884Y-132147394D01*
X224957766Y-132310109D01*
X224882448Y-132482691D01*
X224807070Y-132655664D01*
X224745363Y-132797480D01*
X224673244Y-132963212D01*
X224597629Y-133136701D01*
X224522659Y-133308470D01*
X224452470Y-133469044D01*
X224391202Y-133608946D01*
X224348809Y-133705487D01*
X224231629Y-133971863D01*
X224130178Y-134202737D01*
X224043376Y-134400816D01*
X223970140Y-134568812D01*
X223909390Y-134709434D01*
X223860041Y-134825391D01*
X223821015Y-134919393D01*
X223791228Y-134994149D01*
X223769599Y-135052370D01*
X223755046Y-135096765D01*
X223746489Y-135130043D01*
X223742842Y-135154914D01*
X220542455Y-135154914D01*
X219213826Y-130914960D01*
X218957292Y-131511805D01*
X218881518Y-131688106D01*
X218800057Y-131877652D01*
X218717411Y-132069968D01*
X218638082Y-132254577D01*
X218566571Y-132421006D01*
X218511249Y-132549772D01*
X218321741Y-132990895D01*
X215289628Y-132990895D01*
X215310013Y-132943596D01*
X215420063Y-132688219D01*
X215532973Y-132426162D01*
X215646458Y-132162721D01*
X215758237Y-131903197D01*
X215866029Y-131652889D01*
X215967550Y-131417095D01*
X216060521Y-131201115D01*
X216142658Y-131010247D01*
X216211681Y-130849790D01*
X216240327Y-130783168D01*
X216319181Y-130599803D01*
X216400620Y-130410550D01*
X216481289Y-130223197D01*
X216557833Y-130045531D01*
X216626898Y-129885338D01*
X216685128Y-129750406D01*
X216716908Y-129676862D01*
X216774198Y-129543101D01*
X216815631Y-129442749D01*
X216842741Y-129371262D01*
X216857058Y-129324095D01*
X216860117Y-129296705D01*
X216853449Y-129284546D01*
X216849651Y-129283160D01*
X216822981Y-129283317D01*
X216758549Y-129286477D01*
X216660212Y-129292378D01*
X216531830Y-129300755D01*
X216377261Y-129311345D01*
X216200360Y-129323889D01*
X216004987Y-129338121D01*
X215795000Y-129353779D01*
X215643032Y-129365321D01*
X214470675Y-129455021D01*
X214229171Y-130019945D01*
X214162977Y-130174602D01*
X214084095Y-130358603D01*
X213996383Y-130562965D01*
X213903701Y-130778703D01*
X213809908Y-130996832D01*
X213718863Y-131208372D01*
X213650250Y-131367632D01*
X213559103Y-131579111D01*
X213457622Y-131814620D01*
X213350606Y-132063018D01*
X213242854Y-132313166D01*
X213139166Y-132553920D01*
X213044340Y-132774144D01*
X212993856Y-132891412D01*
X212925038Y-133051263D01*
X212842464Y-133243032D01*
X212748900Y-133460299D01*
X212647110Y-133696642D01*
X212539863Y-133945641D01*
X212429921Y-134200875D01*
X212320052Y-134455921D01*
X212213019Y-134704360D01*
X212148746Y-134853540D01*
X211622612Y-136074652D01*
X208169299Y-136074652D01*
X208036549Y-135660092D01*
X207853200Y-135087590D01*
X207660511Y-134486079D01*
X207470988Y-133894704D01*
X207285032Y-133314703D01*
X207103041Y-132747313D01*
X206925413Y-132193770D01*
X206752548Y-131655311D01*
X206584843Y-131133173D01*
X206422698Y-130628592D01*
X206266511Y-130142806D01*
X206116681Y-129677052D01*
X205973606Y-129232565D01*
X205837685Y-128810582D01*
X205709317Y-128412342D01*
X205588901Y-128039080D01*
X205476834Y-127692031D01*
X205373517Y-127372435D01*
X205279346Y-127081527D01*
X205194722Y-126820545D01*
X205120042Y-126590724D01*
X205055705Y-126393302D01*
X205002111Y-126229516D01*
X204959656Y-126100602D01*
X204928741Y-126007796D01*
X204909764Y-125952336D01*
X204903152Y-125935372D01*
X204891879Y-125961945D01*
X204872068Y-126023331D01*
X204845300Y-126113837D01*
X204813155Y-126227774D01*
X204777213Y-126359452D01*
X204739056Y-126503179D01*
X204700263Y-126653266D01*
X204666914Y-126785855D01*
X204533262Y-127366430D01*
X204412624Y-127976707D01*
X204363672Y-128255207D01*
X204337773Y-128410426D01*
X204318824Y-128530441D01*
X204306249Y-128621114D01*
X204299473Y-128688303D01*
X204297919Y-128737868D01*
X201726556Y-128737868D01*
X201764389Y-128466187D01*
X201928901Y-127520287D01*
X202134446Y-126574959D01*
X202380352Y-125632605D01*
X202665942Y-124695630D01*
X202990544Y-123766431D01*
X203317190Y-122934656D01*
X203359684Y-122832297D01*
X203398813Y-122738672D01*
X203430606Y-122663245D01*
X203451089Y-122615475D01*
X203453015Y-122611114D01*
X203479045Y-122552726D01*
X203511258Y-122480585D01*
X203522890Y-122454562D01*
X203555794Y-122380707D01*
X203594658Y-122293107D01*
X203617465Y-122241534D01*
X203716766Y-122022656D01*
X203832834Y-121777107D01*
X203961068Y-121514081D01*
X204069416Y-121297616D01*
X206889505Y-121297616D01*
X209200338Y-128512914D01*
X209371112Y-129045975D01*
X209538686Y-129568730D01*
X209702609Y-130079784D01*
X209862431Y-130577745D01*
X210017703Y-131061218D01*
X210167975Y-131528811D01*
X210312796Y-131979128D01*
X210451716Y-132410777D01*
X210584287Y-132822365D01*
X210710057Y-133212497D01*
X210828577Y-133579782D01*
X210939396Y-133922823D01*
X211042065Y-134240228D01*
X211136134Y-134530605D01*
X211221153Y-134792559D01*
X211296672Y-135024697D01*
X211362241Y-135225623D01*
X211417409Y-135393947D01*
X211461729Y-135528274D01*
X211494748Y-135627210D01*
X211516018Y-135689362D01*
X211525086Y-135713336D01*
X211525356Y-135713568D01*
X211537541Y-135690759D01*
X211563413Y-135635479D01*
X211600303Y-135553670D01*
X211645542Y-135451270D01*
X211696457Y-135334221D01*
X211710208Y-135302325D01*
X211761917Y-135182162D01*
X211826440Y-135032222D01*
X211900089Y-134861075D01*
X211979176Y-134677292D01*
X212060012Y-134489444D01*
X212138911Y-134306100D01*
X212168317Y-134237766D01*
X212225936Y-134103900D01*
X212297883Y-133936797D01*
X212381957Y-133741560D01*
X212475962Y-133523290D01*
X212577701Y-133287090D01*
X212684976Y-133038059D01*
X212795591Y-132781302D01*
X212907345Y-132521919D01*
X213018044Y-132265012D01*
X213076429Y-132129522D01*
X213238053Y-131754440D01*
X213383916Y-131415870D01*
X213514796Y-131111990D01*
X213631471Y-130840982D01*
X213734720Y-130601026D01*
X213825319Y-130390301D01*
X213904050Y-130206987D01*
X213971687Y-130049265D01*
X214029011Y-129915314D01*
X214076799Y-129803314D01*
X214115828Y-129711445D01*
X214146879Y-129637889D01*
X214170728Y-129580823D01*
X214188155Y-129538429D01*
X214199936Y-129508885D01*
X214206851Y-129490373D01*
X214209677Y-129481072D01*
X214209662Y-129479082D01*
X214188246Y-129479663D01*
X214130185Y-129483161D01*
X214040452Y-129489226D01*
X213924021Y-129497506D01*
X213785865Y-129507651D01*
X213630959Y-129519311D01*
X213535983Y-129526584D01*
X212868024Y-129578049D01*
X211782592Y-129024712D01*
X211544656Y-128903155D01*
X211341649Y-128798820D01*
X211171111Y-128710365D01*
X211030579Y-128636443D01*
X210917593Y-128575709D01*
X210829690Y-128526818D01*
X210764412Y-128488424D01*
X210719295Y-128459184D01*
X210691879Y-128437750D01*
X210679703Y-128422780D01*
X210679266Y-128421691D01*
X210678878Y-128395766D01*
X210681439Y-128328849D01*
X210682541Y-128307237D01*
X210906182Y-128307237D01*
X210906572Y-128317268D01*
X210929413Y-128331188D01*
X210984646Y-128361076D01*
X211067987Y-128404780D01*
X211175155Y-128460150D01*
X211301869Y-128525036D01*
X211443845Y-128597286D01*
X211596804Y-128674752D01*
X211756464Y-128755282D01*
X211918542Y-128836725D01*
X212078759Y-128916933D01*
X212232831Y-128993753D01*
X212376477Y-129065034D01*
X212505417Y-129128628D01*
X212615368Y-129182384D01*
X212702049Y-129224150D01*
X212761178Y-129251777D01*
X212788473Y-129263115D01*
X212789821Y-129263152D01*
X212791641Y-129241478D01*
X212796243Y-129179629D01*
X212803522Y-129079075D01*
X212813377Y-128941287D01*
X212825703Y-128767739D01*
X212840397Y-128559900D01*
X212857360Y-128319244D01*
X212876484Y-128047241D01*
X212897669Y-127745361D01*
X212920812Y-127415079D01*
X212945809Y-127057865D01*
X212972559Y-126675188D01*
X212985960Y-126483276D01*
X215614432Y-126483276D01*
X215625360Y-126499144D01*
X215657366Y-126495767D01*
X215682480Y-126493237D01*
X215747370Y-126487674D01*
X215850185Y-126479220D01*
X215989073Y-126468022D01*
X216162185Y-126454222D01*
X216367669Y-126437967D01*
X216603676Y-126419398D01*
X216868355Y-126398661D01*
X217159854Y-126375901D01*
X217476322Y-126351262D01*
X217815909Y-126324888D01*
X218176766Y-126296924D01*
X218557039Y-126267513D01*
X218954880Y-126236800D01*
X219368438Y-126204930D01*
X219795861Y-126172047D01*
X220235299Y-126138294D01*
X220554754Y-126113793D01*
X221000916Y-126079546D01*
X221436004Y-126046061D01*
X221858189Y-126013481D01*
X222265647Y-125981952D01*
X222656551Y-125951614D01*
X223029075Y-125922615D01*
X223381394Y-125895097D01*
X223711682Y-125869205D01*
X224018114Y-125845081D01*
X224298863Y-125822871D01*
X224552103Y-125802718D01*
X224776008Y-125784767D01*
X224968755Y-125769160D01*
X225128514Y-125756043D01*
X225253462Y-125745559D01*
X225341772Y-125737852D01*
X225391619Y-125733067D01*
X225402671Y-125731497D01*
X225384648Y-125720181D01*
X225333037Y-125691998D01*
X225251532Y-125648867D01*
X225143829Y-125592705D01*
X225013621Y-125525432D01*
X224864604Y-125448964D01*
X224700472Y-125365221D01*
X224552078Y-125289876D01*
X223701475Y-124858925D01*
X219706870Y-125167697D01*
X219156807Y-125210327D01*
X218648170Y-125249979D01*
X218180748Y-125286671D01*
X217754326Y-125320421D01*
X217368691Y-125351246D01*
X217023632Y-125379163D01*
X216718934Y-125404191D01*
X216454385Y-125426348D01*
X216229771Y-125445650D01*
X216044881Y-125462115D01*
X215899500Y-125475763D01*
X215793416Y-125486609D01*
X215726416Y-125494672D01*
X215698286Y-125499969D01*
X215697350Y-125500602D01*
X215691603Y-125528000D01*
X215684239Y-125590400D01*
X215675868Y-125681117D01*
X215667093Y-125793467D01*
X215658521Y-125920763D01*
X215656936Y-125946558D01*
X215648521Y-126079645D01*
X215640058Y-126202556D01*
X215632127Y-126307665D01*
X215625308Y-126387348D01*
X215620179Y-126433978D01*
X215619661Y-126437249D01*
X215614432Y-126483276D01*
X212985960Y-126483276D01*
X213000956Y-126268524D01*
X213030900Y-125839342D01*
X213062286Y-125389114D01*
X213072366Y-125244426D01*
X215705166Y-125244426D01*
X215725815Y-125243172D01*
X215786080Y-125238853D01*
X215883955Y-125231623D01*
X216017431Y-125221633D01*
X216184503Y-125209039D01*
X216383162Y-125193992D01*
X216611401Y-125176646D01*
X216867216Y-125157153D01*
X217148597Y-125135668D01*
X217453538Y-125112342D01*
X217780031Y-125087331D01*
X218126070Y-125060785D01*
X218489646Y-125032859D01*
X218868755Y-125003704D01*
X219261389Y-124973477D01*
X219665540Y-124942328D01*
X219722193Y-124937959D01*
X220253133Y-124897124D01*
X220748992Y-124859222D01*
X221209274Y-124824288D01*
X221633488Y-124792360D01*
X222021138Y-124763470D01*
X222371732Y-124737656D01*
X222684775Y-124714952D01*
X222959775Y-124695394D01*
X223196235Y-124679017D01*
X223393665Y-124665857D01*
X223551569Y-124655948D01*
X223669455Y-124649327D01*
X223746828Y-124646028D01*
X223783194Y-124646088D01*
X223785640Y-124646556D01*
X223822484Y-124663023D01*
X223890900Y-124696043D01*
X223986786Y-124743505D01*
X224106039Y-124803295D01*
X224244557Y-124873303D01*
X224398238Y-124951416D01*
X224562978Y-125035522D01*
X224734677Y-125123508D01*
X224909231Y-125213262D01*
X225082538Y-125302673D01*
X225250495Y-125389628D01*
X225409002Y-125472015D01*
X225553954Y-125547723D01*
X225681250Y-125614639D01*
X225786787Y-125670650D01*
X225866463Y-125713645D01*
X225916176Y-125741511D01*
X225931473Y-125751348D01*
X225939062Y-125759985D01*
X225945247Y-125771909D01*
X225949909Y-125790193D01*
X225952922Y-125817907D01*
X225954167Y-125858124D01*
X225953518Y-125913913D01*
X225950853Y-125988348D01*
X225946050Y-126084498D01*
X225938987Y-126205438D01*
X225929539Y-126354237D01*
X225917584Y-126533966D01*
X225903001Y-126747698D01*
X225885666Y-126998505D01*
X225876173Y-127135245D01*
X225859617Y-127369295D01*
X225843313Y-127591715D01*
X225827563Y-127798891D01*
X225812668Y-127987211D01*
X225798930Y-128153061D01*
X225786651Y-128292827D01*
X225776131Y-128402899D01*
X225767674Y-128479662D01*
X225761580Y-128519504D01*
X225760217Y-128523797D01*
X225728592Y-128562953D01*
X225705771Y-128577942D01*
X225680741Y-128581298D01*
X225617023Y-128587590D01*
X225517562Y-128596576D01*
X225385296Y-128608014D01*
X225223166Y-128621660D01*
X225034112Y-128637273D01*
X224821076Y-128654610D01*
X224586998Y-128673430D01*
X224334819Y-128693489D01*
X224067478Y-128714545D01*
X223787918Y-128736356D01*
X223721699Y-128741493D01*
X223354478Y-128770181D01*
X223024277Y-128796466D01*
X222731617Y-128820302D01*
X222477020Y-128841642D01*
X222261003Y-128860440D01*
X222084087Y-128876649D01*
X221946793Y-128890225D01*
X221849641Y-128901119D01*
X221793150Y-128909286D01*
X221777511Y-128914295D01*
X221784550Y-128936372D01*
X221803363Y-128996068D01*
X221833255Y-129091161D01*
X221873529Y-129219429D01*
X221923489Y-129378649D01*
X221982437Y-129566600D01*
X222049678Y-129781059D01*
X222124515Y-130019806D01*
X222206250Y-130280617D01*
X222294187Y-130561270D01*
X222387631Y-130859543D01*
X222485884Y-131173215D01*
X222588250Y-131500064D01*
X222694031Y-131837866D01*
X222701663Y-131862241D01*
X222807574Y-132200101D01*
X222910200Y-132526729D01*
X223008842Y-132839939D01*
X223102801Y-133137542D01*
X223191380Y-133417355D01*
X223273880Y-133677186D01*
X223349602Y-133914851D01*
X223417849Y-134128162D01*
X223477923Y-134314932D01*
X223529123Y-134472973D01*
X223570753Y-134600100D01*
X223602114Y-134694124D01*
X223622509Y-134752859D01*
X223631236Y-134774118D01*
X223631423Y-134774122D01*
X223643850Y-134750917D01*
X223669581Y-134696075D01*
X223705549Y-134616361D01*
X223748688Y-134518540D01*
X223779961Y-134446503D01*
X223823460Y-134345970D01*
X223881336Y-134212648D01*
X223951210Y-134051985D01*
X224030704Y-133869429D01*
X224117439Y-133670429D01*
X224209036Y-133460433D01*
X224303119Y-133244891D01*
X224397309Y-133029249D01*
X224489227Y-132818957D01*
X224576496Y-132619463D01*
X224656737Y-132436215D01*
X224727572Y-132274663D01*
X224786622Y-132140253D01*
X224786751Y-132139959D01*
X224837039Y-132025410D01*
X224899807Y-131882041D01*
X224970914Y-131719326D01*
X225046225Y-131546745D01*
X225121599Y-131373772D01*
X225183306Y-131231953D01*
X225255427Y-131066220D01*
X225331046Y-130892730D01*
X225406025Y-130720961D01*
X225476224Y-130560386D01*
X225537503Y-130420485D01*
X225579906Y-130323946D01*
X225630207Y-130209397D01*
X225692985Y-130066027D01*
X225764103Y-129903312D01*
X225839421Y-129730730D01*
X225914800Y-129557756D01*
X225976506Y-129415940D01*
X226048627Y-129250208D01*
X226124247Y-129076719D01*
X226199226Y-128904949D01*
X226269424Y-128744375D01*
X226330703Y-128604473D01*
X226373107Y-128507934D01*
X226423407Y-128393386D01*
X226486186Y-128250016D01*
X226557304Y-128087301D01*
X226632622Y-127914719D01*
X226708001Y-127741746D01*
X226769707Y-127599930D01*
X226841828Y-127434198D01*
X226917448Y-127260708D01*
X226992427Y-127088937D01*
X227062625Y-126928363D01*
X227123904Y-126788462D01*
X227166307Y-126691924D01*
X227216608Y-126577374D01*
X227279387Y-126434003D01*
X227350505Y-126271289D01*
X227425822Y-126098707D01*
X227501201Y-125925733D01*
X227562907Y-125783917D01*
X227635029Y-125618185D01*
X227710649Y-125444695D01*
X227785627Y-125272926D01*
X227855826Y-125112351D01*
X227917104Y-124972450D01*
X227959508Y-124875911D01*
X228009808Y-124761362D01*
X228072587Y-124617991D01*
X228143705Y-124455277D01*
X228219023Y-124282694D01*
X228294402Y-124109721D01*
X228356108Y-123967905D01*
X228428229Y-123802173D01*
X228503849Y-123628684D01*
X228578828Y-123456913D01*
X228649026Y-123296340D01*
X228710305Y-123156438D01*
X228752708Y-123059899D01*
X228803009Y-122945350D01*
X228865788Y-122801979D01*
X228936906Y-122639264D01*
X229012224Y-122466683D01*
X229087602Y-122293710D01*
X229149309Y-122151893D01*
X229221430Y-121986160D01*
X229297050Y-121812671D01*
X229372029Y-121640901D01*
X229442227Y-121480327D01*
X229503507Y-121340425D01*
X229545909Y-121243887D01*
X229596210Y-121129337D01*
X229658987Y-120985965D01*
X229730103Y-120823250D01*
X229805419Y-120650666D01*
X229880795Y-120477693D01*
X229942496Y-120335881D01*
X230013916Y-120171737D01*
X230088194Y-120001276D01*
X230161345Y-119833626D01*
X230229385Y-119677913D01*
X230288326Y-119543267D01*
X230329816Y-119448748D01*
X230444902Y-119186831D01*
X230543934Y-118960830D01*
X230627855Y-118768532D01*
X230697611Y-118607725D01*
X230754146Y-118476194D01*
X230798404Y-118371729D01*
X230831330Y-118292113D01*
X230853869Y-118235136D01*
X230866965Y-118198583D01*
X230871563Y-118180244D01*
X230871592Y-118179425D01*
X230861845Y-118148945D01*
X230834535Y-118087638D01*
X230792557Y-118001066D01*
X230738807Y-117894795D01*
X230676179Y-117774387D01*
X230607570Y-117645405D01*
X230535875Y-117513413D01*
X230463989Y-117383975D01*
X230394808Y-117262654D01*
X230391535Y-117257010D01*
X230277911Y-117067355D01*
X230144978Y-116855654D01*
X229999675Y-116632323D01*
X229848938Y-116407781D01*
X229699708Y-116192443D01*
X229558924Y-115996728D01*
X229494754Y-115910656D01*
X229114800Y-115428809D01*
X228728480Y-114981085D01*
X228328329Y-114559869D01*
X227906883Y-114157551D01*
X227456679Y-113766521D01*
X227145715Y-113515291D01*
X227013888Y-113411590D01*
X227405253Y-113411590D01*
X227429371Y-113437951D01*
X227481510Y-113485104D01*
X227562965Y-113554810D01*
X227675031Y-113648824D01*
X227709226Y-113677369D01*
X227832975Y-113784731D01*
X227978420Y-113917752D01*
X228139805Y-114070642D01*
X228311375Y-114237605D01*
X228487374Y-114412851D01*
X228662047Y-114590585D01*
X228829637Y-114765016D01*
X228984391Y-114930350D01*
X229120552Y-115080795D01*
X229231410Y-115209410D01*
X229671203Y-115765158D01*
X230082844Y-116341081D01*
X230462570Y-116931444D01*
X230806609Y-117530511D01*
X230996834Y-117896750D01*
X231090766Y-118085166D01*
X231967462Y-118533583D01*
X232144200Y-118623818D01*
X232309299Y-118707794D01*
X232459103Y-118783674D01*
X232589959Y-118849622D01*
X232698210Y-118903803D01*
X232780204Y-118944379D01*
X232832286Y-118969515D01*
X232850778Y-118977402D01*
X232845727Y-118958000D01*
X232825910Y-118912233D01*
X232801149Y-118861142D01*
X232643620Y-118564763D01*
X232460227Y-118248046D01*
X232256071Y-117918649D01*
X232036257Y-117584229D01*
X231805889Y-117252444D01*
X231570070Y-116930951D01*
X231333904Y-116627409D01*
X231217556Y-116485087D01*
X230791375Y-115999766D01*
X230337387Y-115533362D01*
X229859896Y-115089415D01*
X229363206Y-114671465D01*
X228851619Y-114283053D01*
X228329442Y-113927720D01*
X227800978Y-113609005D01*
X227563110Y-113478921D01*
X227488084Y-113439688D01*
X227435904Y-113414216D01*
X227407862Y-113404264D01*
X227405253Y-113411590D01*
X227013888Y-113411590D01*
X226953472Y-113364064D01*
X227323063Y-113364064D01*
X227333500Y-113374502D01*
X227343936Y-113364064D01*
X227333500Y-113353627D01*
X227323063Y-113364064D01*
X226953472Y-113364064D01*
X226853561Y-113285469D01*
X226838633Y-113345641D01*
X226834290Y-113378214D01*
X226827665Y-113448077D01*
X226819094Y-113550853D01*
X226808903Y-113682165D01*
X226797426Y-113837637D01*
X226784993Y-114012891D01*
X226771936Y-114203553D01*
X226759100Y-114397312D01*
X226745697Y-114598053D01*
X226732453Y-114787088D01*
X226719713Y-114960120D01*
X226707822Y-115112855D01*
X226697127Y-115240995D01*
X226687972Y-115340244D01*
X226680700Y-115406306D01*
X226675760Y-115434653D01*
X226638441Y-115475580D01*
X226577788Y-115501525D01*
X226550065Y-115504996D01*
X226482534Y-115511485D01*
X226377017Y-115520845D01*
X226235334Y-115532933D01*
X226059304Y-115547605D01*
X225850750Y-115564713D01*
X225611491Y-115584116D01*
X225343346Y-115605667D01*
X225048139Y-115629222D01*
X224727687Y-115654636D01*
X224383812Y-115681765D01*
X224018334Y-115710463D01*
X223633074Y-115740586D01*
X223229852Y-115771989D01*
X222810489Y-115804528D01*
X222376804Y-115838058D01*
X221930619Y-115872432D01*
X221473754Y-115907509D01*
X221415805Y-115911950D01*
X220958790Y-115946974D01*
X220512780Y-115981179D01*
X220079561Y-116014427D01*
X219660916Y-116046580D01*
X219258631Y-116077499D01*
X218874491Y-116107048D01*
X218510280Y-116135089D01*
X218167786Y-116161483D01*
X217848788Y-116186094D01*
X217555075Y-116208782D01*
X217288431Y-116229411D01*
X217050642Y-116247842D01*
X216843491Y-116263938D01*
X216668763Y-116277561D01*
X216528244Y-116288573D01*
X216423719Y-116296836D01*
X216356972Y-116302213D01*
X216329786Y-116304566D01*
X216329229Y-116304651D01*
X216326427Y-116326047D01*
X216321288Y-116384579D01*
X216314114Y-116475739D01*
X216305209Y-116595014D01*
X216294876Y-116737895D01*
X216283416Y-116899871D01*
X216271134Y-117076432D01*
X216258332Y-117263068D01*
X216245312Y-117455267D01*
X216232379Y-117648520D01*
X216219834Y-117838316D01*
X216207980Y-118020144D01*
X216197121Y-118189495D01*
X216187558Y-118341858D01*
X216179595Y-118472721D01*
X216173535Y-118577576D01*
X216169680Y-118651911D01*
X216168334Y-118691216D01*
X216168648Y-118696301D01*
X216190288Y-118696010D01*
X216250855Y-118692689D01*
X216347654Y-118686530D01*
X216477988Y-118677726D01*
X216639163Y-118666475D01*
X216828484Y-118652967D01*
X217043254Y-118637397D01*
X217280779Y-118619961D01*
X217538363Y-118600851D01*
X217813309Y-118580262D01*
X218102924Y-118558387D01*
X218404510Y-118535423D01*
X218426392Y-118533749D01*
X218730170Y-118510567D01*
X219023140Y-118488318D01*
X219302507Y-118467208D01*
X219565480Y-118447445D01*
X219809265Y-118429233D01*
X220031072Y-118412780D01*
X220228107Y-118398292D01*
X220397577Y-118385973D01*
X220536691Y-118376032D01*
X220642657Y-118368674D01*
X220712682Y-118364107D01*
X220743973Y-118362534D01*
X220744333Y-118362536D01*
X220777781Y-118372021D01*
X220843503Y-118398748D01*
X220937449Y-118440664D01*
X221055571Y-118495716D01*
X221193822Y-118561848D01*
X221348156Y-118637008D01*
X221514522Y-118719142D01*
X221688876Y-118806196D01*
X221867168Y-118896115D01*
X222045351Y-118986848D01*
X222219378Y-119076339D01*
X222385200Y-119162535D01*
X222538771Y-119243383D01*
X222676042Y-119316828D01*
X222792966Y-119380817D01*
X222885495Y-119433295D01*
X222949582Y-119472210D01*
X222981179Y-119495507D01*
X222983554Y-119498710D01*
X222985194Y-119525937D01*
X222983987Y-119590488D01*
X222980220Y-119688059D01*
X222974178Y-119814344D01*
X222966143Y-119965039D01*
X222956402Y-120135839D01*
X222945240Y-120322438D01*
X222932939Y-120520530D01*
X222919786Y-120725811D01*
X222906066Y-120933976D01*
X222892062Y-121140720D01*
X222878059Y-121341738D01*
X222864343Y-121532724D01*
X222851198Y-121709373D01*
X222838908Y-121867381D01*
X222827759Y-122002441D01*
X222818034Y-122110250D01*
X222810018Y-122186502D01*
X222803998Y-122226891D01*
X222802890Y-122230749D01*
X222773658Y-122269965D01*
X222744048Y-122291848D01*
X222717930Y-122296379D01*
X222651845Y-122303864D01*
X222547461Y-122314167D01*
X222406441Y-122327148D01*
X222230454Y-122342669D01*
X222021164Y-122360592D01*
X221780237Y-122380780D01*
X221509341Y-122403093D01*
X221210141Y-122427394D01*
X220884302Y-122453545D01*
X220533492Y-122481408D01*
X220159374Y-122510842D01*
X219763618Y-122541713D01*
X219347888Y-122573880D01*
X219286687Y-122578594D01*
X215873838Y-122841349D01*
X215867480Y-122924532D01*
X215862954Y-122985444D01*
X215856213Y-123078491D01*
X215847574Y-123199132D01*
X215837354Y-123342826D01*
X215825871Y-123505034D01*
X215813442Y-123681216D01*
X215800386Y-123866832D01*
X215787021Y-124057341D01*
X215773663Y-124248203D01*
X215760631Y-124434879D01*
X215748241Y-124612829D01*
X215736812Y-124777511D01*
X215726662Y-124924386D01*
X215718107Y-125048915D01*
X215711466Y-125146556D01*
X215707057Y-125212769D01*
X215705196Y-125243016D01*
X215705166Y-125244426D01*
X213072366Y-125244426D01*
X213095013Y-124919312D01*
X213128977Y-124431406D01*
X213164075Y-123926870D01*
X213200203Y-123407174D01*
X213237261Y-122873789D01*
X213275144Y-122328189D01*
X213313749Y-121771842D01*
X213316282Y-121735338D01*
X213354895Y-121178445D01*
X213392731Y-120632244D01*
X213429691Y-120098205D01*
X213443586Y-119897246D01*
X216073417Y-119897246D01*
X216075726Y-119933228D01*
X216088535Y-119947438D01*
X216109098Y-119949718D01*
X216134445Y-119948141D01*
X216199099Y-119943530D01*
X216300739Y-119936060D01*
X216437050Y-119925907D01*
X216605712Y-119913247D01*
X216804408Y-119898255D01*
X217030820Y-119881108D01*
X217282630Y-119861980D01*
X217557519Y-119841050D01*
X217853169Y-119818491D01*
X218167265Y-119794480D01*
X218497484Y-119769194D01*
X218841512Y-119742807D01*
X219197031Y-119715495D01*
X219268941Y-119709966D01*
X219626435Y-119682457D01*
X219972878Y-119655767D01*
X220305951Y-119630077D01*
X220623338Y-119605566D01*
X220922725Y-119582413D01*
X221201795Y-119560801D01*
X221458230Y-119540907D01*
X221689717Y-119522912D01*
X221893938Y-119506996D01*
X222068577Y-119493338D01*
X222211319Y-119482119D01*
X222319846Y-119473518D01*
X222391844Y-119467715D01*
X222424995Y-119464891D01*
X222426759Y-119464700D01*
X222417108Y-119454470D01*
X222373632Y-119427335D01*
X222299788Y-119385171D01*
X222199035Y-119329851D01*
X222074830Y-119263255D01*
X221930630Y-119187257D01*
X221769896Y-119103733D01*
X221612684Y-119023030D01*
X220758284Y-118586874D01*
X218462176Y-118760266D01*
X218156468Y-118783452D01*
X217862456Y-118805947D01*
X217582814Y-118827535D01*
X217320217Y-118848001D01*
X217077338Y-118867131D01*
X216856853Y-118884709D01*
X216661433Y-118900519D01*
X216493753Y-118914350D01*
X216356489Y-118925983D01*
X216252313Y-118935205D01*
X216183900Y-118941801D01*
X216153923Y-118945555D01*
X216152784Y-118945938D01*
X216147260Y-118969756D01*
X216140049Y-119028396D01*
X216131806Y-119114996D01*
X216123193Y-119222696D01*
X216115542Y-119333943D01*
X216106926Y-119464870D01*
X216098172Y-119590478D01*
X216089991Y-119701089D01*
X216083094Y-119787022D01*
X216079166Y-119829694D01*
X216073417Y-119897246D01*
X213443586Y-119897246D01*
X213465674Y-119577797D01*
X213500579Y-119072490D01*
X213534306Y-118583752D01*
X213566753Y-118113054D01*
X213597821Y-117661863D01*
X213627408Y-117231650D01*
X213655413Y-116823882D01*
X213681737Y-116440032D01*
X213706278Y-116081565D01*
X213728936Y-115749954D01*
X213749610Y-115446665D01*
X213768200Y-115173170D01*
X213784603Y-114930937D01*
X213798722Y-114721434D01*
X213810454Y-114546133D01*
X213819698Y-114406502D01*
X213826354Y-114304008D01*
X213830322Y-114240124D01*
X213831501Y-114216317D01*
X213831477Y-114216190D01*
X213811920Y-114224190D01*
X213762408Y-114251969D01*
X213687901Y-114296413D01*
X213593353Y-114354406D01*
X213483719Y-114422831D01*
X213363958Y-114498576D01*
X213239022Y-114578522D01*
X213113871Y-114659555D01*
X212993459Y-114738560D01*
X212882743Y-114812421D01*
X212879160Y-114814836D01*
X212777246Y-114884676D01*
X212661201Y-114966016D01*
X212535973Y-115055208D01*
X212406508Y-115148608D01*
X212277752Y-115242568D01*
X212154654Y-115333441D01*
X212042160Y-115417583D01*
X211945216Y-115491345D01*
X211868771Y-115551082D01*
X211817769Y-115593146D01*
X211799157Y-115610943D01*
X211795921Y-115633642D01*
X211789978Y-115695999D01*
X211781465Y-115796063D01*
X211770519Y-115931881D01*
X211757277Y-116101501D01*
X211741876Y-116302973D01*
X211724454Y-116534346D01*
X211705147Y-116793668D01*
X211684093Y-117078988D01*
X211661428Y-117388352D01*
X211637291Y-117719813D01*
X211611817Y-118071416D01*
X211585143Y-118441212D01*
X211557409Y-118827248D01*
X211528749Y-119227572D01*
X211499300Y-119640235D01*
X211469202Y-120063284D01*
X211438590Y-120494769D01*
X211407600Y-120932737D01*
X211376371Y-121375236D01*
X211345040Y-121820317D01*
X211313744Y-122266027D01*
X211282619Y-122710415D01*
X211251803Y-123151529D01*
X211221432Y-123587419D01*
X211191645Y-124016133D01*
X211162578Y-124435718D01*
X211134367Y-124844225D01*
X211107151Y-125239701D01*
X211081067Y-125620195D01*
X211056250Y-125983757D01*
X211032839Y-126328434D01*
X211010970Y-126652274D01*
X210990781Y-126953327D01*
X210972409Y-127229642D01*
X210955990Y-127479266D01*
X210941662Y-127700248D01*
X210929562Y-127890637D01*
X210919827Y-128048483D01*
X210912594Y-128171832D01*
X210908000Y-128258734D01*
X210906182Y-128307237D01*
X210682541Y-128307237D01*
X210686906Y-128221589D01*
X210695238Y-128074632D01*
X210706391Y-127888629D01*
X210720321Y-127664227D01*
X210736988Y-127402073D01*
X210756348Y-127102817D01*
X210778358Y-126767107D01*
X210802975Y-126395589D01*
X210830157Y-125988914D01*
X210859860Y-125547729D01*
X210892043Y-125072682D01*
X210926662Y-124564421D01*
X210963675Y-124023596D01*
X211003039Y-123450853D01*
X211044711Y-122846840D01*
X211088648Y-122212208D01*
X211092658Y-122154392D01*
X211127773Y-121647672D01*
X211162093Y-121151506D01*
X211195506Y-120667524D01*
X211227901Y-120197361D01*
X211259167Y-119742644D01*
X211289196Y-119305009D01*
X211317874Y-118886083D01*
X211345094Y-118487501D01*
X211370743Y-118110893D01*
X211394710Y-117757889D01*
X211416887Y-117430123D01*
X211437161Y-117129224D01*
X211455423Y-116856825D01*
X211471561Y-116614556D01*
X211485467Y-116404051D01*
X211497027Y-116226938D01*
X211506133Y-116084852D01*
X211512673Y-115979421D01*
X211516536Y-115912278D01*
X211517615Y-115885054D01*
X211517589Y-115884732D01*
X211513145Y-115867317D01*
X211502221Y-115861418D01*
X211480299Y-115869937D01*
X211442858Y-115895778D01*
X211385378Y-115941842D01*
X211303341Y-116011035D01*
X211250313Y-116056401D01*
X210732861Y-116516698D01*
X210221518Y-117004091D01*
X209724851Y-117509835D01*
X209251430Y-118025191D01*
X208809823Y-118541415D01*
X208784666Y-118572053D01*
X208300183Y-119187993D01*
X207831047Y-119833038D01*
X207385800Y-120495102D01*
X207079839Y-120983738D01*
X206889505Y-121297616D01*
X204069416Y-121297616D01*
X204096868Y-121242771D01*
X204235638Y-120972372D01*
X204372777Y-120712078D01*
X204497654Y-120481997D01*
X204677628Y-120163794D01*
X204876241Y-119826573D01*
X205088152Y-119478744D01*
X205308017Y-119128716D01*
X205530494Y-118784899D01*
X205750239Y-118455701D01*
X205961910Y-118149534D01*
X206115569Y-117935405D01*
X206717522Y-117145508D01*
X207344599Y-116387468D01*
X207996123Y-115661973D01*
X208671419Y-114969709D01*
X209369811Y-114311362D01*
X210090623Y-113687619D01*
X210325135Y-113501776D01*
X215164132Y-113501776D01*
X215289374Y-113489976D01*
X215321222Y-113487331D01*
X215392864Y-113481627D01*
X215502471Y-113473006D01*
X215648214Y-113461609D01*
X215828262Y-113447578D01*
X216040787Y-113431055D01*
X216283957Y-113412180D01*
X216555945Y-113391097D01*
X216854920Y-113367946D01*
X217179051Y-113342868D01*
X217526510Y-113316007D01*
X217895466Y-113287502D01*
X218284091Y-113257497D01*
X218690553Y-113226131D01*
X219113025Y-113193548D01*
X219549676Y-113159889D01*
X219998676Y-113125294D01*
X220458196Y-113089906D01*
X220561897Y-113081922D01*
X221022037Y-113046501D01*
X221471292Y-113011917D01*
X221907881Y-112978310D01*
X222330026Y-112945815D01*
X222735945Y-112914570D01*
X223123858Y-112884713D01*
X223491984Y-112856380D01*
X223838543Y-112829708D01*
X224161754Y-112804834D01*
X224459836Y-112781894D01*
X224731011Y-112761028D01*
X224973495Y-112742371D01*
X225185511Y-112726059D01*
X225365276Y-112712230D01*
X225511011Y-112701022D01*
X225620935Y-112692572D01*
X225693268Y-112687015D01*
X225726229Y-112684490D01*
X225728138Y-112684346D01*
X225732197Y-112679634D01*
X225707179Y-112667456D01*
X225650775Y-112647016D01*
X225560671Y-112617519D01*
X225434558Y-112578168D01*
X225304727Y-112538616D01*
X224614933Y-112350251D01*
X223925892Y-112202883D01*
X223234243Y-112095967D01*
X222536624Y-112028956D01*
X222021142Y-112004907D01*
X221903883Y-112002209D01*
X221796499Y-112000797D01*
X221693362Y-112000916D01*
X221588844Y-112002816D01*
X221477316Y-112006745D01*
X221353149Y-112012950D01*
X221210714Y-112021681D01*
X221044385Y-112033182D01*
X220848531Y-112047705D01*
X220617523Y-112065497D01*
X220580857Y-112068355D01*
X220323996Y-112088488D01*
X220104270Y-112105978D01*
X219917186Y-112121317D01*
X219758248Y-112135002D01*
X219622962Y-112147527D01*
X219506836Y-112159387D01*
X219405374Y-112171077D01*
X219314082Y-112183091D01*
X219228466Y-112195926D01*
X219144032Y-112210073D01*
X219056286Y-112226030D01*
X218960734Y-112244291D01*
X218931834Y-112249911D01*
X218266309Y-112395708D01*
X217599002Y-112573276D01*
X216938899Y-112779740D01*
X216294981Y-113012223D01*
X215676235Y-113267846D01*
X215487674Y-113352842D01*
X215164132Y-113501776D01*
X210325135Y-113501776D01*
X210833180Y-113099165D01*
X210999828Y-112974188D01*
X211721709Y-112460903D01*
X212455775Y-111983460D01*
X213200841Y-111542123D01*
X213955725Y-111137153D01*
X214719245Y-110768812D01*
X215490215Y-110437363D01*
X216267454Y-110143068D01*
X217049778Y-109886190D01*
X217527815Y-109752913D01*
X226195882Y-109752913D01*
X226206320Y-109763351D01*
X226216756Y-109752913D01*
X226206320Y-109742477D01*
X226195882Y-109752913D01*
X217527815Y-109752913D01*
X217836004Y-109666991D01*
X218624946Y-109485732D01*
X219415425Y-109342677D01*
X220206256Y-109238087D01*
X220996256Y-109172225D01*
X221784240Y-109145353D01*
X222569026Y-109157734D01*
X223349431Y-109209629D01*
X224124271Y-109301301D01*
X224892363Y-109433013D01*
X225652525Y-109605026D01*
X225902242Y-109670900D01*
X225999870Y-109696920D01*
X226081853Y-109717526D01*
X226140430Y-109730857D01*
X226167840Y-109735054D01*
X226168823Y-109734747D01*
X226153146Y-109724360D01*
X226105277Y-109699943D01*
X226031192Y-109664374D01*
X225936869Y-109620534D01*
X225846690Y-109579565D01*
X225213055Y-109311200D01*
X224577882Y-109076226D01*
X223936080Y-108873332D01*
X223282558Y-108701209D01*
X222612224Y-108558546D01*
X221919987Y-108444033D01*
X221200758Y-108356359D01*
X221029642Y-108339729D01*
X220920200Y-108332049D01*
X220775220Y-108325630D01*
X220600893Y-108320470D01*
X220403410Y-108316569D01*
X220188961Y-108313924D01*
X219963737Y-108312536D01*
X219733927Y-108312403D01*
X219505725Y-108313524D01*
X219285318Y-108315897D01*
X219078899Y-108319522D01*
X218892657Y-108324398D01*
X218732785Y-108330525D01*
X218605471Y-108337900D01*
X218576981Y-108340148D01*
X217728828Y-108433172D01*
X216887419Y-108567330D01*
X216053136Y-108742494D01*
X215226356Y-108958541D01*
X214407457Y-109215344D01*
X213596818Y-109512775D01*
X212794817Y-109850712D01*
X212001834Y-110229027D01*
X211218245Y-110647594D01*
X210665849Y-110970329D01*
X209882401Y-111468924D01*
X209119854Y-112003015D01*
X208379151Y-112571428D01*
X207661232Y-113172988D01*
X206967040Y-113806527D01*
X206297518Y-114470870D01*
X205653608Y-115164843D01*
X205036252Y-115887275D01*
X204446390Y-116636994D01*
X203884967Y-117412826D01*
X203352923Y-118213599D01*
X202851202Y-119038139D01*
X202380743Y-119885276D01*
X201942491Y-120753836D01*
X201537388Y-121642645D01*
X201166374Y-122550533D01*
X200995233Y-123007715D01*
X200705065Y-123860542D01*
X200447339Y-124730000D01*
X200222916Y-125611560D01*
X200032662Y-126500693D01*
X199877438Y-127392871D01*
X199758109Y-128283565D01*
X199675537Y-129168245D01*
X199630585Y-130042385D01*
X199626776Y-130188267D01*
X199619623Y-130781505D01*
X199398236Y-130781505D01*
X199399852Y-130551408D01*
X199403157Y-130290474D01*
X199407870Y-130034918D01*
X199413917Y-129791390D01*
X199421224Y-129566541D01*
X199429717Y-129367024D01*
X199439321Y-129199488D01*
X199444160Y-129134146D01*
X199537776Y-128191453D01*
X199664015Y-127271090D01*
X199823882Y-126368126D01*
X200018380Y-125477633D01*
X200248514Y-124594679D01*
X200515286Y-123714338D01*
X200600428Y-123456499D01*
X200944637Y-122497442D01*
X201325362Y-121558602D01*
X201742572Y-120640042D01*
X202196234Y-119741820D01*
X202686314Y-118863998D01*
X203212779Y-118006636D01*
X203775598Y-117169793D01*
X204374736Y-116353531D01*
X204690772Y-115949560D01*
X205171478Y-115369844D01*
X205685097Y-114791648D01*
X206223437Y-114223423D01*
X206778308Y-113673624D01*
X207341517Y-113150704D01*
X207743531Y-112799050D01*
X208444899Y-112226241D01*
X209163805Y-111687468D01*
X209898847Y-111183366D01*
X210648623Y-110714574D01*
X211411731Y-110281726D01*
X212186771Y-109885461D01*
X212972339Y-109526413D01*
X213767036Y-109205220D01*
X214569459Y-108922518D01*
X215378206Y-108678943D01*
X216191879Y-108475132D01*
X217009071Y-108311721D01*
X217828385Y-108189345D01*
X217919460Y-108178313D01*
X218199238Y-108146987D01*
X218459187Y-108121988D01*
X218708450Y-108102885D01*
X218956168Y-108089247D01*
X219211482Y-108080641D01*
X219483535Y-108076636D01*
X219781468Y-108076800D01*
G37*
%TD*%
D10*
%TO.C,R33*%
X191887250Y-41937440D03*
D11*
X196967250Y-41937440D03*
%TD*%
D12*
%TO.C,LED9*%
X251922110Y-140777000D03*
D13*
X249382110Y-140777000D03*
%TD*%
D12*
%TO.C,LED3*%
X193787250Y-70800000D03*
D13*
X196327250Y-70800000D03*
%TD*%
D14*
%TO.C,U2*%
X184038750Y-33682440D03*
D15*
X184038750Y-31142440D03*
X176418750Y-31142440D03*
X176418750Y-33682440D03*
%TD*%
D16*
%TO.C,K8*%
X263012250Y-82210980D03*
D17*
X263012250Y-84750980D03*
X263012250Y-92370980D03*
X268092250Y-92370980D03*
X268092250Y-84750980D03*
X268092250Y-82210980D03*
%TD*%
D10*
%TO.C,R7*%
X253945750Y-50700440D03*
D11*
X248865750Y-50700440D03*
%TD*%
D14*
%TO.C,U1*%
X169840250Y-33682440D03*
D15*
X169840250Y-31142440D03*
X162220250Y-31142440D03*
X162220250Y-33682440D03*
%TD*%
D14*
%TO.C,U5*%
X226634250Y-33682440D03*
D15*
X226634250Y-31142440D03*
X219014250Y-31142440D03*
X219014250Y-33682440D03*
%TD*%
D10*
%TO.C,R2*%
X182953250Y-50700440D03*
D11*
X177873250Y-50700440D03*
%TD*%
D18*
%TO.C,D6*%
X240832750Y-59674020D03*
D19*
X233212750Y-59674020D03*
%TD*%
D10*
%TO.C,R55*%
X220284250Y-41937440D03*
D11*
X225364250Y-41937440D03*
%TD*%
D10*
%TO.C,R5*%
X225548750Y-50700440D03*
D11*
X220468750Y-50700440D03*
%TD*%
D14*
%TO.C,U8*%
X269229750Y-33682440D03*
D15*
X269229750Y-31142440D03*
X261609750Y-31142440D03*
X261609750Y-33682440D03*
%TD*%
D12*
%TO.C,LED8*%
X264779750Y-70800000D03*
D13*
X267319750Y-70800000D03*
%TD*%
D10*
%TO.C,R3*%
X197151750Y-50700440D03*
D11*
X192071750Y-50700440D03*
%TD*%
D10*
%TO.C,R6*%
X239747250Y-50700440D03*
D11*
X234667250Y-50700440D03*
%TD*%
D18*
%TO.C,D2*%
X184038750Y-59674020D03*
D19*
X176418750Y-59674020D03*
%TD*%
D18*
%TO.C,D1*%
X169840250Y-59674020D03*
D19*
X162220250Y-59674020D03*
%TD*%
D20*
%TO.C,U10*%
X174088750Y-175668440D03*
D21*
X174088750Y-173128440D03*
D20*
X174088750Y-170588440D03*
X174088750Y-168048440D03*
X174088750Y-165508440D03*
X174088750Y-162968440D03*
X174088750Y-160428440D03*
X174088750Y-157888440D03*
X174088750Y-155348440D03*
X174088750Y-152808440D03*
X174088750Y-150268440D03*
X174088750Y-147728440D03*
X174088750Y-145188440D03*
X174088750Y-142648440D03*
X174088750Y-140108440D03*
X174088750Y-137568440D03*
X174088750Y-135028440D03*
X189328750Y-135028440D03*
X189328750Y-137568440D03*
X189328750Y-140108440D03*
X189328750Y-142648440D03*
X189328750Y-145188440D03*
X189328750Y-147728440D03*
X189328750Y-150268440D03*
D21*
X189328750Y-152808440D03*
D20*
X189328750Y-155348440D03*
X189328750Y-157888440D03*
X189328750Y-160428440D03*
X189328750Y-162968440D03*
X189328750Y-165508440D03*
X189328750Y-168048440D03*
X189328750Y-170588440D03*
X189328750Y-173128440D03*
X189328750Y-175668440D03*
%TD*%
D16*
%TO.C,K5*%
X220416750Y-82210980D03*
D17*
X220416750Y-84750980D03*
X220416750Y-92370980D03*
X225496750Y-92370980D03*
X225496750Y-84750980D03*
X225496750Y-82210980D03*
%TD*%
D16*
%TO.C,K6*%
X234615250Y-82210980D03*
D17*
X234615250Y-84750980D03*
X234615250Y-92370980D03*
X239695250Y-92370980D03*
X239695250Y-84750980D03*
X239695250Y-82210980D03*
%TD*%
D18*
%TO.C,D8*%
X269229750Y-59674020D03*
D19*
X261609750Y-59674020D03*
%TD*%
D16*
%TO.C,K4*%
X206218250Y-82210980D03*
D17*
X206218250Y-84750980D03*
X206218250Y-92370980D03*
X211298250Y-92370980D03*
X211298250Y-84750980D03*
X211298250Y-82210980D03*
%TD*%
D10*
%TO.C,R77*%
X248681250Y-41937440D03*
D11*
X253761250Y-41937440D03*
%TD*%
D14*
%TO.C,U7*%
X255031250Y-33682440D03*
D15*
X255031250Y-31142440D03*
X247411250Y-31142440D03*
X247411250Y-33682440D03*
%TD*%
D14*
%TO.C,U6*%
X240832750Y-33682440D03*
D15*
X240832750Y-31142440D03*
X233212750Y-31142440D03*
X233212750Y-33682440D03*
%TD*%
D22*
%TO.C,J10*%
X206514745Y-165675440D03*
D23*
X210014748Y-165675440D03*
X213514749Y-165675440D03*
X217014750Y-165675440D03*
X220514750Y-165675440D03*
X224014751Y-165675440D03*
X206514745Y-168175440D03*
X210014748Y-168175440D03*
X213514749Y-168175440D03*
X217014750Y-168175440D03*
X220514750Y-168175440D03*
X224014751Y-168175440D03*
X203014747Y-167275452D03*
X227514749Y-167275452D03*
%TD*%
D16*
%TO.C,K7*%
X248813750Y-82210980D03*
D17*
X248813750Y-84750980D03*
X248813750Y-92370980D03*
X253893750Y-92370980D03*
X253893750Y-84750980D03*
X253893750Y-82210980D03*
%TD*%
D22*
%TO.C,J12*%
X250659650Y-168131741D03*
D23*
X254159652Y-168131741D03*
X247159651Y-169831740D03*
X257659650Y-169831740D03*
%TD*%
D16*
%TO.C,K3*%
X192019750Y-82210980D03*
D17*
X192019750Y-84750980D03*
X192019750Y-92370980D03*
X197099750Y-92370980D03*
X197099750Y-84750980D03*
X197099750Y-82210980D03*
%TD*%
D12*
%TO.C,LED1*%
X165390250Y-70800000D03*
D13*
X167930250Y-70800000D03*
%TD*%
D12*
%TO.C,LED4*%
X207985750Y-70800000D03*
D13*
X210525750Y-70800000D03*
%TD*%
D12*
%TO.C,LED2*%
X179588750Y-70800000D03*
D13*
X182128750Y-70800000D03*
%TD*%
D18*
%TO.C,D4*%
X212435750Y-59674020D03*
D19*
X204815750Y-59674020D03*
%TD*%
D14*
%TO.C,U3*%
X198237250Y-33682440D03*
D15*
X198237250Y-31142440D03*
X190617250Y-31142440D03*
X190617250Y-33682440D03*
%TD*%
D12*
%TO.C,LED5*%
X222184250Y-70800000D03*
D13*
X224724250Y-70800000D03*
%TD*%
D14*
%TO.C,U4*%
X212435750Y-33682440D03*
D15*
X212435750Y-31142440D03*
X204815750Y-31142440D03*
X204815750Y-33682440D03*
%TD*%
D10*
%TO.C,R66*%
X234482750Y-41937440D03*
D11*
X239562750Y-41937440D03*
%TD*%
D10*
%TO.C,R8*%
X268144250Y-50700440D03*
D11*
X263064250Y-50700440D03*
%TD*%
D18*
%TO.C,D5*%
X226634250Y-59674020D03*
D19*
X219014250Y-59674020D03*
%TD*%
D10*
%TO.C,R11*%
X163490250Y-41937440D03*
D11*
X168570250Y-41937440D03*
%TD*%
D12*
%TO.C,LED7*%
X250581250Y-70800000D03*
D13*
X253121250Y-70800000D03*
%TD*%
D10*
%TO.C,R99*%
X261591750Y-145188440D03*
D11*
X261591750Y-150268440D03*
%TD*%
D12*
%TO.C,LED6*%
X236382750Y-70800000D03*
D13*
X238922750Y-70800000D03*
%TD*%
D18*
%TO.C,D7*%
X255031250Y-59674020D03*
D19*
X247411250Y-59674020D03*
%TD*%
D16*
%TO.C,K1*%
X163622750Y-82210980D03*
D17*
X163622750Y-84750980D03*
X163622750Y-92370980D03*
X168702750Y-92370980D03*
X168702750Y-84750980D03*
X168702750Y-82210980D03*
%TD*%
D10*
%TO.C,R1*%
X168754750Y-50700440D03*
D11*
X163674750Y-50700440D03*
%TD*%
D10*
%TO.C,R22*%
X177688750Y-41937440D03*
D11*
X182768750Y-41937440D03*
%TD*%
D10*
%TO.C,R9*%
X267560750Y-145188440D03*
D11*
X267560750Y-150268440D03*
%TD*%
D10*
%TO.C,R4*%
X211350250Y-50700440D03*
D11*
X206270250Y-50700440D03*
%TD*%
D10*
%TO.C,R88*%
X262879750Y-41937440D03*
D11*
X267959750Y-41937440D03*
%TD*%
D16*
%TO.C,K2*%
X177821250Y-82210980D03*
D17*
X177821250Y-84750980D03*
X177821250Y-92370980D03*
X182901250Y-92370980D03*
X182901250Y-84750980D03*
X182901250Y-82210980D03*
%TD*%
D18*
%TO.C,D3*%
X198237250Y-59674020D03*
D19*
X190617250Y-59674020D03*
%TD*%
D14*
%TO.C,U9*%
X255114750Y-155475440D03*
D15*
X255114750Y-152935440D03*
X247494750Y-152935440D03*
X247494750Y-155475440D03*
%TD*%
D10*
%TO.C,R44*%
X206085750Y-41937440D03*
D11*
X211165750Y-41937440D03*
%TD*%
M02*
