%TF.GenerationSoftware,KiCad,Pcbnew,7.0.10*%
%TF.CreationDate,2024-11-26T20:55:45-08:00*%
%TF.ProjectId,Main_Board,4d61696e-5f42-46f6-9172-642e6b696361,rev?*%
%TF.SameCoordinates,Original*%
%TF.FileFunction,Soldermask,Bot*%
%TF.FilePolarity,Negative*%
%FSLAX46Y46*%
G04 Gerber Fmt 4.6, Leading zero omitted, Abs format (unit mm)*
G04 Created by KiCad (PCBNEW 7.0.10) date 2024-11-26 20:55:45*
%MOMM*%
%LPD*%
G01*
G04 APERTURE LIST*
G04 Aperture macros list*
%AMRoundRect*
0 Rectangle with rounded corners*
0 $1 Rounding radius*
0 $2 $3 $4 $5 $6 $7 $8 $9 X,Y pos of 4 corners*
0 Add a 4 corners polygon primitive as box body*
4,1,4,$2,$3,$4,$5,$6,$7,$8,$9,$2,$3,0*
0 Add four circle primitives for the rounded corners*
1,1,$1+$1,$2,$3*
1,1,$1+$1,$4,$5*
1,1,$1+$1,$6,$7*
1,1,$1+$1,$8,$9*
0 Add four rect primitives between the rounded corners*
20,1,$1+$1,$2,$3,$4,$5,0*
20,1,$1+$1,$4,$5,$6,$7,0*
20,1,$1+$1,$6,$7,$8,$9,0*
20,1,$1+$1,$8,$9,$2,$3,0*%
G04 Aperture macros list end*
%ADD10C,1.400000*%
%ADD11O,1.400000X1.400000*%
%ADD12R,1.270000X1.270000*%
%ADD13C,1.270000*%
%ADD14R,1.100000X1.100000*%
%ADD15C,1.100000*%
%ADD16R,2.000000X2.000000*%
%ADD17C,2.000000*%
%ADD18R,1.600000X1.600000*%
%ADD19O,1.600000X1.600000*%
%ADD20C,1.625600*%
%ADD21RoundRect,0.025400X0.736600X0.736600X-0.736600X0.736600X-0.736600X-0.736600X0.736600X-0.736600X0*%
%ADD22R,1.981200X1.981200*%
%ADD23C,1.981200*%
G04 APERTURE END LIST*
D10*
%TO.C,R33*%
X191887250Y-41937440D03*
D11*
X196967250Y-41937440D03*
%TD*%
D12*
%TO.C,LED9*%
X251922110Y-140777000D03*
D13*
X249382110Y-140777000D03*
%TD*%
D12*
%TO.C,LED3*%
X193787250Y-70800000D03*
D13*
X196327250Y-70800000D03*
%TD*%
D14*
%TO.C,U2*%
X184038750Y-33682440D03*
D15*
X184038750Y-31142440D03*
X176418750Y-31142440D03*
X176418750Y-33682440D03*
%TD*%
D16*
%TO.C,K8*%
X263012250Y-82210980D03*
D17*
X263012250Y-84750980D03*
X263012250Y-92370980D03*
X268092250Y-92370980D03*
X268092250Y-84750980D03*
X268092250Y-82210980D03*
%TD*%
D10*
%TO.C,R7*%
X253945750Y-50700440D03*
D11*
X248865750Y-50700440D03*
%TD*%
D14*
%TO.C,U1*%
X169840250Y-33682440D03*
D15*
X169840250Y-31142440D03*
X162220250Y-31142440D03*
X162220250Y-33682440D03*
%TD*%
D14*
%TO.C,U5*%
X226634250Y-33682440D03*
D15*
X226634250Y-31142440D03*
X219014250Y-31142440D03*
X219014250Y-33682440D03*
%TD*%
D10*
%TO.C,R2*%
X182953250Y-50700440D03*
D11*
X177873250Y-50700440D03*
%TD*%
D18*
%TO.C,D6*%
X240832750Y-59674020D03*
D19*
X233212750Y-59674020D03*
%TD*%
D10*
%TO.C,R55*%
X220284250Y-41937440D03*
D11*
X225364250Y-41937440D03*
%TD*%
D10*
%TO.C,R5*%
X225548750Y-50700440D03*
D11*
X220468750Y-50700440D03*
%TD*%
D14*
%TO.C,U8*%
X269229750Y-33682440D03*
D15*
X269229750Y-31142440D03*
X261609750Y-31142440D03*
X261609750Y-33682440D03*
%TD*%
D12*
%TO.C,LED8*%
X264779750Y-70800000D03*
D13*
X267319750Y-70800000D03*
%TD*%
D10*
%TO.C,R3*%
X197151750Y-50700440D03*
D11*
X192071750Y-50700440D03*
%TD*%
D10*
%TO.C,R6*%
X239747250Y-50700440D03*
D11*
X234667250Y-50700440D03*
%TD*%
D18*
%TO.C,D2*%
X184038750Y-59674020D03*
D19*
X176418750Y-59674020D03*
%TD*%
D18*
%TO.C,D1*%
X169840250Y-59674020D03*
D19*
X162220250Y-59674020D03*
%TD*%
D20*
%TO.C,U10*%
X174088750Y-175668440D03*
D21*
X174088750Y-173128440D03*
D20*
X174088750Y-170588440D03*
X174088750Y-168048440D03*
X174088750Y-165508440D03*
X174088750Y-162968440D03*
X174088750Y-160428440D03*
X174088750Y-157888440D03*
X174088750Y-155348440D03*
X174088750Y-152808440D03*
X174088750Y-150268440D03*
X174088750Y-147728440D03*
X174088750Y-145188440D03*
X174088750Y-142648440D03*
X174088750Y-140108440D03*
X174088750Y-137568440D03*
X174088750Y-135028440D03*
X189328750Y-135028440D03*
X189328750Y-137568440D03*
X189328750Y-140108440D03*
X189328750Y-142648440D03*
X189328750Y-145188440D03*
X189328750Y-147728440D03*
X189328750Y-150268440D03*
D21*
X189328750Y-152808440D03*
D20*
X189328750Y-155348440D03*
X189328750Y-157888440D03*
X189328750Y-160428440D03*
X189328750Y-162968440D03*
X189328750Y-165508440D03*
X189328750Y-168048440D03*
X189328750Y-170588440D03*
X189328750Y-173128440D03*
X189328750Y-175668440D03*
%TD*%
D16*
%TO.C,K5*%
X220416750Y-82210980D03*
D17*
X220416750Y-84750980D03*
X220416750Y-92370980D03*
X225496750Y-92370980D03*
X225496750Y-84750980D03*
X225496750Y-82210980D03*
%TD*%
D16*
%TO.C,K6*%
X234615250Y-82210980D03*
D17*
X234615250Y-84750980D03*
X234615250Y-92370980D03*
X239695250Y-92370980D03*
X239695250Y-84750980D03*
X239695250Y-82210980D03*
%TD*%
D18*
%TO.C,D8*%
X269229750Y-59674020D03*
D19*
X261609750Y-59674020D03*
%TD*%
D16*
%TO.C,K4*%
X206218250Y-82210980D03*
D17*
X206218250Y-84750980D03*
X206218250Y-92370980D03*
X211298250Y-92370980D03*
X211298250Y-84750980D03*
X211298250Y-82210980D03*
%TD*%
D10*
%TO.C,R77*%
X248681250Y-41937440D03*
D11*
X253761250Y-41937440D03*
%TD*%
D14*
%TO.C,U7*%
X255031250Y-33682440D03*
D15*
X255031250Y-31142440D03*
X247411250Y-31142440D03*
X247411250Y-33682440D03*
%TD*%
D14*
%TO.C,U6*%
X240832750Y-33682440D03*
D15*
X240832750Y-31142440D03*
X233212750Y-31142440D03*
X233212750Y-33682440D03*
%TD*%
D22*
%TO.C,J10*%
X206514745Y-165675440D03*
D23*
X210014748Y-165675440D03*
X213514749Y-165675440D03*
X217014750Y-165675440D03*
X220514750Y-165675440D03*
X224014751Y-165675440D03*
X206514745Y-168175440D03*
X210014748Y-168175440D03*
X213514749Y-168175440D03*
X217014750Y-168175440D03*
X220514750Y-168175440D03*
X224014751Y-168175440D03*
X203014747Y-167275452D03*
X227514749Y-167275452D03*
%TD*%
D16*
%TO.C,K7*%
X248813750Y-82210980D03*
D17*
X248813750Y-84750980D03*
X248813750Y-92370980D03*
X253893750Y-92370980D03*
X253893750Y-84750980D03*
X253893750Y-82210980D03*
%TD*%
D22*
%TO.C,J12*%
X250659650Y-168131741D03*
D23*
X254159652Y-168131741D03*
X247159651Y-169831740D03*
X257659650Y-169831740D03*
%TD*%
D16*
%TO.C,K3*%
X192019750Y-82210980D03*
D17*
X192019750Y-84750980D03*
X192019750Y-92370980D03*
X197099750Y-92370980D03*
X197099750Y-84750980D03*
X197099750Y-82210980D03*
%TD*%
D12*
%TO.C,LED1*%
X165390250Y-70800000D03*
D13*
X167930250Y-70800000D03*
%TD*%
D12*
%TO.C,LED4*%
X207985750Y-70800000D03*
D13*
X210525750Y-70800000D03*
%TD*%
D12*
%TO.C,LED2*%
X179588750Y-70800000D03*
D13*
X182128750Y-70800000D03*
%TD*%
D18*
%TO.C,D4*%
X212435750Y-59674020D03*
D19*
X204815750Y-59674020D03*
%TD*%
D14*
%TO.C,U3*%
X198237250Y-33682440D03*
D15*
X198237250Y-31142440D03*
X190617250Y-31142440D03*
X190617250Y-33682440D03*
%TD*%
D12*
%TO.C,LED5*%
X222184250Y-70800000D03*
D13*
X224724250Y-70800000D03*
%TD*%
D14*
%TO.C,U4*%
X212435750Y-33682440D03*
D15*
X212435750Y-31142440D03*
X204815750Y-31142440D03*
X204815750Y-33682440D03*
%TD*%
D10*
%TO.C,R66*%
X234482750Y-41937440D03*
D11*
X239562750Y-41937440D03*
%TD*%
D10*
%TO.C,R8*%
X268144250Y-50700440D03*
D11*
X263064250Y-50700440D03*
%TD*%
D18*
%TO.C,D5*%
X226634250Y-59674020D03*
D19*
X219014250Y-59674020D03*
%TD*%
D10*
%TO.C,R11*%
X163490250Y-41937440D03*
D11*
X168570250Y-41937440D03*
%TD*%
D12*
%TO.C,LED7*%
X250581250Y-70800000D03*
D13*
X253121250Y-70800000D03*
%TD*%
D10*
%TO.C,R99*%
X261591750Y-145188440D03*
D11*
X261591750Y-150268440D03*
%TD*%
D12*
%TO.C,LED6*%
X236382750Y-70800000D03*
D13*
X238922750Y-70800000D03*
%TD*%
D18*
%TO.C,D7*%
X255031250Y-59674020D03*
D19*
X247411250Y-59674020D03*
%TD*%
D16*
%TO.C,K1*%
X163622750Y-82210980D03*
D17*
X163622750Y-84750980D03*
X163622750Y-92370980D03*
X168702750Y-92370980D03*
X168702750Y-84750980D03*
X168702750Y-82210980D03*
%TD*%
D10*
%TO.C,R1*%
X168754750Y-50700440D03*
D11*
X163674750Y-50700440D03*
%TD*%
D10*
%TO.C,R22*%
X177688750Y-41937440D03*
D11*
X182768750Y-41937440D03*
%TD*%
D10*
%TO.C,R9*%
X267560750Y-145188440D03*
D11*
X267560750Y-150268440D03*
%TD*%
D10*
%TO.C,R4*%
X211350250Y-50700440D03*
D11*
X206270250Y-50700440D03*
%TD*%
D10*
%TO.C,R88*%
X262879750Y-41937440D03*
D11*
X267959750Y-41937440D03*
%TD*%
D16*
%TO.C,K2*%
X177821250Y-82210980D03*
D17*
X177821250Y-84750980D03*
X177821250Y-92370980D03*
X182901250Y-92370980D03*
X182901250Y-84750980D03*
X182901250Y-82210980D03*
%TD*%
D18*
%TO.C,D3*%
X198237250Y-59674020D03*
D19*
X190617250Y-59674020D03*
%TD*%
D14*
%TO.C,U9*%
X255114750Y-155475440D03*
D15*
X255114750Y-152935440D03*
X247494750Y-152935440D03*
X247494750Y-155475440D03*
%TD*%
D10*
%TO.C,R44*%
X206085750Y-41937440D03*
D11*
X211165750Y-41937440D03*
%TD*%
M02*
