%TF.GenerationSoftware,KiCad,Pcbnew,7.0.10*%
%TF.CreationDate,2024-11-26T20:55:45-08:00*%
%TF.ProjectId,Main_Board,4d61696e-5f42-46f6-9172-642e6b696361,rev?*%
%TF.SameCoordinates,Original*%
%TF.FileFunction,Legend,Bot*%
%TF.FilePolarity,Positive*%
%FSLAX46Y46*%
G04 Gerber Fmt 4.6, Leading zero omitted, Abs format (unit mm)*
G04 Created by KiCad (PCBNEW 7.0.10) date 2024-11-26 20:55:45*
%MOMM*%
%LPD*%
G01*
G04 APERTURE LIST*
%ADD10C,0.508000*%
%ADD11C,0.350000*%
G04 APERTURE END LIST*
D10*
%TO.C,J10*%
X132384848Y-165922550D02*
G75*
G03*
X131622848Y-165922550I-381000J0D01*
G01*
X131622848Y-165922550D02*
G75*
G03*
X132384848Y-165922550I381000J0D01*
G01*
%TO.C,J12*%
X176540150Y-168378851D02*
G75*
G03*
X175778150Y-168378851I-381000J0D01*
G01*
X175778150Y-168378851D02*
G75*
G03*
X176540150Y-168378851I381000J0D01*
G01*
%TD*%
D11*
X125987250Y-42184550D03*
X131067250Y-42184550D03*
X186022110Y-141024110D03*
X183482110Y-141024110D03*
X127887250Y-71047110D03*
X130427250Y-71047110D03*
X118138750Y-33929550D03*
X118138750Y-31389550D03*
X110518750Y-31389550D03*
X110518750Y-33929550D03*
X197112250Y-82458090D03*
X197112250Y-84998090D03*
X197112250Y-92618090D03*
X202192250Y-92618090D03*
X202192250Y-84998090D03*
X202192250Y-82458090D03*
X188045750Y-50947550D03*
X182965750Y-50947550D03*
X103940250Y-33929550D03*
X103940250Y-31389550D03*
X96320250Y-31389550D03*
X96320250Y-33929550D03*
X160734250Y-33929550D03*
X160734250Y-31389550D03*
X153114250Y-31389550D03*
X153114250Y-33929550D03*
X117053250Y-50947550D03*
X111973250Y-50947550D03*
X174932750Y-59921130D03*
X167312750Y-59921130D03*
X154384250Y-42184550D03*
X159464250Y-42184550D03*
X159648750Y-50947550D03*
X154568750Y-50947550D03*
X203329750Y-33929550D03*
X203329750Y-31389550D03*
X195709750Y-31389550D03*
X195709750Y-33929550D03*
X198879750Y-71047110D03*
X201419750Y-71047110D03*
X131251750Y-50947550D03*
X126171750Y-50947550D03*
X173847250Y-50947550D03*
X168767250Y-50947550D03*
X118138750Y-59921130D03*
X110518750Y-59921130D03*
X103940250Y-59921130D03*
X96320250Y-59921130D03*
X108188750Y-175915550D03*
X108188750Y-173375550D03*
X108188750Y-170835550D03*
X108188750Y-168295550D03*
X108188750Y-165755550D03*
X108188750Y-163215550D03*
X108188750Y-160675550D03*
X108188750Y-158135550D03*
X108188750Y-155595550D03*
X108188750Y-153055550D03*
X108188750Y-150515550D03*
X108188750Y-147975550D03*
X108188750Y-145435550D03*
X108188750Y-142895550D03*
X108188750Y-140355550D03*
X108188750Y-137815550D03*
X108188750Y-135275550D03*
X123428750Y-135275550D03*
X123428750Y-137815550D03*
X123428750Y-140355550D03*
X123428750Y-142895550D03*
X123428750Y-145435550D03*
X123428750Y-147975550D03*
X123428750Y-150515550D03*
X123428750Y-153055550D03*
X123428750Y-155595550D03*
X123428750Y-158135550D03*
X123428750Y-160675550D03*
X123428750Y-163215550D03*
X123428750Y-165755550D03*
X123428750Y-168295550D03*
X123428750Y-170835550D03*
X123428750Y-173375550D03*
X123428750Y-175915550D03*
X154516750Y-82458090D03*
X154516750Y-84998090D03*
X154516750Y-92618090D03*
X159596750Y-92618090D03*
X159596750Y-84998090D03*
X159596750Y-82458090D03*
X168715250Y-82458090D03*
X168715250Y-84998090D03*
X168715250Y-92618090D03*
X173795250Y-92618090D03*
X173795250Y-84998090D03*
X173795250Y-82458090D03*
X203329750Y-59921130D03*
X195709750Y-59921130D03*
X140318250Y-82458090D03*
X140318250Y-84998090D03*
X140318250Y-92618090D03*
X145398250Y-92618090D03*
X145398250Y-84998090D03*
X145398250Y-82458090D03*
X182781250Y-42184550D03*
X187861250Y-42184550D03*
X189131250Y-33929550D03*
X189131250Y-31389550D03*
X181511250Y-31389550D03*
X181511250Y-33929550D03*
X174932750Y-33929550D03*
X174932750Y-31389550D03*
X167312750Y-31389550D03*
X167312750Y-33929550D03*
X140614745Y-165922550D03*
X144114748Y-165922550D03*
X147614749Y-165922550D03*
X151114750Y-165922550D03*
X154614750Y-165922550D03*
X158114751Y-165922550D03*
X140614745Y-168422550D03*
X144114748Y-168422550D03*
X147614749Y-168422550D03*
X151114750Y-168422550D03*
X154614750Y-168422550D03*
X158114751Y-168422550D03*
X137114747Y-167522562D03*
X161614749Y-167522562D03*
X182913750Y-82458090D03*
X182913750Y-84998090D03*
X182913750Y-92618090D03*
X187993750Y-92618090D03*
X187993750Y-84998090D03*
X187993750Y-82458090D03*
X184759650Y-168378851D03*
X188259652Y-168378851D03*
X181259651Y-170078850D03*
X191759650Y-170078850D03*
X126119750Y-82458090D03*
X126119750Y-84998090D03*
X126119750Y-92618090D03*
X131199750Y-92618090D03*
X131199750Y-84998090D03*
X131199750Y-82458090D03*
X99490250Y-71047110D03*
X102030250Y-71047110D03*
X142085750Y-71047110D03*
X144625750Y-71047110D03*
X113688750Y-71047110D03*
X116228750Y-71047110D03*
X146535750Y-59921130D03*
X138915750Y-59921130D03*
X132337250Y-33929550D03*
X132337250Y-31389550D03*
X124717250Y-31389550D03*
X124717250Y-33929550D03*
X156284250Y-71047110D03*
X158824250Y-71047110D03*
X146535750Y-33929550D03*
X146535750Y-31389550D03*
X138915750Y-31389550D03*
X138915750Y-33929550D03*
X168582750Y-42184550D03*
X173662750Y-42184550D03*
X202244250Y-50947550D03*
X197164250Y-50947550D03*
X160734250Y-59921130D03*
X153114250Y-59921130D03*
X97590250Y-42184550D03*
X102670250Y-42184550D03*
X184681250Y-71047110D03*
X187221250Y-71047110D03*
X195691750Y-145435550D03*
X195691750Y-150515550D03*
X170482750Y-71047110D03*
X173022750Y-71047110D03*
X189131250Y-59921130D03*
X181511250Y-59921130D03*
X97722750Y-82458090D03*
X97722750Y-84998090D03*
X97722750Y-92618090D03*
X102802750Y-92618090D03*
X102802750Y-84998090D03*
X102802750Y-82458090D03*
X102854750Y-50947550D03*
X97774750Y-50947550D03*
X111788750Y-42184550D03*
X116868750Y-42184550D03*
X201660750Y-145435550D03*
X201660750Y-150515550D03*
X145450250Y-50947550D03*
X140370250Y-50947550D03*
X196979750Y-42184550D03*
X202059750Y-42184550D03*
X111921250Y-82458090D03*
X111921250Y-84998090D03*
X111921250Y-92618090D03*
X117001250Y-92618090D03*
X117001250Y-84998090D03*
X117001250Y-82458090D03*
X132337250Y-59921130D03*
X124717250Y-59921130D03*
X189214750Y-155722550D03*
X189214750Y-153182550D03*
X181594750Y-153182550D03*
X181594750Y-155722550D03*
X140185750Y-42184550D03*
X145265750Y-42184550D03*
M02*
