M48
; DRILL file {KiCad 7.0.10} date Tue Nov 26 20:56:08 2024
; FORMAT={-:-/ absolute / metric / decimal}
; #@! TF.CreationDate,2024-11-26T20:56:08-08:00
; #@! TF.GenerationSoftware,Kicad,Pcbnew,7.0.10
; #@! TF.FileFunction,MixedPlating,1,2
FMAT,2
METRIC
; #@! TA.AperFunction,Plated,PTH,ComponentDrill
T1C0.600
; #@! TA.AperFunction,Plated,PTH,ComponentDrill
T2C0.700
; #@! TA.AperFunction,Plated,PTH,ComponentDrill
T3C0.762
; #@! TA.AperFunction,Plated,PTH,ComponentDrill
T4C1.473
%
G90
G05
T1
X149.4Y-21.666
X149.4Y-39.446
X149.4Y-57.226
X149.4Y-75.006
X149.4Y-92.786
X149.4Y-110.566
X149.4Y-127.594
X149.4Y-146.126
X149.4Y-162.706
X149.4Y-163.906
X150.6Y-20.466
X150.6Y-38.246
X150.6Y-56.026
X150.6Y-73.806
X150.6Y-91.586
X150.6Y-109.366
X150.6Y-126.394
X150.6Y-144.926
X150.6Y-162.706
X150.6Y-163.906
T2
X137.3Y-28.823
X137.3Y-46.603
X137.3Y-64.383
X137.3Y-82.163
X137.3Y-99.943
X137.3Y-117.723
X137.3Y-134.75
X137.3Y-153.283
X142.38Y-28.823
X142.38Y-46.603
X142.38Y-64.383
X142.38Y-82.163
X142.38Y-99.943
X142.38Y-117.723
X142.38Y-134.75
X142.38Y-153.283
T3
X139.84Y-19.796
X139.84Y-22.336
X139.84Y-37.576
X139.84Y-40.116
X139.84Y-55.356
X139.84Y-57.896
X139.84Y-73.136
X139.84Y-75.676
X139.84Y-90.916
X139.84Y-93.456
X139.84Y-108.696
X139.84Y-111.236
X139.84Y-125.724
X139.84Y-128.264
X139.84Y-144.256
X139.84Y-146.796
T4
X137.763Y-176.064
X141.263Y-174.464
X141.263Y-176.964
X144.763Y-174.464
X144.763Y-176.964
X148.263Y-174.464
X148.263Y-176.964
X151.763Y-174.464
X151.763Y-176.964
X155.263Y-174.464
X155.263Y-176.964
X158.763Y-174.464
X158.763Y-176.964
X162.263Y-176.064
M30
