%TF.GenerationSoftware,KiCad,Pcbnew,7.0.10*%
%TF.CreationDate,2024-11-26T20:56:08-08:00*%
%TF.ProjectId,Connector_Board,436f6e6e-6563-4746-9f72-5f426f617264,rev?*%
%TF.SameCoordinates,Original*%
%TF.FileFunction,Soldermask,Bot*%
%TF.FilePolarity,Negative*%
%FSLAX46Y46*%
G04 Gerber Fmt 4.6, Leading zero omitted, Abs format (unit mm)*
G04 Created by KiCad (PCBNEW 7.0.10) date 2024-11-26 20:56:08*
%MOMM*%
%LPD*%
G01*
G04 APERTURE LIST*
%ADD10R,1.100000X1.100000*%
%ADD11C,1.100000*%
%ADD12C,1.400000*%
%ADD13O,1.400000X1.400000*%
%ADD14R,1.981200X1.981200*%
%ADD15C,1.981200*%
%ADD16R,1.270000X1.270000*%
%ADD17C,1.270000*%
G04 APERTURE END LIST*
%TO.C,G\u002A\u002A\u002A*%
G36*
X159330780Y-112891648D02*
G01*
X159393272Y-112892537D01*
X159447695Y-112893940D01*
X159492126Y-112895881D01*
X159681081Y-112909198D01*
X159908412Y-112932453D01*
X160129157Y-112963409D01*
X160345047Y-113002352D01*
X160557811Y-113049564D01*
X160769183Y-113105330D01*
X160802187Y-113114927D01*
X160873934Y-113136945D01*
X160950629Y-113161817D01*
X161030197Y-113188796D01*
X161110559Y-113217124D01*
X161189642Y-113246051D01*
X161265369Y-113274825D01*
X161335663Y-113302693D01*
X161398450Y-113328902D01*
X161451652Y-113352699D01*
X161458042Y-113355680D01*
X161477810Y-113364740D01*
X161492158Y-113371074D01*
X161498335Y-113373455D01*
X161498896Y-113373552D01*
X161507828Y-113377103D01*
X161525504Y-113385179D01*
X161550234Y-113396939D01*
X161580328Y-113411549D01*
X161614093Y-113428173D01*
X161649841Y-113445975D01*
X161685880Y-113464115D01*
X161720520Y-113481761D01*
X161752069Y-113498075D01*
X161778838Y-113512221D01*
X161960176Y-113614489D01*
X162152894Y-113735096D01*
X162337230Y-113863671D01*
X162514042Y-114000847D01*
X162684189Y-114147259D01*
X162848529Y-114303543D01*
X162914805Y-114370893D01*
X163018860Y-114482375D01*
X163115388Y-114593825D01*
X163206700Y-114708067D01*
X163295105Y-114827915D01*
X163382910Y-114956194D01*
X163401002Y-114983683D01*
X163425386Y-115021313D01*
X163448521Y-115057878D01*
X163471006Y-115094458D01*
X163493448Y-115132133D01*
X163516450Y-115171982D01*
X163533741Y-115202831D01*
X163540613Y-115215088D01*
X163566541Y-115262530D01*
X163594836Y-115315388D01*
X163626103Y-115374742D01*
X163660943Y-115441670D01*
X163699961Y-115517256D01*
X163743758Y-115602577D01*
X163764439Y-115642956D01*
X163800780Y-115713972D01*
X163832396Y-115775867D01*
X163859816Y-115829708D01*
X163883576Y-115876561D01*
X163904206Y-115917497D01*
X163922241Y-115953587D01*
X163938214Y-115985896D01*
X163952656Y-116015494D01*
X163966099Y-116043449D01*
X163979078Y-116070829D01*
X163992126Y-116098704D01*
X164005772Y-116128144D01*
X164013836Y-116145516D01*
X164024509Y-116168228D01*
X164032785Y-116185513D01*
X164037346Y-116194594D01*
X164041791Y-116204028D01*
X164050039Y-116223491D01*
X164061079Y-116250605D01*
X164074156Y-116283454D01*
X164088517Y-116320111D01*
X164103414Y-116358660D01*
X164118089Y-116397178D01*
X164131798Y-116433744D01*
X164143780Y-116466438D01*
X164175203Y-116557122D01*
X164234125Y-116750731D01*
X164284192Y-116949834D01*
X164324906Y-117152105D01*
X164355772Y-117355215D01*
X164376292Y-117556835D01*
X164376831Y-117563904D01*
X164379354Y-117596706D01*
X164381698Y-117626621D01*
X164383623Y-117650594D01*
X164384887Y-117665573D01*
X164385178Y-117671738D01*
X164385526Y-117690113D01*
X164385769Y-117718292D01*
X164385903Y-117754912D01*
X164385929Y-117798610D01*
X164385843Y-117848025D01*
X164385645Y-117901796D01*
X164385331Y-117958561D01*
X164384968Y-118007428D01*
X164384213Y-118076065D01*
X164383148Y-118135808D01*
X164381666Y-118188611D01*
X164379664Y-118236425D01*
X164377040Y-118281205D01*
X164373689Y-118324901D01*
X164369510Y-118369465D01*
X164364396Y-118416853D01*
X164358245Y-118469019D01*
X164328308Y-118677770D01*
X164282757Y-118916842D01*
X164225424Y-119154721D01*
X164156468Y-119391039D01*
X164076044Y-119625429D01*
X163984308Y-119857526D01*
X163881417Y-120086960D01*
X163767524Y-120313368D01*
X163642785Y-120536383D01*
X163507360Y-120755637D01*
X163361400Y-120970764D01*
X163205063Y-121181396D01*
X163182778Y-121210000D01*
X163102093Y-121311032D01*
X163021596Y-121407632D01*
X162939269Y-121502072D01*
X162853096Y-121596628D01*
X162761064Y-121693572D01*
X162661156Y-121795181D01*
X162631870Y-121824353D01*
X162436776Y-122010350D01*
X162236528Y-122186873D01*
X162030157Y-122354643D01*
X161816700Y-122514387D01*
X161595193Y-122666833D01*
X161364671Y-122812705D01*
X161124169Y-122952733D01*
X161105350Y-122963151D01*
X161063806Y-122985668D01*
X161016559Y-123010784D01*
X160965651Y-123037452D01*
X160913117Y-123064629D01*
X160861001Y-123091265D01*
X160811342Y-123116317D01*
X160766178Y-123138740D01*
X160727552Y-123157483D01*
X160697502Y-123171506D01*
X160669415Y-123184188D01*
X160638972Y-123197956D01*
X160612928Y-123209756D01*
X160386850Y-123307693D01*
X160116816Y-123412752D01*
X159844068Y-123506094D01*
X159568742Y-123587684D01*
X159290969Y-123657489D01*
X159010886Y-123715477D01*
X158728625Y-123761614D01*
X158444327Y-123795865D01*
X158158113Y-123818198D01*
X158146290Y-123818824D01*
X158100578Y-123820630D01*
X158045809Y-123822063D01*
X157984097Y-123823122D01*
X157917555Y-123823807D01*
X157848296Y-123824120D01*
X157778434Y-123824060D01*
X157710084Y-123823627D01*
X157645355Y-123822820D01*
X157586364Y-123821640D01*
X157535222Y-123820088D01*
X157494043Y-123818163D01*
X157291856Y-123803201D01*
X157051399Y-123777217D01*
X156817738Y-123742594D01*
X156589759Y-123699113D01*
X156366338Y-123646558D01*
X156146356Y-123584709D01*
X155928696Y-123513349D01*
X155926335Y-123512518D01*
X155882545Y-123496741D01*
X155833311Y-123478422D01*
X155781038Y-123458503D01*
X155728128Y-123437926D01*
X155676985Y-123417637D01*
X155630012Y-123398576D01*
X155589613Y-123381689D01*
X155558190Y-123367917D01*
X155555240Y-123366575D01*
X155531260Y-123355683D01*
X155502688Y-123342729D01*
X155475079Y-123330234D01*
X155469446Y-123327679D01*
X155350538Y-123270818D01*
X155226634Y-123206295D01*
X155100334Y-123135666D01*
X154974248Y-123060476D01*
X154896120Y-123010918D01*
X157129856Y-123010918D01*
X157135968Y-123015691D01*
X157152210Y-123019937D01*
X157179035Y-123024262D01*
X157216892Y-123029276D01*
X157266230Y-123035590D01*
X157348338Y-123045559D01*
X157593930Y-123067333D01*
X157841376Y-123077429D01*
X158090176Y-123075951D01*
X158339827Y-123062998D01*
X158589822Y-123038672D01*
X158839664Y-123003077D01*
X159088849Y-122956312D01*
X159336871Y-122898483D01*
X159583228Y-122829689D01*
X159827416Y-122750033D01*
X160068934Y-122659617D01*
X160307277Y-122558542D01*
X160541944Y-122446911D01*
X160772430Y-122324825D01*
X160957048Y-122217649D01*
X161180855Y-122075791D01*
X161397013Y-121925217D01*
X161605204Y-121766207D01*
X161805105Y-121599047D01*
X161996396Y-121424022D01*
X162178755Y-121241409D01*
X162351861Y-121051497D01*
X162515394Y-120854567D01*
X162669031Y-120650904D01*
X162688566Y-120623584D01*
X162706476Y-120598303D01*
X162720644Y-120578053D01*
X162729961Y-120564419D01*
X162733312Y-120558992D01*
X162733307Y-120558585D01*
X162732845Y-120558174D01*
X162730893Y-120558542D01*
X162726384Y-120560143D01*
X162718258Y-120563429D01*
X162705451Y-120568852D01*
X162686899Y-120576867D01*
X162661535Y-120587926D01*
X162628301Y-120602483D01*
X162586130Y-120620987D01*
X162533960Y-120643896D01*
X162523102Y-120648663D01*
X162465158Y-120674106D01*
X162416862Y-120695308D01*
X162377005Y-120712799D01*
X162344375Y-120727102D01*
X162317766Y-120738752D01*
X162295968Y-120748272D01*
X162277771Y-120756193D01*
X162261965Y-120763044D01*
X162247342Y-120769350D01*
X162232694Y-120775642D01*
X162216808Y-120782449D01*
X162201247Y-120789147D01*
X162172091Y-120801786D01*
X162135905Y-120817544D01*
X162095013Y-120835403D01*
X162051735Y-120854354D01*
X162008395Y-120873379D01*
X161977053Y-120887157D01*
X161922372Y-120911191D01*
X161876857Y-120931188D01*
X161839243Y-120947700D01*
X161808271Y-120961279D01*
X161782677Y-120972473D01*
X161761200Y-120981840D01*
X161742579Y-120989926D01*
X161725554Y-120997285D01*
X161708862Y-121004468D01*
X161691242Y-121012026D01*
X161678965Y-121017286D01*
X161622226Y-121041596D01*
X161574977Y-121061954D01*
X161535883Y-121079083D01*
X161503611Y-121093703D01*
X161476829Y-121106534D01*
X161454203Y-121118301D01*
X161434400Y-121129719D01*
X161416088Y-121141516D01*
X161397932Y-121154406D01*
X161378599Y-121169117D01*
X161356758Y-121186369D01*
X161331074Y-121206880D01*
X161282363Y-121245338D01*
X161067856Y-121405417D01*
X160846689Y-121555804D01*
X160619356Y-121696287D01*
X160386342Y-121826658D01*
X160148142Y-121946703D01*
X159905246Y-122056211D01*
X159658141Y-122154973D01*
X159407322Y-122242774D01*
X159153275Y-122319407D01*
X158896492Y-122384656D01*
X158637464Y-122438313D01*
X158376684Y-122480166D01*
X158365287Y-122481756D01*
X158347468Y-122484509D01*
X158330959Y-122487685D01*
X158314393Y-122491793D01*
X158296397Y-122497332D01*
X158275604Y-122504809D01*
X158250646Y-122514730D01*
X158220152Y-122527602D01*
X158182753Y-122543926D01*
X158137078Y-122564211D01*
X158081762Y-122588960D01*
X158073593Y-122592583D01*
X158054000Y-122601201D01*
X158025943Y-122613503D01*
X157990927Y-122628826D01*
X157950455Y-122646523D01*
X157906027Y-122665930D01*
X157859149Y-122686396D01*
X157811323Y-122707261D01*
X157764051Y-122727873D01*
X157718838Y-122747574D01*
X157677183Y-122765709D01*
X157640590Y-122781619D01*
X157610565Y-122794652D01*
X157590867Y-122803196D01*
X157554352Y-122819059D01*
X157510470Y-122838141D01*
X157461415Y-122859485D01*
X157409383Y-122882138D01*
X157356570Y-122905143D01*
X157305168Y-122927544D01*
X157257377Y-122948384D01*
X157215391Y-122966709D01*
X157197754Y-122974362D01*
X157167828Y-122987338D01*
X157146237Y-122997350D01*
X157133431Y-123005008D01*
X157129856Y-123010918D01*
X154896120Y-123010918D01*
X154850976Y-122982282D01*
X154733126Y-122902629D01*
X154623302Y-122823072D01*
X154486050Y-122715818D01*
X154313896Y-122568870D01*
X154151700Y-122415447D01*
X153999067Y-122255103D01*
X153855596Y-122087392D01*
X153720891Y-121911866D01*
X153594555Y-121728081D01*
X153476191Y-121535588D01*
X153460411Y-121507739D01*
X153438457Y-121467621D01*
X153412486Y-121419095D01*
X153383103Y-121363356D01*
X153350910Y-121301600D01*
X153316509Y-121235019D01*
X153280499Y-121164807D01*
X153243489Y-121092157D01*
X153206077Y-121018263D01*
X153195652Y-120997546D01*
X154151656Y-120997546D01*
X154154536Y-121005662D01*
X154161908Y-121020763D01*
X154173264Y-121042477D01*
X154210910Y-121111317D01*
X154303147Y-121264258D01*
X154405984Y-121415379D01*
X154518392Y-121563435D01*
X154639349Y-121707180D01*
X154767830Y-121845369D01*
X154902811Y-121976756D01*
X155043266Y-122100097D01*
X155084456Y-122133768D01*
X155172301Y-122202116D01*
X155265343Y-122270363D01*
X155361365Y-122337032D01*
X155458148Y-122400649D01*
X155553477Y-122459733D01*
X155645137Y-122512808D01*
X155730910Y-122558397D01*
X155745697Y-122565564D01*
X155758941Y-122571299D01*
X155764558Y-122572762D01*
X155762275Y-122567410D01*
X155755000Y-122552336D01*
X155743257Y-122528607D01*
X155727577Y-122497278D01*
X155708491Y-122459408D01*
X155686531Y-122416053D01*
X155662228Y-122368273D01*
X155636113Y-122317123D01*
X155506339Y-122063402D01*
X155488592Y-122054555D01*
X155584583Y-122054555D01*
X155587200Y-122061861D01*
X155594586Y-122078520D01*
X155606126Y-122103288D01*
X155621202Y-122134924D01*
X155639197Y-122172184D01*
X155659496Y-122213825D01*
X155681478Y-122258606D01*
X155704532Y-122305281D01*
X155728036Y-122352610D01*
X155751375Y-122399350D01*
X155773932Y-122444257D01*
X155795091Y-122486088D01*
X155814233Y-122523602D01*
X155830742Y-122555554D01*
X155844001Y-122580704D01*
X155853394Y-122597806D01*
X155858303Y-122605619D01*
X155862715Y-122605095D01*
X155876926Y-122600436D01*
X155899387Y-122591906D01*
X155928568Y-122580111D01*
X155962944Y-122565655D01*
X156000984Y-122549144D01*
X156023218Y-122539361D01*
X156065849Y-122520653D01*
X156107314Y-122502518D01*
X156145142Y-122486029D01*
X156176860Y-122472268D01*
X156199997Y-122462313D01*
X156212666Y-122456872D01*
X156239320Y-122445330D01*
X156273996Y-122430246D01*
X156314880Y-122412410D01*
X156360170Y-122392608D01*
X156385041Y-122381713D01*
X158561219Y-122381713D01*
X158561774Y-122383014D01*
X158568324Y-122382718D01*
X158581845Y-122380698D01*
X158603314Y-122376840D01*
X158633707Y-122371018D01*
X158674003Y-122363114D01*
X158725177Y-122353003D01*
X158869746Y-122322294D01*
X159092241Y-122266996D01*
X159316246Y-122201901D01*
X159539586Y-122127694D01*
X159760099Y-122045068D01*
X159975606Y-121954715D01*
X159982549Y-121951624D01*
X160025661Y-121931854D01*
X160076521Y-121907760D01*
X160132790Y-121880512D01*
X160192125Y-121851281D01*
X160252185Y-121821236D01*
X160310627Y-121791546D01*
X160365113Y-121763381D01*
X160413299Y-121737911D01*
X160452842Y-121716305D01*
X160501983Y-121688452D01*
X160605299Y-121627851D01*
X160710061Y-121563845D01*
X160813751Y-121498047D01*
X160913849Y-121432069D01*
X161007839Y-121367524D01*
X161093200Y-121306029D01*
X161115995Y-121289095D01*
X161141536Y-121270005D01*
X161162493Y-121254214D01*
X161177151Y-121243010D01*
X161183801Y-121237690D01*
X161185575Y-121235760D01*
X161185223Y-121234936D01*
X161181661Y-121235724D01*
X161173906Y-121238531D01*
X161160978Y-121243766D01*
X161141900Y-121251837D01*
X161115687Y-121263150D01*
X161081361Y-121278116D01*
X161037942Y-121297139D01*
X160984449Y-121320631D01*
X160973633Y-121325383D01*
X160912471Y-121352254D01*
X160861005Y-121374859D01*
X160818058Y-121393712D01*
X160782454Y-121409326D01*
X160753021Y-121422217D01*
X160728579Y-121432896D01*
X160707955Y-121441878D01*
X160689972Y-121449678D01*
X160673454Y-121456810D01*
X160657226Y-121463785D01*
X160640112Y-121471120D01*
X160624551Y-121477818D01*
X160595397Y-121490458D01*
X160559210Y-121506216D01*
X160518317Y-121524075D01*
X160475039Y-121543026D01*
X160431698Y-121562050D01*
X160398101Y-121576820D01*
X160343803Y-121600686D01*
X160298626Y-121620534D01*
X160261310Y-121636914D01*
X160230597Y-121650376D01*
X160205231Y-121661472D01*
X160183953Y-121670748D01*
X160165504Y-121678757D01*
X160148625Y-121686048D01*
X160132059Y-121693172D01*
X160114547Y-121700677D01*
X160098986Y-121707376D01*
X160069832Y-121720016D01*
X160033646Y-121735773D01*
X159992751Y-121753632D01*
X159949473Y-121772582D01*
X159906134Y-121791608D01*
X159872536Y-121806377D01*
X159818238Y-121830244D01*
X159773060Y-121850091D01*
X159735744Y-121866472D01*
X159705032Y-121879934D01*
X159679666Y-121891029D01*
X159658387Y-121900306D01*
X159639939Y-121908314D01*
X159623060Y-121915605D01*
X159606494Y-121922730D01*
X159588982Y-121930234D01*
X159573421Y-121936933D01*
X159544266Y-121949573D01*
X159508080Y-121965330D01*
X159467186Y-121983190D01*
X159423908Y-122002140D01*
X159380569Y-122021165D01*
X159346971Y-122035935D01*
X159292673Y-122059801D01*
X159247494Y-122079648D01*
X159210179Y-122096029D01*
X159179466Y-122109491D01*
X159154100Y-122120586D01*
X159132822Y-122129863D01*
X159114373Y-122137872D01*
X159097495Y-122145163D01*
X159080929Y-122152286D01*
X159063416Y-122159791D01*
X159047848Y-122166495D01*
X159018692Y-122179140D01*
X158982507Y-122194901D01*
X158941616Y-122212771D01*
X158898340Y-122231730D01*
X158855004Y-122250768D01*
X158821049Y-122265699D01*
X158779523Y-122283941D01*
X158740748Y-122300960D01*
X158706799Y-122315841D01*
X158679756Y-122327675D01*
X158661691Y-122335551D01*
X158660789Y-122335942D01*
X158633625Y-122347879D01*
X158605784Y-122360319D01*
X158583159Y-122370634D01*
X158574179Y-122374803D01*
X158565677Y-122378936D01*
X158561219Y-122381713D01*
X156385041Y-122381713D01*
X156408058Y-122371630D01*
X156456739Y-122350262D01*
X156488975Y-122336106D01*
X156537907Y-122314647D01*
X156585128Y-122293974D01*
X156628768Y-122274899D01*
X156666962Y-122258240D01*
X156697836Y-122244816D01*
X156719520Y-122235443D01*
X156732661Y-122229774D01*
X156760603Y-122217645D01*
X156796504Y-122202003D01*
X156838495Y-122183669D01*
X156884704Y-122163457D01*
X156933264Y-122142183D01*
X156982303Y-122120664D01*
X157014528Y-122106520D01*
X157063462Y-122085070D01*
X157110685Y-122064403D01*
X157154329Y-122045334D01*
X157192525Y-122028680D01*
X157223400Y-122015258D01*
X157245085Y-122005885D01*
X157258226Y-122000217D01*
X157286168Y-121988088D01*
X157322070Y-121972446D01*
X157364060Y-121954112D01*
X157410270Y-121933900D01*
X157458829Y-121912624D01*
X157507868Y-121891108D01*
X157540093Y-121876962D01*
X157589028Y-121855513D01*
X157636252Y-121834846D01*
X157679896Y-121815776D01*
X157718090Y-121799123D01*
X157748965Y-121785700D01*
X157770650Y-121776328D01*
X157783791Y-121770659D01*
X157811734Y-121758530D01*
X157847636Y-121742890D01*
X157889625Y-121724555D01*
X157935835Y-121704342D01*
X157984394Y-121683068D01*
X158033434Y-121661551D01*
X158065658Y-121647405D01*
X158114593Y-121625957D01*
X158161817Y-121605288D01*
X158205461Y-121586218D01*
X158243655Y-121569565D01*
X158274530Y-121556144D01*
X158296217Y-121546770D01*
X158309356Y-121541101D01*
X158337299Y-121528972D01*
X158373201Y-121513333D01*
X158415190Y-121494997D01*
X158461401Y-121474785D01*
X158509956Y-121453511D01*
X158558995Y-121431992D01*
X158591221Y-121417849D01*
X158640154Y-121396399D01*
X158687379Y-121375731D01*
X158731022Y-121356662D01*
X158769217Y-121340008D01*
X158800091Y-121326587D01*
X158821778Y-121317214D01*
X158834917Y-121311545D01*
X158862860Y-121299416D01*
X158898761Y-121283775D01*
X158940752Y-121265440D01*
X158986960Y-121245228D01*
X159035521Y-121223954D01*
X159084560Y-121202435D01*
X159116785Y-121188291D01*
X159165718Y-121166841D01*
X159212942Y-121146173D01*
X159256587Y-121127102D01*
X159294782Y-121110445D01*
X159325656Y-121097022D01*
X159347342Y-121087646D01*
X159363472Y-121080685D01*
X159394145Y-121067371D01*
X159431744Y-121050992D01*
X159473834Y-121032608D01*
X159517996Y-121013277D01*
X159561798Y-120994057D01*
X159614461Y-120970920D01*
X159665524Y-120948493D01*
X159707832Y-120929918D01*
X159742617Y-120914658D01*
X159771111Y-120902178D01*
X159794547Y-120891936D01*
X159814154Y-120883393D01*
X159831167Y-120876015D01*
X159846816Y-120869259D01*
X159862332Y-120862592D01*
X159878949Y-120855472D01*
X159894510Y-120848774D01*
X159923664Y-120836134D01*
X159959851Y-120820377D01*
X160000745Y-120802517D01*
X160044022Y-120783567D01*
X160087364Y-120764540D01*
X160120960Y-120749772D01*
X160175258Y-120725906D01*
X160220437Y-120706058D01*
X160257751Y-120689678D01*
X160288464Y-120676217D01*
X160313829Y-120665121D01*
X160335109Y-120655845D01*
X160353557Y-120647834D01*
X160370436Y-120640544D01*
X160387003Y-120633421D01*
X160404514Y-120625915D01*
X160420075Y-120619216D01*
X160449230Y-120606577D01*
X160485415Y-120590819D01*
X160526310Y-120572960D01*
X160569589Y-120554010D01*
X160612928Y-120534982D01*
X160646525Y-120520215D01*
X160700823Y-120496349D01*
X160746002Y-120476500D01*
X160783316Y-120460121D01*
X160814029Y-120446658D01*
X160839395Y-120435563D01*
X160860675Y-120426288D01*
X160879122Y-120418278D01*
X160896001Y-120410987D01*
X160912568Y-120403864D01*
X160930079Y-120396358D01*
X160944174Y-120390295D01*
X160972959Y-120377824D01*
X161008851Y-120362208D01*
X161049479Y-120344477D01*
X161092476Y-120325664D01*
X161135473Y-120306804D01*
X161168402Y-120292331D01*
X161185223Y-120284927D01*
X161207850Y-120274969D01*
X161243816Y-120259119D01*
X161274402Y-120245614D01*
X161297716Y-120235293D01*
X161311862Y-120228988D01*
X161343270Y-120214862D01*
X160913157Y-120080302D01*
X160844691Y-120058885D01*
X160777595Y-120037900D01*
X160714382Y-120018136D01*
X160656009Y-119999888D01*
X160603429Y-119983456D01*
X160557600Y-119969140D01*
X160519478Y-119957236D01*
X160490019Y-119948045D01*
X160470178Y-119941866D01*
X160460912Y-119938995D01*
X160456659Y-119937771D01*
X160451976Y-119936920D01*
X160446426Y-119936868D01*
X160439229Y-119937922D01*
X160429598Y-119940399D01*
X160416750Y-119944611D01*
X160399900Y-119950870D01*
X160378265Y-119959491D01*
X160351060Y-119970785D01*
X160317502Y-119985068D01*
X160276805Y-120002648D01*
X160228185Y-120023842D01*
X160170861Y-120048965D01*
X160104043Y-120078324D01*
X160026953Y-120112237D01*
X159999013Y-120124507D01*
X159958525Y-120142238D01*
X159912053Y-120162551D01*
X159862343Y-120184247D01*
X159812134Y-120206131D01*
X159764171Y-120227003D01*
X159723128Y-120244862D01*
X159673068Y-120266676D01*
X159623122Y-120288474D01*
X159576030Y-120309055D01*
X159534538Y-120327224D01*
X159501387Y-120341781D01*
X159473449Y-120354054D01*
X159432961Y-120371788D01*
X159386490Y-120392104D01*
X159336778Y-120413803D01*
X159286570Y-120435688D01*
X159238604Y-120456560D01*
X159197563Y-120474420D01*
X159147502Y-120496233D01*
X159097557Y-120518031D01*
X159050465Y-120538612D01*
X159008974Y-120556782D01*
X158975822Y-120571339D01*
X158947885Y-120583611D01*
X158907396Y-120601346D01*
X158860925Y-120621660D01*
X158811212Y-120643359D01*
X158761005Y-120665245D01*
X158713040Y-120686117D01*
X158671998Y-120703976D01*
X158621937Y-120725791D01*
X158571992Y-120747588D01*
X158524901Y-120768170D01*
X158483412Y-120786339D01*
X158450261Y-120800896D01*
X158422322Y-120813167D01*
X158381835Y-120830903D01*
X158335363Y-120851217D01*
X158285651Y-120872917D01*
X158235443Y-120894803D01*
X158187479Y-120915674D01*
X158146435Y-120933533D01*
X158096377Y-120955346D01*
X158046429Y-120977142D01*
X157999340Y-120997721D01*
X157957847Y-121015887D01*
X157924696Y-121030440D01*
X157903089Y-121039939D01*
X157860595Y-121058590D01*
X157811950Y-121079911D01*
X157758595Y-121103274D01*
X157701956Y-121128053D01*
X157643474Y-121153623D01*
X157584581Y-121179354D01*
X157526710Y-121204621D01*
X157471299Y-121228800D01*
X157419782Y-121251262D01*
X157373591Y-121271380D01*
X157334163Y-121288529D01*
X157302931Y-121302082D01*
X157281332Y-121311413D01*
X157268191Y-121317085D01*
X157240250Y-121329217D01*
X157204349Y-121344858D01*
X157162357Y-121363197D01*
X157116148Y-121383412D01*
X157067589Y-121404687D01*
X157018549Y-121426207D01*
X156986324Y-121440350D01*
X156937390Y-121461800D01*
X156890166Y-121482467D01*
X156846523Y-121501537D01*
X156808328Y-121518190D01*
X156777452Y-121531612D01*
X156755767Y-121540985D01*
X156742626Y-121546654D01*
X156714684Y-121558783D01*
X156678783Y-121574424D01*
X156636792Y-121592758D01*
X156590583Y-121612971D01*
X156542023Y-121634245D01*
X156492984Y-121655763D01*
X156460759Y-121669908D01*
X156411825Y-121691357D01*
X156364601Y-121712024D01*
X156320957Y-121731094D01*
X156282763Y-121747747D01*
X156251887Y-121761169D01*
X156230202Y-121770543D01*
X156217071Y-121776206D01*
X156189131Y-121788329D01*
X156153229Y-121803961D01*
X156111237Y-121822284D01*
X156065025Y-121842486D01*
X156016461Y-121863745D01*
X155967418Y-121885247D01*
X155939431Y-121897520D01*
X155888202Y-121919952D01*
X155837353Y-121942176D01*
X155789019Y-121963261D01*
X155745336Y-121982276D01*
X155708442Y-121998291D01*
X155680473Y-122010372D01*
X155659818Y-122019329D01*
X155631298Y-122031951D01*
X155607933Y-122042604D01*
X155591716Y-122050375D01*
X155584634Y-122054348D01*
X155584583Y-122054555D01*
X155488592Y-122054555D01*
X155451810Y-122036219D01*
X155345818Y-121981165D01*
X155172444Y-121881598D01*
X155001590Y-121771703D01*
X154834913Y-121652572D01*
X154674077Y-121525293D01*
X154636854Y-121493209D01*
X154593315Y-121453804D01*
X154545467Y-121409017D01*
X154494985Y-121360517D01*
X154443547Y-121309964D01*
X154392830Y-121259029D01*
X154344510Y-121209375D01*
X154300262Y-121162669D01*
X154261765Y-121120577D01*
X154230694Y-121084764D01*
X154222433Y-121074867D01*
X154195225Y-121042434D01*
X154175052Y-121018861D01*
X154161405Y-121003772D01*
X154153777Y-120996791D01*
X154151656Y-120997546D01*
X153195652Y-120997546D01*
X153184822Y-120976026D01*
X154137001Y-120976026D01*
X154140022Y-120979045D01*
X154143043Y-120976026D01*
X154140022Y-120973005D01*
X154137001Y-120976026D01*
X153184822Y-120976026D01*
X153168866Y-120944318D01*
X153132460Y-120871519D01*
X153115376Y-120837128D01*
X154117277Y-120837128D01*
X154140022Y-120866043D01*
X154153777Y-120883528D01*
X154183788Y-120921681D01*
X154256496Y-121011675D01*
X154369662Y-121141966D01*
X154486095Y-121263934D01*
X154607999Y-121379741D01*
X154737573Y-121491545D01*
X154877021Y-121601507D01*
X154901931Y-121620078D01*
X154958573Y-121660821D01*
X155020893Y-121704009D01*
X155085876Y-121747634D01*
X155150510Y-121789685D01*
X155211778Y-121828157D01*
X155266665Y-121861040D01*
X155268298Y-121861987D01*
X155303409Y-121882009D01*
X155340870Y-121902814D01*
X155379070Y-121923563D01*
X155416398Y-121943418D01*
X155451244Y-121961543D01*
X155481999Y-121977098D01*
X155507053Y-121989247D01*
X155524797Y-121997151D01*
X155533618Y-121999972D01*
X155533854Y-121999963D01*
X155539161Y-121998632D01*
X155549740Y-121994842D01*
X155566230Y-121988320D01*
X155589273Y-121978790D01*
X155619504Y-121965982D01*
X155657571Y-121949620D01*
X155704109Y-121929433D01*
X155759761Y-121905145D01*
X155825167Y-121876485D01*
X155900967Y-121843179D01*
X155928322Y-121831171D01*
X155967289Y-121814112D01*
X156012353Y-121794422D01*
X156060872Y-121773253D01*
X156110206Y-121751755D01*
X156157710Y-121731085D01*
X156198750Y-121713229D01*
X156248810Y-121691415D01*
X156298758Y-121669618D01*
X156345849Y-121649036D01*
X156387341Y-121630869D01*
X156420493Y-121616310D01*
X156448431Y-121604040D01*
X156488919Y-121586304D01*
X156535391Y-121565988D01*
X156585101Y-121544290D01*
X156635310Y-121522405D01*
X156683275Y-121501532D01*
X156724317Y-121483674D01*
X156774377Y-121461859D01*
X156824323Y-121440061D01*
X156871414Y-121419479D01*
X156912906Y-121401311D01*
X156946057Y-121386753D01*
X156973996Y-121374482D01*
X157014484Y-121356748D01*
X157060956Y-121336431D01*
X157110667Y-121314731D01*
X157160876Y-121292847D01*
X157208841Y-121271974D01*
X157249883Y-121254117D01*
X157299942Y-121232302D01*
X157349889Y-121210503D01*
X157396979Y-121189922D01*
X157438472Y-121171754D01*
X157471622Y-121157197D01*
X157499562Y-121144924D01*
X157540049Y-121127191D01*
X157586522Y-121106873D01*
X157636232Y-121085174D01*
X157686441Y-121063290D01*
X157734406Y-121042417D01*
X157775448Y-121024559D01*
X157825507Y-121002745D01*
X157875453Y-120980946D01*
X157922544Y-120960365D01*
X157964037Y-120942197D01*
X157997187Y-120927639D01*
X158025127Y-120915367D01*
X158065616Y-120897633D01*
X158112087Y-120877317D01*
X158161798Y-120855618D01*
X158212007Y-120833733D01*
X158259971Y-120812861D01*
X158301013Y-120795002D01*
X158351072Y-120773188D01*
X158401019Y-120751390D01*
X158448109Y-120730807D01*
X158489602Y-120712639D01*
X158522748Y-120698082D01*
X158550688Y-120685811D01*
X158591177Y-120668075D01*
X158637647Y-120647760D01*
X158687359Y-120626061D01*
X158737569Y-120604175D01*
X158785532Y-120583303D01*
X158826574Y-120565445D01*
X158876634Y-120543630D01*
X158926580Y-120521832D01*
X158973670Y-120501250D01*
X159015162Y-120483083D01*
X159048313Y-120468525D01*
X159076253Y-120456253D01*
X159116741Y-120438519D01*
X159163212Y-120418201D01*
X159212924Y-120396503D01*
X159263134Y-120374619D01*
X159311096Y-120353746D01*
X159352140Y-120335888D01*
X159402200Y-120314074D01*
X159452146Y-120292279D01*
X159499238Y-120271700D01*
X159540728Y-120253534D01*
X159573879Y-120238981D01*
X159573965Y-120238944D01*
X159612863Y-120221855D01*
X159659618Y-120201353D01*
X159712650Y-120178132D01*
X159770386Y-120152875D01*
X159831247Y-120126273D01*
X159893653Y-120099015D01*
X159956033Y-120071787D01*
X160016807Y-120045278D01*
X160074399Y-120020176D01*
X160127232Y-119997170D01*
X160173729Y-119976948D01*
X160212314Y-119960198D01*
X160241407Y-119947609D01*
X160262257Y-119938559D01*
X160290566Y-119926073D01*
X160313635Y-119915664D01*
X160329506Y-119908219D01*
X160336223Y-119904622D01*
X160336221Y-119904568D01*
X160330069Y-119902041D01*
X160313072Y-119896140D01*
X160285860Y-119887063D01*
X160249068Y-119875015D01*
X160203331Y-119860198D01*
X160149278Y-119842811D01*
X160087544Y-119823061D01*
X160018763Y-119801147D01*
X159943565Y-119777270D01*
X159862586Y-119751634D01*
X159776458Y-119724443D01*
X159685813Y-119695896D01*
X159591285Y-119666196D01*
X159493507Y-119635543D01*
X159486452Y-119633335D01*
X159388690Y-119602721D01*
X159294097Y-119573095D01*
X159203318Y-119544661D01*
X159116997Y-119517616D01*
X159035775Y-119492168D01*
X158960295Y-119468513D01*
X158891198Y-119446855D01*
X158829134Y-119427395D01*
X158774739Y-119410335D01*
X158728660Y-119395875D01*
X158691539Y-119384221D01*
X158664018Y-119375569D01*
X158646743Y-119370125D01*
X158640352Y-119368088D01*
X158638902Y-119372615D01*
X158636539Y-119388963D01*
X158633387Y-119417079D01*
X158629457Y-119456813D01*
X158624767Y-119508014D01*
X158619326Y-119570530D01*
X158613150Y-119644212D01*
X158606251Y-119728910D01*
X158598644Y-119824473D01*
X158590343Y-119930747D01*
X158588855Y-119949913D01*
X158582543Y-120030820D01*
X158576450Y-120108189D01*
X158570644Y-120181172D01*
X158565197Y-120248915D01*
X158560181Y-120310569D01*
X158555662Y-120365283D01*
X158551712Y-120412203D01*
X158548403Y-120450483D01*
X158545802Y-120479267D01*
X158543980Y-120497706D01*
X158543009Y-120504950D01*
X158538671Y-120511556D01*
X158527340Y-120520708D01*
X158526098Y-120521103D01*
X158514566Y-120522867D01*
X158492355Y-120525314D01*
X158460499Y-120528358D01*
X158420051Y-120531912D01*
X158372052Y-120535887D01*
X158317551Y-120540199D01*
X158257593Y-120544757D01*
X158193223Y-120549475D01*
X158125489Y-120554266D01*
X158085914Y-120557015D01*
X158013329Y-120562030D01*
X157951474Y-120566250D01*
X157899460Y-120569710D01*
X157856396Y-120572444D01*
X157821395Y-120574490D01*
X157793568Y-120575879D01*
X157772027Y-120576651D01*
X157755882Y-120576839D01*
X157744242Y-120576478D01*
X157736221Y-120575606D01*
X157730930Y-120574258D01*
X157727480Y-120572466D01*
X157724979Y-120570271D01*
X157722132Y-120565843D01*
X157714068Y-120551456D01*
X157701625Y-120528398D01*
X157685415Y-120497856D01*
X157666050Y-120461015D01*
X157644138Y-120419065D01*
X157620295Y-120373191D01*
X157595130Y-120324583D01*
X157569255Y-120274428D01*
X157543279Y-120223911D01*
X157517815Y-120174219D01*
X157493474Y-120126543D01*
X157470867Y-120082066D01*
X157450607Y-120041979D01*
X157433304Y-120007467D01*
X157419568Y-119979715D01*
X157410012Y-119959915D01*
X157405246Y-119949254D01*
X157405110Y-119948546D01*
X157405092Y-119938020D01*
X157405652Y-119924896D01*
X157466707Y-119924896D01*
X157591425Y-120171065D01*
X157613232Y-120214011D01*
X157637467Y-120261512D01*
X157659598Y-120304638D01*
X157679068Y-120342321D01*
X157695321Y-120373490D01*
X157707803Y-120397079D01*
X157715959Y-120412016D01*
X157719235Y-120417232D01*
X157719688Y-120414033D01*
X157721073Y-120399607D01*
X157723303Y-120374050D01*
X157726339Y-120337890D01*
X157730133Y-120291654D01*
X157734652Y-120235871D01*
X157739846Y-120171071D01*
X157745679Y-120097783D01*
X157752107Y-120016533D01*
X157759088Y-119927849D01*
X157766582Y-119832263D01*
X157774545Y-119730299D01*
X157782938Y-119622487D01*
X157791717Y-119509358D01*
X157800844Y-119391436D01*
X157810272Y-119269254D01*
X157819962Y-119143337D01*
X157829873Y-119014215D01*
X157836965Y-118921761D01*
X157846733Y-118794585D01*
X157856249Y-118670888D01*
X157859697Y-118626142D01*
X159219358Y-118626142D01*
X160446426Y-119010655D01*
X161152380Y-119231872D01*
X161193538Y-119244769D01*
X161341329Y-119291070D01*
X161486034Y-119336390D01*
X161627224Y-119380597D01*
X161764483Y-119423560D01*
X161897386Y-119465145D01*
X162025511Y-119505221D01*
X162148437Y-119543659D01*
X162265742Y-119580324D01*
X162377003Y-119615086D01*
X162481799Y-119647812D01*
X162579709Y-119678373D01*
X162670309Y-119706632D01*
X162732845Y-119726127D01*
X162753178Y-119732463D01*
X162827895Y-119755732D01*
X162894037Y-119776308D01*
X162951182Y-119794056D01*
X162998908Y-119808850D01*
X163036793Y-119820554D01*
X163064416Y-119829037D01*
X163081355Y-119834168D01*
X163087187Y-119835816D01*
X163087194Y-119835706D01*
X163084306Y-119828982D01*
X163076501Y-119812656D01*
X163064297Y-119787767D01*
X163048214Y-119755355D01*
X163028767Y-119716461D01*
X163006475Y-119672127D01*
X162981854Y-119623389D01*
X162955428Y-119571291D01*
X162821881Y-119308550D01*
X162744736Y-119284377D01*
X162885556Y-119284377D01*
X162888350Y-119290972D01*
X162896040Y-119307066D01*
X162907948Y-119331233D01*
X162923430Y-119362211D01*
X162941843Y-119398750D01*
X162962540Y-119439588D01*
X162984877Y-119483470D01*
X163008213Y-119529137D01*
X163031897Y-119575334D01*
X163055289Y-119620804D01*
X163077744Y-119664290D01*
X163098616Y-119704533D01*
X163117261Y-119740278D01*
X163133037Y-119770269D01*
X163145296Y-119793247D01*
X163153393Y-119807956D01*
X163156688Y-119813138D01*
X163157217Y-119812798D01*
X163161932Y-119804915D01*
X163170268Y-119787788D01*
X163181550Y-119763003D01*
X163195100Y-119732146D01*
X163210245Y-119696809D01*
X163226311Y-119658579D01*
X163242618Y-119619042D01*
X163258495Y-119579790D01*
X163273264Y-119542409D01*
X163286251Y-119508487D01*
X163346714Y-119337360D01*
X163413535Y-119117664D01*
X163468321Y-118897625D01*
X163511095Y-118677124D01*
X163541888Y-118456042D01*
X163560722Y-118234264D01*
X163560936Y-118230468D01*
X163562767Y-118188496D01*
X163564180Y-118138545D01*
X163565159Y-118083481D01*
X163565688Y-118026169D01*
X163565750Y-117969469D01*
X163565330Y-117916249D01*
X163564410Y-117869372D01*
X163562977Y-117831699D01*
X163550393Y-117660750D01*
X163528724Y-117479920D01*
X163498237Y-117301316D01*
X163458444Y-117122085D01*
X163408852Y-116939376D01*
X163378199Y-116835402D01*
X163356294Y-116844936D01*
X163355048Y-116845478D01*
X163333351Y-116854739D01*
X163311736Y-116863742D01*
X163304221Y-116866680D01*
X163298025Y-116869679D01*
X163293716Y-116873991D01*
X163291189Y-116881146D01*
X163290341Y-116892676D01*
X163291072Y-116910111D01*
X163293277Y-116934982D01*
X163296854Y-116968817D01*
X163301699Y-117013148D01*
X163304491Y-117041777D01*
X163308769Y-117099131D01*
X163312348Y-117164649D01*
X163315178Y-117235858D01*
X163317213Y-117310293D01*
X163318406Y-117385481D01*
X163318708Y-117458959D01*
X163318073Y-117528255D01*
X163316454Y-117590901D01*
X163313803Y-117644429D01*
X163307807Y-117724365D01*
X163283703Y-117944963D01*
X163248572Y-118163030D01*
X163202255Y-118379197D01*
X163144582Y-118594112D01*
X163075391Y-118808403D01*
X162994516Y-119022715D01*
X162901793Y-119237677D01*
X162901169Y-119239044D01*
X162892638Y-119259333D01*
X162887038Y-119275579D01*
X162885556Y-119284377D01*
X162744736Y-119284377D01*
X161321013Y-118838258D01*
X159820145Y-118367966D01*
X159692482Y-118422811D01*
X159655216Y-118438821D01*
X159607051Y-118459518D01*
X159553624Y-118482476D01*
X159497967Y-118506394D01*
X159443110Y-118529970D01*
X159392088Y-118551899D01*
X159219358Y-118626142D01*
X157859697Y-118626142D01*
X157865472Y-118551201D01*
X157874361Y-118436063D01*
X157882873Y-118326013D01*
X157882906Y-118325589D01*
X159923411Y-118325589D01*
X159926244Y-118326803D01*
X159939676Y-118331445D01*
X159963614Y-118339364D01*
X159997462Y-118350375D01*
X160040627Y-118364289D01*
X160092518Y-118380926D01*
X160152542Y-118400095D01*
X160220106Y-118421611D01*
X160294616Y-118445286D01*
X160375480Y-118470936D01*
X160462106Y-118498373D01*
X160553900Y-118527413D01*
X160650268Y-118557865D01*
X160750620Y-118589547D01*
X160854360Y-118622272D01*
X160960897Y-118655851D01*
X161069640Y-118690100D01*
X161179990Y-118724834D01*
X161291362Y-118759863D01*
X161403156Y-118795003D01*
X161514786Y-118830067D01*
X161625652Y-118864868D01*
X161735167Y-118899222D01*
X161842736Y-118932940D01*
X161947764Y-118965837D01*
X162049660Y-118997728D01*
X162147832Y-119028425D01*
X162241687Y-119057741D01*
X162330631Y-119085490D01*
X162414072Y-119111487D01*
X162491415Y-119135544D01*
X162562072Y-119157475D01*
X162625445Y-119177095D01*
X162680942Y-119194218D01*
X162727973Y-119208654D01*
X162765943Y-119220221D01*
X162794259Y-119228731D01*
X162812329Y-119233996D01*
X162819560Y-119235832D01*
X162824508Y-119233510D01*
X162832368Y-119223968D01*
X162842714Y-119206432D01*
X162855875Y-119180226D01*
X162872191Y-119144685D01*
X162891991Y-119099138D01*
X162915609Y-119042913D01*
X162938082Y-118987799D01*
X163019516Y-118768942D01*
X163088924Y-118548999D01*
X163146317Y-118327933D01*
X163191703Y-118105693D01*
X163225095Y-117882242D01*
X163246501Y-117657541D01*
X163247655Y-117636308D01*
X163248950Y-117599707D01*
X163250005Y-117554987D01*
X163250812Y-117504380D01*
X163251361Y-117450123D01*
X163251641Y-117394458D01*
X163251643Y-117339615D01*
X163251355Y-117287835D01*
X163250768Y-117241353D01*
X163249873Y-117202407D01*
X163248658Y-117173233D01*
X163247874Y-117161505D01*
X163245832Y-117135693D01*
X163243046Y-117103560D01*
X163239768Y-117067729D01*
X163236252Y-117030822D01*
X163232747Y-116995463D01*
X163229505Y-116964273D01*
X163226779Y-116939876D01*
X163224818Y-116924894D01*
X163221359Y-116903093D01*
X163063418Y-116971070D01*
X163043970Y-116979442D01*
X163005235Y-116996121D01*
X162957611Y-117016630D01*
X162902448Y-117040387D01*
X162841096Y-117066813D01*
X162774899Y-117095328D01*
X162705208Y-117125350D01*
X162633372Y-117156298D01*
X162560736Y-117187592D01*
X162488653Y-117218652D01*
X162453561Y-117233770D01*
X162378227Y-117266224D01*
X162301532Y-117299259D01*
X162225034Y-117332206D01*
X162150291Y-117364391D01*
X162078857Y-117395147D01*
X162012291Y-117423802D01*
X161952150Y-117449684D01*
X161899991Y-117472128D01*
X161857370Y-117490460D01*
X161838275Y-117498669D01*
X161790899Y-117519050D01*
X161734729Y-117543222D01*
X161671321Y-117570514D01*
X161602234Y-117600258D01*
X161529023Y-117631781D01*
X161453247Y-117664415D01*
X161376459Y-117697488D01*
X161300221Y-117730328D01*
X161226088Y-117762270D01*
X161125818Y-117805474D01*
X161010336Y-117855229D01*
X160904254Y-117900930D01*
X160806637Y-117942981D01*
X160716544Y-117981785D01*
X160633038Y-118017746D01*
X160555180Y-118051268D01*
X160482030Y-118082757D01*
X160412651Y-118112616D01*
X160346105Y-118141248D01*
X160281453Y-118169057D01*
X160217756Y-118196450D01*
X160154075Y-118223827D01*
X160134112Y-118232421D01*
X160086224Y-118253115D01*
X160042273Y-118272228D01*
X160003456Y-118289231D01*
X159970964Y-118303596D01*
X159945996Y-118314794D01*
X159929747Y-118322303D01*
X159923411Y-118325589D01*
X157882906Y-118325589D01*
X157890965Y-118221579D01*
X157898599Y-118123300D01*
X157905729Y-118031712D01*
X157912316Y-117947352D01*
X157912740Y-117941939D01*
X158747105Y-117941939D01*
X158747505Y-117943037D01*
X158751024Y-117944967D01*
X158758950Y-117944081D01*
X158772602Y-117939938D01*
X158793290Y-117932093D01*
X158822333Y-117920102D01*
X158861044Y-117903522D01*
X158882328Y-117894324D01*
X158921378Y-117877471D01*
X158967738Y-117857484D01*
X159019157Y-117835332D01*
X159073378Y-117811986D01*
X159128149Y-117788417D01*
X159181217Y-117765596D01*
X159200496Y-117757305D01*
X159246933Y-117737330D01*
X159302171Y-117713560D01*
X159364678Y-117686652D01*
X159432919Y-117657272D01*
X159505359Y-117626076D01*
X159580467Y-117593727D01*
X159656708Y-117560883D01*
X159732550Y-117528208D01*
X159806457Y-117496357D01*
X159820145Y-117490458D01*
X159841561Y-117481229D01*
X159916895Y-117448768D01*
X159993589Y-117415726D01*
X160070085Y-117382774D01*
X160144827Y-117350584D01*
X160216257Y-117319826D01*
X160282821Y-117291167D01*
X160342962Y-117265281D01*
X160395119Y-117242838D01*
X160437739Y-117224507D01*
X160483969Y-117204626D01*
X160538310Y-117181244D01*
X160598487Y-117155344D01*
X160663502Y-117127355D01*
X160732355Y-117097709D01*
X160804057Y-117066828D01*
X160877608Y-117035149D01*
X160952012Y-117003095D01*
X161026275Y-116971099D01*
X161099399Y-116939589D01*
X161170389Y-116908994D01*
X161238249Y-116879744D01*
X161301984Y-116852267D01*
X161360596Y-116826990D01*
X161413090Y-116804348D01*
X161458472Y-116784766D01*
X161495743Y-116768674D01*
X161523910Y-116756500D01*
X161541976Y-116748677D01*
X161564003Y-116739013D01*
X161585466Y-116729370D01*
X161600528Y-116722335D01*
X161606839Y-116718983D01*
X161606559Y-116718745D01*
X161598504Y-116715611D01*
X161580028Y-116709172D01*
X161552000Y-116699712D01*
X161515285Y-116687514D01*
X161470750Y-116672861D01*
X161419258Y-116656039D01*
X161361679Y-116637333D01*
X161298877Y-116617025D01*
X161231719Y-116595400D01*
X161161069Y-116572744D01*
X160712605Y-116429201D01*
X160359206Y-116581466D01*
X160316034Y-116600069D01*
X160244134Y-116631045D01*
X160170321Y-116662841D01*
X160096456Y-116694659D01*
X160024393Y-116725696D01*
X159955994Y-116755155D01*
X159893117Y-116782234D01*
X159837617Y-116806130D01*
X159791356Y-116826047D01*
X159757417Y-116840657D01*
X159693683Y-116868101D01*
X159624007Y-116898109D01*
X159551613Y-116929293D01*
X159479725Y-116960263D01*
X159411567Y-116989633D01*
X159350363Y-117016011D01*
X159304274Y-117035869D01*
X159243051Y-117062218D01*
X159179923Y-117089361D01*
X159117488Y-117116186D01*
X159058344Y-117141569D01*
X159005093Y-117164397D01*
X158960333Y-117183556D01*
X158796842Y-117253449D01*
X158770883Y-117592735D01*
X158767541Y-117636717D01*
X158763011Y-117697488D01*
X158758892Y-117754030D01*
X158755261Y-117805226D01*
X158752195Y-117849958D01*
X158749772Y-117887113D01*
X158748064Y-117915573D01*
X158747149Y-117934220D01*
X158747105Y-117941939D01*
X157912740Y-117941939D01*
X157918317Y-117870751D01*
X157923691Y-117802450D01*
X157928395Y-117742981D01*
X157932390Y-117692882D01*
X157935629Y-117652686D01*
X157938076Y-117622930D01*
X157939686Y-117604152D01*
X157940419Y-117596883D01*
X157941396Y-117587621D01*
X157936804Y-117584459D01*
X157923485Y-117585971D01*
X157922538Y-117586121D01*
X157909042Y-117587605D01*
X157885982Y-117589580D01*
X157855561Y-117591874D01*
X157819991Y-117594324D01*
X157781474Y-117596759D01*
X157774010Y-117597218D01*
X157737168Y-117599699D01*
X157704654Y-117602238D01*
X157678400Y-117604661D01*
X157660341Y-117606792D01*
X157652412Y-117608455D01*
X157652230Y-117608726D01*
X157650695Y-117616866D01*
X157648364Y-117636258D01*
X157645223Y-117666959D01*
X157641273Y-117709032D01*
X157636509Y-117762541D01*
X157630922Y-117827546D01*
X157624510Y-117904108D01*
X157617267Y-117992290D01*
X157609188Y-118092152D01*
X157600266Y-118203757D01*
X157590498Y-118327165D01*
X157579881Y-118462437D01*
X157568404Y-118609639D01*
X157556068Y-118768832D01*
X157466707Y-119924896D01*
X157405652Y-119924896D01*
X157406048Y-119915628D01*
X157407963Y-119881511D01*
X157410832Y-119835813D01*
X157414641Y-119778676D01*
X157419380Y-119710242D01*
X157425039Y-119630656D01*
X157431610Y-119540059D01*
X157439081Y-119438596D01*
X157447441Y-119326407D01*
X157456683Y-119203637D01*
X157466792Y-119070429D01*
X157477761Y-118926922D01*
X157489578Y-118773266D01*
X157490844Y-118756869D01*
X157499859Y-118639906D01*
X157508605Y-118526277D01*
X157517044Y-118416560D01*
X157525127Y-118311342D01*
X157532809Y-118211197D01*
X157540047Y-118116706D01*
X157546797Y-118028456D01*
X157553015Y-117947021D01*
X157558657Y-117872988D01*
X157563677Y-117806933D01*
X157568031Y-117749441D01*
X157571677Y-117701089D01*
X157574568Y-117662461D01*
X157576661Y-117634134D01*
X157577910Y-117616694D01*
X157578273Y-117610717D01*
X157577865Y-117610726D01*
X157569112Y-117611264D01*
X157549948Y-117612539D01*
X157521691Y-117614462D01*
X157485651Y-117616938D01*
X157443145Y-117619876D01*
X157395485Y-117623183D01*
X157343985Y-117626769D01*
X157289960Y-117630542D01*
X157234723Y-117634407D01*
X157179588Y-117638274D01*
X157125870Y-117642053D01*
X157074882Y-117645651D01*
X157027938Y-117648972D01*
X156986351Y-117651931D01*
X156951438Y-117654431D01*
X156924509Y-117656381D01*
X156906881Y-117657693D01*
X156882808Y-117659531D01*
X156806764Y-118647228D01*
X156805399Y-118664940D01*
X156796091Y-118785255D01*
X156787158Y-118899789D01*
X156778638Y-119008061D01*
X156770575Y-119109589D01*
X156763006Y-119203887D01*
X156755974Y-119290477D01*
X156749515Y-119368877D01*
X156743672Y-119438603D01*
X156738486Y-119499173D01*
X156733994Y-119550105D01*
X156730237Y-119590916D01*
X156727255Y-119621125D01*
X156725090Y-119640251D01*
X156723778Y-119647810D01*
X156717446Y-119656379D01*
X156706096Y-119664839D01*
X156704980Y-119665160D01*
X156693291Y-119666902D01*
X156671223Y-119669223D01*
X156640023Y-119672036D01*
X156600935Y-119675262D01*
X156555207Y-119678820D01*
X156504083Y-119682624D01*
X156448811Y-119686594D01*
X156390635Y-119690646D01*
X156330802Y-119694699D01*
X156270558Y-119698669D01*
X156211149Y-119702476D01*
X156153819Y-119706036D01*
X156099816Y-119709267D01*
X156050385Y-119712086D01*
X156006773Y-119714411D01*
X155970226Y-119716160D01*
X155941988Y-119717250D01*
X155923307Y-119717599D01*
X155915427Y-119717125D01*
X155914500Y-119716437D01*
X155907759Y-119707293D01*
X155896495Y-119688745D01*
X155881308Y-119661967D01*
X155862788Y-119628129D01*
X155841533Y-119588402D01*
X155818136Y-119543957D01*
X155793190Y-119495967D01*
X155767291Y-119445602D01*
X155741031Y-119394036D01*
X155715008Y-119342437D01*
X155689814Y-119291978D01*
X155666044Y-119243830D01*
X155644293Y-119199165D01*
X155625153Y-119159155D01*
X155609221Y-119124968D01*
X155597090Y-119097780D01*
X155589357Y-119078758D01*
X155587757Y-119073118D01*
X155651536Y-119073118D01*
X155777762Y-119320387D01*
X155801119Y-119365884D01*
X155825292Y-119412402D01*
X155847285Y-119454135D01*
X155866558Y-119490079D01*
X155882568Y-119519238D01*
X155894771Y-119540609D01*
X155902624Y-119553192D01*
X155905584Y-119555985D01*
X155905639Y-119555474D01*
X155906456Y-119545879D01*
X155908137Y-119525043D01*
X155910625Y-119493636D01*
X155913873Y-119452323D01*
X155917824Y-119401783D01*
X155922430Y-119342680D01*
X155927638Y-119275686D01*
X155933397Y-119201473D01*
X155939651Y-119120707D01*
X155946352Y-119034063D01*
X155953446Y-118942210D01*
X155960880Y-118845816D01*
X155968605Y-118745554D01*
X155976566Y-118642092D01*
X155978166Y-118621281D01*
X155986070Y-118518391D01*
X155993706Y-118418828D01*
X156001024Y-118323264D01*
X156007973Y-118232363D01*
X156014503Y-118146800D01*
X156020559Y-118067245D01*
X156026095Y-117994370D01*
X156031057Y-117928845D01*
X156035397Y-117871341D01*
X156039060Y-117822528D01*
X156041999Y-117783079D01*
X156044161Y-117753665D01*
X156045496Y-117734954D01*
X156045951Y-117727617D01*
X156045292Y-117721667D01*
X156041178Y-117717959D01*
X156030766Y-117717292D01*
X156011215Y-117718955D01*
X155998866Y-117720092D01*
X155973998Y-117722088D01*
X155941986Y-117724456D01*
X155905633Y-117726989D01*
X155867742Y-117729482D01*
X155835547Y-117731697D01*
X155804377Y-117734189D01*
X155779314Y-117736575D01*
X155762344Y-117738662D01*
X155755451Y-117740260D01*
X155755340Y-117740590D01*
X155754255Y-117749266D01*
X155752345Y-117769065D01*
X155749676Y-117799214D01*
X155746310Y-117838939D01*
X155742306Y-117887466D01*
X155737732Y-117944022D01*
X155732644Y-118007832D01*
X155727108Y-118078123D01*
X155721184Y-118154120D01*
X155714937Y-118235051D01*
X155708427Y-118320140D01*
X155701716Y-118408609D01*
X155651536Y-119073118D01*
X155587757Y-119073118D01*
X155586611Y-119069079D01*
X155586611Y-119068976D01*
X155587066Y-119059920D01*
X155588388Y-119039653D01*
X155590516Y-119008987D01*
X155593395Y-118968726D01*
X155596959Y-118919680D01*
X155601151Y-118862658D01*
X155605913Y-118798465D01*
X155611184Y-118727913D01*
X155616903Y-118651806D01*
X155623013Y-118570955D01*
X155629452Y-118486169D01*
X155636161Y-118398253D01*
X155636646Y-118391921D01*
X155643292Y-118304644D01*
X155649622Y-118220826D01*
X155655581Y-118141256D01*
X155661113Y-118066710D01*
X155666158Y-117997968D01*
X155670663Y-117935812D01*
X155674573Y-117881022D01*
X155677830Y-117834377D01*
X155680377Y-117796657D01*
X155682160Y-117768644D01*
X155683121Y-117751115D01*
X155683206Y-117744852D01*
X155681733Y-117744761D01*
X155670358Y-117745150D01*
X155648844Y-117746266D01*
X155618499Y-117748020D01*
X155580627Y-117750325D01*
X155536532Y-117753091D01*
X155487520Y-117756235D01*
X155434899Y-117759664D01*
X155379970Y-117763296D01*
X155324042Y-117767040D01*
X155268417Y-117770807D01*
X155214404Y-117774511D01*
X155163307Y-117778067D01*
X155116430Y-117781383D01*
X155075079Y-117784373D01*
X155040561Y-117786951D01*
X155014177Y-117789027D01*
X154997239Y-117790514D01*
X154991046Y-117791324D01*
X154991022Y-117791486D01*
X154990341Y-117799353D01*
X154988784Y-117818672D01*
X154986393Y-117848921D01*
X154983207Y-117889589D01*
X154979264Y-117940156D01*
X154974606Y-118000106D01*
X154969272Y-118068925D01*
X154963302Y-118146094D01*
X154956735Y-118231095D01*
X154949613Y-118323414D01*
X154941975Y-118422532D01*
X154933858Y-118527936D01*
X154925307Y-118639109D01*
X154916358Y-118755533D01*
X154907053Y-118876690D01*
X154897432Y-119002066D01*
X154887532Y-119131145D01*
X154877396Y-119263408D01*
X154876112Y-119280179D01*
X154865958Y-119412399D01*
X154856011Y-119541527D01*
X154846307Y-119667038D01*
X154836891Y-119788404D01*
X154827802Y-119905100D01*
X154819085Y-120016596D01*
X154810780Y-120122368D01*
X154802928Y-120221887D01*
X154795572Y-120314628D01*
X154788756Y-120400064D01*
X154782518Y-120477666D01*
X154776904Y-120546909D01*
X154771953Y-120607264D01*
X154767708Y-120658210D01*
X154764209Y-120699213D01*
X154761500Y-120729751D01*
X154759620Y-120749295D01*
X154758617Y-120757318D01*
X154751108Y-120774872D01*
X154739264Y-120785671D01*
X154731060Y-120787101D01*
X154711940Y-120789206D01*
X154683217Y-120791856D01*
X154646133Y-120794951D01*
X154601929Y-120798392D01*
X154551854Y-120802079D01*
X154497147Y-120805911D01*
X154439049Y-120809791D01*
X154382975Y-120813505D01*
X154327796Y-120817284D01*
X154277077Y-120820883D01*
X154232083Y-120824204D01*
X154194081Y-120827154D01*
X154164337Y-120829633D01*
X154144118Y-120831552D01*
X154134691Y-120832808D01*
X154117277Y-120837128D01*
X153115376Y-120837128D01*
X153097457Y-120801057D01*
X153064465Y-120734127D01*
X153034083Y-120671920D01*
X153023412Y-120649813D01*
X153091913Y-120649813D01*
X153094933Y-120652833D01*
X153097953Y-120649813D01*
X153094933Y-120646793D01*
X153091913Y-120649813D01*
X153023412Y-120649813D01*
X153006915Y-120615634D01*
X152983562Y-120566459D01*
X152964627Y-120525591D01*
X152950712Y-120494224D01*
X152946476Y-120484277D01*
X152877671Y-120312007D01*
X152816495Y-120137899D01*
X152763844Y-119964663D01*
X152720612Y-119795015D01*
X152712348Y-119758878D01*
X152702758Y-119716620D01*
X152695096Y-119682142D01*
X152688900Y-119653112D01*
X152683708Y-119627196D01*
X152679059Y-119602066D01*
X152674492Y-119575389D01*
X152669542Y-119544834D01*
X152663748Y-119508067D01*
X152661389Y-119492948D01*
X152649715Y-119415543D01*
X152640013Y-119345556D01*
X152632084Y-119280550D01*
X152625730Y-119218088D01*
X152620747Y-119155734D01*
X152616940Y-119091052D01*
X152614108Y-119021604D01*
X152612049Y-118944953D01*
X152610567Y-118858663D01*
X152609855Y-118790420D01*
X152609847Y-118776662D01*
X152678040Y-118776662D01*
X152678078Y-118843170D01*
X152678479Y-118908351D01*
X152679246Y-118970415D01*
X152680375Y-119027567D01*
X152681868Y-119078018D01*
X152683726Y-119119977D01*
X152685949Y-119151651D01*
X152690760Y-119201173D01*
X152716135Y-119409322D01*
X152749276Y-119609659D01*
X152790563Y-119803659D01*
X152840376Y-119992791D01*
X152899095Y-120178534D01*
X152967097Y-120362355D01*
X153044766Y-120545734D01*
X153056621Y-120571832D01*
X153069309Y-120599130D01*
X153079602Y-120620570D01*
X153086668Y-120634424D01*
X153089674Y-120638961D01*
X153089763Y-120638676D01*
X153088550Y-120630745D01*
X153084691Y-120613790D01*
X153078727Y-120590065D01*
X153071196Y-120561811D01*
X153052134Y-120489542D01*
X153002352Y-120269546D01*
X152964233Y-120047255D01*
X152937702Y-119823011D01*
X152922684Y-119597158D01*
X152919158Y-119373583D01*
X153745484Y-119373583D01*
X153745894Y-119404662D01*
X153746673Y-119438597D01*
X153753633Y-119587780D01*
X153773027Y-119789676D01*
X153803969Y-119989842D01*
X153846618Y-120189255D01*
X153901132Y-120388887D01*
X153912578Y-120426461D01*
X153923967Y-120462959D01*
X153932504Y-120489036D01*
X153938419Y-120505359D01*
X153941943Y-120512599D01*
X153943307Y-120511425D01*
X153943349Y-120510871D01*
X153944080Y-120501332D01*
X153945688Y-120480399D01*
X153948134Y-120448586D01*
X153951378Y-120406409D01*
X153955379Y-120354385D01*
X153960100Y-120293026D01*
X153965499Y-120222850D01*
X153971539Y-120144369D01*
X153978177Y-120058103D01*
X153985376Y-119964564D01*
X153993095Y-119864267D01*
X154001296Y-119757729D01*
X154009935Y-119645463D01*
X154018979Y-119527989D01*
X154028383Y-119405818D01*
X154038109Y-119279466D01*
X154048117Y-119149449D01*
X154058368Y-119016281D01*
X154060680Y-118986270D01*
X154070920Y-118853283D01*
X154080933Y-118723339D01*
X154090673Y-118596969D01*
X154100104Y-118474703D01*
X154109181Y-118357074D01*
X154117865Y-118244603D01*
X154126113Y-118137825D01*
X154133888Y-118037269D01*
X154141145Y-117943464D01*
X154147846Y-117856937D01*
X154153947Y-117778223D01*
X154159409Y-117707849D01*
X154164192Y-117646341D01*
X154168252Y-117594235D01*
X154171551Y-117552056D01*
X154174045Y-117520336D01*
X154175697Y-117499600D01*
X154176462Y-117490383D01*
X154179877Y-117454139D01*
X154136775Y-117547773D01*
X154112176Y-117602345D01*
X154038197Y-117781413D01*
X153970915Y-117967767D01*
X153911163Y-118158805D01*
X153859773Y-118351927D01*
X153817579Y-118544531D01*
X153815953Y-118552895D01*
X153810667Y-118580549D01*
X153806050Y-118605943D01*
X153801955Y-118630379D01*
X153798241Y-118655156D01*
X153794764Y-118681577D01*
X153791381Y-118710940D01*
X153787948Y-118744549D01*
X153784325Y-118783700D01*
X153780363Y-118829698D01*
X153775925Y-118883843D01*
X153770862Y-118947432D01*
X153765035Y-119021769D01*
X153764209Y-119032380D01*
X153759060Y-119099236D01*
X153754857Y-119155917D01*
X153751528Y-119204054D01*
X153749002Y-119245274D01*
X153747205Y-119281210D01*
X153746068Y-119313487D01*
X153745518Y-119343735D01*
X153745484Y-119373583D01*
X152919158Y-119373583D01*
X152919102Y-119370035D01*
X152926878Y-119141987D01*
X152945939Y-118913356D01*
X152976207Y-118684486D01*
X153017608Y-118455717D01*
X153070065Y-118227395D01*
X153094933Y-118138204D01*
X153133503Y-117999855D01*
X153207844Y-117773446D01*
X153293016Y-117548509D01*
X153388939Y-117325385D01*
X153495540Y-117104418D01*
X153514830Y-117068460D01*
X154386632Y-117068460D01*
X154386670Y-117068467D01*
X154393559Y-117068125D01*
X154412047Y-117066977D01*
X154441710Y-117065051D01*
X154482121Y-117062375D01*
X154532854Y-117058979D01*
X154593485Y-117054895D01*
X154663590Y-117050148D01*
X154742740Y-117044767D01*
X154830513Y-117038784D01*
X154926484Y-117032226D01*
X155030225Y-117025124D01*
X155141315Y-117017505D01*
X155259326Y-117009402D01*
X155383832Y-117000839D01*
X155514410Y-116991848D01*
X155650632Y-116982456D01*
X155792076Y-116972696D01*
X155938315Y-116962594D01*
X156030766Y-116956201D01*
X156088926Y-116952181D01*
X156243478Y-116941484D01*
X156401554Y-116930534D01*
X156562721Y-116919359D01*
X156573285Y-116918626D01*
X156734296Y-116907453D01*
X156892196Y-116896490D01*
X157046561Y-116885766D01*
X157196964Y-116875310D01*
X157342981Y-116865152D01*
X157484182Y-116855322D01*
X157578273Y-116848768D01*
X157620147Y-116845851D01*
X157750446Y-116836768D01*
X157874653Y-116828102D01*
X157936804Y-116823763D01*
X157992345Y-116819884D01*
X158103093Y-116812142D01*
X158206473Y-116804908D01*
X158302060Y-116798210D01*
X158389426Y-116792079D01*
X158468145Y-116786544D01*
X158537788Y-116781635D01*
X158597938Y-116777383D01*
X158648163Y-116773815D01*
X158688040Y-116770962D01*
X158717141Y-116768857D01*
X158735040Y-116767525D01*
X158741314Y-116766999D01*
X158741302Y-116766608D01*
X158738021Y-116758709D01*
X158730026Y-116741597D01*
X158717940Y-116716510D01*
X158702382Y-116684690D01*
X158683977Y-116647373D01*
X158663348Y-116605803D01*
X158641116Y-116561213D01*
X158617903Y-116514844D01*
X158594333Y-116467939D01*
X158571027Y-116421731D01*
X158548607Y-116377464D01*
X158527699Y-116336375D01*
X158508920Y-116299704D01*
X158492899Y-116268690D01*
X158480250Y-116244569D01*
X158471601Y-116228585D01*
X158467573Y-116221974D01*
X158464669Y-116221861D01*
X158450633Y-116222388D01*
X158425482Y-116223717D01*
X158389784Y-116225811D01*
X158344103Y-116228628D01*
X158289002Y-116232129D01*
X158225050Y-116236276D01*
X158152808Y-116241027D01*
X158072840Y-116246345D01*
X157985713Y-116252187D01*
X157891991Y-116258517D01*
X157792241Y-116265291D01*
X157687023Y-116272474D01*
X157576906Y-116280024D01*
X157462453Y-116287900D01*
X157344228Y-116296063D01*
X157222799Y-116304477D01*
X157098725Y-116313096D01*
X156972576Y-116321887D01*
X156844914Y-116330805D01*
X156716305Y-116339812D01*
X156587314Y-116348870D01*
X156458505Y-116357937D01*
X156330444Y-116366975D01*
X156203694Y-116375943D01*
X156078817Y-116384802D01*
X155956385Y-116393513D01*
X155836958Y-116402035D01*
X155721101Y-116410330D01*
X155609380Y-116418357D01*
X155502359Y-116426076D01*
X155400603Y-116433449D01*
X155304675Y-116440434D01*
X155215143Y-116446993D01*
X155132571Y-116453086D01*
X155057521Y-116458674D01*
X154990561Y-116463717D01*
X154932254Y-116468173D01*
X154883166Y-116472006D01*
X154843858Y-116475173D01*
X154814899Y-116477637D01*
X154796852Y-116479357D01*
X154790283Y-116480294D01*
X154785132Y-116485679D01*
X154772960Y-116500441D01*
X154755671Y-116522564D01*
X154734324Y-116550621D01*
X154709972Y-116583176D01*
X154683672Y-116618803D01*
X154656480Y-116656065D01*
X154629449Y-116693533D01*
X154603637Y-116729774D01*
X154580096Y-116763359D01*
X154559883Y-116792854D01*
X154559186Y-116793890D01*
X154537809Y-116825932D01*
X154514944Y-116860781D01*
X154491495Y-116896999D01*
X154468357Y-116933157D01*
X154446435Y-116967817D01*
X154426633Y-116999545D01*
X154409850Y-117026908D01*
X154396988Y-117048471D01*
X154388947Y-117062800D01*
X154386632Y-117068460D01*
X153514830Y-117068460D01*
X153612741Y-116885950D01*
X153740466Y-116670323D01*
X153878641Y-116457880D01*
X153923807Y-116394359D01*
X154862772Y-116394359D01*
X154864479Y-116397519D01*
X154869519Y-116398807D01*
X154869612Y-116398814D01*
X154877490Y-116398502D01*
X154896924Y-116397384D01*
X154927435Y-116395491D01*
X154968556Y-116392856D01*
X155019814Y-116389510D01*
X155080735Y-116385485D01*
X155150849Y-116380816D01*
X155229682Y-116375530D01*
X155316765Y-116369663D01*
X155411623Y-116363244D01*
X155513784Y-116356308D01*
X155622777Y-116348885D01*
X155738129Y-116341007D01*
X155859369Y-116332708D01*
X155986023Y-116324018D01*
X156117621Y-116314968D01*
X156253689Y-116305593D01*
X156393756Y-116295923D01*
X156537349Y-116285990D01*
X156683997Y-116275827D01*
X156700730Y-116274668D01*
X156884395Y-116261953D01*
X157059202Y-116249892D01*
X157224956Y-116238500D01*
X157381476Y-116227788D01*
X157528570Y-116217770D01*
X157666052Y-116208455D01*
X157793732Y-116199859D01*
X157911427Y-116191992D01*
X158018946Y-116184868D01*
X158116103Y-116178498D01*
X158202710Y-116172895D01*
X158278579Y-116168071D01*
X158343522Y-116164041D01*
X158397352Y-116160813D01*
X158439883Y-116158401D01*
X158464669Y-116157139D01*
X158470925Y-116156819D01*
X158490290Y-116156077D01*
X158497793Y-116156190D01*
X158498109Y-116156316D01*
X158502437Y-116159841D01*
X158508641Y-116167775D01*
X158517102Y-116180832D01*
X158528213Y-116199723D01*
X158542363Y-116225164D01*
X158559940Y-116257863D01*
X158581334Y-116298534D01*
X158606933Y-116347888D01*
X158637128Y-116406640D01*
X158672308Y-116475501D01*
X158832448Y-116789630D01*
X158817552Y-116982943D01*
X158815447Y-117010430D01*
X158812073Y-117055259D01*
X158809137Y-117095242D01*
X158806741Y-117128939D01*
X158804986Y-117154907D01*
X158803973Y-117171711D01*
X158803806Y-117177909D01*
X158804381Y-117177913D01*
X158807073Y-117177096D01*
X158812430Y-117175094D01*
X158820981Y-117171685D01*
X158833249Y-117166641D01*
X158849765Y-117159740D01*
X158871052Y-117150753D01*
X158897639Y-117139458D01*
X158930053Y-117125628D01*
X158968820Y-117109038D01*
X159014464Y-117089463D01*
X159067517Y-117066679D01*
X159128503Y-117040457D01*
X159197947Y-117010578D01*
X159276379Y-116976811D01*
X159364323Y-116938933D01*
X159462309Y-116896720D01*
X159570859Y-116849943D01*
X159610071Y-116833048D01*
X159684421Y-116801010D01*
X159759487Y-116768668D01*
X159833795Y-116736655D01*
X159905867Y-116705608D01*
X159974224Y-116676165D01*
X160037394Y-116648960D01*
X160093896Y-116624629D01*
X160142257Y-116603807D01*
X160180997Y-116587130D01*
X160200774Y-116578621D01*
X160253836Y-116555787D01*
X160308200Y-116532393D01*
X160361386Y-116509504D01*
X160410919Y-116488190D01*
X160454312Y-116469516D01*
X160489088Y-116454552D01*
X160498319Y-116450572D01*
X160532194Y-116435836D01*
X160561829Y-116422745D01*
X160585504Y-116412068D01*
X160601502Y-116404580D01*
X160608105Y-116401054D01*
X160608038Y-116400976D01*
X160601099Y-116398351D01*
X160583112Y-116392196D01*
X160554478Y-116382640D01*
X160515603Y-116369814D01*
X160466889Y-116353848D01*
X160408741Y-116334872D01*
X160341558Y-116313016D01*
X160265748Y-116288411D01*
X160181711Y-116261186D01*
X160089851Y-116231474D01*
X159990572Y-116199401D01*
X159884279Y-116165102D01*
X159771372Y-116128704D01*
X159652256Y-116090337D01*
X159527335Y-116050132D01*
X159397009Y-116008220D01*
X159261685Y-115964730D01*
X159121766Y-115919795D01*
X158977652Y-115873540D01*
X158829749Y-115826099D01*
X158678461Y-115777602D01*
X158524190Y-115728179D01*
X156436041Y-115059410D01*
X156345203Y-115114494D01*
X156203789Y-115203041D01*
X156012183Y-115331898D01*
X155825504Y-115467669D01*
X155647247Y-115607880D01*
X155638380Y-115615162D01*
X155488981Y-115742965D01*
X155339834Y-115879977D01*
X155193468Y-116023715D01*
X155052414Y-116171701D01*
X154919202Y-116321455D01*
X154906072Y-116336802D01*
X154886047Y-116360543D01*
X154872716Y-116377179D01*
X154865238Y-116388015D01*
X154862772Y-116394359D01*
X153923807Y-116394359D01*
X154027189Y-116248963D01*
X154063359Y-116200735D01*
X154179877Y-116053703D01*
X154233661Y-115985834D01*
X154414176Y-115777227D01*
X154604706Y-115575108D01*
X154805052Y-115379672D01*
X155015013Y-115191118D01*
X155234396Y-115009637D01*
X155462998Y-114835428D01*
X155524966Y-114790957D01*
X155613574Y-114729699D01*
X155708846Y-114666103D01*
X155808348Y-114601717D01*
X155909648Y-114538087D01*
X155997530Y-114484547D01*
X157778236Y-114484547D01*
X157783146Y-114486461D01*
X157799196Y-114491952D01*
X157826056Y-114500900D01*
X157863364Y-114513187D01*
X157910765Y-114528696D01*
X157967900Y-114547316D01*
X158034412Y-114568929D01*
X158109942Y-114593420D01*
X158194132Y-114620674D01*
X158286625Y-114650574D01*
X158387063Y-114683006D01*
X158495088Y-114717856D01*
X158610337Y-114755006D01*
X158732461Y-114794343D01*
X158861099Y-114835750D01*
X158995891Y-114879112D01*
X159136480Y-114924313D01*
X159282510Y-114971239D01*
X159433619Y-115019773D01*
X159589453Y-115069802D01*
X159749651Y-115121209D01*
X159913857Y-115173878D01*
X160081715Y-115227694D01*
X160252860Y-115282544D01*
X160426942Y-115338309D01*
X160592628Y-115391372D01*
X160712605Y-115429790D01*
X160763985Y-115446242D01*
X160932088Y-115500066D01*
X161096579Y-115552727D01*
X161257101Y-115604110D01*
X161413293Y-115654100D01*
X161564798Y-115702583D01*
X161711254Y-115749445D01*
X161852304Y-115794570D01*
X161987590Y-115837843D01*
X162116753Y-115879150D01*
X162239433Y-115918377D01*
X162355272Y-115955411D01*
X162463910Y-115990133D01*
X162564991Y-116022429D01*
X162658154Y-116052186D01*
X162743041Y-116079288D01*
X162819291Y-116103623D01*
X162886548Y-116125074D01*
X162944452Y-116143526D01*
X162992644Y-116158867D01*
X163030767Y-116170979D01*
X163058458Y-116179747D01*
X163075363Y-116185060D01*
X163081121Y-116186800D01*
X163079450Y-116182192D01*
X163071205Y-116167662D01*
X163056239Y-116143397D01*
X163034626Y-116109517D01*
X163006438Y-116066133D01*
X162971751Y-116013364D01*
X162918950Y-115935269D01*
X162857484Y-115849583D01*
X162794097Y-115767157D01*
X162725510Y-115683601D01*
X162663841Y-115610578D01*
X160649173Y-114965249D01*
X160540488Y-114930436D01*
X160390669Y-114882450D01*
X160243992Y-114835472D01*
X160100876Y-114789636D01*
X159961739Y-114745079D01*
X159826998Y-114701932D01*
X159697072Y-114660328D01*
X159572381Y-114620402D01*
X159453338Y-114582289D01*
X159340367Y-114546123D01*
X159233882Y-114512034D01*
X159134303Y-114480159D01*
X159042049Y-114450633D01*
X158957536Y-114423588D01*
X158881186Y-114399158D01*
X158813411Y-114377477D01*
X158754636Y-114358679D01*
X158705275Y-114342897D01*
X158665748Y-114330267D01*
X158636470Y-114320920D01*
X158617862Y-114314991D01*
X158610343Y-114312617D01*
X158609465Y-114312356D01*
X158600233Y-114310284D01*
X158589293Y-114309389D01*
X158574949Y-114309839D01*
X158555504Y-114311799D01*
X158529263Y-114315439D01*
X158494533Y-114320922D01*
X158449611Y-114328418D01*
X158369012Y-114342585D01*
X158192394Y-114377498D01*
X158024372Y-114416178D01*
X157986001Y-114425829D01*
X157942564Y-114437056D01*
X157900968Y-114448099D01*
X157862860Y-114458502D01*
X157829887Y-114467804D01*
X157803693Y-114475551D01*
X157785927Y-114481285D01*
X157778236Y-114484547D01*
X155997530Y-114484547D01*
X156010313Y-114476759D01*
X156107907Y-114419278D01*
X156199997Y-114367193D01*
X156266584Y-114331053D01*
X156341914Y-114291364D01*
X156351741Y-114286321D01*
X158755657Y-114286321D01*
X158755684Y-114286353D01*
X158762169Y-114288678D01*
X158779702Y-114294536D01*
X158807858Y-114303787D01*
X158846213Y-114316299D01*
X158894344Y-114331931D01*
X158951826Y-114350549D01*
X159018236Y-114372016D01*
X159093151Y-114396195D01*
X159176146Y-114422952D01*
X159266798Y-114452150D01*
X159364683Y-114483650D01*
X159469377Y-114517317D01*
X159580457Y-114553016D01*
X159697499Y-114590610D01*
X159820077Y-114629961D01*
X159947770Y-114670935D01*
X160080153Y-114713394D01*
X160216803Y-114757201D01*
X160357297Y-114802221D01*
X160501208Y-114848318D01*
X160648116Y-114895356D01*
X160658384Y-114898642D01*
X160805282Y-114945669D01*
X160949242Y-114991758D01*
X161089841Y-115036772D01*
X161226642Y-115080575D01*
X161359222Y-115123028D01*
X161487151Y-115163996D01*
X161610001Y-115203341D01*
X161727344Y-115240923D01*
X161838751Y-115276608D01*
X161943791Y-115310258D01*
X162042039Y-115341735D01*
X162133066Y-115370903D01*
X162216441Y-115397621D01*
X162291739Y-115421756D01*
X162358528Y-115443170D01*
X162416380Y-115461726D01*
X162464870Y-115477283D01*
X162503566Y-115489705D01*
X162532042Y-115498860D01*
X162549867Y-115504605D01*
X162556613Y-115506804D01*
X162565390Y-115509422D01*
X162570204Y-115509473D01*
X162570127Y-115509304D01*
X162564926Y-115503607D01*
X162552515Y-115491019D01*
X162534212Y-115472850D01*
X162511336Y-115450414D01*
X162485206Y-115425018D01*
X162430380Y-115372972D01*
X162392751Y-115339796D01*
X163530721Y-115339796D01*
X163533741Y-115342816D01*
X163536763Y-115339796D01*
X163533741Y-115336776D01*
X163530721Y-115339796D01*
X162392751Y-115339796D01*
X162272515Y-115233788D01*
X162106753Y-115102930D01*
X161932368Y-114979846D01*
X161748632Y-114863984D01*
X161722511Y-114848741D01*
X161669771Y-114819323D01*
X161609810Y-114787235D01*
X161545123Y-114753726D01*
X161478208Y-114720045D01*
X161411557Y-114687441D01*
X161347671Y-114657161D01*
X161289044Y-114630458D01*
X161238172Y-114608578D01*
X161214448Y-114598859D01*
X161015254Y-114523092D01*
X160813656Y-114456883D01*
X160608548Y-114399978D01*
X160398827Y-114352120D01*
X160183389Y-114313057D01*
X159961130Y-114282530D01*
X159730944Y-114260285D01*
X159687171Y-114257619D01*
X159633329Y-114255516D01*
X159571426Y-114253970D01*
X159503461Y-114252971D01*
X159431439Y-114252509D01*
X159357361Y-114252577D01*
X159283229Y-114253167D01*
X159211047Y-114254268D01*
X159142817Y-114255870D01*
X159080542Y-114257967D01*
X159026223Y-114260549D01*
X158981864Y-114263607D01*
X158946275Y-114266649D01*
X158891410Y-114271417D01*
X158847222Y-114275385D01*
X158812829Y-114278642D01*
X158787356Y-114281276D01*
X158769922Y-114283376D01*
X158759648Y-114285029D01*
X158755657Y-114286321D01*
X156351741Y-114286321D01*
X156420169Y-114251204D01*
X156436041Y-114243258D01*
X156498688Y-114211901D01*
X156574809Y-114174790D01*
X156645872Y-114141200D01*
X156709217Y-114112460D01*
X156724143Y-114105860D01*
X156749495Y-114094613D01*
X156770869Y-114085090D01*
X156778400Y-114081723D01*
X156799278Y-114072401D01*
X156816177Y-114064869D01*
X156817438Y-114064311D01*
X156831264Y-114058383D01*
X156853092Y-114049182D01*
X156880189Y-114037857D01*
X156909810Y-114025559D01*
X157150531Y-113931026D01*
X157419448Y-113837084D01*
X157690616Y-113754433D01*
X157963337Y-113683266D01*
X158236922Y-113623779D01*
X158510666Y-113576169D01*
X158589293Y-113565220D01*
X158677782Y-113552897D01*
X158942616Y-113524818D01*
X159205770Y-113507679D01*
X159431439Y-113502265D01*
X159466886Y-113501416D01*
X159725606Y-113505966D01*
X159981567Y-113521266D01*
X160234411Y-113547250D01*
X160483780Y-113583855D01*
X160729312Y-113631019D01*
X160970649Y-113688677D01*
X161207431Y-113756764D01*
X161439298Y-113835217D01*
X161665895Y-113923971D01*
X161886857Y-114022965D01*
X162101825Y-114132133D01*
X162310444Y-114251410D01*
X162400556Y-114307229D01*
X162563491Y-114415357D01*
X162717976Y-114527986D01*
X162866300Y-114646910D01*
X163010757Y-114773921D01*
X163153636Y-114910812D01*
X163155951Y-114913120D01*
X163221359Y-114980540D01*
X163274090Y-115034890D01*
X163378199Y-115150073D01*
X163380788Y-115152938D01*
X163476083Y-115267304D01*
X163487065Y-115281045D01*
X163503028Y-115300830D01*
X163515565Y-115316141D01*
X163522642Y-115324477D01*
X163526668Y-115328672D01*
X163529250Y-115330347D01*
X163528426Y-115326862D01*
X163523665Y-115317153D01*
X163514440Y-115300167D01*
X163500218Y-115274843D01*
X163480475Y-115240119D01*
X163417106Y-115132414D01*
X163303760Y-114955602D01*
X163183324Y-114787144D01*
X163054594Y-114625484D01*
X162916373Y-114469067D01*
X162767459Y-114316342D01*
X162710723Y-114261513D01*
X162638042Y-114193764D01*
X162566967Y-114130725D01*
X162494439Y-114069781D01*
X162417408Y-114008308D01*
X162332813Y-113943688D01*
X162253101Y-113885232D01*
X162059184Y-113753645D01*
X161858163Y-113631735D01*
X161650235Y-113519580D01*
X161435599Y-113417259D01*
X161214450Y-113324852D01*
X160986985Y-113242437D01*
X160753400Y-113170093D01*
X160513890Y-113107900D01*
X160268656Y-113055933D01*
X160017891Y-113014277D01*
X159961778Y-113006448D01*
X159806843Y-112987563D01*
X159653984Y-112973175D01*
X159500489Y-112963131D01*
X159343643Y-112957276D01*
X159180735Y-112955461D01*
X159009047Y-112957531D01*
X158966829Y-112958633D01*
X158713847Y-112971642D01*
X158457820Y-112995538D01*
X158200046Y-113030074D01*
X157941845Y-113074996D01*
X157684522Y-113130058D01*
X157429395Y-113195008D01*
X157177768Y-113269593D01*
X156930954Y-113353571D01*
X156798645Y-113403100D01*
X156535895Y-113510473D01*
X156278668Y-113627713D01*
X156027301Y-113754545D01*
X155782135Y-113890699D01*
X155543507Y-114035901D01*
X155311759Y-114189878D01*
X155087228Y-114352357D01*
X154870255Y-114523067D01*
X154661179Y-114701734D01*
X154460339Y-114888084D01*
X154268073Y-115081849D01*
X154084722Y-115282753D01*
X153910628Y-115490524D01*
X153746126Y-115704886D01*
X153591556Y-115925573D01*
X153447260Y-116152307D01*
X153353858Y-116312174D01*
X153232723Y-116538949D01*
X153123235Y-116768443D01*
X153025435Y-117000547D01*
X152939356Y-117235152D01*
X152865037Y-117472147D01*
X152802511Y-117711422D01*
X152751818Y-117952870D01*
X152712991Y-118196377D01*
X152686069Y-118441834D01*
X152685419Y-118450080D01*
X152683285Y-118486925D01*
X152681511Y-118533192D01*
X152680100Y-118587093D01*
X152679052Y-118646833D01*
X152678364Y-118710619D01*
X152678040Y-118776662D01*
X152609847Y-118776662D01*
X152609807Y-118704197D01*
X152610967Y-118625464D01*
X152613457Y-118551573D01*
X152617404Y-118479884D01*
X152622932Y-118407744D01*
X152630167Y-118332517D01*
X152639234Y-118251547D01*
X152642427Y-118225190D01*
X152677843Y-117988076D01*
X152725134Y-117751576D01*
X152784119Y-117516093D01*
X152854611Y-117282036D01*
X152936426Y-117049811D01*
X153029382Y-116819820D01*
X153133292Y-116592473D01*
X153247974Y-116368171D01*
X153373243Y-116147322D01*
X153508914Y-115930333D01*
X153654804Y-115717607D01*
X153810729Y-115509550D01*
X153976503Y-115306570D01*
X154078274Y-115190225D01*
X154229610Y-115027228D01*
X154388726Y-114866646D01*
X154553174Y-114710847D01*
X154720507Y-114562202D01*
X154888280Y-114423084D01*
X155005192Y-114331620D01*
X155241423Y-114158225D01*
X155483611Y-113995343D01*
X155731738Y-113842980D01*
X155985784Y-113701148D01*
X156245736Y-113569855D01*
X156511573Y-113449112D01*
X156783279Y-113338928D01*
X157060835Y-113239311D01*
X157135455Y-113214670D01*
X157390232Y-113137466D01*
X157645765Y-113070863D01*
X157903479Y-113014575D01*
X158164803Y-112968308D01*
X158431162Y-112931773D01*
X158703978Y-112904681D01*
X158722890Y-112903280D01*
X158771375Y-112900501D01*
X158829117Y-112898043D01*
X158894189Y-112895928D01*
X158964667Y-112894176D01*
X159038627Y-112892815D01*
X159114144Y-112891857D01*
X159180735Y-112891390D01*
X159189290Y-112891329D01*
X159262143Y-112891252D01*
X159330780Y-112891648D01*
G37*
%TD*%
D10*
%TO.C,J6*%
X150600000Y-109366150D03*
D11*
X149400000Y-110566150D03*
%TD*%
D10*
%TO.C,J1*%
X150600000Y-20466150D03*
D11*
X149400000Y-21666150D03*
%TD*%
D10*
%TO.C,J7*%
X150600000Y-126393750D03*
D11*
X149400000Y-127593750D03*
%TD*%
D10*
%TO.C,J5*%
X150600000Y-91586150D03*
D11*
X149400000Y-92786150D03*
%TD*%
D10*
%TO.C,J2*%
X150600000Y-38246150D03*
D11*
X149400000Y-39446150D03*
%TD*%
D10*
%TO.C,J4*%
X150600000Y-73806150D03*
D11*
X149400000Y-75006150D03*
%TD*%
D10*
%TO.C,J8*%
X150600000Y-144926150D03*
D11*
X149400000Y-146126150D03*
%TD*%
D10*
%TO.C,J9*%
X150600000Y-162706150D03*
D11*
X150600000Y-163906150D03*
X149400000Y-162706150D03*
X149400000Y-163906150D03*
%TD*%
D10*
%TO.C,J3*%
X150600000Y-56026150D03*
D11*
X149400000Y-57226150D03*
%TD*%
D12*
%TO.C,R60*%
X137300000Y-117722750D03*
D13*
X142380000Y-117722750D03*
%TD*%
D14*
%TO.C,J11*%
X158763000Y-174463650D03*
D15*
X155262997Y-174463650D03*
X151762996Y-174463650D03*
X148262995Y-174463650D03*
X144762995Y-174463650D03*
X141262994Y-174463650D03*
X158763000Y-176963650D03*
X155262997Y-176963650D03*
X151762996Y-176963650D03*
X148262995Y-176963650D03*
X144762995Y-176963650D03*
X141262994Y-176963650D03*
X162262998Y-176063662D03*
X137762996Y-176063662D03*
%TD*%
D12*
%TO.C,R80*%
X137300000Y-153282750D03*
D13*
X142380000Y-153282750D03*
%TD*%
D16*
%TO.C,LED70*%
X139840000Y-125723750D03*
D17*
X139840000Y-128263750D03*
%TD*%
D12*
%TO.C,R50*%
X137300000Y-99942750D03*
D13*
X142380000Y-99942750D03*
%TD*%
D12*
%TO.C,R40*%
X137300000Y-82162750D03*
D13*
X142380000Y-82162750D03*
%TD*%
D12*
%TO.C,R30*%
X137300000Y-64382750D03*
D13*
X142380000Y-64382750D03*
%TD*%
D16*
%TO.C,LED10*%
X139840000Y-19796150D03*
D17*
X139840000Y-22336150D03*
%TD*%
D16*
%TO.C,LED40*%
X139840000Y-73136150D03*
D17*
X139840000Y-75676150D03*
%TD*%
D16*
%TO.C,LED20*%
X139840000Y-37576150D03*
D17*
X139840000Y-40116150D03*
%TD*%
D12*
%TO.C,R20*%
X137300000Y-46602750D03*
D13*
X142380000Y-46602750D03*
%TD*%
D16*
%TO.C,LED30*%
X139840000Y-55356150D03*
D17*
X139840000Y-57896150D03*
%TD*%
D12*
%TO.C,R70*%
X137300000Y-134750350D03*
D13*
X142380000Y-134750350D03*
%TD*%
D16*
%TO.C,LED50*%
X139840000Y-90916150D03*
D17*
X139840000Y-93456150D03*
%TD*%
D12*
%TO.C,R10*%
X137300000Y-28822750D03*
D13*
X142380000Y-28822750D03*
%TD*%
D16*
%TO.C,LED60*%
X139840000Y-108696150D03*
D17*
X139840000Y-111236150D03*
%TD*%
D16*
%TO.C,LED80*%
X139840000Y-144256150D03*
D17*
X139840000Y-146796150D03*
%TD*%
M02*
