%TF.GenerationSoftware,KiCad,Pcbnew,7.0.10*%
%TF.CreationDate,2024-11-26T20:56:08-08:00*%
%TF.ProjectId,Connector_Board,436f6e6e-6563-4746-9f72-5f426f617264,rev?*%
%TF.SameCoordinates,Original*%
%TF.FileFunction,Legend,Bot*%
%TF.FilePolarity,Positive*%
%FSLAX46Y46*%
G04 Gerber Fmt 4.6, Leading zero omitted, Abs format (unit mm)*
G04 Created by KiCad (PCBNEW 7.0.10) date 2024-11-26 20:56:08*
%MOMM*%
%LPD*%
G01*
G04 APERTURE LIST*
%ADD10C,0.150000*%
%ADD11C,0.187500*%
%ADD12C,0.120000*%
%ADD13C,0.508000*%
%ADD14C,0.152400*%
%ADD15C,0.350000*%
G04 APERTURE END LIST*
D10*
X220098057Y-136587961D02*
X220098057Y-137302247D01*
X220526628Y-136445104D02*
X219026628Y-136945104D01*
X219026628Y-136945104D02*
X220526628Y-137445104D01*
X220526628Y-138587961D02*
X219026628Y-138587961D01*
X220455200Y-138587961D02*
X220526628Y-138445103D01*
X220526628Y-138445103D02*
X220526628Y-138159389D01*
X220526628Y-138159389D02*
X220455200Y-138016532D01*
X220455200Y-138016532D02*
X220383771Y-137945103D01*
X220383771Y-137945103D02*
X220240914Y-137873675D01*
X220240914Y-137873675D02*
X219812342Y-137873675D01*
X219812342Y-137873675D02*
X219669485Y-137945103D01*
X219669485Y-137945103D02*
X219598057Y-138016532D01*
X219598057Y-138016532D02*
X219526628Y-138159389D01*
X219526628Y-138159389D02*
X219526628Y-138445103D01*
X219526628Y-138445103D02*
X219598057Y-138587961D01*
X220526628Y-139945104D02*
X219026628Y-139945104D01*
X220455200Y-139945104D02*
X220526628Y-139802246D01*
X220526628Y-139802246D02*
X220526628Y-139516532D01*
X220526628Y-139516532D02*
X220455200Y-139373675D01*
X220455200Y-139373675D02*
X220383771Y-139302246D01*
X220383771Y-139302246D02*
X220240914Y-139230818D01*
X220240914Y-139230818D02*
X219812342Y-139230818D01*
X219812342Y-139230818D02*
X219669485Y-139302246D01*
X219669485Y-139302246D02*
X219598057Y-139373675D01*
X219598057Y-139373675D02*
X219526628Y-139516532D01*
X219526628Y-139516532D02*
X219526628Y-139802246D01*
X219526628Y-139802246D02*
X219598057Y-139945104D01*
X220526628Y-140659389D02*
X219526628Y-140659389D01*
X219812342Y-140659389D02*
X219669485Y-140730818D01*
X219669485Y-140730818D02*
X219598057Y-140802247D01*
X219598057Y-140802247D02*
X219526628Y-140945104D01*
X219526628Y-140945104D02*
X219526628Y-141087961D01*
X220455200Y-142159389D02*
X220526628Y-142016532D01*
X220526628Y-142016532D02*
X220526628Y-141730818D01*
X220526628Y-141730818D02*
X220455200Y-141587960D01*
X220455200Y-141587960D02*
X220312342Y-141516532D01*
X220312342Y-141516532D02*
X219740914Y-141516532D01*
X219740914Y-141516532D02*
X219598057Y-141587960D01*
X219598057Y-141587960D02*
X219526628Y-141730818D01*
X219526628Y-141730818D02*
X219526628Y-142016532D01*
X219526628Y-142016532D02*
X219598057Y-142159389D01*
X219598057Y-142159389D02*
X219740914Y-142230818D01*
X219740914Y-142230818D02*
X219883771Y-142230818D01*
X219883771Y-142230818D02*
X220026628Y-141516532D01*
X220455200Y-142802246D02*
X220526628Y-142945103D01*
X220526628Y-142945103D02*
X220526628Y-143230817D01*
X220526628Y-143230817D02*
X220455200Y-143373674D01*
X220455200Y-143373674D02*
X220312342Y-143445103D01*
X220312342Y-143445103D02*
X220240914Y-143445103D01*
X220240914Y-143445103D02*
X220098057Y-143373674D01*
X220098057Y-143373674D02*
X220026628Y-143230817D01*
X220026628Y-143230817D02*
X220026628Y-143016532D01*
X220026628Y-143016532D02*
X219955200Y-142873674D01*
X219955200Y-142873674D02*
X219812342Y-142802246D01*
X219812342Y-142802246D02*
X219740914Y-142802246D01*
X219740914Y-142802246D02*
X219598057Y-142873674D01*
X219598057Y-142873674D02*
X219526628Y-143016532D01*
X219526628Y-143016532D02*
X219526628Y-143230817D01*
X219526628Y-143230817D02*
X219598057Y-143373674D01*
X220455200Y-144016532D02*
X220526628Y-144159389D01*
X220526628Y-144159389D02*
X220526628Y-144445103D01*
X220526628Y-144445103D02*
X220455200Y-144587960D01*
X220455200Y-144587960D02*
X220312342Y-144659389D01*
X220312342Y-144659389D02*
X220240914Y-144659389D01*
X220240914Y-144659389D02*
X220098057Y-144587960D01*
X220098057Y-144587960D02*
X220026628Y-144445103D01*
X220026628Y-144445103D02*
X220026628Y-144230818D01*
X220026628Y-144230818D02*
X219955200Y-144087960D01*
X219955200Y-144087960D02*
X219812342Y-144016532D01*
X219812342Y-144016532D02*
X219740914Y-144016532D01*
X219740914Y-144016532D02*
X219598057Y-144087960D01*
X219598057Y-144087960D02*
X219526628Y-144230818D01*
X219526628Y-144230818D02*
X219526628Y-144445103D01*
X219526628Y-144445103D02*
X219598057Y-144587960D01*
X220526628Y-145945104D02*
X219740914Y-145945104D01*
X219740914Y-145945104D02*
X219598057Y-145873675D01*
X219598057Y-145873675D02*
X219526628Y-145730818D01*
X219526628Y-145730818D02*
X219526628Y-145445104D01*
X219526628Y-145445104D02*
X219598057Y-145302246D01*
X220455200Y-145945104D02*
X220526628Y-145802246D01*
X220526628Y-145802246D02*
X220526628Y-145445104D01*
X220526628Y-145445104D02*
X220455200Y-145302246D01*
X220455200Y-145302246D02*
X220312342Y-145230818D01*
X220312342Y-145230818D02*
X220169485Y-145230818D01*
X220169485Y-145230818D02*
X220026628Y-145302246D01*
X220026628Y-145302246D02*
X219955200Y-145445104D01*
X219955200Y-145445104D02*
X219955200Y-145802246D01*
X219955200Y-145802246D02*
X219883771Y-145945104D01*
X220526628Y-146659389D02*
X219026628Y-146659389D01*
X219598057Y-146659389D02*
X219526628Y-146802247D01*
X219526628Y-146802247D02*
X219526628Y-147087961D01*
X219526628Y-147087961D02*
X219598057Y-147230818D01*
X219598057Y-147230818D02*
X219669485Y-147302247D01*
X219669485Y-147302247D02*
X219812342Y-147373675D01*
X219812342Y-147373675D02*
X220240914Y-147373675D01*
X220240914Y-147373675D02*
X220383771Y-147302247D01*
X220383771Y-147302247D02*
X220455200Y-147230818D01*
X220455200Y-147230818D02*
X220526628Y-147087961D01*
X220526628Y-147087961D02*
X220526628Y-146802247D01*
X220526628Y-146802247D02*
X220455200Y-146659389D01*
X220526628Y-148230818D02*
X220455200Y-148087961D01*
X220455200Y-148087961D02*
X220312342Y-148016532D01*
X220312342Y-148016532D02*
X219026628Y-148016532D01*
X220455200Y-149373675D02*
X220526628Y-149230818D01*
X220526628Y-149230818D02*
X220526628Y-148945104D01*
X220526628Y-148945104D02*
X220455200Y-148802246D01*
X220455200Y-148802246D02*
X220312342Y-148730818D01*
X220312342Y-148730818D02*
X219740914Y-148730818D01*
X219740914Y-148730818D02*
X219598057Y-148802246D01*
X219598057Y-148802246D02*
X219526628Y-148945104D01*
X219526628Y-148945104D02*
X219526628Y-149230818D01*
X219526628Y-149230818D02*
X219598057Y-149373675D01*
X219598057Y-149373675D02*
X219740914Y-149445104D01*
X219740914Y-149445104D02*
X219883771Y-149445104D01*
X219883771Y-149445104D02*
X220026628Y-148730818D01*
X220383771Y-152087960D02*
X220455200Y-152016532D01*
X220455200Y-152016532D02*
X220526628Y-151802246D01*
X220526628Y-151802246D02*
X220526628Y-151659389D01*
X220526628Y-151659389D02*
X220455200Y-151445103D01*
X220455200Y-151445103D02*
X220312342Y-151302246D01*
X220312342Y-151302246D02*
X220169485Y-151230817D01*
X220169485Y-151230817D02*
X219883771Y-151159389D01*
X219883771Y-151159389D02*
X219669485Y-151159389D01*
X219669485Y-151159389D02*
X219383771Y-151230817D01*
X219383771Y-151230817D02*
X219240914Y-151302246D01*
X219240914Y-151302246D02*
X219098057Y-151445103D01*
X219098057Y-151445103D02*
X219026628Y-151659389D01*
X219026628Y-151659389D02*
X219026628Y-151802246D01*
X219026628Y-151802246D02*
X219098057Y-152016532D01*
X219098057Y-152016532D02*
X219169485Y-152087960D01*
X220526628Y-152945103D02*
X220455200Y-152802246D01*
X220455200Y-152802246D02*
X220383771Y-152730817D01*
X220383771Y-152730817D02*
X220240914Y-152659389D01*
X220240914Y-152659389D02*
X219812342Y-152659389D01*
X219812342Y-152659389D02*
X219669485Y-152730817D01*
X219669485Y-152730817D02*
X219598057Y-152802246D01*
X219598057Y-152802246D02*
X219526628Y-152945103D01*
X219526628Y-152945103D02*
X219526628Y-153159389D01*
X219526628Y-153159389D02*
X219598057Y-153302246D01*
X219598057Y-153302246D02*
X219669485Y-153373675D01*
X219669485Y-153373675D02*
X219812342Y-153445103D01*
X219812342Y-153445103D02*
X220240914Y-153445103D01*
X220240914Y-153445103D02*
X220383771Y-153373675D01*
X220383771Y-153373675D02*
X220455200Y-153302246D01*
X220455200Y-153302246D02*
X220526628Y-153159389D01*
X220526628Y-153159389D02*
X220526628Y-152945103D01*
X220526628Y-154302246D02*
X220455200Y-154159389D01*
X220455200Y-154159389D02*
X220383771Y-154087960D01*
X220383771Y-154087960D02*
X220240914Y-154016532D01*
X220240914Y-154016532D02*
X219812342Y-154016532D01*
X219812342Y-154016532D02*
X219669485Y-154087960D01*
X219669485Y-154087960D02*
X219598057Y-154159389D01*
X219598057Y-154159389D02*
X219526628Y-154302246D01*
X219526628Y-154302246D02*
X219526628Y-154516532D01*
X219526628Y-154516532D02*
X219598057Y-154659389D01*
X219598057Y-154659389D02*
X219669485Y-154730818D01*
X219669485Y-154730818D02*
X219812342Y-154802246D01*
X219812342Y-154802246D02*
X220240914Y-154802246D01*
X220240914Y-154802246D02*
X220383771Y-154730818D01*
X220383771Y-154730818D02*
X220455200Y-154659389D01*
X220455200Y-154659389D02*
X220526628Y-154516532D01*
X220526628Y-154516532D02*
X220526628Y-154302246D01*
X220526628Y-155659389D02*
X220455200Y-155516532D01*
X220455200Y-155516532D02*
X220312342Y-155445103D01*
X220312342Y-155445103D02*
X219026628Y-155445103D01*
X220526628Y-156873675D02*
X219740914Y-156873675D01*
X219740914Y-156873675D02*
X219598057Y-156802246D01*
X219598057Y-156802246D02*
X219526628Y-156659389D01*
X219526628Y-156659389D02*
X219526628Y-156373675D01*
X219526628Y-156373675D02*
X219598057Y-156230817D01*
X220455200Y-156873675D02*
X220526628Y-156730817D01*
X220526628Y-156730817D02*
X220526628Y-156373675D01*
X220526628Y-156373675D02*
X220455200Y-156230817D01*
X220455200Y-156230817D02*
X220312342Y-156159389D01*
X220312342Y-156159389D02*
X220169485Y-156159389D01*
X220169485Y-156159389D02*
X220026628Y-156230817D01*
X220026628Y-156230817D02*
X219955200Y-156373675D01*
X219955200Y-156373675D02*
X219955200Y-156730817D01*
X219955200Y-156730817D02*
X219883771Y-156873675D01*
X219526628Y-157587960D02*
X220526628Y-157587960D01*
X219669485Y-157587960D02*
X219598057Y-157659389D01*
X219598057Y-157659389D02*
X219526628Y-157802246D01*
X219526628Y-157802246D02*
X219526628Y-158016532D01*
X219526628Y-158016532D02*
X219598057Y-158159389D01*
X219598057Y-158159389D02*
X219740914Y-158230818D01*
X219740914Y-158230818D02*
X220526628Y-158230818D01*
X219526628Y-158730818D02*
X219526628Y-159302246D01*
X219026628Y-158945103D02*
X220312342Y-158945103D01*
X220312342Y-158945103D02*
X220455200Y-159016532D01*
X220455200Y-159016532D02*
X220526628Y-159159389D01*
X220526628Y-159159389D02*
X220526628Y-159302246D01*
X220383771Y-161802246D02*
X220455200Y-161730818D01*
X220455200Y-161730818D02*
X220526628Y-161516532D01*
X220526628Y-161516532D02*
X220526628Y-161373675D01*
X220526628Y-161373675D02*
X220455200Y-161159389D01*
X220455200Y-161159389D02*
X220312342Y-161016532D01*
X220312342Y-161016532D02*
X220169485Y-160945103D01*
X220169485Y-160945103D02*
X219883771Y-160873675D01*
X219883771Y-160873675D02*
X219669485Y-160873675D01*
X219669485Y-160873675D02*
X219383771Y-160945103D01*
X219383771Y-160945103D02*
X219240914Y-161016532D01*
X219240914Y-161016532D02*
X219098057Y-161159389D01*
X219098057Y-161159389D02*
X219026628Y-161373675D01*
X219026628Y-161373675D02*
X219026628Y-161516532D01*
X219026628Y-161516532D02*
X219098057Y-161730818D01*
X219098057Y-161730818D02*
X219169485Y-161802246D01*
X220526628Y-162659389D02*
X220455200Y-162516532D01*
X220455200Y-162516532D02*
X220383771Y-162445103D01*
X220383771Y-162445103D02*
X220240914Y-162373675D01*
X220240914Y-162373675D02*
X219812342Y-162373675D01*
X219812342Y-162373675D02*
X219669485Y-162445103D01*
X219669485Y-162445103D02*
X219598057Y-162516532D01*
X219598057Y-162516532D02*
X219526628Y-162659389D01*
X219526628Y-162659389D02*
X219526628Y-162873675D01*
X219526628Y-162873675D02*
X219598057Y-163016532D01*
X219598057Y-163016532D02*
X219669485Y-163087961D01*
X219669485Y-163087961D02*
X219812342Y-163159389D01*
X219812342Y-163159389D02*
X220240914Y-163159389D01*
X220240914Y-163159389D02*
X220383771Y-163087961D01*
X220383771Y-163087961D02*
X220455200Y-163016532D01*
X220455200Y-163016532D02*
X220526628Y-162873675D01*
X220526628Y-162873675D02*
X220526628Y-162659389D01*
X219526628Y-163802246D02*
X220526628Y-163802246D01*
X219669485Y-163802246D02*
X219598057Y-163873675D01*
X219598057Y-163873675D02*
X219526628Y-164016532D01*
X219526628Y-164016532D02*
X219526628Y-164230818D01*
X219526628Y-164230818D02*
X219598057Y-164373675D01*
X219598057Y-164373675D02*
X219740914Y-164445104D01*
X219740914Y-164445104D02*
X220526628Y-164445104D01*
X219526628Y-164945104D02*
X219526628Y-165516532D01*
X219026628Y-165159389D02*
X220312342Y-165159389D01*
X220312342Y-165159389D02*
X220455200Y-165230818D01*
X220455200Y-165230818D02*
X220526628Y-165373675D01*
X220526628Y-165373675D02*
X220526628Y-165516532D01*
X220526628Y-166016532D02*
X219526628Y-166016532D01*
X219812342Y-166016532D02*
X219669485Y-166087961D01*
X219669485Y-166087961D02*
X219598057Y-166159390D01*
X219598057Y-166159390D02*
X219526628Y-166302247D01*
X219526628Y-166302247D02*
X219526628Y-166445104D01*
X220526628Y-167159389D02*
X220455200Y-167016532D01*
X220455200Y-167016532D02*
X220383771Y-166945103D01*
X220383771Y-166945103D02*
X220240914Y-166873675D01*
X220240914Y-166873675D02*
X219812342Y-166873675D01*
X219812342Y-166873675D02*
X219669485Y-166945103D01*
X219669485Y-166945103D02*
X219598057Y-167016532D01*
X219598057Y-167016532D02*
X219526628Y-167159389D01*
X219526628Y-167159389D02*
X219526628Y-167373675D01*
X219526628Y-167373675D02*
X219598057Y-167516532D01*
X219598057Y-167516532D02*
X219669485Y-167587961D01*
X219669485Y-167587961D02*
X219812342Y-167659389D01*
X219812342Y-167659389D02*
X220240914Y-167659389D01*
X220240914Y-167659389D02*
X220383771Y-167587961D01*
X220383771Y-167587961D02*
X220455200Y-167516532D01*
X220455200Y-167516532D02*
X220526628Y-167373675D01*
X220526628Y-167373675D02*
X220526628Y-167159389D01*
X220526628Y-168516532D02*
X220455200Y-168373675D01*
X220455200Y-168373675D02*
X220312342Y-168302246D01*
X220312342Y-168302246D02*
X219026628Y-168302246D01*
X220526628Y-169302246D02*
X220455200Y-169159389D01*
X220455200Y-169159389D02*
X220312342Y-169087960D01*
X220312342Y-169087960D02*
X219026628Y-169087960D01*
X220455200Y-170445103D02*
X220526628Y-170302246D01*
X220526628Y-170302246D02*
X220526628Y-170016532D01*
X220526628Y-170016532D02*
X220455200Y-169873674D01*
X220455200Y-169873674D02*
X220312342Y-169802246D01*
X220312342Y-169802246D02*
X219740914Y-169802246D01*
X219740914Y-169802246D02*
X219598057Y-169873674D01*
X219598057Y-169873674D02*
X219526628Y-170016532D01*
X219526628Y-170016532D02*
X219526628Y-170302246D01*
X219526628Y-170302246D02*
X219598057Y-170445103D01*
X219598057Y-170445103D02*
X219740914Y-170516532D01*
X219740914Y-170516532D02*
X219883771Y-170516532D01*
X219883771Y-170516532D02*
X220026628Y-169802246D01*
X220526628Y-171159388D02*
X219526628Y-171159388D01*
X219812342Y-171159388D02*
X219669485Y-171230817D01*
X219669485Y-171230817D02*
X219598057Y-171302246D01*
X219598057Y-171302246D02*
X219526628Y-171445103D01*
X219526628Y-171445103D02*
X219526628Y-171587960D01*
X219526628Y-173087959D02*
X220526628Y-173445102D01*
X220526628Y-173445102D02*
X219526628Y-173802245D01*
X220526628Y-175159388D02*
X220526628Y-174302245D01*
X220526628Y-174730816D02*
X219026628Y-174730816D01*
X219026628Y-174730816D02*
X219240914Y-174587959D01*
X219240914Y-174587959D02*
X219383771Y-174445102D01*
X219383771Y-174445102D02*
X219455200Y-174302245D01*
X220383771Y-175802244D02*
X220455200Y-175873673D01*
X220455200Y-175873673D02*
X220526628Y-175802244D01*
X220526628Y-175802244D02*
X220455200Y-175730816D01*
X220455200Y-175730816D02*
X220383771Y-175802244D01*
X220383771Y-175802244D02*
X220526628Y-175802244D01*
X219026628Y-176802245D02*
X219026628Y-176945102D01*
X219026628Y-176945102D02*
X219098057Y-177087959D01*
X219098057Y-177087959D02*
X219169485Y-177159388D01*
X219169485Y-177159388D02*
X219312342Y-177230816D01*
X219312342Y-177230816D02*
X219598057Y-177302245D01*
X219598057Y-177302245D02*
X219955200Y-177302245D01*
X219955200Y-177302245D02*
X220240914Y-177230816D01*
X220240914Y-177230816D02*
X220383771Y-177159388D01*
X220383771Y-177159388D02*
X220455200Y-177087959D01*
X220455200Y-177087959D02*
X220526628Y-176945102D01*
X220526628Y-176945102D02*
X220526628Y-176802245D01*
X220526628Y-176802245D02*
X220455200Y-176659388D01*
X220455200Y-176659388D02*
X220383771Y-176587959D01*
X220383771Y-176587959D02*
X220240914Y-176516530D01*
X220240914Y-176516530D02*
X219955200Y-176445102D01*
X219955200Y-176445102D02*
X219598057Y-176445102D01*
X219598057Y-176445102D02*
X219312342Y-176516530D01*
X219312342Y-176516530D02*
X219169485Y-176587959D01*
X219169485Y-176587959D02*
X219098057Y-176659388D01*
X219098057Y-176659388D02*
X219026628Y-176802245D01*
X220383771Y-177945101D02*
X220455200Y-178016530D01*
X220455200Y-178016530D02*
X220526628Y-177945101D01*
X220526628Y-177945101D02*
X220455200Y-177873673D01*
X220455200Y-177873673D02*
X220383771Y-177945101D01*
X220383771Y-177945101D02*
X220526628Y-177945101D01*
X219026628Y-178945102D02*
X219026628Y-179087959D01*
X219026628Y-179087959D02*
X219098057Y-179230816D01*
X219098057Y-179230816D02*
X219169485Y-179302245D01*
X219169485Y-179302245D02*
X219312342Y-179373673D01*
X219312342Y-179373673D02*
X219598057Y-179445102D01*
X219598057Y-179445102D02*
X219955200Y-179445102D01*
X219955200Y-179445102D02*
X220240914Y-179373673D01*
X220240914Y-179373673D02*
X220383771Y-179302245D01*
X220383771Y-179302245D02*
X220455200Y-179230816D01*
X220455200Y-179230816D02*
X220526628Y-179087959D01*
X220526628Y-179087959D02*
X220526628Y-178945102D01*
X220526628Y-178945102D02*
X220455200Y-178802245D01*
X220455200Y-178802245D02*
X220383771Y-178730816D01*
X220383771Y-178730816D02*
X220240914Y-178659387D01*
X220240914Y-178659387D02*
X219955200Y-178587959D01*
X219955200Y-178587959D02*
X219598057Y-178587959D01*
X219598057Y-178587959D02*
X219312342Y-178659387D01*
X219312342Y-178659387D02*
X219169485Y-178730816D01*
X219169485Y-178730816D02*
X219098057Y-178802245D01*
X219098057Y-178802245D02*
X219026628Y-178945102D01*
X222798771Y-162016530D02*
X222870200Y-161945102D01*
X222870200Y-161945102D02*
X222941628Y-161730816D01*
X222941628Y-161730816D02*
X222941628Y-161587959D01*
X222941628Y-161587959D02*
X222870200Y-161373673D01*
X222870200Y-161373673D02*
X222727342Y-161230816D01*
X222727342Y-161230816D02*
X222584485Y-161159387D01*
X222584485Y-161159387D02*
X222298771Y-161087959D01*
X222298771Y-161087959D02*
X222084485Y-161087959D01*
X222084485Y-161087959D02*
X221798771Y-161159387D01*
X221798771Y-161159387D02*
X221655914Y-161230816D01*
X221655914Y-161230816D02*
X221513057Y-161373673D01*
X221513057Y-161373673D02*
X221441628Y-161587959D01*
X221441628Y-161587959D02*
X221441628Y-161730816D01*
X221441628Y-161730816D02*
X221513057Y-161945102D01*
X221513057Y-161945102D02*
X221584485Y-162016530D01*
X222941628Y-162873673D02*
X222870200Y-162730816D01*
X222870200Y-162730816D02*
X222798771Y-162659387D01*
X222798771Y-162659387D02*
X222655914Y-162587959D01*
X222655914Y-162587959D02*
X222227342Y-162587959D01*
X222227342Y-162587959D02*
X222084485Y-162659387D01*
X222084485Y-162659387D02*
X222013057Y-162730816D01*
X222013057Y-162730816D02*
X221941628Y-162873673D01*
X221941628Y-162873673D02*
X221941628Y-163087959D01*
X221941628Y-163087959D02*
X222013057Y-163230816D01*
X222013057Y-163230816D02*
X222084485Y-163302245D01*
X222084485Y-163302245D02*
X222227342Y-163373673D01*
X222227342Y-163373673D02*
X222655914Y-163373673D01*
X222655914Y-163373673D02*
X222798771Y-163302245D01*
X222798771Y-163302245D02*
X222870200Y-163230816D01*
X222870200Y-163230816D02*
X222941628Y-163087959D01*
X222941628Y-163087959D02*
X222941628Y-162873673D01*
X221941628Y-164016530D02*
X222941628Y-164016530D01*
X222084485Y-164016530D02*
X222013057Y-164087959D01*
X222013057Y-164087959D02*
X221941628Y-164230816D01*
X221941628Y-164230816D02*
X221941628Y-164445102D01*
X221941628Y-164445102D02*
X222013057Y-164587959D01*
X222013057Y-164587959D02*
X222155914Y-164659388D01*
X222155914Y-164659388D02*
X222941628Y-164659388D01*
X221941628Y-165373673D02*
X222941628Y-165373673D01*
X222084485Y-165373673D02*
X222013057Y-165445102D01*
X222013057Y-165445102D02*
X221941628Y-165587959D01*
X221941628Y-165587959D02*
X221941628Y-165802245D01*
X221941628Y-165802245D02*
X222013057Y-165945102D01*
X222013057Y-165945102D02*
X222155914Y-166016531D01*
X222155914Y-166016531D02*
X222941628Y-166016531D01*
X222870200Y-167302245D02*
X222941628Y-167159388D01*
X222941628Y-167159388D02*
X222941628Y-166873674D01*
X222941628Y-166873674D02*
X222870200Y-166730816D01*
X222870200Y-166730816D02*
X222727342Y-166659388D01*
X222727342Y-166659388D02*
X222155914Y-166659388D01*
X222155914Y-166659388D02*
X222013057Y-166730816D01*
X222013057Y-166730816D02*
X221941628Y-166873674D01*
X221941628Y-166873674D02*
X221941628Y-167159388D01*
X221941628Y-167159388D02*
X222013057Y-167302245D01*
X222013057Y-167302245D02*
X222155914Y-167373674D01*
X222155914Y-167373674D02*
X222298771Y-167373674D01*
X222298771Y-167373674D02*
X222441628Y-166659388D01*
X222870200Y-168659388D02*
X222941628Y-168516530D01*
X222941628Y-168516530D02*
X222941628Y-168230816D01*
X222941628Y-168230816D02*
X222870200Y-168087959D01*
X222870200Y-168087959D02*
X222798771Y-168016530D01*
X222798771Y-168016530D02*
X222655914Y-167945102D01*
X222655914Y-167945102D02*
X222227342Y-167945102D01*
X222227342Y-167945102D02*
X222084485Y-168016530D01*
X222084485Y-168016530D02*
X222013057Y-168087959D01*
X222013057Y-168087959D02*
X221941628Y-168230816D01*
X221941628Y-168230816D02*
X221941628Y-168516530D01*
X221941628Y-168516530D02*
X222013057Y-168659388D01*
X221941628Y-169087959D02*
X221941628Y-169659387D01*
X221441628Y-169302244D02*
X222727342Y-169302244D01*
X222727342Y-169302244D02*
X222870200Y-169373673D01*
X222870200Y-169373673D02*
X222941628Y-169516530D01*
X222941628Y-169516530D02*
X222941628Y-169659387D01*
X222941628Y-170373673D02*
X222870200Y-170230816D01*
X222870200Y-170230816D02*
X222798771Y-170159387D01*
X222798771Y-170159387D02*
X222655914Y-170087959D01*
X222655914Y-170087959D02*
X222227342Y-170087959D01*
X222227342Y-170087959D02*
X222084485Y-170159387D01*
X222084485Y-170159387D02*
X222013057Y-170230816D01*
X222013057Y-170230816D02*
X221941628Y-170373673D01*
X221941628Y-170373673D02*
X221941628Y-170587959D01*
X221941628Y-170587959D02*
X222013057Y-170730816D01*
X222013057Y-170730816D02*
X222084485Y-170802245D01*
X222084485Y-170802245D02*
X222227342Y-170873673D01*
X222227342Y-170873673D02*
X222655914Y-170873673D01*
X222655914Y-170873673D02*
X222798771Y-170802245D01*
X222798771Y-170802245D02*
X222870200Y-170730816D01*
X222870200Y-170730816D02*
X222941628Y-170587959D01*
X222941628Y-170587959D02*
X222941628Y-170373673D01*
X222941628Y-171516530D02*
X221941628Y-171516530D01*
X222227342Y-171516530D02*
X222084485Y-171587959D01*
X222084485Y-171587959D02*
X222013057Y-171659388D01*
X222013057Y-171659388D02*
X221941628Y-171802245D01*
X221941628Y-171802245D02*
X221941628Y-171945102D01*
X222155914Y-174087958D02*
X222227342Y-174302244D01*
X222227342Y-174302244D02*
X222298771Y-174373673D01*
X222298771Y-174373673D02*
X222441628Y-174445101D01*
X222441628Y-174445101D02*
X222655914Y-174445101D01*
X222655914Y-174445101D02*
X222798771Y-174373673D01*
X222798771Y-174373673D02*
X222870200Y-174302244D01*
X222870200Y-174302244D02*
X222941628Y-174159387D01*
X222941628Y-174159387D02*
X222941628Y-173587958D01*
X222941628Y-173587958D02*
X221441628Y-173587958D01*
X221441628Y-173587958D02*
X221441628Y-174087958D01*
X221441628Y-174087958D02*
X221513057Y-174230816D01*
X221513057Y-174230816D02*
X221584485Y-174302244D01*
X221584485Y-174302244D02*
X221727342Y-174373673D01*
X221727342Y-174373673D02*
X221870200Y-174373673D01*
X221870200Y-174373673D02*
X222013057Y-174302244D01*
X222013057Y-174302244D02*
X222084485Y-174230816D01*
X222084485Y-174230816D02*
X222155914Y-174087958D01*
X222155914Y-174087958D02*
X222155914Y-173587958D01*
X222941628Y-175302244D02*
X222870200Y-175159387D01*
X222870200Y-175159387D02*
X222798771Y-175087958D01*
X222798771Y-175087958D02*
X222655914Y-175016530D01*
X222655914Y-175016530D02*
X222227342Y-175016530D01*
X222227342Y-175016530D02*
X222084485Y-175087958D01*
X222084485Y-175087958D02*
X222013057Y-175159387D01*
X222013057Y-175159387D02*
X221941628Y-175302244D01*
X221941628Y-175302244D02*
X221941628Y-175516530D01*
X221941628Y-175516530D02*
X222013057Y-175659387D01*
X222013057Y-175659387D02*
X222084485Y-175730816D01*
X222084485Y-175730816D02*
X222227342Y-175802244D01*
X222227342Y-175802244D02*
X222655914Y-175802244D01*
X222655914Y-175802244D02*
X222798771Y-175730816D01*
X222798771Y-175730816D02*
X222870200Y-175659387D01*
X222870200Y-175659387D02*
X222941628Y-175516530D01*
X222941628Y-175516530D02*
X222941628Y-175302244D01*
X222941628Y-177087959D02*
X222155914Y-177087959D01*
X222155914Y-177087959D02*
X222013057Y-177016530D01*
X222013057Y-177016530D02*
X221941628Y-176873673D01*
X221941628Y-176873673D02*
X221941628Y-176587959D01*
X221941628Y-176587959D02*
X222013057Y-176445101D01*
X222870200Y-177087959D02*
X222941628Y-176945101D01*
X222941628Y-176945101D02*
X222941628Y-176587959D01*
X222941628Y-176587959D02*
X222870200Y-176445101D01*
X222870200Y-176445101D02*
X222727342Y-176373673D01*
X222727342Y-176373673D02*
X222584485Y-176373673D01*
X222584485Y-176373673D02*
X222441628Y-176445101D01*
X222441628Y-176445101D02*
X222370200Y-176587959D01*
X222370200Y-176587959D02*
X222370200Y-176945101D01*
X222370200Y-176945101D02*
X222298771Y-177087959D01*
X222941628Y-177802244D02*
X221941628Y-177802244D01*
X222227342Y-177802244D02*
X222084485Y-177873673D01*
X222084485Y-177873673D02*
X222013057Y-177945102D01*
X222013057Y-177945102D02*
X221941628Y-178087959D01*
X221941628Y-178087959D02*
X221941628Y-178230816D01*
X222941628Y-179373673D02*
X221441628Y-179373673D01*
X222870200Y-179373673D02*
X222941628Y-179230815D01*
X222941628Y-179230815D02*
X222941628Y-178945101D01*
X222941628Y-178945101D02*
X222870200Y-178802244D01*
X222870200Y-178802244D02*
X222798771Y-178730815D01*
X222798771Y-178730815D02*
X222655914Y-178659387D01*
X222655914Y-178659387D02*
X222227342Y-178659387D01*
X222227342Y-178659387D02*
X222084485Y-178730815D01*
X222084485Y-178730815D02*
X222013057Y-178802244D01*
X222013057Y-178802244D02*
X221941628Y-178945101D01*
X221941628Y-178945101D02*
X221941628Y-179230815D01*
X221941628Y-179230815D02*
X222013057Y-179373673D01*
X223856628Y-154159386D02*
X225356628Y-154516529D01*
X225356628Y-154516529D02*
X224285200Y-154802243D01*
X224285200Y-154802243D02*
X225356628Y-155087958D01*
X225356628Y-155087958D02*
X223856628Y-155445101D01*
X225356628Y-156659387D02*
X224570914Y-156659387D01*
X224570914Y-156659387D02*
X224428057Y-156587958D01*
X224428057Y-156587958D02*
X224356628Y-156445101D01*
X224356628Y-156445101D02*
X224356628Y-156159387D01*
X224356628Y-156159387D02*
X224428057Y-156016529D01*
X225285200Y-156659387D02*
X225356628Y-156516529D01*
X225356628Y-156516529D02*
X225356628Y-156159387D01*
X225356628Y-156159387D02*
X225285200Y-156016529D01*
X225285200Y-156016529D02*
X225142342Y-155945101D01*
X225142342Y-155945101D02*
X224999485Y-155945101D01*
X224999485Y-155945101D02*
X224856628Y-156016529D01*
X224856628Y-156016529D02*
X224785200Y-156159387D01*
X224785200Y-156159387D02*
X224785200Y-156516529D01*
X224785200Y-156516529D02*
X224713771Y-156659387D01*
X225356628Y-157373672D02*
X224356628Y-157373672D01*
X224642342Y-157373672D02*
X224499485Y-157445101D01*
X224499485Y-157445101D02*
X224428057Y-157516530D01*
X224428057Y-157516530D02*
X224356628Y-157659387D01*
X224356628Y-157659387D02*
X224356628Y-157802244D01*
X224356628Y-158302243D02*
X225356628Y-158302243D01*
X224499485Y-158302243D02*
X224428057Y-158373672D01*
X224428057Y-158373672D02*
X224356628Y-158516529D01*
X224356628Y-158516529D02*
X224356628Y-158730815D01*
X224356628Y-158730815D02*
X224428057Y-158873672D01*
X224428057Y-158873672D02*
X224570914Y-158945101D01*
X224570914Y-158945101D02*
X225356628Y-158945101D01*
X225285200Y-160230815D02*
X225356628Y-160087958D01*
X225356628Y-160087958D02*
X225356628Y-159802244D01*
X225356628Y-159802244D02*
X225285200Y-159659386D01*
X225285200Y-159659386D02*
X225142342Y-159587958D01*
X225142342Y-159587958D02*
X224570914Y-159587958D01*
X224570914Y-159587958D02*
X224428057Y-159659386D01*
X224428057Y-159659386D02*
X224356628Y-159802244D01*
X224356628Y-159802244D02*
X224356628Y-160087958D01*
X224356628Y-160087958D02*
X224428057Y-160230815D01*
X224428057Y-160230815D02*
X224570914Y-160302244D01*
X224570914Y-160302244D02*
X224713771Y-160302244D01*
X224713771Y-160302244D02*
X224856628Y-159587958D01*
X225356628Y-160945100D02*
X224356628Y-160945100D01*
X224642342Y-160945100D02*
X224499485Y-161016529D01*
X224499485Y-161016529D02*
X224428057Y-161087958D01*
X224428057Y-161087958D02*
X224356628Y-161230815D01*
X224356628Y-161230815D02*
X224356628Y-161373672D01*
X225213771Y-163873671D02*
X225285200Y-163802243D01*
X225285200Y-163802243D02*
X225356628Y-163587957D01*
X225356628Y-163587957D02*
X225356628Y-163445100D01*
X225356628Y-163445100D02*
X225285200Y-163230814D01*
X225285200Y-163230814D02*
X225142342Y-163087957D01*
X225142342Y-163087957D02*
X224999485Y-163016528D01*
X224999485Y-163016528D02*
X224713771Y-162945100D01*
X224713771Y-162945100D02*
X224499485Y-162945100D01*
X224499485Y-162945100D02*
X224213771Y-163016528D01*
X224213771Y-163016528D02*
X224070914Y-163087957D01*
X224070914Y-163087957D02*
X223928057Y-163230814D01*
X223928057Y-163230814D02*
X223856628Y-163445100D01*
X223856628Y-163445100D02*
X223856628Y-163587957D01*
X223856628Y-163587957D02*
X223928057Y-163802243D01*
X223928057Y-163802243D02*
X223999485Y-163873671D01*
X225356628Y-164730814D02*
X225285200Y-164587957D01*
X225285200Y-164587957D02*
X225213771Y-164516528D01*
X225213771Y-164516528D02*
X225070914Y-164445100D01*
X225070914Y-164445100D02*
X224642342Y-164445100D01*
X224642342Y-164445100D02*
X224499485Y-164516528D01*
X224499485Y-164516528D02*
X224428057Y-164587957D01*
X224428057Y-164587957D02*
X224356628Y-164730814D01*
X224356628Y-164730814D02*
X224356628Y-164945100D01*
X224356628Y-164945100D02*
X224428057Y-165087957D01*
X224428057Y-165087957D02*
X224499485Y-165159386D01*
X224499485Y-165159386D02*
X224642342Y-165230814D01*
X224642342Y-165230814D02*
X225070914Y-165230814D01*
X225070914Y-165230814D02*
X225213771Y-165159386D01*
X225213771Y-165159386D02*
X225285200Y-165087957D01*
X225285200Y-165087957D02*
X225356628Y-164945100D01*
X225356628Y-164945100D02*
X225356628Y-164730814D01*
X224356628Y-165873671D02*
X225356628Y-165873671D01*
X224499485Y-165873671D02*
X224428057Y-165945100D01*
X224428057Y-165945100D02*
X224356628Y-166087957D01*
X224356628Y-166087957D02*
X224356628Y-166302243D01*
X224356628Y-166302243D02*
X224428057Y-166445100D01*
X224428057Y-166445100D02*
X224570914Y-166516529D01*
X224570914Y-166516529D02*
X225356628Y-166516529D01*
X225285200Y-167159386D02*
X225356628Y-167302243D01*
X225356628Y-167302243D02*
X225356628Y-167587957D01*
X225356628Y-167587957D02*
X225285200Y-167730814D01*
X225285200Y-167730814D02*
X225142342Y-167802243D01*
X225142342Y-167802243D02*
X225070914Y-167802243D01*
X225070914Y-167802243D02*
X224928057Y-167730814D01*
X224928057Y-167730814D02*
X224856628Y-167587957D01*
X224856628Y-167587957D02*
X224856628Y-167373672D01*
X224856628Y-167373672D02*
X224785200Y-167230814D01*
X224785200Y-167230814D02*
X224642342Y-167159386D01*
X224642342Y-167159386D02*
X224570914Y-167159386D01*
X224570914Y-167159386D02*
X224428057Y-167230814D01*
X224428057Y-167230814D02*
X224356628Y-167373672D01*
X224356628Y-167373672D02*
X224356628Y-167587957D01*
X224356628Y-167587957D02*
X224428057Y-167730814D01*
X224356628Y-169087958D02*
X225356628Y-169087958D01*
X224356628Y-168445100D02*
X225142342Y-168445100D01*
X225142342Y-168445100D02*
X225285200Y-168516529D01*
X225285200Y-168516529D02*
X225356628Y-168659386D01*
X225356628Y-168659386D02*
X225356628Y-168873672D01*
X225356628Y-168873672D02*
X225285200Y-169016529D01*
X225285200Y-169016529D02*
X225213771Y-169087958D01*
X225356628Y-170016529D02*
X225285200Y-169873672D01*
X225285200Y-169873672D02*
X225142342Y-169802243D01*
X225142342Y-169802243D02*
X223856628Y-169802243D01*
X224356628Y-170373672D02*
X224356628Y-170945100D01*
X223856628Y-170587957D02*
X225142342Y-170587957D01*
X225142342Y-170587957D02*
X225285200Y-170659386D01*
X225285200Y-170659386D02*
X225356628Y-170802243D01*
X225356628Y-170802243D02*
X225356628Y-170945100D01*
X225356628Y-171445100D02*
X224356628Y-171445100D01*
X223856628Y-171445100D02*
X223928057Y-171373672D01*
X223928057Y-171373672D02*
X223999485Y-171445100D01*
X223999485Y-171445100D02*
X223928057Y-171516529D01*
X223928057Y-171516529D02*
X223856628Y-171445100D01*
X223856628Y-171445100D02*
X223999485Y-171445100D01*
X224356628Y-172159386D02*
X225356628Y-172159386D01*
X224499485Y-172159386D02*
X224428057Y-172230815D01*
X224428057Y-172230815D02*
X224356628Y-172373672D01*
X224356628Y-172373672D02*
X224356628Y-172587958D01*
X224356628Y-172587958D02*
X224428057Y-172730815D01*
X224428057Y-172730815D02*
X224570914Y-172802244D01*
X224570914Y-172802244D02*
X225356628Y-172802244D01*
X224356628Y-174159387D02*
X225570914Y-174159387D01*
X225570914Y-174159387D02*
X225713771Y-174087958D01*
X225713771Y-174087958D02*
X225785200Y-174016529D01*
X225785200Y-174016529D02*
X225856628Y-173873672D01*
X225856628Y-173873672D02*
X225856628Y-173659387D01*
X225856628Y-173659387D02*
X225785200Y-173516529D01*
X225285200Y-174159387D02*
X225356628Y-174016529D01*
X225356628Y-174016529D02*
X225356628Y-173730815D01*
X225356628Y-173730815D02*
X225285200Y-173587958D01*
X225285200Y-173587958D02*
X225213771Y-173516529D01*
X225213771Y-173516529D02*
X225070914Y-173445101D01*
X225070914Y-173445101D02*
X224642342Y-173445101D01*
X224642342Y-173445101D02*
X224499485Y-173516529D01*
X224499485Y-173516529D02*
X224428057Y-173587958D01*
X224428057Y-173587958D02*
X224356628Y-173730815D01*
X224356628Y-173730815D02*
X224356628Y-174016529D01*
X224356628Y-174016529D02*
X224428057Y-174159387D01*
X225356628Y-176016529D02*
X223856628Y-176016529D01*
X224356628Y-176730815D02*
X225356628Y-176730815D01*
X224499485Y-176730815D02*
X224428057Y-176802244D01*
X224428057Y-176802244D02*
X224356628Y-176945101D01*
X224356628Y-176945101D02*
X224356628Y-177159387D01*
X224356628Y-177159387D02*
X224428057Y-177302244D01*
X224428057Y-177302244D02*
X224570914Y-177373673D01*
X224570914Y-177373673D02*
X225356628Y-177373673D01*
X225285200Y-178730816D02*
X225356628Y-178587958D01*
X225356628Y-178587958D02*
X225356628Y-178302244D01*
X225356628Y-178302244D02*
X225285200Y-178159387D01*
X225285200Y-178159387D02*
X225213771Y-178087958D01*
X225213771Y-178087958D02*
X225070914Y-178016530D01*
X225070914Y-178016530D02*
X224642342Y-178016530D01*
X224642342Y-178016530D02*
X224499485Y-178087958D01*
X224499485Y-178087958D02*
X224428057Y-178159387D01*
X224428057Y-178159387D02*
X224356628Y-178302244D01*
X224356628Y-178302244D02*
X224356628Y-178587958D01*
X224356628Y-178587958D02*
X224428057Y-178730816D01*
X225213771Y-179373672D02*
X225285200Y-179445101D01*
X225285200Y-179445101D02*
X225356628Y-179373672D01*
X225356628Y-179373672D02*
X225285200Y-179302244D01*
X225285200Y-179302244D02*
X225213771Y-179373672D01*
X225213771Y-179373672D02*
X225356628Y-179373672D01*
X226271628Y-166730816D02*
X227343057Y-166730816D01*
X227343057Y-166730816D02*
X227557342Y-166659387D01*
X227557342Y-166659387D02*
X227700200Y-166516530D01*
X227700200Y-166516530D02*
X227771628Y-166302244D01*
X227771628Y-166302244D02*
X227771628Y-166159387D01*
X227771628Y-167659387D02*
X227700200Y-167516530D01*
X227700200Y-167516530D02*
X227628771Y-167445101D01*
X227628771Y-167445101D02*
X227485914Y-167373673D01*
X227485914Y-167373673D02*
X227057342Y-167373673D01*
X227057342Y-167373673D02*
X226914485Y-167445101D01*
X226914485Y-167445101D02*
X226843057Y-167516530D01*
X226843057Y-167516530D02*
X226771628Y-167659387D01*
X226771628Y-167659387D02*
X226771628Y-167873673D01*
X226771628Y-167873673D02*
X226843057Y-168016530D01*
X226843057Y-168016530D02*
X226914485Y-168087959D01*
X226914485Y-168087959D02*
X227057342Y-168159387D01*
X227057342Y-168159387D02*
X227485914Y-168159387D01*
X227485914Y-168159387D02*
X227628771Y-168087959D01*
X227628771Y-168087959D02*
X227700200Y-168016530D01*
X227700200Y-168016530D02*
X227771628Y-167873673D01*
X227771628Y-167873673D02*
X227771628Y-167659387D01*
X227700200Y-168730816D02*
X227771628Y-168873673D01*
X227771628Y-168873673D02*
X227771628Y-169159387D01*
X227771628Y-169159387D02*
X227700200Y-169302244D01*
X227700200Y-169302244D02*
X227557342Y-169373673D01*
X227557342Y-169373673D02*
X227485914Y-169373673D01*
X227485914Y-169373673D02*
X227343057Y-169302244D01*
X227343057Y-169302244D02*
X227271628Y-169159387D01*
X227271628Y-169159387D02*
X227271628Y-168945102D01*
X227271628Y-168945102D02*
X227200200Y-168802244D01*
X227200200Y-168802244D02*
X227057342Y-168730816D01*
X227057342Y-168730816D02*
X226985914Y-168730816D01*
X226985914Y-168730816D02*
X226843057Y-168802244D01*
X226843057Y-168802244D02*
X226771628Y-168945102D01*
X226771628Y-168945102D02*
X226771628Y-169159387D01*
X226771628Y-169159387D02*
X226843057Y-169302244D01*
X227771628Y-170016530D02*
X226271628Y-170016530D01*
X227771628Y-170659388D02*
X226985914Y-170659388D01*
X226985914Y-170659388D02*
X226843057Y-170587959D01*
X226843057Y-170587959D02*
X226771628Y-170445102D01*
X226771628Y-170445102D02*
X226771628Y-170230816D01*
X226771628Y-170230816D02*
X226843057Y-170087959D01*
X226843057Y-170087959D02*
X226914485Y-170016530D01*
X226271628Y-172373673D02*
X227771628Y-172730816D01*
X227771628Y-172730816D02*
X226700200Y-173016530D01*
X226700200Y-173016530D02*
X227771628Y-173302245D01*
X227771628Y-173302245D02*
X226271628Y-173659388D01*
X227771628Y-174873674D02*
X226985914Y-174873674D01*
X226985914Y-174873674D02*
X226843057Y-174802245D01*
X226843057Y-174802245D02*
X226771628Y-174659388D01*
X226771628Y-174659388D02*
X226771628Y-174373674D01*
X226771628Y-174373674D02*
X226843057Y-174230816D01*
X227700200Y-174873674D02*
X227771628Y-174730816D01*
X227771628Y-174730816D02*
X227771628Y-174373674D01*
X227771628Y-174373674D02*
X227700200Y-174230816D01*
X227700200Y-174230816D02*
X227557342Y-174159388D01*
X227557342Y-174159388D02*
X227414485Y-174159388D01*
X227414485Y-174159388D02*
X227271628Y-174230816D01*
X227271628Y-174230816D02*
X227200200Y-174373674D01*
X227200200Y-174373674D02*
X227200200Y-174730816D01*
X227200200Y-174730816D02*
X227128771Y-174873674D01*
X227771628Y-175587959D02*
X226771628Y-175587959D01*
X227057342Y-175587959D02*
X226914485Y-175659388D01*
X226914485Y-175659388D02*
X226843057Y-175730817D01*
X226843057Y-175730817D02*
X226771628Y-175873674D01*
X226771628Y-175873674D02*
X226771628Y-176016531D01*
X226771628Y-176516530D02*
X227771628Y-176516530D01*
X226914485Y-176516530D02*
X226843057Y-176587959D01*
X226843057Y-176587959D02*
X226771628Y-176730816D01*
X226771628Y-176730816D02*
X226771628Y-176945102D01*
X226771628Y-176945102D02*
X226843057Y-177087959D01*
X226843057Y-177087959D02*
X226985914Y-177159388D01*
X226985914Y-177159388D02*
X227771628Y-177159388D01*
X227700200Y-178445102D02*
X227771628Y-178302245D01*
X227771628Y-178302245D02*
X227771628Y-178016531D01*
X227771628Y-178016531D02*
X227700200Y-177873673D01*
X227700200Y-177873673D02*
X227557342Y-177802245D01*
X227557342Y-177802245D02*
X226985914Y-177802245D01*
X226985914Y-177802245D02*
X226843057Y-177873673D01*
X226843057Y-177873673D02*
X226771628Y-178016531D01*
X226771628Y-178016531D02*
X226771628Y-178302245D01*
X226771628Y-178302245D02*
X226843057Y-178445102D01*
X226843057Y-178445102D02*
X226985914Y-178516531D01*
X226985914Y-178516531D02*
X227128771Y-178516531D01*
X227128771Y-178516531D02*
X227271628Y-177802245D01*
X227771628Y-179159387D02*
X226771628Y-179159387D01*
X227057342Y-179159387D02*
X226914485Y-179230816D01*
X226914485Y-179230816D02*
X226843057Y-179302245D01*
X226843057Y-179302245D02*
X226771628Y-179445102D01*
X226771628Y-179445102D02*
X226771628Y-179587959D01*
X230186628Y-166302247D02*
X230186628Y-165445104D01*
X230186628Y-165873675D02*
X228686628Y-165873675D01*
X228686628Y-165873675D02*
X228900914Y-165730818D01*
X228900914Y-165730818D02*
X229043771Y-165587961D01*
X229043771Y-165587961D02*
X229115200Y-165445104D01*
X230186628Y-167730818D02*
X230186628Y-166873675D01*
X230186628Y-167302246D02*
X228686628Y-167302246D01*
X228686628Y-167302246D02*
X228900914Y-167159389D01*
X228900914Y-167159389D02*
X229043771Y-167016532D01*
X229043771Y-167016532D02*
X229115200Y-166873675D01*
X228615200Y-169445103D02*
X230543771Y-168159389D01*
X228829485Y-169873675D02*
X228758057Y-169945103D01*
X228758057Y-169945103D02*
X228686628Y-170087961D01*
X228686628Y-170087961D02*
X228686628Y-170445103D01*
X228686628Y-170445103D02*
X228758057Y-170587961D01*
X228758057Y-170587961D02*
X228829485Y-170659389D01*
X228829485Y-170659389D02*
X228972342Y-170730818D01*
X228972342Y-170730818D02*
X229115200Y-170730818D01*
X229115200Y-170730818D02*
X229329485Y-170659389D01*
X229329485Y-170659389D02*
X230186628Y-169802246D01*
X230186628Y-169802246D02*
X230186628Y-170730818D01*
X228686628Y-172016532D02*
X228686628Y-171730817D01*
X228686628Y-171730817D02*
X228758057Y-171587960D01*
X228758057Y-171587960D02*
X228829485Y-171516532D01*
X228829485Y-171516532D02*
X229043771Y-171373674D01*
X229043771Y-171373674D02*
X229329485Y-171302246D01*
X229329485Y-171302246D02*
X229900914Y-171302246D01*
X229900914Y-171302246D02*
X230043771Y-171373674D01*
X230043771Y-171373674D02*
X230115200Y-171445103D01*
X230115200Y-171445103D02*
X230186628Y-171587960D01*
X230186628Y-171587960D02*
X230186628Y-171873674D01*
X230186628Y-171873674D02*
X230115200Y-172016532D01*
X230115200Y-172016532D02*
X230043771Y-172087960D01*
X230043771Y-172087960D02*
X229900914Y-172159389D01*
X229900914Y-172159389D02*
X229543771Y-172159389D01*
X229543771Y-172159389D02*
X229400914Y-172087960D01*
X229400914Y-172087960D02*
X229329485Y-172016532D01*
X229329485Y-172016532D02*
X229258057Y-171873674D01*
X229258057Y-171873674D02*
X229258057Y-171587960D01*
X229258057Y-171587960D02*
X229329485Y-171445103D01*
X229329485Y-171445103D02*
X229400914Y-171373674D01*
X229400914Y-171373674D02*
X229543771Y-171302246D01*
X228615200Y-173873674D02*
X230543771Y-172587960D01*
X228829485Y-174302246D02*
X228758057Y-174373674D01*
X228758057Y-174373674D02*
X228686628Y-174516532D01*
X228686628Y-174516532D02*
X228686628Y-174873674D01*
X228686628Y-174873674D02*
X228758057Y-175016532D01*
X228758057Y-175016532D02*
X228829485Y-175087960D01*
X228829485Y-175087960D02*
X228972342Y-175159389D01*
X228972342Y-175159389D02*
X229115200Y-175159389D01*
X229115200Y-175159389D02*
X229329485Y-175087960D01*
X229329485Y-175087960D02*
X230186628Y-174230817D01*
X230186628Y-174230817D02*
X230186628Y-175159389D01*
X228686628Y-176087960D02*
X228686628Y-176230817D01*
X228686628Y-176230817D02*
X228758057Y-176373674D01*
X228758057Y-176373674D02*
X228829485Y-176445103D01*
X228829485Y-176445103D02*
X228972342Y-176516531D01*
X228972342Y-176516531D02*
X229258057Y-176587960D01*
X229258057Y-176587960D02*
X229615200Y-176587960D01*
X229615200Y-176587960D02*
X229900914Y-176516531D01*
X229900914Y-176516531D02*
X230043771Y-176445103D01*
X230043771Y-176445103D02*
X230115200Y-176373674D01*
X230115200Y-176373674D02*
X230186628Y-176230817D01*
X230186628Y-176230817D02*
X230186628Y-176087960D01*
X230186628Y-176087960D02*
X230115200Y-175945103D01*
X230115200Y-175945103D02*
X230043771Y-175873674D01*
X230043771Y-175873674D02*
X229900914Y-175802245D01*
X229900914Y-175802245D02*
X229615200Y-175730817D01*
X229615200Y-175730817D02*
X229258057Y-175730817D01*
X229258057Y-175730817D02*
X228972342Y-175802245D01*
X228972342Y-175802245D02*
X228829485Y-175873674D01*
X228829485Y-175873674D02*
X228758057Y-175945103D01*
X228758057Y-175945103D02*
X228686628Y-176087960D01*
X228829485Y-177159388D02*
X228758057Y-177230816D01*
X228758057Y-177230816D02*
X228686628Y-177373674D01*
X228686628Y-177373674D02*
X228686628Y-177730816D01*
X228686628Y-177730816D02*
X228758057Y-177873674D01*
X228758057Y-177873674D02*
X228829485Y-177945102D01*
X228829485Y-177945102D02*
X228972342Y-178016531D01*
X228972342Y-178016531D02*
X229115200Y-178016531D01*
X229115200Y-178016531D02*
X229329485Y-177945102D01*
X229329485Y-177945102D02*
X230186628Y-177087959D01*
X230186628Y-177087959D02*
X230186628Y-178016531D01*
X229186628Y-179302245D02*
X230186628Y-179302245D01*
X228615200Y-178945102D02*
X229686628Y-178587959D01*
X229686628Y-178587959D02*
X229686628Y-179516530D01*
X208387792Y-128468319D02*
X208721125Y-127992128D01*
X208959220Y-128468319D02*
X208959220Y-127468319D01*
X208959220Y-127468319D02*
X208578268Y-127468319D01*
X208578268Y-127468319D02*
X208483030Y-127515938D01*
X208483030Y-127515938D02*
X208435411Y-127563557D01*
X208435411Y-127563557D02*
X208387792Y-127658795D01*
X208387792Y-127658795D02*
X208387792Y-127801652D01*
X208387792Y-127801652D02*
X208435411Y-127896890D01*
X208435411Y-127896890D02*
X208483030Y-127944509D01*
X208483030Y-127944509D02*
X208578268Y-127992128D01*
X208578268Y-127992128D02*
X208959220Y-127992128D01*
X207530649Y-127468319D02*
X207721125Y-127468319D01*
X207721125Y-127468319D02*
X207816363Y-127515938D01*
X207816363Y-127515938D02*
X207863982Y-127563557D01*
X207863982Y-127563557D02*
X207959220Y-127706414D01*
X207959220Y-127706414D02*
X208006839Y-127896890D01*
X208006839Y-127896890D02*
X208006839Y-128277842D01*
X208006839Y-128277842D02*
X207959220Y-128373080D01*
X207959220Y-128373080D02*
X207911601Y-128420700D01*
X207911601Y-128420700D02*
X207816363Y-128468319D01*
X207816363Y-128468319D02*
X207625887Y-128468319D01*
X207625887Y-128468319D02*
X207530649Y-128420700D01*
X207530649Y-128420700D02*
X207483030Y-128373080D01*
X207483030Y-128373080D02*
X207435411Y-128277842D01*
X207435411Y-128277842D02*
X207435411Y-128039747D01*
X207435411Y-128039747D02*
X207483030Y-127944509D01*
X207483030Y-127944509D02*
X207530649Y-127896890D01*
X207530649Y-127896890D02*
X207625887Y-127849271D01*
X207625887Y-127849271D02*
X207816363Y-127849271D01*
X207816363Y-127849271D02*
X207911601Y-127896890D01*
X207911601Y-127896890D02*
X207959220Y-127944509D01*
X207959220Y-127944509D02*
X208006839Y-128039747D01*
X206816363Y-127468319D02*
X206721125Y-127468319D01*
X206721125Y-127468319D02*
X206625887Y-127515938D01*
X206625887Y-127515938D02*
X206578268Y-127563557D01*
X206578268Y-127563557D02*
X206530649Y-127658795D01*
X206530649Y-127658795D02*
X206483030Y-127849271D01*
X206483030Y-127849271D02*
X206483030Y-128087366D01*
X206483030Y-128087366D02*
X206530649Y-128277842D01*
X206530649Y-128277842D02*
X206578268Y-128373080D01*
X206578268Y-128373080D02*
X206625887Y-128420700D01*
X206625887Y-128420700D02*
X206721125Y-128468319D01*
X206721125Y-128468319D02*
X206816363Y-128468319D01*
X206816363Y-128468319D02*
X206911601Y-128420700D01*
X206911601Y-128420700D02*
X206959220Y-128373080D01*
X206959220Y-128373080D02*
X207006839Y-128277842D01*
X207006839Y-128277842D02*
X207054458Y-128087366D01*
X207054458Y-128087366D02*
X207054458Y-127849271D01*
X207054458Y-127849271D02*
X207006839Y-127658795D01*
X207006839Y-127658795D02*
X206959220Y-127563557D01*
X206959220Y-127563557D02*
X206911601Y-127515938D01*
X206911601Y-127515938D02*
X206816363Y-127468319D01*
D11*
X204985927Y-128350714D02*
X205414498Y-128350714D01*
X205200213Y-128350714D02*
X205200213Y-127600714D01*
X205200213Y-127600714D02*
X205271641Y-127707857D01*
X205271641Y-127707857D02*
X205343070Y-127779285D01*
X205343070Y-127779285D02*
X205414498Y-127815000D01*
X204664498Y-128279285D02*
X204628784Y-128315000D01*
X204628784Y-128315000D02*
X204664498Y-128350714D01*
X204664498Y-128350714D02*
X204700212Y-128315000D01*
X204700212Y-128315000D02*
X204664498Y-128279285D01*
X204664498Y-128279285D02*
X204664498Y-128350714D01*
X203914498Y-128350714D02*
X204343069Y-128350714D01*
X204128784Y-128350714D02*
X204128784Y-127600714D01*
X204128784Y-127600714D02*
X204200212Y-127707857D01*
X204200212Y-127707857D02*
X204271641Y-127779285D01*
X204271641Y-127779285D02*
X204343069Y-127815000D01*
X203593069Y-128350714D02*
X203593069Y-127600714D01*
X203521641Y-128065000D02*
X203307355Y-128350714D01*
X203307355Y-127850714D02*
X203593069Y-128136428D01*
X203021640Y-128350714D02*
X202843069Y-128350714D01*
X202843069Y-128350714D02*
X202843069Y-128207857D01*
X202843069Y-128207857D02*
X202914498Y-128172142D01*
X202914498Y-128172142D02*
X202985926Y-128100714D01*
X202985926Y-128100714D02*
X203021640Y-127993571D01*
X203021640Y-127993571D02*
X203021640Y-127815000D01*
X203021640Y-127815000D02*
X202985926Y-127707857D01*
X202985926Y-127707857D02*
X202914498Y-127636428D01*
X202914498Y-127636428D02*
X202807355Y-127600714D01*
X202807355Y-127600714D02*
X202664498Y-127600714D01*
X202664498Y-127600714D02*
X202557355Y-127636428D01*
X202557355Y-127636428D02*
X202485926Y-127707857D01*
X202485926Y-127707857D02*
X202450212Y-127815000D01*
X202450212Y-127815000D02*
X202450212Y-127993571D01*
X202450212Y-127993571D02*
X202485926Y-128100714D01*
X202485926Y-128100714D02*
X202557355Y-128172142D01*
X202557355Y-128172142D02*
X202628783Y-128207857D01*
X202628783Y-128207857D02*
X202628783Y-128350714D01*
X202628783Y-128350714D02*
X202450212Y-128350714D01*
D10*
X216734923Y-179942019D02*
X216734923Y-180656304D01*
X216734923Y-180656304D02*
X216782542Y-180799161D01*
X216782542Y-180799161D02*
X216877780Y-180894400D01*
X216877780Y-180894400D02*
X217020637Y-180942019D01*
X217020637Y-180942019D02*
X217115875Y-180942019D01*
X215734923Y-180942019D02*
X216306351Y-180942019D01*
X216020637Y-180942019D02*
X216020637Y-179942019D01*
X216020637Y-179942019D02*
X216115875Y-180084876D01*
X216115875Y-180084876D02*
X216211113Y-180180114D01*
X216211113Y-180180114D02*
X216306351Y-180227733D01*
X214782542Y-180942019D02*
X215353970Y-180942019D01*
X215068256Y-180942019D02*
X215068256Y-179942019D01*
X215068256Y-179942019D02*
X215163494Y-180084876D01*
X215163494Y-180084876D02*
X215258732Y-180180114D01*
X215258732Y-180180114D02*
X215353970Y-180227733D01*
X222960615Y-190686219D02*
X222293949Y-191686219D01*
X222293949Y-190686219D02*
X222960615Y-191686219D01*
X222008234Y-190686219D02*
X221770139Y-191686219D01*
X221770139Y-191686219D02*
X221579663Y-190971933D01*
X221579663Y-190971933D02*
X221389187Y-191686219D01*
X221389187Y-191686219D02*
X221151092Y-190686219D01*
X220341568Y-191019552D02*
X220341568Y-191686219D01*
X220579663Y-190638600D02*
X220817758Y-191352885D01*
X220817758Y-191352885D02*
X220198711Y-191352885D01*
X219817758Y-191686219D02*
X219817758Y-190686219D01*
X219817758Y-190686219D02*
X219484425Y-191400504D01*
X219484425Y-191400504D02*
X219151092Y-190686219D01*
X219151092Y-190686219D02*
X219151092Y-191686219D01*
X218674901Y-191305266D02*
X217912997Y-191305266D01*
X216912997Y-191686219D02*
X217484425Y-191686219D01*
X217198711Y-191686219D02*
X217198711Y-190686219D01*
X217198711Y-190686219D02*
X217293949Y-190829076D01*
X217293949Y-190829076D02*
X217389187Y-190924314D01*
X217389187Y-190924314D02*
X217484425Y-190971933D01*
X216532044Y-190781457D02*
X216484425Y-190733838D01*
X216484425Y-190733838D02*
X216389187Y-190686219D01*
X216389187Y-190686219D02*
X216151092Y-190686219D01*
X216151092Y-190686219D02*
X216055854Y-190733838D01*
X216055854Y-190733838D02*
X216008235Y-190781457D01*
X216008235Y-190781457D02*
X215960616Y-190876695D01*
X215960616Y-190876695D02*
X215960616Y-190971933D01*
X215960616Y-190971933D02*
X216008235Y-191114790D01*
X216008235Y-191114790D02*
X216579663Y-191686219D01*
X216579663Y-191686219D02*
X215960616Y-191686219D01*
X215532044Y-191686219D02*
X215532044Y-190686219D01*
X215532044Y-190686219D02*
X215293949Y-190686219D01*
X215293949Y-190686219D02*
X215151092Y-190733838D01*
X215151092Y-190733838D02*
X215055854Y-190829076D01*
X215055854Y-190829076D02*
X215008235Y-190924314D01*
X215008235Y-190924314D02*
X214960616Y-191114790D01*
X214960616Y-191114790D02*
X214960616Y-191257647D01*
X214960616Y-191257647D02*
X215008235Y-191448123D01*
X215008235Y-191448123D02*
X215055854Y-191543361D01*
X215055854Y-191543361D02*
X215151092Y-191638600D01*
X215151092Y-191638600D02*
X215293949Y-191686219D01*
X215293949Y-191686219D02*
X215532044Y-191686219D01*
X214579663Y-190781457D02*
X214532044Y-190733838D01*
X214532044Y-190733838D02*
X214436806Y-190686219D01*
X214436806Y-190686219D02*
X214198711Y-190686219D01*
X214198711Y-190686219D02*
X214103473Y-190733838D01*
X214103473Y-190733838D02*
X214055854Y-190781457D01*
X214055854Y-190781457D02*
X214008235Y-190876695D01*
X214008235Y-190876695D02*
X214008235Y-190971933D01*
X214008235Y-190971933D02*
X214055854Y-191114790D01*
X214055854Y-191114790D02*
X214627282Y-191686219D01*
X214627282Y-191686219D02*
X214008235Y-191686219D01*
X213579663Y-191305266D02*
X212817759Y-191305266D01*
X212341568Y-191686219D02*
X212341568Y-190686219D01*
X212341568Y-191162409D02*
X211770140Y-191162409D01*
X211770140Y-191686219D02*
X211770140Y-190686219D01*
X210770140Y-191686219D02*
X211341568Y-191686219D01*
X211055854Y-191686219D02*
X211055854Y-190686219D01*
X211055854Y-190686219D02*
X211151092Y-190829076D01*
X211151092Y-190829076D02*
X211246330Y-190924314D01*
X211246330Y-190924314D02*
X211341568Y-190971933D01*
X210341568Y-191686219D02*
X210341568Y-190686219D01*
X210341568Y-190686219D02*
X210103473Y-190686219D01*
X210103473Y-190686219D02*
X209960616Y-190733838D01*
X209960616Y-190733838D02*
X209865378Y-190829076D01*
X209865378Y-190829076D02*
X209817759Y-190924314D01*
X209817759Y-190924314D02*
X209770140Y-191114790D01*
X209770140Y-191114790D02*
X209770140Y-191257647D01*
X209770140Y-191257647D02*
X209817759Y-191448123D01*
X209817759Y-191448123D02*
X209865378Y-191543361D01*
X209865378Y-191543361D02*
X209960616Y-191638600D01*
X209960616Y-191638600D02*
X210103473Y-191686219D01*
X210103473Y-191686219D02*
X210341568Y-191686219D01*
X209389187Y-191400504D02*
X208912997Y-191400504D01*
X209484425Y-191686219D02*
X209151092Y-190686219D01*
X209151092Y-190686219D02*
X208817759Y-191686219D01*
X208387792Y-164028319D02*
X208721125Y-163552128D01*
X208959220Y-164028319D02*
X208959220Y-163028319D01*
X208959220Y-163028319D02*
X208578268Y-163028319D01*
X208578268Y-163028319D02*
X208483030Y-163075938D01*
X208483030Y-163075938D02*
X208435411Y-163123557D01*
X208435411Y-163123557D02*
X208387792Y-163218795D01*
X208387792Y-163218795D02*
X208387792Y-163361652D01*
X208387792Y-163361652D02*
X208435411Y-163456890D01*
X208435411Y-163456890D02*
X208483030Y-163504509D01*
X208483030Y-163504509D02*
X208578268Y-163552128D01*
X208578268Y-163552128D02*
X208959220Y-163552128D01*
X207816363Y-163456890D02*
X207911601Y-163409271D01*
X207911601Y-163409271D02*
X207959220Y-163361652D01*
X207959220Y-163361652D02*
X208006839Y-163266414D01*
X208006839Y-163266414D02*
X208006839Y-163218795D01*
X208006839Y-163218795D02*
X207959220Y-163123557D01*
X207959220Y-163123557D02*
X207911601Y-163075938D01*
X207911601Y-163075938D02*
X207816363Y-163028319D01*
X207816363Y-163028319D02*
X207625887Y-163028319D01*
X207625887Y-163028319D02*
X207530649Y-163075938D01*
X207530649Y-163075938D02*
X207483030Y-163123557D01*
X207483030Y-163123557D02*
X207435411Y-163218795D01*
X207435411Y-163218795D02*
X207435411Y-163266414D01*
X207435411Y-163266414D02*
X207483030Y-163361652D01*
X207483030Y-163361652D02*
X207530649Y-163409271D01*
X207530649Y-163409271D02*
X207625887Y-163456890D01*
X207625887Y-163456890D02*
X207816363Y-163456890D01*
X207816363Y-163456890D02*
X207911601Y-163504509D01*
X207911601Y-163504509D02*
X207959220Y-163552128D01*
X207959220Y-163552128D02*
X208006839Y-163647366D01*
X208006839Y-163647366D02*
X208006839Y-163837842D01*
X208006839Y-163837842D02*
X207959220Y-163933080D01*
X207959220Y-163933080D02*
X207911601Y-163980700D01*
X207911601Y-163980700D02*
X207816363Y-164028319D01*
X207816363Y-164028319D02*
X207625887Y-164028319D01*
X207625887Y-164028319D02*
X207530649Y-163980700D01*
X207530649Y-163980700D02*
X207483030Y-163933080D01*
X207483030Y-163933080D02*
X207435411Y-163837842D01*
X207435411Y-163837842D02*
X207435411Y-163647366D01*
X207435411Y-163647366D02*
X207483030Y-163552128D01*
X207483030Y-163552128D02*
X207530649Y-163504509D01*
X207530649Y-163504509D02*
X207625887Y-163456890D01*
X206816363Y-163028319D02*
X206721125Y-163028319D01*
X206721125Y-163028319D02*
X206625887Y-163075938D01*
X206625887Y-163075938D02*
X206578268Y-163123557D01*
X206578268Y-163123557D02*
X206530649Y-163218795D01*
X206530649Y-163218795D02*
X206483030Y-163409271D01*
X206483030Y-163409271D02*
X206483030Y-163647366D01*
X206483030Y-163647366D02*
X206530649Y-163837842D01*
X206530649Y-163837842D02*
X206578268Y-163933080D01*
X206578268Y-163933080D02*
X206625887Y-163980700D01*
X206625887Y-163980700D02*
X206721125Y-164028319D01*
X206721125Y-164028319D02*
X206816363Y-164028319D01*
X206816363Y-164028319D02*
X206911601Y-163980700D01*
X206911601Y-163980700D02*
X206959220Y-163933080D01*
X206959220Y-163933080D02*
X207006839Y-163837842D01*
X207006839Y-163837842D02*
X207054458Y-163647366D01*
X207054458Y-163647366D02*
X207054458Y-163409271D01*
X207054458Y-163409271D02*
X207006839Y-163218795D01*
X207006839Y-163218795D02*
X206959220Y-163123557D01*
X206959220Y-163123557D02*
X206911601Y-163075938D01*
X206911601Y-163075938D02*
X206816363Y-163028319D01*
D11*
X204985927Y-163910714D02*
X205414498Y-163910714D01*
X205200213Y-163910714D02*
X205200213Y-163160714D01*
X205200213Y-163160714D02*
X205271641Y-163267857D01*
X205271641Y-163267857D02*
X205343070Y-163339285D01*
X205343070Y-163339285D02*
X205414498Y-163375000D01*
X204664498Y-163839285D02*
X204628784Y-163875000D01*
X204628784Y-163875000D02*
X204664498Y-163910714D01*
X204664498Y-163910714D02*
X204700212Y-163875000D01*
X204700212Y-163875000D02*
X204664498Y-163839285D01*
X204664498Y-163839285D02*
X204664498Y-163910714D01*
X203914498Y-163910714D02*
X204343069Y-163910714D01*
X204128784Y-163910714D02*
X204128784Y-163160714D01*
X204128784Y-163160714D02*
X204200212Y-163267857D01*
X204200212Y-163267857D02*
X204271641Y-163339285D01*
X204271641Y-163339285D02*
X204343069Y-163375000D01*
X203593069Y-163910714D02*
X203593069Y-163160714D01*
X203521641Y-163625000D02*
X203307355Y-163910714D01*
X203307355Y-163410714D02*
X203593069Y-163696428D01*
X203021640Y-163910714D02*
X202843069Y-163910714D01*
X202843069Y-163910714D02*
X202843069Y-163767857D01*
X202843069Y-163767857D02*
X202914498Y-163732142D01*
X202914498Y-163732142D02*
X202985926Y-163660714D01*
X202985926Y-163660714D02*
X203021640Y-163553571D01*
X203021640Y-163553571D02*
X203021640Y-163375000D01*
X203021640Y-163375000D02*
X202985926Y-163267857D01*
X202985926Y-163267857D02*
X202914498Y-163196428D01*
X202914498Y-163196428D02*
X202807355Y-163160714D01*
X202807355Y-163160714D02*
X202664498Y-163160714D01*
X202664498Y-163160714D02*
X202557355Y-163196428D01*
X202557355Y-163196428D02*
X202485926Y-163267857D01*
X202485926Y-163267857D02*
X202450212Y-163375000D01*
X202450212Y-163375000D02*
X202450212Y-163553571D01*
X202450212Y-163553571D02*
X202485926Y-163660714D01*
X202485926Y-163660714D02*
X202557355Y-163732142D01*
X202557355Y-163732142D02*
X202628783Y-163767857D01*
X202628783Y-163767857D02*
X202628783Y-163910714D01*
X202628783Y-163910714D02*
X202450212Y-163910714D01*
D10*
X202194819Y-133657261D02*
X202194819Y-133181071D01*
X202194819Y-133181071D02*
X201194819Y-133181071D01*
X201671009Y-133990595D02*
X201671009Y-134323928D01*
X202194819Y-134466785D02*
X202194819Y-133990595D01*
X202194819Y-133990595D02*
X201194819Y-133990595D01*
X201194819Y-133990595D02*
X201194819Y-134466785D01*
X202194819Y-134895357D02*
X201194819Y-134895357D01*
X201194819Y-134895357D02*
X201194819Y-135133452D01*
X201194819Y-135133452D02*
X201242438Y-135276309D01*
X201242438Y-135276309D02*
X201337676Y-135371547D01*
X201337676Y-135371547D02*
X201432914Y-135419166D01*
X201432914Y-135419166D02*
X201623390Y-135466785D01*
X201623390Y-135466785D02*
X201766247Y-135466785D01*
X201766247Y-135466785D02*
X201956723Y-135419166D01*
X201956723Y-135419166D02*
X202051961Y-135371547D01*
X202051961Y-135371547D02*
X202147200Y-135276309D01*
X202147200Y-135276309D02*
X202194819Y-135133452D01*
X202194819Y-135133452D02*
X202194819Y-134895357D01*
X201194819Y-135800119D02*
X201194819Y-136466785D01*
X201194819Y-136466785D02*
X202194819Y-136038214D01*
X201194819Y-137038214D02*
X201194819Y-137133452D01*
X201194819Y-137133452D02*
X201242438Y-137228690D01*
X201242438Y-137228690D02*
X201290057Y-137276309D01*
X201290057Y-137276309D02*
X201385295Y-137323928D01*
X201385295Y-137323928D02*
X201575771Y-137371547D01*
X201575771Y-137371547D02*
X201813866Y-137371547D01*
X201813866Y-137371547D02*
X202004342Y-137323928D01*
X202004342Y-137323928D02*
X202099580Y-137276309D01*
X202099580Y-137276309D02*
X202147200Y-137228690D01*
X202147200Y-137228690D02*
X202194819Y-137133452D01*
X202194819Y-137133452D02*
X202194819Y-137038214D01*
X202194819Y-137038214D02*
X202147200Y-136942976D01*
X202147200Y-136942976D02*
X202099580Y-136895357D01*
X202099580Y-136895357D02*
X202004342Y-136847738D01*
X202004342Y-136847738D02*
X201813866Y-136800119D01*
X201813866Y-136800119D02*
X201575771Y-136800119D01*
X201575771Y-136800119D02*
X201385295Y-136847738D01*
X201385295Y-136847738D02*
X201290057Y-136895357D01*
X201290057Y-136895357D02*
X201242438Y-136942976D01*
X201242438Y-136942976D02*
X201194819Y-137038214D01*
X210199580Y-131490595D02*
X210247200Y-131442976D01*
X210247200Y-131442976D02*
X210294819Y-131300119D01*
X210294819Y-131300119D02*
X210294819Y-131204881D01*
X210294819Y-131204881D02*
X210247200Y-131062024D01*
X210247200Y-131062024D02*
X210151961Y-130966786D01*
X210151961Y-130966786D02*
X210056723Y-130919167D01*
X210056723Y-130919167D02*
X209866247Y-130871548D01*
X209866247Y-130871548D02*
X209723390Y-130871548D01*
X209723390Y-130871548D02*
X209532914Y-130919167D01*
X209532914Y-130919167D02*
X209437676Y-130966786D01*
X209437676Y-130966786D02*
X209342438Y-131062024D01*
X209342438Y-131062024D02*
X209294819Y-131204881D01*
X209294819Y-131204881D02*
X209294819Y-131300119D01*
X209294819Y-131300119D02*
X209342438Y-131442976D01*
X209342438Y-131442976D02*
X209390057Y-131490595D01*
X209294819Y-132395357D02*
X209294819Y-131919167D01*
X209294819Y-131919167D02*
X209771009Y-131871548D01*
X209771009Y-131871548D02*
X209723390Y-131919167D01*
X209723390Y-131919167D02*
X209675771Y-132014405D01*
X209675771Y-132014405D02*
X209675771Y-132252500D01*
X209675771Y-132252500D02*
X209723390Y-132347738D01*
X209723390Y-132347738D02*
X209771009Y-132395357D01*
X209771009Y-132395357D02*
X209866247Y-132442976D01*
X209866247Y-132442976D02*
X210104342Y-132442976D01*
X210104342Y-132442976D02*
X210199580Y-132395357D01*
X210199580Y-132395357D02*
X210247200Y-132347738D01*
X210247200Y-132347738D02*
X210294819Y-132252500D01*
X210294819Y-132252500D02*
X210294819Y-132014405D01*
X210294819Y-132014405D02*
X210247200Y-131919167D01*
X210247200Y-131919167D02*
X210199580Y-131871548D01*
X209294819Y-133062024D02*
X209294819Y-133157262D01*
X209294819Y-133157262D02*
X209342438Y-133252500D01*
X209342438Y-133252500D02*
X209390057Y-133300119D01*
X209390057Y-133300119D02*
X209485295Y-133347738D01*
X209485295Y-133347738D02*
X209675771Y-133395357D01*
X209675771Y-133395357D02*
X209913866Y-133395357D01*
X209913866Y-133395357D02*
X210104342Y-133347738D01*
X210104342Y-133347738D02*
X210199580Y-133300119D01*
X210199580Y-133300119D02*
X210247200Y-133252500D01*
X210247200Y-133252500D02*
X210294819Y-133157262D01*
X210294819Y-133157262D02*
X210294819Y-133062024D01*
X210294819Y-133062024D02*
X210247200Y-132966786D01*
X210247200Y-132966786D02*
X210199580Y-132919167D01*
X210199580Y-132919167D02*
X210104342Y-132871548D01*
X210104342Y-132871548D02*
X209913866Y-132823929D01*
X209913866Y-132823929D02*
X209675771Y-132823929D01*
X209675771Y-132823929D02*
X209485295Y-132871548D01*
X209485295Y-132871548D02*
X209390057Y-132919167D01*
X209390057Y-132919167D02*
X209342438Y-132966786D01*
X209342438Y-132966786D02*
X209294819Y-133062024D01*
X209294819Y-133728691D02*
X209294819Y-134347738D01*
X209294819Y-134347738D02*
X209675771Y-134014405D01*
X209675771Y-134014405D02*
X209675771Y-134157262D01*
X209675771Y-134157262D02*
X209723390Y-134252500D01*
X209723390Y-134252500D02*
X209771009Y-134300119D01*
X209771009Y-134300119D02*
X209866247Y-134347738D01*
X209866247Y-134347738D02*
X210104342Y-134347738D01*
X210104342Y-134347738D02*
X210199580Y-134300119D01*
X210199580Y-134300119D02*
X210247200Y-134252500D01*
X210247200Y-134252500D02*
X210294819Y-134157262D01*
X210294819Y-134157262D02*
X210294819Y-133871548D01*
X210294819Y-133871548D02*
X210247200Y-133776310D01*
X210247200Y-133776310D02*
X210199580Y-133728691D01*
X209771009Y-135109643D02*
X209818628Y-135252500D01*
X209818628Y-135252500D02*
X209866247Y-135300119D01*
X209866247Y-135300119D02*
X209961485Y-135347738D01*
X209961485Y-135347738D02*
X210104342Y-135347738D01*
X210104342Y-135347738D02*
X210199580Y-135300119D01*
X210199580Y-135300119D02*
X210247200Y-135252500D01*
X210247200Y-135252500D02*
X210294819Y-135157262D01*
X210294819Y-135157262D02*
X210294819Y-134776310D01*
X210294819Y-134776310D02*
X209294819Y-134776310D01*
X209294819Y-134776310D02*
X209294819Y-135109643D01*
X209294819Y-135109643D02*
X209342438Y-135204881D01*
X209342438Y-135204881D02*
X209390057Y-135252500D01*
X209390057Y-135252500D02*
X209485295Y-135300119D01*
X209485295Y-135300119D02*
X209580533Y-135300119D01*
X209580533Y-135300119D02*
X209675771Y-135252500D01*
X209675771Y-135252500D02*
X209723390Y-135204881D01*
X209723390Y-135204881D02*
X209771009Y-135109643D01*
X209771009Y-135109643D02*
X209771009Y-134776310D01*
X209913866Y-135776310D02*
X209913866Y-136538215D01*
X209771009Y-137347738D02*
X209818628Y-137490595D01*
X209818628Y-137490595D02*
X209866247Y-137538214D01*
X209866247Y-137538214D02*
X209961485Y-137585833D01*
X209961485Y-137585833D02*
X210104342Y-137585833D01*
X210104342Y-137585833D02*
X210199580Y-137538214D01*
X210199580Y-137538214D02*
X210247200Y-137490595D01*
X210247200Y-137490595D02*
X210294819Y-137395357D01*
X210294819Y-137395357D02*
X210294819Y-137014405D01*
X210294819Y-137014405D02*
X209294819Y-137014405D01*
X209294819Y-137014405D02*
X209294819Y-137347738D01*
X209294819Y-137347738D02*
X209342438Y-137442976D01*
X209342438Y-137442976D02*
X209390057Y-137490595D01*
X209390057Y-137490595D02*
X209485295Y-137538214D01*
X209485295Y-137538214D02*
X209580533Y-137538214D01*
X209580533Y-137538214D02*
X209675771Y-137490595D01*
X209675771Y-137490595D02*
X209723390Y-137442976D01*
X209723390Y-137442976D02*
X209771009Y-137347738D01*
X209771009Y-137347738D02*
X209771009Y-137014405D01*
X210199580Y-138585833D02*
X210247200Y-138538214D01*
X210247200Y-138538214D02*
X210294819Y-138395357D01*
X210294819Y-138395357D02*
X210294819Y-138300119D01*
X210294819Y-138300119D02*
X210247200Y-138157262D01*
X210247200Y-138157262D02*
X210151961Y-138062024D01*
X210151961Y-138062024D02*
X210056723Y-138014405D01*
X210056723Y-138014405D02*
X209866247Y-137966786D01*
X209866247Y-137966786D02*
X209723390Y-137966786D01*
X209723390Y-137966786D02*
X209532914Y-138014405D01*
X209532914Y-138014405D02*
X209437676Y-138062024D01*
X209437676Y-138062024D02*
X209342438Y-138157262D01*
X209342438Y-138157262D02*
X209294819Y-138300119D01*
X209294819Y-138300119D02*
X209294819Y-138395357D01*
X209294819Y-138395357D02*
X209342438Y-138538214D01*
X209342438Y-138538214D02*
X209390057Y-138585833D01*
X210294819Y-139014405D02*
X209294819Y-139014405D01*
X209294819Y-139014405D02*
X210294819Y-139585833D01*
X210294819Y-139585833D02*
X209294819Y-139585833D01*
X208387792Y-110688319D02*
X208721125Y-110212128D01*
X208959220Y-110688319D02*
X208959220Y-109688319D01*
X208959220Y-109688319D02*
X208578268Y-109688319D01*
X208578268Y-109688319D02*
X208483030Y-109735938D01*
X208483030Y-109735938D02*
X208435411Y-109783557D01*
X208435411Y-109783557D02*
X208387792Y-109878795D01*
X208387792Y-109878795D02*
X208387792Y-110021652D01*
X208387792Y-110021652D02*
X208435411Y-110116890D01*
X208435411Y-110116890D02*
X208483030Y-110164509D01*
X208483030Y-110164509D02*
X208578268Y-110212128D01*
X208578268Y-110212128D02*
X208959220Y-110212128D01*
X207483030Y-109688319D02*
X207959220Y-109688319D01*
X207959220Y-109688319D02*
X208006839Y-110164509D01*
X208006839Y-110164509D02*
X207959220Y-110116890D01*
X207959220Y-110116890D02*
X207863982Y-110069271D01*
X207863982Y-110069271D02*
X207625887Y-110069271D01*
X207625887Y-110069271D02*
X207530649Y-110116890D01*
X207530649Y-110116890D02*
X207483030Y-110164509D01*
X207483030Y-110164509D02*
X207435411Y-110259747D01*
X207435411Y-110259747D02*
X207435411Y-110497842D01*
X207435411Y-110497842D02*
X207483030Y-110593080D01*
X207483030Y-110593080D02*
X207530649Y-110640700D01*
X207530649Y-110640700D02*
X207625887Y-110688319D01*
X207625887Y-110688319D02*
X207863982Y-110688319D01*
X207863982Y-110688319D02*
X207959220Y-110640700D01*
X207959220Y-110640700D02*
X208006839Y-110593080D01*
X206816363Y-109688319D02*
X206721125Y-109688319D01*
X206721125Y-109688319D02*
X206625887Y-109735938D01*
X206625887Y-109735938D02*
X206578268Y-109783557D01*
X206578268Y-109783557D02*
X206530649Y-109878795D01*
X206530649Y-109878795D02*
X206483030Y-110069271D01*
X206483030Y-110069271D02*
X206483030Y-110307366D01*
X206483030Y-110307366D02*
X206530649Y-110497842D01*
X206530649Y-110497842D02*
X206578268Y-110593080D01*
X206578268Y-110593080D02*
X206625887Y-110640700D01*
X206625887Y-110640700D02*
X206721125Y-110688319D01*
X206721125Y-110688319D02*
X206816363Y-110688319D01*
X206816363Y-110688319D02*
X206911601Y-110640700D01*
X206911601Y-110640700D02*
X206959220Y-110593080D01*
X206959220Y-110593080D02*
X207006839Y-110497842D01*
X207006839Y-110497842D02*
X207054458Y-110307366D01*
X207054458Y-110307366D02*
X207054458Y-110069271D01*
X207054458Y-110069271D02*
X207006839Y-109878795D01*
X207006839Y-109878795D02*
X206959220Y-109783557D01*
X206959220Y-109783557D02*
X206911601Y-109735938D01*
X206911601Y-109735938D02*
X206816363Y-109688319D01*
D11*
X204985927Y-110570714D02*
X205414498Y-110570714D01*
X205200213Y-110570714D02*
X205200213Y-109820714D01*
X205200213Y-109820714D02*
X205271641Y-109927857D01*
X205271641Y-109927857D02*
X205343070Y-109999285D01*
X205343070Y-109999285D02*
X205414498Y-110035000D01*
X204664498Y-110499285D02*
X204628784Y-110535000D01*
X204628784Y-110535000D02*
X204664498Y-110570714D01*
X204664498Y-110570714D02*
X204700212Y-110535000D01*
X204700212Y-110535000D02*
X204664498Y-110499285D01*
X204664498Y-110499285D02*
X204664498Y-110570714D01*
X203914498Y-110570714D02*
X204343069Y-110570714D01*
X204128784Y-110570714D02*
X204128784Y-109820714D01*
X204128784Y-109820714D02*
X204200212Y-109927857D01*
X204200212Y-109927857D02*
X204271641Y-109999285D01*
X204271641Y-109999285D02*
X204343069Y-110035000D01*
X203593069Y-110570714D02*
X203593069Y-109820714D01*
X203521641Y-110285000D02*
X203307355Y-110570714D01*
X203307355Y-110070714D02*
X203593069Y-110356428D01*
X203021640Y-110570714D02*
X202843069Y-110570714D01*
X202843069Y-110570714D02*
X202843069Y-110427857D01*
X202843069Y-110427857D02*
X202914498Y-110392142D01*
X202914498Y-110392142D02*
X202985926Y-110320714D01*
X202985926Y-110320714D02*
X203021640Y-110213571D01*
X203021640Y-110213571D02*
X203021640Y-110035000D01*
X203021640Y-110035000D02*
X202985926Y-109927857D01*
X202985926Y-109927857D02*
X202914498Y-109856428D01*
X202914498Y-109856428D02*
X202807355Y-109820714D01*
X202807355Y-109820714D02*
X202664498Y-109820714D01*
X202664498Y-109820714D02*
X202557355Y-109856428D01*
X202557355Y-109856428D02*
X202485926Y-109927857D01*
X202485926Y-109927857D02*
X202450212Y-110035000D01*
X202450212Y-110035000D02*
X202450212Y-110213571D01*
X202450212Y-110213571D02*
X202485926Y-110320714D01*
X202485926Y-110320714D02*
X202557355Y-110392142D01*
X202557355Y-110392142D02*
X202628783Y-110427857D01*
X202628783Y-110427857D02*
X202628783Y-110570714D01*
X202628783Y-110570714D02*
X202450212Y-110570714D01*
D10*
X208387792Y-92908319D02*
X208721125Y-92432128D01*
X208959220Y-92908319D02*
X208959220Y-91908319D01*
X208959220Y-91908319D02*
X208578268Y-91908319D01*
X208578268Y-91908319D02*
X208483030Y-91955938D01*
X208483030Y-91955938D02*
X208435411Y-92003557D01*
X208435411Y-92003557D02*
X208387792Y-92098795D01*
X208387792Y-92098795D02*
X208387792Y-92241652D01*
X208387792Y-92241652D02*
X208435411Y-92336890D01*
X208435411Y-92336890D02*
X208483030Y-92384509D01*
X208483030Y-92384509D02*
X208578268Y-92432128D01*
X208578268Y-92432128D02*
X208959220Y-92432128D01*
X207530649Y-92241652D02*
X207530649Y-92908319D01*
X207768744Y-91860700D02*
X208006839Y-92574985D01*
X208006839Y-92574985D02*
X207387792Y-92574985D01*
X206816363Y-91908319D02*
X206721125Y-91908319D01*
X206721125Y-91908319D02*
X206625887Y-91955938D01*
X206625887Y-91955938D02*
X206578268Y-92003557D01*
X206578268Y-92003557D02*
X206530649Y-92098795D01*
X206530649Y-92098795D02*
X206483030Y-92289271D01*
X206483030Y-92289271D02*
X206483030Y-92527366D01*
X206483030Y-92527366D02*
X206530649Y-92717842D01*
X206530649Y-92717842D02*
X206578268Y-92813080D01*
X206578268Y-92813080D02*
X206625887Y-92860700D01*
X206625887Y-92860700D02*
X206721125Y-92908319D01*
X206721125Y-92908319D02*
X206816363Y-92908319D01*
X206816363Y-92908319D02*
X206911601Y-92860700D01*
X206911601Y-92860700D02*
X206959220Y-92813080D01*
X206959220Y-92813080D02*
X207006839Y-92717842D01*
X207006839Y-92717842D02*
X207054458Y-92527366D01*
X207054458Y-92527366D02*
X207054458Y-92289271D01*
X207054458Y-92289271D02*
X207006839Y-92098795D01*
X207006839Y-92098795D02*
X206959220Y-92003557D01*
X206959220Y-92003557D02*
X206911601Y-91955938D01*
X206911601Y-91955938D02*
X206816363Y-91908319D01*
D11*
X204985927Y-92790714D02*
X205414498Y-92790714D01*
X205200213Y-92790714D02*
X205200213Y-92040714D01*
X205200213Y-92040714D02*
X205271641Y-92147857D01*
X205271641Y-92147857D02*
X205343070Y-92219285D01*
X205343070Y-92219285D02*
X205414498Y-92255000D01*
X204664498Y-92719285D02*
X204628784Y-92755000D01*
X204628784Y-92755000D02*
X204664498Y-92790714D01*
X204664498Y-92790714D02*
X204700212Y-92755000D01*
X204700212Y-92755000D02*
X204664498Y-92719285D01*
X204664498Y-92719285D02*
X204664498Y-92790714D01*
X203914498Y-92790714D02*
X204343069Y-92790714D01*
X204128784Y-92790714D02*
X204128784Y-92040714D01*
X204128784Y-92040714D02*
X204200212Y-92147857D01*
X204200212Y-92147857D02*
X204271641Y-92219285D01*
X204271641Y-92219285D02*
X204343069Y-92255000D01*
X203593069Y-92790714D02*
X203593069Y-92040714D01*
X203521641Y-92505000D02*
X203307355Y-92790714D01*
X203307355Y-92290714D02*
X203593069Y-92576428D01*
X203021640Y-92790714D02*
X202843069Y-92790714D01*
X202843069Y-92790714D02*
X202843069Y-92647857D01*
X202843069Y-92647857D02*
X202914498Y-92612142D01*
X202914498Y-92612142D02*
X202985926Y-92540714D01*
X202985926Y-92540714D02*
X203021640Y-92433571D01*
X203021640Y-92433571D02*
X203021640Y-92255000D01*
X203021640Y-92255000D02*
X202985926Y-92147857D01*
X202985926Y-92147857D02*
X202914498Y-92076428D01*
X202914498Y-92076428D02*
X202807355Y-92040714D01*
X202807355Y-92040714D02*
X202664498Y-92040714D01*
X202664498Y-92040714D02*
X202557355Y-92076428D01*
X202557355Y-92076428D02*
X202485926Y-92147857D01*
X202485926Y-92147857D02*
X202450212Y-92255000D01*
X202450212Y-92255000D02*
X202450212Y-92433571D01*
X202450212Y-92433571D02*
X202485926Y-92540714D01*
X202485926Y-92540714D02*
X202557355Y-92612142D01*
X202557355Y-92612142D02*
X202628783Y-92647857D01*
X202628783Y-92647857D02*
X202628783Y-92790714D01*
X202628783Y-92790714D02*
X202450212Y-92790714D01*
D10*
X208387792Y-75128319D02*
X208721125Y-74652128D01*
X208959220Y-75128319D02*
X208959220Y-74128319D01*
X208959220Y-74128319D02*
X208578268Y-74128319D01*
X208578268Y-74128319D02*
X208483030Y-74175938D01*
X208483030Y-74175938D02*
X208435411Y-74223557D01*
X208435411Y-74223557D02*
X208387792Y-74318795D01*
X208387792Y-74318795D02*
X208387792Y-74461652D01*
X208387792Y-74461652D02*
X208435411Y-74556890D01*
X208435411Y-74556890D02*
X208483030Y-74604509D01*
X208483030Y-74604509D02*
X208578268Y-74652128D01*
X208578268Y-74652128D02*
X208959220Y-74652128D01*
X208054458Y-74128319D02*
X207435411Y-74128319D01*
X207435411Y-74128319D02*
X207768744Y-74509271D01*
X207768744Y-74509271D02*
X207625887Y-74509271D01*
X207625887Y-74509271D02*
X207530649Y-74556890D01*
X207530649Y-74556890D02*
X207483030Y-74604509D01*
X207483030Y-74604509D02*
X207435411Y-74699747D01*
X207435411Y-74699747D02*
X207435411Y-74937842D01*
X207435411Y-74937842D02*
X207483030Y-75033080D01*
X207483030Y-75033080D02*
X207530649Y-75080700D01*
X207530649Y-75080700D02*
X207625887Y-75128319D01*
X207625887Y-75128319D02*
X207911601Y-75128319D01*
X207911601Y-75128319D02*
X208006839Y-75080700D01*
X208006839Y-75080700D02*
X208054458Y-75033080D01*
X206816363Y-74128319D02*
X206721125Y-74128319D01*
X206721125Y-74128319D02*
X206625887Y-74175938D01*
X206625887Y-74175938D02*
X206578268Y-74223557D01*
X206578268Y-74223557D02*
X206530649Y-74318795D01*
X206530649Y-74318795D02*
X206483030Y-74509271D01*
X206483030Y-74509271D02*
X206483030Y-74747366D01*
X206483030Y-74747366D02*
X206530649Y-74937842D01*
X206530649Y-74937842D02*
X206578268Y-75033080D01*
X206578268Y-75033080D02*
X206625887Y-75080700D01*
X206625887Y-75080700D02*
X206721125Y-75128319D01*
X206721125Y-75128319D02*
X206816363Y-75128319D01*
X206816363Y-75128319D02*
X206911601Y-75080700D01*
X206911601Y-75080700D02*
X206959220Y-75033080D01*
X206959220Y-75033080D02*
X207006839Y-74937842D01*
X207006839Y-74937842D02*
X207054458Y-74747366D01*
X207054458Y-74747366D02*
X207054458Y-74509271D01*
X207054458Y-74509271D02*
X207006839Y-74318795D01*
X207006839Y-74318795D02*
X206959220Y-74223557D01*
X206959220Y-74223557D02*
X206911601Y-74175938D01*
X206911601Y-74175938D02*
X206816363Y-74128319D01*
D11*
X204985927Y-75010714D02*
X205414498Y-75010714D01*
X205200213Y-75010714D02*
X205200213Y-74260714D01*
X205200213Y-74260714D02*
X205271641Y-74367857D01*
X205271641Y-74367857D02*
X205343070Y-74439285D01*
X205343070Y-74439285D02*
X205414498Y-74475000D01*
X204664498Y-74939285D02*
X204628784Y-74975000D01*
X204628784Y-74975000D02*
X204664498Y-75010714D01*
X204664498Y-75010714D02*
X204700212Y-74975000D01*
X204700212Y-74975000D02*
X204664498Y-74939285D01*
X204664498Y-74939285D02*
X204664498Y-75010714D01*
X203914498Y-75010714D02*
X204343069Y-75010714D01*
X204128784Y-75010714D02*
X204128784Y-74260714D01*
X204128784Y-74260714D02*
X204200212Y-74367857D01*
X204200212Y-74367857D02*
X204271641Y-74439285D01*
X204271641Y-74439285D02*
X204343069Y-74475000D01*
X203593069Y-75010714D02*
X203593069Y-74260714D01*
X203521641Y-74725000D02*
X203307355Y-75010714D01*
X203307355Y-74510714D02*
X203593069Y-74796428D01*
X203021640Y-75010714D02*
X202843069Y-75010714D01*
X202843069Y-75010714D02*
X202843069Y-74867857D01*
X202843069Y-74867857D02*
X202914498Y-74832142D01*
X202914498Y-74832142D02*
X202985926Y-74760714D01*
X202985926Y-74760714D02*
X203021640Y-74653571D01*
X203021640Y-74653571D02*
X203021640Y-74475000D01*
X203021640Y-74475000D02*
X202985926Y-74367857D01*
X202985926Y-74367857D02*
X202914498Y-74296428D01*
X202914498Y-74296428D02*
X202807355Y-74260714D01*
X202807355Y-74260714D02*
X202664498Y-74260714D01*
X202664498Y-74260714D02*
X202557355Y-74296428D01*
X202557355Y-74296428D02*
X202485926Y-74367857D01*
X202485926Y-74367857D02*
X202450212Y-74475000D01*
X202450212Y-74475000D02*
X202450212Y-74653571D01*
X202450212Y-74653571D02*
X202485926Y-74760714D01*
X202485926Y-74760714D02*
X202557355Y-74832142D01*
X202557355Y-74832142D02*
X202628783Y-74867857D01*
X202628783Y-74867857D02*
X202628783Y-75010714D01*
X202628783Y-75010714D02*
X202450212Y-75010714D01*
D10*
X202194819Y-27729661D02*
X202194819Y-27253471D01*
X202194819Y-27253471D02*
X201194819Y-27253471D01*
X201671009Y-28062995D02*
X201671009Y-28396328D01*
X202194819Y-28539185D02*
X202194819Y-28062995D01*
X202194819Y-28062995D02*
X201194819Y-28062995D01*
X201194819Y-28062995D02*
X201194819Y-28539185D01*
X202194819Y-28967757D02*
X201194819Y-28967757D01*
X201194819Y-28967757D02*
X201194819Y-29205852D01*
X201194819Y-29205852D02*
X201242438Y-29348709D01*
X201242438Y-29348709D02*
X201337676Y-29443947D01*
X201337676Y-29443947D02*
X201432914Y-29491566D01*
X201432914Y-29491566D02*
X201623390Y-29539185D01*
X201623390Y-29539185D02*
X201766247Y-29539185D01*
X201766247Y-29539185D02*
X201956723Y-29491566D01*
X201956723Y-29491566D02*
X202051961Y-29443947D01*
X202051961Y-29443947D02*
X202147200Y-29348709D01*
X202147200Y-29348709D02*
X202194819Y-29205852D01*
X202194819Y-29205852D02*
X202194819Y-28967757D01*
X202194819Y-30491566D02*
X202194819Y-29920138D01*
X202194819Y-30205852D02*
X201194819Y-30205852D01*
X201194819Y-30205852D02*
X201337676Y-30110614D01*
X201337676Y-30110614D02*
X201432914Y-30015376D01*
X201432914Y-30015376D02*
X201480533Y-29920138D01*
X201194819Y-31110614D02*
X201194819Y-31205852D01*
X201194819Y-31205852D02*
X201242438Y-31301090D01*
X201242438Y-31301090D02*
X201290057Y-31348709D01*
X201290057Y-31348709D02*
X201385295Y-31396328D01*
X201385295Y-31396328D02*
X201575771Y-31443947D01*
X201575771Y-31443947D02*
X201813866Y-31443947D01*
X201813866Y-31443947D02*
X202004342Y-31396328D01*
X202004342Y-31396328D02*
X202099580Y-31348709D01*
X202099580Y-31348709D02*
X202147200Y-31301090D01*
X202147200Y-31301090D02*
X202194819Y-31205852D01*
X202194819Y-31205852D02*
X202194819Y-31110614D01*
X202194819Y-31110614D02*
X202147200Y-31015376D01*
X202147200Y-31015376D02*
X202099580Y-30967757D01*
X202099580Y-30967757D02*
X202004342Y-30920138D01*
X202004342Y-30920138D02*
X201813866Y-30872519D01*
X201813866Y-30872519D02*
X201575771Y-30872519D01*
X201575771Y-30872519D02*
X201385295Y-30920138D01*
X201385295Y-30920138D02*
X201290057Y-30967757D01*
X201290057Y-30967757D02*
X201242438Y-31015376D01*
X201242438Y-31015376D02*
X201194819Y-31110614D01*
X210199580Y-25562995D02*
X210247200Y-25515376D01*
X210247200Y-25515376D02*
X210294819Y-25372519D01*
X210294819Y-25372519D02*
X210294819Y-25277281D01*
X210294819Y-25277281D02*
X210247200Y-25134424D01*
X210247200Y-25134424D02*
X210151961Y-25039186D01*
X210151961Y-25039186D02*
X210056723Y-24991567D01*
X210056723Y-24991567D02*
X209866247Y-24943948D01*
X209866247Y-24943948D02*
X209723390Y-24943948D01*
X209723390Y-24943948D02*
X209532914Y-24991567D01*
X209532914Y-24991567D02*
X209437676Y-25039186D01*
X209437676Y-25039186D02*
X209342438Y-25134424D01*
X209342438Y-25134424D02*
X209294819Y-25277281D01*
X209294819Y-25277281D02*
X209294819Y-25372519D01*
X209294819Y-25372519D02*
X209342438Y-25515376D01*
X209342438Y-25515376D02*
X209390057Y-25562995D01*
X209294819Y-26467757D02*
X209294819Y-25991567D01*
X209294819Y-25991567D02*
X209771009Y-25943948D01*
X209771009Y-25943948D02*
X209723390Y-25991567D01*
X209723390Y-25991567D02*
X209675771Y-26086805D01*
X209675771Y-26086805D02*
X209675771Y-26324900D01*
X209675771Y-26324900D02*
X209723390Y-26420138D01*
X209723390Y-26420138D02*
X209771009Y-26467757D01*
X209771009Y-26467757D02*
X209866247Y-26515376D01*
X209866247Y-26515376D02*
X210104342Y-26515376D01*
X210104342Y-26515376D02*
X210199580Y-26467757D01*
X210199580Y-26467757D02*
X210247200Y-26420138D01*
X210247200Y-26420138D02*
X210294819Y-26324900D01*
X210294819Y-26324900D02*
X210294819Y-26086805D01*
X210294819Y-26086805D02*
X210247200Y-25991567D01*
X210247200Y-25991567D02*
X210199580Y-25943948D01*
X209294819Y-27134424D02*
X209294819Y-27229662D01*
X209294819Y-27229662D02*
X209342438Y-27324900D01*
X209342438Y-27324900D02*
X209390057Y-27372519D01*
X209390057Y-27372519D02*
X209485295Y-27420138D01*
X209485295Y-27420138D02*
X209675771Y-27467757D01*
X209675771Y-27467757D02*
X209913866Y-27467757D01*
X209913866Y-27467757D02*
X210104342Y-27420138D01*
X210104342Y-27420138D02*
X210199580Y-27372519D01*
X210199580Y-27372519D02*
X210247200Y-27324900D01*
X210247200Y-27324900D02*
X210294819Y-27229662D01*
X210294819Y-27229662D02*
X210294819Y-27134424D01*
X210294819Y-27134424D02*
X210247200Y-27039186D01*
X210247200Y-27039186D02*
X210199580Y-26991567D01*
X210199580Y-26991567D02*
X210104342Y-26943948D01*
X210104342Y-26943948D02*
X209913866Y-26896329D01*
X209913866Y-26896329D02*
X209675771Y-26896329D01*
X209675771Y-26896329D02*
X209485295Y-26943948D01*
X209485295Y-26943948D02*
X209390057Y-26991567D01*
X209390057Y-26991567D02*
X209342438Y-27039186D01*
X209342438Y-27039186D02*
X209294819Y-27134424D01*
X209294819Y-27801091D02*
X209294819Y-28420138D01*
X209294819Y-28420138D02*
X209675771Y-28086805D01*
X209675771Y-28086805D02*
X209675771Y-28229662D01*
X209675771Y-28229662D02*
X209723390Y-28324900D01*
X209723390Y-28324900D02*
X209771009Y-28372519D01*
X209771009Y-28372519D02*
X209866247Y-28420138D01*
X209866247Y-28420138D02*
X210104342Y-28420138D01*
X210104342Y-28420138D02*
X210199580Y-28372519D01*
X210199580Y-28372519D02*
X210247200Y-28324900D01*
X210247200Y-28324900D02*
X210294819Y-28229662D01*
X210294819Y-28229662D02*
X210294819Y-27943948D01*
X210294819Y-27943948D02*
X210247200Y-27848710D01*
X210247200Y-27848710D02*
X210199580Y-27801091D01*
X209771009Y-29182043D02*
X209818628Y-29324900D01*
X209818628Y-29324900D02*
X209866247Y-29372519D01*
X209866247Y-29372519D02*
X209961485Y-29420138D01*
X209961485Y-29420138D02*
X210104342Y-29420138D01*
X210104342Y-29420138D02*
X210199580Y-29372519D01*
X210199580Y-29372519D02*
X210247200Y-29324900D01*
X210247200Y-29324900D02*
X210294819Y-29229662D01*
X210294819Y-29229662D02*
X210294819Y-28848710D01*
X210294819Y-28848710D02*
X209294819Y-28848710D01*
X209294819Y-28848710D02*
X209294819Y-29182043D01*
X209294819Y-29182043D02*
X209342438Y-29277281D01*
X209342438Y-29277281D02*
X209390057Y-29324900D01*
X209390057Y-29324900D02*
X209485295Y-29372519D01*
X209485295Y-29372519D02*
X209580533Y-29372519D01*
X209580533Y-29372519D02*
X209675771Y-29324900D01*
X209675771Y-29324900D02*
X209723390Y-29277281D01*
X209723390Y-29277281D02*
X209771009Y-29182043D01*
X209771009Y-29182043D02*
X209771009Y-28848710D01*
X209913866Y-29848710D02*
X209913866Y-30610615D01*
X209771009Y-31420138D02*
X209818628Y-31562995D01*
X209818628Y-31562995D02*
X209866247Y-31610614D01*
X209866247Y-31610614D02*
X209961485Y-31658233D01*
X209961485Y-31658233D02*
X210104342Y-31658233D01*
X210104342Y-31658233D02*
X210199580Y-31610614D01*
X210199580Y-31610614D02*
X210247200Y-31562995D01*
X210247200Y-31562995D02*
X210294819Y-31467757D01*
X210294819Y-31467757D02*
X210294819Y-31086805D01*
X210294819Y-31086805D02*
X209294819Y-31086805D01*
X209294819Y-31086805D02*
X209294819Y-31420138D01*
X209294819Y-31420138D02*
X209342438Y-31515376D01*
X209342438Y-31515376D02*
X209390057Y-31562995D01*
X209390057Y-31562995D02*
X209485295Y-31610614D01*
X209485295Y-31610614D02*
X209580533Y-31610614D01*
X209580533Y-31610614D02*
X209675771Y-31562995D01*
X209675771Y-31562995D02*
X209723390Y-31515376D01*
X209723390Y-31515376D02*
X209771009Y-31420138D01*
X209771009Y-31420138D02*
X209771009Y-31086805D01*
X210199580Y-32658233D02*
X210247200Y-32610614D01*
X210247200Y-32610614D02*
X210294819Y-32467757D01*
X210294819Y-32467757D02*
X210294819Y-32372519D01*
X210294819Y-32372519D02*
X210247200Y-32229662D01*
X210247200Y-32229662D02*
X210151961Y-32134424D01*
X210151961Y-32134424D02*
X210056723Y-32086805D01*
X210056723Y-32086805D02*
X209866247Y-32039186D01*
X209866247Y-32039186D02*
X209723390Y-32039186D01*
X209723390Y-32039186D02*
X209532914Y-32086805D01*
X209532914Y-32086805D02*
X209437676Y-32134424D01*
X209437676Y-32134424D02*
X209342438Y-32229662D01*
X209342438Y-32229662D02*
X209294819Y-32372519D01*
X209294819Y-32372519D02*
X209294819Y-32467757D01*
X209294819Y-32467757D02*
X209342438Y-32610614D01*
X209342438Y-32610614D02*
X209390057Y-32658233D01*
X210294819Y-33086805D02*
X209294819Y-33086805D01*
X209294819Y-33086805D02*
X210294819Y-33658233D01*
X210294819Y-33658233D02*
X209294819Y-33658233D01*
X202194819Y-81069661D02*
X202194819Y-80593471D01*
X202194819Y-80593471D02*
X201194819Y-80593471D01*
X201671009Y-81402995D02*
X201671009Y-81736328D01*
X202194819Y-81879185D02*
X202194819Y-81402995D01*
X202194819Y-81402995D02*
X201194819Y-81402995D01*
X201194819Y-81402995D02*
X201194819Y-81879185D01*
X202194819Y-82307757D02*
X201194819Y-82307757D01*
X201194819Y-82307757D02*
X201194819Y-82545852D01*
X201194819Y-82545852D02*
X201242438Y-82688709D01*
X201242438Y-82688709D02*
X201337676Y-82783947D01*
X201337676Y-82783947D02*
X201432914Y-82831566D01*
X201432914Y-82831566D02*
X201623390Y-82879185D01*
X201623390Y-82879185D02*
X201766247Y-82879185D01*
X201766247Y-82879185D02*
X201956723Y-82831566D01*
X201956723Y-82831566D02*
X202051961Y-82783947D01*
X202051961Y-82783947D02*
X202147200Y-82688709D01*
X202147200Y-82688709D02*
X202194819Y-82545852D01*
X202194819Y-82545852D02*
X202194819Y-82307757D01*
X201528152Y-83736328D02*
X202194819Y-83736328D01*
X201147200Y-83498233D02*
X201861485Y-83260138D01*
X201861485Y-83260138D02*
X201861485Y-83879185D01*
X201194819Y-84450614D02*
X201194819Y-84545852D01*
X201194819Y-84545852D02*
X201242438Y-84641090D01*
X201242438Y-84641090D02*
X201290057Y-84688709D01*
X201290057Y-84688709D02*
X201385295Y-84736328D01*
X201385295Y-84736328D02*
X201575771Y-84783947D01*
X201575771Y-84783947D02*
X201813866Y-84783947D01*
X201813866Y-84783947D02*
X202004342Y-84736328D01*
X202004342Y-84736328D02*
X202099580Y-84688709D01*
X202099580Y-84688709D02*
X202147200Y-84641090D01*
X202147200Y-84641090D02*
X202194819Y-84545852D01*
X202194819Y-84545852D02*
X202194819Y-84450614D01*
X202194819Y-84450614D02*
X202147200Y-84355376D01*
X202147200Y-84355376D02*
X202099580Y-84307757D01*
X202099580Y-84307757D02*
X202004342Y-84260138D01*
X202004342Y-84260138D02*
X201813866Y-84212519D01*
X201813866Y-84212519D02*
X201575771Y-84212519D01*
X201575771Y-84212519D02*
X201385295Y-84260138D01*
X201385295Y-84260138D02*
X201290057Y-84307757D01*
X201290057Y-84307757D02*
X201242438Y-84355376D01*
X201242438Y-84355376D02*
X201194819Y-84450614D01*
X210199580Y-78902995D02*
X210247200Y-78855376D01*
X210247200Y-78855376D02*
X210294819Y-78712519D01*
X210294819Y-78712519D02*
X210294819Y-78617281D01*
X210294819Y-78617281D02*
X210247200Y-78474424D01*
X210247200Y-78474424D02*
X210151961Y-78379186D01*
X210151961Y-78379186D02*
X210056723Y-78331567D01*
X210056723Y-78331567D02*
X209866247Y-78283948D01*
X209866247Y-78283948D02*
X209723390Y-78283948D01*
X209723390Y-78283948D02*
X209532914Y-78331567D01*
X209532914Y-78331567D02*
X209437676Y-78379186D01*
X209437676Y-78379186D02*
X209342438Y-78474424D01*
X209342438Y-78474424D02*
X209294819Y-78617281D01*
X209294819Y-78617281D02*
X209294819Y-78712519D01*
X209294819Y-78712519D02*
X209342438Y-78855376D01*
X209342438Y-78855376D02*
X209390057Y-78902995D01*
X209294819Y-79807757D02*
X209294819Y-79331567D01*
X209294819Y-79331567D02*
X209771009Y-79283948D01*
X209771009Y-79283948D02*
X209723390Y-79331567D01*
X209723390Y-79331567D02*
X209675771Y-79426805D01*
X209675771Y-79426805D02*
X209675771Y-79664900D01*
X209675771Y-79664900D02*
X209723390Y-79760138D01*
X209723390Y-79760138D02*
X209771009Y-79807757D01*
X209771009Y-79807757D02*
X209866247Y-79855376D01*
X209866247Y-79855376D02*
X210104342Y-79855376D01*
X210104342Y-79855376D02*
X210199580Y-79807757D01*
X210199580Y-79807757D02*
X210247200Y-79760138D01*
X210247200Y-79760138D02*
X210294819Y-79664900D01*
X210294819Y-79664900D02*
X210294819Y-79426805D01*
X210294819Y-79426805D02*
X210247200Y-79331567D01*
X210247200Y-79331567D02*
X210199580Y-79283948D01*
X209294819Y-80474424D02*
X209294819Y-80569662D01*
X209294819Y-80569662D02*
X209342438Y-80664900D01*
X209342438Y-80664900D02*
X209390057Y-80712519D01*
X209390057Y-80712519D02*
X209485295Y-80760138D01*
X209485295Y-80760138D02*
X209675771Y-80807757D01*
X209675771Y-80807757D02*
X209913866Y-80807757D01*
X209913866Y-80807757D02*
X210104342Y-80760138D01*
X210104342Y-80760138D02*
X210199580Y-80712519D01*
X210199580Y-80712519D02*
X210247200Y-80664900D01*
X210247200Y-80664900D02*
X210294819Y-80569662D01*
X210294819Y-80569662D02*
X210294819Y-80474424D01*
X210294819Y-80474424D02*
X210247200Y-80379186D01*
X210247200Y-80379186D02*
X210199580Y-80331567D01*
X210199580Y-80331567D02*
X210104342Y-80283948D01*
X210104342Y-80283948D02*
X209913866Y-80236329D01*
X209913866Y-80236329D02*
X209675771Y-80236329D01*
X209675771Y-80236329D02*
X209485295Y-80283948D01*
X209485295Y-80283948D02*
X209390057Y-80331567D01*
X209390057Y-80331567D02*
X209342438Y-80379186D01*
X209342438Y-80379186D02*
X209294819Y-80474424D01*
X209294819Y-81141091D02*
X209294819Y-81760138D01*
X209294819Y-81760138D02*
X209675771Y-81426805D01*
X209675771Y-81426805D02*
X209675771Y-81569662D01*
X209675771Y-81569662D02*
X209723390Y-81664900D01*
X209723390Y-81664900D02*
X209771009Y-81712519D01*
X209771009Y-81712519D02*
X209866247Y-81760138D01*
X209866247Y-81760138D02*
X210104342Y-81760138D01*
X210104342Y-81760138D02*
X210199580Y-81712519D01*
X210199580Y-81712519D02*
X210247200Y-81664900D01*
X210247200Y-81664900D02*
X210294819Y-81569662D01*
X210294819Y-81569662D02*
X210294819Y-81283948D01*
X210294819Y-81283948D02*
X210247200Y-81188710D01*
X210247200Y-81188710D02*
X210199580Y-81141091D01*
X209771009Y-82522043D02*
X209818628Y-82664900D01*
X209818628Y-82664900D02*
X209866247Y-82712519D01*
X209866247Y-82712519D02*
X209961485Y-82760138D01*
X209961485Y-82760138D02*
X210104342Y-82760138D01*
X210104342Y-82760138D02*
X210199580Y-82712519D01*
X210199580Y-82712519D02*
X210247200Y-82664900D01*
X210247200Y-82664900D02*
X210294819Y-82569662D01*
X210294819Y-82569662D02*
X210294819Y-82188710D01*
X210294819Y-82188710D02*
X209294819Y-82188710D01*
X209294819Y-82188710D02*
X209294819Y-82522043D01*
X209294819Y-82522043D02*
X209342438Y-82617281D01*
X209342438Y-82617281D02*
X209390057Y-82664900D01*
X209390057Y-82664900D02*
X209485295Y-82712519D01*
X209485295Y-82712519D02*
X209580533Y-82712519D01*
X209580533Y-82712519D02*
X209675771Y-82664900D01*
X209675771Y-82664900D02*
X209723390Y-82617281D01*
X209723390Y-82617281D02*
X209771009Y-82522043D01*
X209771009Y-82522043D02*
X209771009Y-82188710D01*
X209913866Y-83188710D02*
X209913866Y-83950615D01*
X209771009Y-84760138D02*
X209818628Y-84902995D01*
X209818628Y-84902995D02*
X209866247Y-84950614D01*
X209866247Y-84950614D02*
X209961485Y-84998233D01*
X209961485Y-84998233D02*
X210104342Y-84998233D01*
X210104342Y-84998233D02*
X210199580Y-84950614D01*
X210199580Y-84950614D02*
X210247200Y-84902995D01*
X210247200Y-84902995D02*
X210294819Y-84807757D01*
X210294819Y-84807757D02*
X210294819Y-84426805D01*
X210294819Y-84426805D02*
X209294819Y-84426805D01*
X209294819Y-84426805D02*
X209294819Y-84760138D01*
X209294819Y-84760138D02*
X209342438Y-84855376D01*
X209342438Y-84855376D02*
X209390057Y-84902995D01*
X209390057Y-84902995D02*
X209485295Y-84950614D01*
X209485295Y-84950614D02*
X209580533Y-84950614D01*
X209580533Y-84950614D02*
X209675771Y-84902995D01*
X209675771Y-84902995D02*
X209723390Y-84855376D01*
X209723390Y-84855376D02*
X209771009Y-84760138D01*
X209771009Y-84760138D02*
X209771009Y-84426805D01*
X210199580Y-85998233D02*
X210247200Y-85950614D01*
X210247200Y-85950614D02*
X210294819Y-85807757D01*
X210294819Y-85807757D02*
X210294819Y-85712519D01*
X210294819Y-85712519D02*
X210247200Y-85569662D01*
X210247200Y-85569662D02*
X210151961Y-85474424D01*
X210151961Y-85474424D02*
X210056723Y-85426805D01*
X210056723Y-85426805D02*
X209866247Y-85379186D01*
X209866247Y-85379186D02*
X209723390Y-85379186D01*
X209723390Y-85379186D02*
X209532914Y-85426805D01*
X209532914Y-85426805D02*
X209437676Y-85474424D01*
X209437676Y-85474424D02*
X209342438Y-85569662D01*
X209342438Y-85569662D02*
X209294819Y-85712519D01*
X209294819Y-85712519D02*
X209294819Y-85807757D01*
X209294819Y-85807757D02*
X209342438Y-85950614D01*
X209342438Y-85950614D02*
X209390057Y-85998233D01*
X210294819Y-86426805D02*
X209294819Y-86426805D01*
X209294819Y-86426805D02*
X210294819Y-86998233D01*
X210294819Y-86998233D02*
X209294819Y-86998233D01*
X202194819Y-45509661D02*
X202194819Y-45033471D01*
X202194819Y-45033471D02*
X201194819Y-45033471D01*
X201671009Y-45842995D02*
X201671009Y-46176328D01*
X202194819Y-46319185D02*
X202194819Y-45842995D01*
X202194819Y-45842995D02*
X201194819Y-45842995D01*
X201194819Y-45842995D02*
X201194819Y-46319185D01*
X202194819Y-46747757D02*
X201194819Y-46747757D01*
X201194819Y-46747757D02*
X201194819Y-46985852D01*
X201194819Y-46985852D02*
X201242438Y-47128709D01*
X201242438Y-47128709D02*
X201337676Y-47223947D01*
X201337676Y-47223947D02*
X201432914Y-47271566D01*
X201432914Y-47271566D02*
X201623390Y-47319185D01*
X201623390Y-47319185D02*
X201766247Y-47319185D01*
X201766247Y-47319185D02*
X201956723Y-47271566D01*
X201956723Y-47271566D02*
X202051961Y-47223947D01*
X202051961Y-47223947D02*
X202147200Y-47128709D01*
X202147200Y-47128709D02*
X202194819Y-46985852D01*
X202194819Y-46985852D02*
X202194819Y-46747757D01*
X201290057Y-47700138D02*
X201242438Y-47747757D01*
X201242438Y-47747757D02*
X201194819Y-47842995D01*
X201194819Y-47842995D02*
X201194819Y-48081090D01*
X201194819Y-48081090D02*
X201242438Y-48176328D01*
X201242438Y-48176328D02*
X201290057Y-48223947D01*
X201290057Y-48223947D02*
X201385295Y-48271566D01*
X201385295Y-48271566D02*
X201480533Y-48271566D01*
X201480533Y-48271566D02*
X201623390Y-48223947D01*
X201623390Y-48223947D02*
X202194819Y-47652519D01*
X202194819Y-47652519D02*
X202194819Y-48271566D01*
X201194819Y-48890614D02*
X201194819Y-48985852D01*
X201194819Y-48985852D02*
X201242438Y-49081090D01*
X201242438Y-49081090D02*
X201290057Y-49128709D01*
X201290057Y-49128709D02*
X201385295Y-49176328D01*
X201385295Y-49176328D02*
X201575771Y-49223947D01*
X201575771Y-49223947D02*
X201813866Y-49223947D01*
X201813866Y-49223947D02*
X202004342Y-49176328D01*
X202004342Y-49176328D02*
X202099580Y-49128709D01*
X202099580Y-49128709D02*
X202147200Y-49081090D01*
X202147200Y-49081090D02*
X202194819Y-48985852D01*
X202194819Y-48985852D02*
X202194819Y-48890614D01*
X202194819Y-48890614D02*
X202147200Y-48795376D01*
X202147200Y-48795376D02*
X202099580Y-48747757D01*
X202099580Y-48747757D02*
X202004342Y-48700138D01*
X202004342Y-48700138D02*
X201813866Y-48652519D01*
X201813866Y-48652519D02*
X201575771Y-48652519D01*
X201575771Y-48652519D02*
X201385295Y-48700138D01*
X201385295Y-48700138D02*
X201290057Y-48747757D01*
X201290057Y-48747757D02*
X201242438Y-48795376D01*
X201242438Y-48795376D02*
X201194819Y-48890614D01*
X210199580Y-43342995D02*
X210247200Y-43295376D01*
X210247200Y-43295376D02*
X210294819Y-43152519D01*
X210294819Y-43152519D02*
X210294819Y-43057281D01*
X210294819Y-43057281D02*
X210247200Y-42914424D01*
X210247200Y-42914424D02*
X210151961Y-42819186D01*
X210151961Y-42819186D02*
X210056723Y-42771567D01*
X210056723Y-42771567D02*
X209866247Y-42723948D01*
X209866247Y-42723948D02*
X209723390Y-42723948D01*
X209723390Y-42723948D02*
X209532914Y-42771567D01*
X209532914Y-42771567D02*
X209437676Y-42819186D01*
X209437676Y-42819186D02*
X209342438Y-42914424D01*
X209342438Y-42914424D02*
X209294819Y-43057281D01*
X209294819Y-43057281D02*
X209294819Y-43152519D01*
X209294819Y-43152519D02*
X209342438Y-43295376D01*
X209342438Y-43295376D02*
X209390057Y-43342995D01*
X209294819Y-44247757D02*
X209294819Y-43771567D01*
X209294819Y-43771567D02*
X209771009Y-43723948D01*
X209771009Y-43723948D02*
X209723390Y-43771567D01*
X209723390Y-43771567D02*
X209675771Y-43866805D01*
X209675771Y-43866805D02*
X209675771Y-44104900D01*
X209675771Y-44104900D02*
X209723390Y-44200138D01*
X209723390Y-44200138D02*
X209771009Y-44247757D01*
X209771009Y-44247757D02*
X209866247Y-44295376D01*
X209866247Y-44295376D02*
X210104342Y-44295376D01*
X210104342Y-44295376D02*
X210199580Y-44247757D01*
X210199580Y-44247757D02*
X210247200Y-44200138D01*
X210247200Y-44200138D02*
X210294819Y-44104900D01*
X210294819Y-44104900D02*
X210294819Y-43866805D01*
X210294819Y-43866805D02*
X210247200Y-43771567D01*
X210247200Y-43771567D02*
X210199580Y-43723948D01*
X209294819Y-44914424D02*
X209294819Y-45009662D01*
X209294819Y-45009662D02*
X209342438Y-45104900D01*
X209342438Y-45104900D02*
X209390057Y-45152519D01*
X209390057Y-45152519D02*
X209485295Y-45200138D01*
X209485295Y-45200138D02*
X209675771Y-45247757D01*
X209675771Y-45247757D02*
X209913866Y-45247757D01*
X209913866Y-45247757D02*
X210104342Y-45200138D01*
X210104342Y-45200138D02*
X210199580Y-45152519D01*
X210199580Y-45152519D02*
X210247200Y-45104900D01*
X210247200Y-45104900D02*
X210294819Y-45009662D01*
X210294819Y-45009662D02*
X210294819Y-44914424D01*
X210294819Y-44914424D02*
X210247200Y-44819186D01*
X210247200Y-44819186D02*
X210199580Y-44771567D01*
X210199580Y-44771567D02*
X210104342Y-44723948D01*
X210104342Y-44723948D02*
X209913866Y-44676329D01*
X209913866Y-44676329D02*
X209675771Y-44676329D01*
X209675771Y-44676329D02*
X209485295Y-44723948D01*
X209485295Y-44723948D02*
X209390057Y-44771567D01*
X209390057Y-44771567D02*
X209342438Y-44819186D01*
X209342438Y-44819186D02*
X209294819Y-44914424D01*
X209294819Y-45581091D02*
X209294819Y-46200138D01*
X209294819Y-46200138D02*
X209675771Y-45866805D01*
X209675771Y-45866805D02*
X209675771Y-46009662D01*
X209675771Y-46009662D02*
X209723390Y-46104900D01*
X209723390Y-46104900D02*
X209771009Y-46152519D01*
X209771009Y-46152519D02*
X209866247Y-46200138D01*
X209866247Y-46200138D02*
X210104342Y-46200138D01*
X210104342Y-46200138D02*
X210199580Y-46152519D01*
X210199580Y-46152519D02*
X210247200Y-46104900D01*
X210247200Y-46104900D02*
X210294819Y-46009662D01*
X210294819Y-46009662D02*
X210294819Y-45723948D01*
X210294819Y-45723948D02*
X210247200Y-45628710D01*
X210247200Y-45628710D02*
X210199580Y-45581091D01*
X209771009Y-46962043D02*
X209818628Y-47104900D01*
X209818628Y-47104900D02*
X209866247Y-47152519D01*
X209866247Y-47152519D02*
X209961485Y-47200138D01*
X209961485Y-47200138D02*
X210104342Y-47200138D01*
X210104342Y-47200138D02*
X210199580Y-47152519D01*
X210199580Y-47152519D02*
X210247200Y-47104900D01*
X210247200Y-47104900D02*
X210294819Y-47009662D01*
X210294819Y-47009662D02*
X210294819Y-46628710D01*
X210294819Y-46628710D02*
X209294819Y-46628710D01*
X209294819Y-46628710D02*
X209294819Y-46962043D01*
X209294819Y-46962043D02*
X209342438Y-47057281D01*
X209342438Y-47057281D02*
X209390057Y-47104900D01*
X209390057Y-47104900D02*
X209485295Y-47152519D01*
X209485295Y-47152519D02*
X209580533Y-47152519D01*
X209580533Y-47152519D02*
X209675771Y-47104900D01*
X209675771Y-47104900D02*
X209723390Y-47057281D01*
X209723390Y-47057281D02*
X209771009Y-46962043D01*
X209771009Y-46962043D02*
X209771009Y-46628710D01*
X209913866Y-47628710D02*
X209913866Y-48390615D01*
X209771009Y-49200138D02*
X209818628Y-49342995D01*
X209818628Y-49342995D02*
X209866247Y-49390614D01*
X209866247Y-49390614D02*
X209961485Y-49438233D01*
X209961485Y-49438233D02*
X210104342Y-49438233D01*
X210104342Y-49438233D02*
X210199580Y-49390614D01*
X210199580Y-49390614D02*
X210247200Y-49342995D01*
X210247200Y-49342995D02*
X210294819Y-49247757D01*
X210294819Y-49247757D02*
X210294819Y-48866805D01*
X210294819Y-48866805D02*
X209294819Y-48866805D01*
X209294819Y-48866805D02*
X209294819Y-49200138D01*
X209294819Y-49200138D02*
X209342438Y-49295376D01*
X209342438Y-49295376D02*
X209390057Y-49342995D01*
X209390057Y-49342995D02*
X209485295Y-49390614D01*
X209485295Y-49390614D02*
X209580533Y-49390614D01*
X209580533Y-49390614D02*
X209675771Y-49342995D01*
X209675771Y-49342995D02*
X209723390Y-49295376D01*
X209723390Y-49295376D02*
X209771009Y-49200138D01*
X209771009Y-49200138D02*
X209771009Y-48866805D01*
X210199580Y-50438233D02*
X210247200Y-50390614D01*
X210247200Y-50390614D02*
X210294819Y-50247757D01*
X210294819Y-50247757D02*
X210294819Y-50152519D01*
X210294819Y-50152519D02*
X210247200Y-50009662D01*
X210247200Y-50009662D02*
X210151961Y-49914424D01*
X210151961Y-49914424D02*
X210056723Y-49866805D01*
X210056723Y-49866805D02*
X209866247Y-49819186D01*
X209866247Y-49819186D02*
X209723390Y-49819186D01*
X209723390Y-49819186D02*
X209532914Y-49866805D01*
X209532914Y-49866805D02*
X209437676Y-49914424D01*
X209437676Y-49914424D02*
X209342438Y-50009662D01*
X209342438Y-50009662D02*
X209294819Y-50152519D01*
X209294819Y-50152519D02*
X209294819Y-50247757D01*
X209294819Y-50247757D02*
X209342438Y-50390614D01*
X209342438Y-50390614D02*
X209390057Y-50438233D01*
X210294819Y-50866805D02*
X209294819Y-50866805D01*
X209294819Y-50866805D02*
X210294819Y-51438233D01*
X210294819Y-51438233D02*
X209294819Y-51438233D01*
X208387792Y-57348319D02*
X208721125Y-56872128D01*
X208959220Y-57348319D02*
X208959220Y-56348319D01*
X208959220Y-56348319D02*
X208578268Y-56348319D01*
X208578268Y-56348319D02*
X208483030Y-56395938D01*
X208483030Y-56395938D02*
X208435411Y-56443557D01*
X208435411Y-56443557D02*
X208387792Y-56538795D01*
X208387792Y-56538795D02*
X208387792Y-56681652D01*
X208387792Y-56681652D02*
X208435411Y-56776890D01*
X208435411Y-56776890D02*
X208483030Y-56824509D01*
X208483030Y-56824509D02*
X208578268Y-56872128D01*
X208578268Y-56872128D02*
X208959220Y-56872128D01*
X208006839Y-56443557D02*
X207959220Y-56395938D01*
X207959220Y-56395938D02*
X207863982Y-56348319D01*
X207863982Y-56348319D02*
X207625887Y-56348319D01*
X207625887Y-56348319D02*
X207530649Y-56395938D01*
X207530649Y-56395938D02*
X207483030Y-56443557D01*
X207483030Y-56443557D02*
X207435411Y-56538795D01*
X207435411Y-56538795D02*
X207435411Y-56634033D01*
X207435411Y-56634033D02*
X207483030Y-56776890D01*
X207483030Y-56776890D02*
X208054458Y-57348319D01*
X208054458Y-57348319D02*
X207435411Y-57348319D01*
X206816363Y-56348319D02*
X206721125Y-56348319D01*
X206721125Y-56348319D02*
X206625887Y-56395938D01*
X206625887Y-56395938D02*
X206578268Y-56443557D01*
X206578268Y-56443557D02*
X206530649Y-56538795D01*
X206530649Y-56538795D02*
X206483030Y-56729271D01*
X206483030Y-56729271D02*
X206483030Y-56967366D01*
X206483030Y-56967366D02*
X206530649Y-57157842D01*
X206530649Y-57157842D02*
X206578268Y-57253080D01*
X206578268Y-57253080D02*
X206625887Y-57300700D01*
X206625887Y-57300700D02*
X206721125Y-57348319D01*
X206721125Y-57348319D02*
X206816363Y-57348319D01*
X206816363Y-57348319D02*
X206911601Y-57300700D01*
X206911601Y-57300700D02*
X206959220Y-57253080D01*
X206959220Y-57253080D02*
X207006839Y-57157842D01*
X207006839Y-57157842D02*
X207054458Y-56967366D01*
X207054458Y-56967366D02*
X207054458Y-56729271D01*
X207054458Y-56729271D02*
X207006839Y-56538795D01*
X207006839Y-56538795D02*
X206959220Y-56443557D01*
X206959220Y-56443557D02*
X206911601Y-56395938D01*
X206911601Y-56395938D02*
X206816363Y-56348319D01*
D11*
X204985927Y-57230714D02*
X205414498Y-57230714D01*
X205200213Y-57230714D02*
X205200213Y-56480714D01*
X205200213Y-56480714D02*
X205271641Y-56587857D01*
X205271641Y-56587857D02*
X205343070Y-56659285D01*
X205343070Y-56659285D02*
X205414498Y-56695000D01*
X204664498Y-57159285D02*
X204628784Y-57195000D01*
X204628784Y-57195000D02*
X204664498Y-57230714D01*
X204664498Y-57230714D02*
X204700212Y-57195000D01*
X204700212Y-57195000D02*
X204664498Y-57159285D01*
X204664498Y-57159285D02*
X204664498Y-57230714D01*
X203914498Y-57230714D02*
X204343069Y-57230714D01*
X204128784Y-57230714D02*
X204128784Y-56480714D01*
X204128784Y-56480714D02*
X204200212Y-56587857D01*
X204200212Y-56587857D02*
X204271641Y-56659285D01*
X204271641Y-56659285D02*
X204343069Y-56695000D01*
X203593069Y-57230714D02*
X203593069Y-56480714D01*
X203521641Y-56945000D02*
X203307355Y-57230714D01*
X203307355Y-56730714D02*
X203593069Y-57016428D01*
X203021640Y-57230714D02*
X202843069Y-57230714D01*
X202843069Y-57230714D02*
X202843069Y-57087857D01*
X202843069Y-57087857D02*
X202914498Y-57052142D01*
X202914498Y-57052142D02*
X202985926Y-56980714D01*
X202985926Y-56980714D02*
X203021640Y-56873571D01*
X203021640Y-56873571D02*
X203021640Y-56695000D01*
X203021640Y-56695000D02*
X202985926Y-56587857D01*
X202985926Y-56587857D02*
X202914498Y-56516428D01*
X202914498Y-56516428D02*
X202807355Y-56480714D01*
X202807355Y-56480714D02*
X202664498Y-56480714D01*
X202664498Y-56480714D02*
X202557355Y-56516428D01*
X202557355Y-56516428D02*
X202485926Y-56587857D01*
X202485926Y-56587857D02*
X202450212Y-56695000D01*
X202450212Y-56695000D02*
X202450212Y-56873571D01*
X202450212Y-56873571D02*
X202485926Y-56980714D01*
X202485926Y-56980714D02*
X202557355Y-57052142D01*
X202557355Y-57052142D02*
X202628783Y-57087857D01*
X202628783Y-57087857D02*
X202628783Y-57230714D01*
X202628783Y-57230714D02*
X202450212Y-57230714D01*
D10*
X202194819Y-63289661D02*
X202194819Y-62813471D01*
X202194819Y-62813471D02*
X201194819Y-62813471D01*
X201671009Y-63622995D02*
X201671009Y-63956328D01*
X202194819Y-64099185D02*
X202194819Y-63622995D01*
X202194819Y-63622995D02*
X201194819Y-63622995D01*
X201194819Y-63622995D02*
X201194819Y-64099185D01*
X202194819Y-64527757D02*
X201194819Y-64527757D01*
X201194819Y-64527757D02*
X201194819Y-64765852D01*
X201194819Y-64765852D02*
X201242438Y-64908709D01*
X201242438Y-64908709D02*
X201337676Y-65003947D01*
X201337676Y-65003947D02*
X201432914Y-65051566D01*
X201432914Y-65051566D02*
X201623390Y-65099185D01*
X201623390Y-65099185D02*
X201766247Y-65099185D01*
X201766247Y-65099185D02*
X201956723Y-65051566D01*
X201956723Y-65051566D02*
X202051961Y-65003947D01*
X202051961Y-65003947D02*
X202147200Y-64908709D01*
X202147200Y-64908709D02*
X202194819Y-64765852D01*
X202194819Y-64765852D02*
X202194819Y-64527757D01*
X201194819Y-65432519D02*
X201194819Y-66051566D01*
X201194819Y-66051566D02*
X201575771Y-65718233D01*
X201575771Y-65718233D02*
X201575771Y-65861090D01*
X201575771Y-65861090D02*
X201623390Y-65956328D01*
X201623390Y-65956328D02*
X201671009Y-66003947D01*
X201671009Y-66003947D02*
X201766247Y-66051566D01*
X201766247Y-66051566D02*
X202004342Y-66051566D01*
X202004342Y-66051566D02*
X202099580Y-66003947D01*
X202099580Y-66003947D02*
X202147200Y-65956328D01*
X202147200Y-65956328D02*
X202194819Y-65861090D01*
X202194819Y-65861090D02*
X202194819Y-65575376D01*
X202194819Y-65575376D02*
X202147200Y-65480138D01*
X202147200Y-65480138D02*
X202099580Y-65432519D01*
X201194819Y-66670614D02*
X201194819Y-66765852D01*
X201194819Y-66765852D02*
X201242438Y-66861090D01*
X201242438Y-66861090D02*
X201290057Y-66908709D01*
X201290057Y-66908709D02*
X201385295Y-66956328D01*
X201385295Y-66956328D02*
X201575771Y-67003947D01*
X201575771Y-67003947D02*
X201813866Y-67003947D01*
X201813866Y-67003947D02*
X202004342Y-66956328D01*
X202004342Y-66956328D02*
X202099580Y-66908709D01*
X202099580Y-66908709D02*
X202147200Y-66861090D01*
X202147200Y-66861090D02*
X202194819Y-66765852D01*
X202194819Y-66765852D02*
X202194819Y-66670614D01*
X202194819Y-66670614D02*
X202147200Y-66575376D01*
X202147200Y-66575376D02*
X202099580Y-66527757D01*
X202099580Y-66527757D02*
X202004342Y-66480138D01*
X202004342Y-66480138D02*
X201813866Y-66432519D01*
X201813866Y-66432519D02*
X201575771Y-66432519D01*
X201575771Y-66432519D02*
X201385295Y-66480138D01*
X201385295Y-66480138D02*
X201290057Y-66527757D01*
X201290057Y-66527757D02*
X201242438Y-66575376D01*
X201242438Y-66575376D02*
X201194819Y-66670614D01*
X210199580Y-61122995D02*
X210247200Y-61075376D01*
X210247200Y-61075376D02*
X210294819Y-60932519D01*
X210294819Y-60932519D02*
X210294819Y-60837281D01*
X210294819Y-60837281D02*
X210247200Y-60694424D01*
X210247200Y-60694424D02*
X210151961Y-60599186D01*
X210151961Y-60599186D02*
X210056723Y-60551567D01*
X210056723Y-60551567D02*
X209866247Y-60503948D01*
X209866247Y-60503948D02*
X209723390Y-60503948D01*
X209723390Y-60503948D02*
X209532914Y-60551567D01*
X209532914Y-60551567D02*
X209437676Y-60599186D01*
X209437676Y-60599186D02*
X209342438Y-60694424D01*
X209342438Y-60694424D02*
X209294819Y-60837281D01*
X209294819Y-60837281D02*
X209294819Y-60932519D01*
X209294819Y-60932519D02*
X209342438Y-61075376D01*
X209342438Y-61075376D02*
X209390057Y-61122995D01*
X209294819Y-62027757D02*
X209294819Y-61551567D01*
X209294819Y-61551567D02*
X209771009Y-61503948D01*
X209771009Y-61503948D02*
X209723390Y-61551567D01*
X209723390Y-61551567D02*
X209675771Y-61646805D01*
X209675771Y-61646805D02*
X209675771Y-61884900D01*
X209675771Y-61884900D02*
X209723390Y-61980138D01*
X209723390Y-61980138D02*
X209771009Y-62027757D01*
X209771009Y-62027757D02*
X209866247Y-62075376D01*
X209866247Y-62075376D02*
X210104342Y-62075376D01*
X210104342Y-62075376D02*
X210199580Y-62027757D01*
X210199580Y-62027757D02*
X210247200Y-61980138D01*
X210247200Y-61980138D02*
X210294819Y-61884900D01*
X210294819Y-61884900D02*
X210294819Y-61646805D01*
X210294819Y-61646805D02*
X210247200Y-61551567D01*
X210247200Y-61551567D02*
X210199580Y-61503948D01*
X209294819Y-62694424D02*
X209294819Y-62789662D01*
X209294819Y-62789662D02*
X209342438Y-62884900D01*
X209342438Y-62884900D02*
X209390057Y-62932519D01*
X209390057Y-62932519D02*
X209485295Y-62980138D01*
X209485295Y-62980138D02*
X209675771Y-63027757D01*
X209675771Y-63027757D02*
X209913866Y-63027757D01*
X209913866Y-63027757D02*
X210104342Y-62980138D01*
X210104342Y-62980138D02*
X210199580Y-62932519D01*
X210199580Y-62932519D02*
X210247200Y-62884900D01*
X210247200Y-62884900D02*
X210294819Y-62789662D01*
X210294819Y-62789662D02*
X210294819Y-62694424D01*
X210294819Y-62694424D02*
X210247200Y-62599186D01*
X210247200Y-62599186D02*
X210199580Y-62551567D01*
X210199580Y-62551567D02*
X210104342Y-62503948D01*
X210104342Y-62503948D02*
X209913866Y-62456329D01*
X209913866Y-62456329D02*
X209675771Y-62456329D01*
X209675771Y-62456329D02*
X209485295Y-62503948D01*
X209485295Y-62503948D02*
X209390057Y-62551567D01*
X209390057Y-62551567D02*
X209342438Y-62599186D01*
X209342438Y-62599186D02*
X209294819Y-62694424D01*
X209294819Y-63361091D02*
X209294819Y-63980138D01*
X209294819Y-63980138D02*
X209675771Y-63646805D01*
X209675771Y-63646805D02*
X209675771Y-63789662D01*
X209675771Y-63789662D02*
X209723390Y-63884900D01*
X209723390Y-63884900D02*
X209771009Y-63932519D01*
X209771009Y-63932519D02*
X209866247Y-63980138D01*
X209866247Y-63980138D02*
X210104342Y-63980138D01*
X210104342Y-63980138D02*
X210199580Y-63932519D01*
X210199580Y-63932519D02*
X210247200Y-63884900D01*
X210247200Y-63884900D02*
X210294819Y-63789662D01*
X210294819Y-63789662D02*
X210294819Y-63503948D01*
X210294819Y-63503948D02*
X210247200Y-63408710D01*
X210247200Y-63408710D02*
X210199580Y-63361091D01*
X209771009Y-64742043D02*
X209818628Y-64884900D01*
X209818628Y-64884900D02*
X209866247Y-64932519D01*
X209866247Y-64932519D02*
X209961485Y-64980138D01*
X209961485Y-64980138D02*
X210104342Y-64980138D01*
X210104342Y-64980138D02*
X210199580Y-64932519D01*
X210199580Y-64932519D02*
X210247200Y-64884900D01*
X210247200Y-64884900D02*
X210294819Y-64789662D01*
X210294819Y-64789662D02*
X210294819Y-64408710D01*
X210294819Y-64408710D02*
X209294819Y-64408710D01*
X209294819Y-64408710D02*
X209294819Y-64742043D01*
X209294819Y-64742043D02*
X209342438Y-64837281D01*
X209342438Y-64837281D02*
X209390057Y-64884900D01*
X209390057Y-64884900D02*
X209485295Y-64932519D01*
X209485295Y-64932519D02*
X209580533Y-64932519D01*
X209580533Y-64932519D02*
X209675771Y-64884900D01*
X209675771Y-64884900D02*
X209723390Y-64837281D01*
X209723390Y-64837281D02*
X209771009Y-64742043D01*
X209771009Y-64742043D02*
X209771009Y-64408710D01*
X209913866Y-65408710D02*
X209913866Y-66170615D01*
X209771009Y-66980138D02*
X209818628Y-67122995D01*
X209818628Y-67122995D02*
X209866247Y-67170614D01*
X209866247Y-67170614D02*
X209961485Y-67218233D01*
X209961485Y-67218233D02*
X210104342Y-67218233D01*
X210104342Y-67218233D02*
X210199580Y-67170614D01*
X210199580Y-67170614D02*
X210247200Y-67122995D01*
X210247200Y-67122995D02*
X210294819Y-67027757D01*
X210294819Y-67027757D02*
X210294819Y-66646805D01*
X210294819Y-66646805D02*
X209294819Y-66646805D01*
X209294819Y-66646805D02*
X209294819Y-66980138D01*
X209294819Y-66980138D02*
X209342438Y-67075376D01*
X209342438Y-67075376D02*
X209390057Y-67122995D01*
X209390057Y-67122995D02*
X209485295Y-67170614D01*
X209485295Y-67170614D02*
X209580533Y-67170614D01*
X209580533Y-67170614D02*
X209675771Y-67122995D01*
X209675771Y-67122995D02*
X209723390Y-67075376D01*
X209723390Y-67075376D02*
X209771009Y-66980138D01*
X209771009Y-66980138D02*
X209771009Y-66646805D01*
X210199580Y-68218233D02*
X210247200Y-68170614D01*
X210247200Y-68170614D02*
X210294819Y-68027757D01*
X210294819Y-68027757D02*
X210294819Y-67932519D01*
X210294819Y-67932519D02*
X210247200Y-67789662D01*
X210247200Y-67789662D02*
X210151961Y-67694424D01*
X210151961Y-67694424D02*
X210056723Y-67646805D01*
X210056723Y-67646805D02*
X209866247Y-67599186D01*
X209866247Y-67599186D02*
X209723390Y-67599186D01*
X209723390Y-67599186D02*
X209532914Y-67646805D01*
X209532914Y-67646805D02*
X209437676Y-67694424D01*
X209437676Y-67694424D02*
X209342438Y-67789662D01*
X209342438Y-67789662D02*
X209294819Y-67932519D01*
X209294819Y-67932519D02*
X209294819Y-68027757D01*
X209294819Y-68027757D02*
X209342438Y-68170614D01*
X209342438Y-68170614D02*
X209390057Y-68218233D01*
X210294819Y-68646805D02*
X209294819Y-68646805D01*
X209294819Y-68646805D02*
X210294819Y-69218233D01*
X210294819Y-69218233D02*
X209294819Y-69218233D01*
X208387792Y-145495919D02*
X208721125Y-145019728D01*
X208959220Y-145495919D02*
X208959220Y-144495919D01*
X208959220Y-144495919D02*
X208578268Y-144495919D01*
X208578268Y-144495919D02*
X208483030Y-144543538D01*
X208483030Y-144543538D02*
X208435411Y-144591157D01*
X208435411Y-144591157D02*
X208387792Y-144686395D01*
X208387792Y-144686395D02*
X208387792Y-144829252D01*
X208387792Y-144829252D02*
X208435411Y-144924490D01*
X208435411Y-144924490D02*
X208483030Y-144972109D01*
X208483030Y-144972109D02*
X208578268Y-145019728D01*
X208578268Y-145019728D02*
X208959220Y-145019728D01*
X208054458Y-144495919D02*
X207387792Y-144495919D01*
X207387792Y-144495919D02*
X207816363Y-145495919D01*
X206816363Y-144495919D02*
X206721125Y-144495919D01*
X206721125Y-144495919D02*
X206625887Y-144543538D01*
X206625887Y-144543538D02*
X206578268Y-144591157D01*
X206578268Y-144591157D02*
X206530649Y-144686395D01*
X206530649Y-144686395D02*
X206483030Y-144876871D01*
X206483030Y-144876871D02*
X206483030Y-145114966D01*
X206483030Y-145114966D02*
X206530649Y-145305442D01*
X206530649Y-145305442D02*
X206578268Y-145400680D01*
X206578268Y-145400680D02*
X206625887Y-145448300D01*
X206625887Y-145448300D02*
X206721125Y-145495919D01*
X206721125Y-145495919D02*
X206816363Y-145495919D01*
X206816363Y-145495919D02*
X206911601Y-145448300D01*
X206911601Y-145448300D02*
X206959220Y-145400680D01*
X206959220Y-145400680D02*
X207006839Y-145305442D01*
X207006839Y-145305442D02*
X207054458Y-145114966D01*
X207054458Y-145114966D02*
X207054458Y-144876871D01*
X207054458Y-144876871D02*
X207006839Y-144686395D01*
X207006839Y-144686395D02*
X206959220Y-144591157D01*
X206959220Y-144591157D02*
X206911601Y-144543538D01*
X206911601Y-144543538D02*
X206816363Y-144495919D01*
D11*
X204985927Y-145378314D02*
X205414498Y-145378314D01*
X205200213Y-145378314D02*
X205200213Y-144628314D01*
X205200213Y-144628314D02*
X205271641Y-144735457D01*
X205271641Y-144735457D02*
X205343070Y-144806885D01*
X205343070Y-144806885D02*
X205414498Y-144842600D01*
X204664498Y-145306885D02*
X204628784Y-145342600D01*
X204628784Y-145342600D02*
X204664498Y-145378314D01*
X204664498Y-145378314D02*
X204700212Y-145342600D01*
X204700212Y-145342600D02*
X204664498Y-145306885D01*
X204664498Y-145306885D02*
X204664498Y-145378314D01*
X203914498Y-145378314D02*
X204343069Y-145378314D01*
X204128784Y-145378314D02*
X204128784Y-144628314D01*
X204128784Y-144628314D02*
X204200212Y-144735457D01*
X204200212Y-144735457D02*
X204271641Y-144806885D01*
X204271641Y-144806885D02*
X204343069Y-144842600D01*
X203593069Y-145378314D02*
X203593069Y-144628314D01*
X203521641Y-145092600D02*
X203307355Y-145378314D01*
X203307355Y-144878314D02*
X203593069Y-145164028D01*
X203021640Y-145378314D02*
X202843069Y-145378314D01*
X202843069Y-145378314D02*
X202843069Y-145235457D01*
X202843069Y-145235457D02*
X202914498Y-145199742D01*
X202914498Y-145199742D02*
X202985926Y-145128314D01*
X202985926Y-145128314D02*
X203021640Y-145021171D01*
X203021640Y-145021171D02*
X203021640Y-144842600D01*
X203021640Y-144842600D02*
X202985926Y-144735457D01*
X202985926Y-144735457D02*
X202914498Y-144664028D01*
X202914498Y-144664028D02*
X202807355Y-144628314D01*
X202807355Y-144628314D02*
X202664498Y-144628314D01*
X202664498Y-144628314D02*
X202557355Y-144664028D01*
X202557355Y-144664028D02*
X202485926Y-144735457D01*
X202485926Y-144735457D02*
X202450212Y-144842600D01*
X202450212Y-144842600D02*
X202450212Y-145021171D01*
X202450212Y-145021171D02*
X202485926Y-145128314D01*
X202485926Y-145128314D02*
X202557355Y-145199742D01*
X202557355Y-145199742D02*
X202628783Y-145235457D01*
X202628783Y-145235457D02*
X202628783Y-145378314D01*
X202628783Y-145378314D02*
X202450212Y-145378314D01*
D10*
X202194819Y-98849661D02*
X202194819Y-98373471D01*
X202194819Y-98373471D02*
X201194819Y-98373471D01*
X201671009Y-99182995D02*
X201671009Y-99516328D01*
X202194819Y-99659185D02*
X202194819Y-99182995D01*
X202194819Y-99182995D02*
X201194819Y-99182995D01*
X201194819Y-99182995D02*
X201194819Y-99659185D01*
X202194819Y-100087757D02*
X201194819Y-100087757D01*
X201194819Y-100087757D02*
X201194819Y-100325852D01*
X201194819Y-100325852D02*
X201242438Y-100468709D01*
X201242438Y-100468709D02*
X201337676Y-100563947D01*
X201337676Y-100563947D02*
X201432914Y-100611566D01*
X201432914Y-100611566D02*
X201623390Y-100659185D01*
X201623390Y-100659185D02*
X201766247Y-100659185D01*
X201766247Y-100659185D02*
X201956723Y-100611566D01*
X201956723Y-100611566D02*
X202051961Y-100563947D01*
X202051961Y-100563947D02*
X202147200Y-100468709D01*
X202147200Y-100468709D02*
X202194819Y-100325852D01*
X202194819Y-100325852D02*
X202194819Y-100087757D01*
X201194819Y-101563947D02*
X201194819Y-101087757D01*
X201194819Y-101087757D02*
X201671009Y-101040138D01*
X201671009Y-101040138D02*
X201623390Y-101087757D01*
X201623390Y-101087757D02*
X201575771Y-101182995D01*
X201575771Y-101182995D02*
X201575771Y-101421090D01*
X201575771Y-101421090D02*
X201623390Y-101516328D01*
X201623390Y-101516328D02*
X201671009Y-101563947D01*
X201671009Y-101563947D02*
X201766247Y-101611566D01*
X201766247Y-101611566D02*
X202004342Y-101611566D01*
X202004342Y-101611566D02*
X202099580Y-101563947D01*
X202099580Y-101563947D02*
X202147200Y-101516328D01*
X202147200Y-101516328D02*
X202194819Y-101421090D01*
X202194819Y-101421090D02*
X202194819Y-101182995D01*
X202194819Y-101182995D02*
X202147200Y-101087757D01*
X202147200Y-101087757D02*
X202099580Y-101040138D01*
X201194819Y-102230614D02*
X201194819Y-102325852D01*
X201194819Y-102325852D02*
X201242438Y-102421090D01*
X201242438Y-102421090D02*
X201290057Y-102468709D01*
X201290057Y-102468709D02*
X201385295Y-102516328D01*
X201385295Y-102516328D02*
X201575771Y-102563947D01*
X201575771Y-102563947D02*
X201813866Y-102563947D01*
X201813866Y-102563947D02*
X202004342Y-102516328D01*
X202004342Y-102516328D02*
X202099580Y-102468709D01*
X202099580Y-102468709D02*
X202147200Y-102421090D01*
X202147200Y-102421090D02*
X202194819Y-102325852D01*
X202194819Y-102325852D02*
X202194819Y-102230614D01*
X202194819Y-102230614D02*
X202147200Y-102135376D01*
X202147200Y-102135376D02*
X202099580Y-102087757D01*
X202099580Y-102087757D02*
X202004342Y-102040138D01*
X202004342Y-102040138D02*
X201813866Y-101992519D01*
X201813866Y-101992519D02*
X201575771Y-101992519D01*
X201575771Y-101992519D02*
X201385295Y-102040138D01*
X201385295Y-102040138D02*
X201290057Y-102087757D01*
X201290057Y-102087757D02*
X201242438Y-102135376D01*
X201242438Y-102135376D02*
X201194819Y-102230614D01*
X210199580Y-96682995D02*
X210247200Y-96635376D01*
X210247200Y-96635376D02*
X210294819Y-96492519D01*
X210294819Y-96492519D02*
X210294819Y-96397281D01*
X210294819Y-96397281D02*
X210247200Y-96254424D01*
X210247200Y-96254424D02*
X210151961Y-96159186D01*
X210151961Y-96159186D02*
X210056723Y-96111567D01*
X210056723Y-96111567D02*
X209866247Y-96063948D01*
X209866247Y-96063948D02*
X209723390Y-96063948D01*
X209723390Y-96063948D02*
X209532914Y-96111567D01*
X209532914Y-96111567D02*
X209437676Y-96159186D01*
X209437676Y-96159186D02*
X209342438Y-96254424D01*
X209342438Y-96254424D02*
X209294819Y-96397281D01*
X209294819Y-96397281D02*
X209294819Y-96492519D01*
X209294819Y-96492519D02*
X209342438Y-96635376D01*
X209342438Y-96635376D02*
X209390057Y-96682995D01*
X209294819Y-97587757D02*
X209294819Y-97111567D01*
X209294819Y-97111567D02*
X209771009Y-97063948D01*
X209771009Y-97063948D02*
X209723390Y-97111567D01*
X209723390Y-97111567D02*
X209675771Y-97206805D01*
X209675771Y-97206805D02*
X209675771Y-97444900D01*
X209675771Y-97444900D02*
X209723390Y-97540138D01*
X209723390Y-97540138D02*
X209771009Y-97587757D01*
X209771009Y-97587757D02*
X209866247Y-97635376D01*
X209866247Y-97635376D02*
X210104342Y-97635376D01*
X210104342Y-97635376D02*
X210199580Y-97587757D01*
X210199580Y-97587757D02*
X210247200Y-97540138D01*
X210247200Y-97540138D02*
X210294819Y-97444900D01*
X210294819Y-97444900D02*
X210294819Y-97206805D01*
X210294819Y-97206805D02*
X210247200Y-97111567D01*
X210247200Y-97111567D02*
X210199580Y-97063948D01*
X209294819Y-98254424D02*
X209294819Y-98349662D01*
X209294819Y-98349662D02*
X209342438Y-98444900D01*
X209342438Y-98444900D02*
X209390057Y-98492519D01*
X209390057Y-98492519D02*
X209485295Y-98540138D01*
X209485295Y-98540138D02*
X209675771Y-98587757D01*
X209675771Y-98587757D02*
X209913866Y-98587757D01*
X209913866Y-98587757D02*
X210104342Y-98540138D01*
X210104342Y-98540138D02*
X210199580Y-98492519D01*
X210199580Y-98492519D02*
X210247200Y-98444900D01*
X210247200Y-98444900D02*
X210294819Y-98349662D01*
X210294819Y-98349662D02*
X210294819Y-98254424D01*
X210294819Y-98254424D02*
X210247200Y-98159186D01*
X210247200Y-98159186D02*
X210199580Y-98111567D01*
X210199580Y-98111567D02*
X210104342Y-98063948D01*
X210104342Y-98063948D02*
X209913866Y-98016329D01*
X209913866Y-98016329D02*
X209675771Y-98016329D01*
X209675771Y-98016329D02*
X209485295Y-98063948D01*
X209485295Y-98063948D02*
X209390057Y-98111567D01*
X209390057Y-98111567D02*
X209342438Y-98159186D01*
X209342438Y-98159186D02*
X209294819Y-98254424D01*
X209294819Y-98921091D02*
X209294819Y-99540138D01*
X209294819Y-99540138D02*
X209675771Y-99206805D01*
X209675771Y-99206805D02*
X209675771Y-99349662D01*
X209675771Y-99349662D02*
X209723390Y-99444900D01*
X209723390Y-99444900D02*
X209771009Y-99492519D01*
X209771009Y-99492519D02*
X209866247Y-99540138D01*
X209866247Y-99540138D02*
X210104342Y-99540138D01*
X210104342Y-99540138D02*
X210199580Y-99492519D01*
X210199580Y-99492519D02*
X210247200Y-99444900D01*
X210247200Y-99444900D02*
X210294819Y-99349662D01*
X210294819Y-99349662D02*
X210294819Y-99063948D01*
X210294819Y-99063948D02*
X210247200Y-98968710D01*
X210247200Y-98968710D02*
X210199580Y-98921091D01*
X209771009Y-100302043D02*
X209818628Y-100444900D01*
X209818628Y-100444900D02*
X209866247Y-100492519D01*
X209866247Y-100492519D02*
X209961485Y-100540138D01*
X209961485Y-100540138D02*
X210104342Y-100540138D01*
X210104342Y-100540138D02*
X210199580Y-100492519D01*
X210199580Y-100492519D02*
X210247200Y-100444900D01*
X210247200Y-100444900D02*
X210294819Y-100349662D01*
X210294819Y-100349662D02*
X210294819Y-99968710D01*
X210294819Y-99968710D02*
X209294819Y-99968710D01*
X209294819Y-99968710D02*
X209294819Y-100302043D01*
X209294819Y-100302043D02*
X209342438Y-100397281D01*
X209342438Y-100397281D02*
X209390057Y-100444900D01*
X209390057Y-100444900D02*
X209485295Y-100492519D01*
X209485295Y-100492519D02*
X209580533Y-100492519D01*
X209580533Y-100492519D02*
X209675771Y-100444900D01*
X209675771Y-100444900D02*
X209723390Y-100397281D01*
X209723390Y-100397281D02*
X209771009Y-100302043D01*
X209771009Y-100302043D02*
X209771009Y-99968710D01*
X209913866Y-100968710D02*
X209913866Y-101730615D01*
X209771009Y-102540138D02*
X209818628Y-102682995D01*
X209818628Y-102682995D02*
X209866247Y-102730614D01*
X209866247Y-102730614D02*
X209961485Y-102778233D01*
X209961485Y-102778233D02*
X210104342Y-102778233D01*
X210104342Y-102778233D02*
X210199580Y-102730614D01*
X210199580Y-102730614D02*
X210247200Y-102682995D01*
X210247200Y-102682995D02*
X210294819Y-102587757D01*
X210294819Y-102587757D02*
X210294819Y-102206805D01*
X210294819Y-102206805D02*
X209294819Y-102206805D01*
X209294819Y-102206805D02*
X209294819Y-102540138D01*
X209294819Y-102540138D02*
X209342438Y-102635376D01*
X209342438Y-102635376D02*
X209390057Y-102682995D01*
X209390057Y-102682995D02*
X209485295Y-102730614D01*
X209485295Y-102730614D02*
X209580533Y-102730614D01*
X209580533Y-102730614D02*
X209675771Y-102682995D01*
X209675771Y-102682995D02*
X209723390Y-102635376D01*
X209723390Y-102635376D02*
X209771009Y-102540138D01*
X209771009Y-102540138D02*
X209771009Y-102206805D01*
X210199580Y-103778233D02*
X210247200Y-103730614D01*
X210247200Y-103730614D02*
X210294819Y-103587757D01*
X210294819Y-103587757D02*
X210294819Y-103492519D01*
X210294819Y-103492519D02*
X210247200Y-103349662D01*
X210247200Y-103349662D02*
X210151961Y-103254424D01*
X210151961Y-103254424D02*
X210056723Y-103206805D01*
X210056723Y-103206805D02*
X209866247Y-103159186D01*
X209866247Y-103159186D02*
X209723390Y-103159186D01*
X209723390Y-103159186D02*
X209532914Y-103206805D01*
X209532914Y-103206805D02*
X209437676Y-103254424D01*
X209437676Y-103254424D02*
X209342438Y-103349662D01*
X209342438Y-103349662D02*
X209294819Y-103492519D01*
X209294819Y-103492519D02*
X209294819Y-103587757D01*
X209294819Y-103587757D02*
X209342438Y-103730614D01*
X209342438Y-103730614D02*
X209390057Y-103778233D01*
X210294819Y-104206805D02*
X209294819Y-104206805D01*
X209294819Y-104206805D02*
X210294819Y-104778233D01*
X210294819Y-104778233D02*
X209294819Y-104778233D01*
X208387792Y-39568319D02*
X208721125Y-39092128D01*
X208959220Y-39568319D02*
X208959220Y-38568319D01*
X208959220Y-38568319D02*
X208578268Y-38568319D01*
X208578268Y-38568319D02*
X208483030Y-38615938D01*
X208483030Y-38615938D02*
X208435411Y-38663557D01*
X208435411Y-38663557D02*
X208387792Y-38758795D01*
X208387792Y-38758795D02*
X208387792Y-38901652D01*
X208387792Y-38901652D02*
X208435411Y-38996890D01*
X208435411Y-38996890D02*
X208483030Y-39044509D01*
X208483030Y-39044509D02*
X208578268Y-39092128D01*
X208578268Y-39092128D02*
X208959220Y-39092128D01*
X207435411Y-39568319D02*
X208006839Y-39568319D01*
X207721125Y-39568319D02*
X207721125Y-38568319D01*
X207721125Y-38568319D02*
X207816363Y-38711176D01*
X207816363Y-38711176D02*
X207911601Y-38806414D01*
X207911601Y-38806414D02*
X208006839Y-38854033D01*
X206816363Y-38568319D02*
X206721125Y-38568319D01*
X206721125Y-38568319D02*
X206625887Y-38615938D01*
X206625887Y-38615938D02*
X206578268Y-38663557D01*
X206578268Y-38663557D02*
X206530649Y-38758795D01*
X206530649Y-38758795D02*
X206483030Y-38949271D01*
X206483030Y-38949271D02*
X206483030Y-39187366D01*
X206483030Y-39187366D02*
X206530649Y-39377842D01*
X206530649Y-39377842D02*
X206578268Y-39473080D01*
X206578268Y-39473080D02*
X206625887Y-39520700D01*
X206625887Y-39520700D02*
X206721125Y-39568319D01*
X206721125Y-39568319D02*
X206816363Y-39568319D01*
X206816363Y-39568319D02*
X206911601Y-39520700D01*
X206911601Y-39520700D02*
X206959220Y-39473080D01*
X206959220Y-39473080D02*
X207006839Y-39377842D01*
X207006839Y-39377842D02*
X207054458Y-39187366D01*
X207054458Y-39187366D02*
X207054458Y-38949271D01*
X207054458Y-38949271D02*
X207006839Y-38758795D01*
X207006839Y-38758795D02*
X206959220Y-38663557D01*
X206959220Y-38663557D02*
X206911601Y-38615938D01*
X206911601Y-38615938D02*
X206816363Y-38568319D01*
D11*
X204985927Y-39450714D02*
X205414498Y-39450714D01*
X205200213Y-39450714D02*
X205200213Y-38700714D01*
X205200213Y-38700714D02*
X205271641Y-38807857D01*
X205271641Y-38807857D02*
X205343070Y-38879285D01*
X205343070Y-38879285D02*
X205414498Y-38915000D01*
X204664498Y-39379285D02*
X204628784Y-39415000D01*
X204628784Y-39415000D02*
X204664498Y-39450714D01*
X204664498Y-39450714D02*
X204700212Y-39415000D01*
X204700212Y-39415000D02*
X204664498Y-39379285D01*
X204664498Y-39379285D02*
X204664498Y-39450714D01*
X203914498Y-39450714D02*
X204343069Y-39450714D01*
X204128784Y-39450714D02*
X204128784Y-38700714D01*
X204128784Y-38700714D02*
X204200212Y-38807857D01*
X204200212Y-38807857D02*
X204271641Y-38879285D01*
X204271641Y-38879285D02*
X204343069Y-38915000D01*
X203593069Y-39450714D02*
X203593069Y-38700714D01*
X203521641Y-39165000D02*
X203307355Y-39450714D01*
X203307355Y-38950714D02*
X203593069Y-39236428D01*
X203021640Y-39450714D02*
X202843069Y-39450714D01*
X202843069Y-39450714D02*
X202843069Y-39307857D01*
X202843069Y-39307857D02*
X202914498Y-39272142D01*
X202914498Y-39272142D02*
X202985926Y-39200714D01*
X202985926Y-39200714D02*
X203021640Y-39093571D01*
X203021640Y-39093571D02*
X203021640Y-38915000D01*
X203021640Y-38915000D02*
X202985926Y-38807857D01*
X202985926Y-38807857D02*
X202914498Y-38736428D01*
X202914498Y-38736428D02*
X202807355Y-38700714D01*
X202807355Y-38700714D02*
X202664498Y-38700714D01*
X202664498Y-38700714D02*
X202557355Y-38736428D01*
X202557355Y-38736428D02*
X202485926Y-38807857D01*
X202485926Y-38807857D02*
X202450212Y-38915000D01*
X202450212Y-38915000D02*
X202450212Y-39093571D01*
X202450212Y-39093571D02*
X202485926Y-39200714D01*
X202485926Y-39200714D02*
X202557355Y-39272142D01*
X202557355Y-39272142D02*
X202628783Y-39307857D01*
X202628783Y-39307857D02*
X202628783Y-39450714D01*
X202628783Y-39450714D02*
X202450212Y-39450714D01*
D10*
X202194819Y-116629661D02*
X202194819Y-116153471D01*
X202194819Y-116153471D02*
X201194819Y-116153471D01*
X201671009Y-116962995D02*
X201671009Y-117296328D01*
X202194819Y-117439185D02*
X202194819Y-116962995D01*
X202194819Y-116962995D02*
X201194819Y-116962995D01*
X201194819Y-116962995D02*
X201194819Y-117439185D01*
X202194819Y-117867757D02*
X201194819Y-117867757D01*
X201194819Y-117867757D02*
X201194819Y-118105852D01*
X201194819Y-118105852D02*
X201242438Y-118248709D01*
X201242438Y-118248709D02*
X201337676Y-118343947D01*
X201337676Y-118343947D02*
X201432914Y-118391566D01*
X201432914Y-118391566D02*
X201623390Y-118439185D01*
X201623390Y-118439185D02*
X201766247Y-118439185D01*
X201766247Y-118439185D02*
X201956723Y-118391566D01*
X201956723Y-118391566D02*
X202051961Y-118343947D01*
X202051961Y-118343947D02*
X202147200Y-118248709D01*
X202147200Y-118248709D02*
X202194819Y-118105852D01*
X202194819Y-118105852D02*
X202194819Y-117867757D01*
X201194819Y-119296328D02*
X201194819Y-119105852D01*
X201194819Y-119105852D02*
X201242438Y-119010614D01*
X201242438Y-119010614D02*
X201290057Y-118962995D01*
X201290057Y-118962995D02*
X201432914Y-118867757D01*
X201432914Y-118867757D02*
X201623390Y-118820138D01*
X201623390Y-118820138D02*
X202004342Y-118820138D01*
X202004342Y-118820138D02*
X202099580Y-118867757D01*
X202099580Y-118867757D02*
X202147200Y-118915376D01*
X202147200Y-118915376D02*
X202194819Y-119010614D01*
X202194819Y-119010614D02*
X202194819Y-119201090D01*
X202194819Y-119201090D02*
X202147200Y-119296328D01*
X202147200Y-119296328D02*
X202099580Y-119343947D01*
X202099580Y-119343947D02*
X202004342Y-119391566D01*
X202004342Y-119391566D02*
X201766247Y-119391566D01*
X201766247Y-119391566D02*
X201671009Y-119343947D01*
X201671009Y-119343947D02*
X201623390Y-119296328D01*
X201623390Y-119296328D02*
X201575771Y-119201090D01*
X201575771Y-119201090D02*
X201575771Y-119010614D01*
X201575771Y-119010614D02*
X201623390Y-118915376D01*
X201623390Y-118915376D02*
X201671009Y-118867757D01*
X201671009Y-118867757D02*
X201766247Y-118820138D01*
X201194819Y-120010614D02*
X201194819Y-120105852D01*
X201194819Y-120105852D02*
X201242438Y-120201090D01*
X201242438Y-120201090D02*
X201290057Y-120248709D01*
X201290057Y-120248709D02*
X201385295Y-120296328D01*
X201385295Y-120296328D02*
X201575771Y-120343947D01*
X201575771Y-120343947D02*
X201813866Y-120343947D01*
X201813866Y-120343947D02*
X202004342Y-120296328D01*
X202004342Y-120296328D02*
X202099580Y-120248709D01*
X202099580Y-120248709D02*
X202147200Y-120201090D01*
X202147200Y-120201090D02*
X202194819Y-120105852D01*
X202194819Y-120105852D02*
X202194819Y-120010614D01*
X202194819Y-120010614D02*
X202147200Y-119915376D01*
X202147200Y-119915376D02*
X202099580Y-119867757D01*
X202099580Y-119867757D02*
X202004342Y-119820138D01*
X202004342Y-119820138D02*
X201813866Y-119772519D01*
X201813866Y-119772519D02*
X201575771Y-119772519D01*
X201575771Y-119772519D02*
X201385295Y-119820138D01*
X201385295Y-119820138D02*
X201290057Y-119867757D01*
X201290057Y-119867757D02*
X201242438Y-119915376D01*
X201242438Y-119915376D02*
X201194819Y-120010614D01*
X210199580Y-114462995D02*
X210247200Y-114415376D01*
X210247200Y-114415376D02*
X210294819Y-114272519D01*
X210294819Y-114272519D02*
X210294819Y-114177281D01*
X210294819Y-114177281D02*
X210247200Y-114034424D01*
X210247200Y-114034424D02*
X210151961Y-113939186D01*
X210151961Y-113939186D02*
X210056723Y-113891567D01*
X210056723Y-113891567D02*
X209866247Y-113843948D01*
X209866247Y-113843948D02*
X209723390Y-113843948D01*
X209723390Y-113843948D02*
X209532914Y-113891567D01*
X209532914Y-113891567D02*
X209437676Y-113939186D01*
X209437676Y-113939186D02*
X209342438Y-114034424D01*
X209342438Y-114034424D02*
X209294819Y-114177281D01*
X209294819Y-114177281D02*
X209294819Y-114272519D01*
X209294819Y-114272519D02*
X209342438Y-114415376D01*
X209342438Y-114415376D02*
X209390057Y-114462995D01*
X209294819Y-115367757D02*
X209294819Y-114891567D01*
X209294819Y-114891567D02*
X209771009Y-114843948D01*
X209771009Y-114843948D02*
X209723390Y-114891567D01*
X209723390Y-114891567D02*
X209675771Y-114986805D01*
X209675771Y-114986805D02*
X209675771Y-115224900D01*
X209675771Y-115224900D02*
X209723390Y-115320138D01*
X209723390Y-115320138D02*
X209771009Y-115367757D01*
X209771009Y-115367757D02*
X209866247Y-115415376D01*
X209866247Y-115415376D02*
X210104342Y-115415376D01*
X210104342Y-115415376D02*
X210199580Y-115367757D01*
X210199580Y-115367757D02*
X210247200Y-115320138D01*
X210247200Y-115320138D02*
X210294819Y-115224900D01*
X210294819Y-115224900D02*
X210294819Y-114986805D01*
X210294819Y-114986805D02*
X210247200Y-114891567D01*
X210247200Y-114891567D02*
X210199580Y-114843948D01*
X209294819Y-116034424D02*
X209294819Y-116129662D01*
X209294819Y-116129662D02*
X209342438Y-116224900D01*
X209342438Y-116224900D02*
X209390057Y-116272519D01*
X209390057Y-116272519D02*
X209485295Y-116320138D01*
X209485295Y-116320138D02*
X209675771Y-116367757D01*
X209675771Y-116367757D02*
X209913866Y-116367757D01*
X209913866Y-116367757D02*
X210104342Y-116320138D01*
X210104342Y-116320138D02*
X210199580Y-116272519D01*
X210199580Y-116272519D02*
X210247200Y-116224900D01*
X210247200Y-116224900D02*
X210294819Y-116129662D01*
X210294819Y-116129662D02*
X210294819Y-116034424D01*
X210294819Y-116034424D02*
X210247200Y-115939186D01*
X210247200Y-115939186D02*
X210199580Y-115891567D01*
X210199580Y-115891567D02*
X210104342Y-115843948D01*
X210104342Y-115843948D02*
X209913866Y-115796329D01*
X209913866Y-115796329D02*
X209675771Y-115796329D01*
X209675771Y-115796329D02*
X209485295Y-115843948D01*
X209485295Y-115843948D02*
X209390057Y-115891567D01*
X209390057Y-115891567D02*
X209342438Y-115939186D01*
X209342438Y-115939186D02*
X209294819Y-116034424D01*
X209294819Y-116701091D02*
X209294819Y-117320138D01*
X209294819Y-117320138D02*
X209675771Y-116986805D01*
X209675771Y-116986805D02*
X209675771Y-117129662D01*
X209675771Y-117129662D02*
X209723390Y-117224900D01*
X209723390Y-117224900D02*
X209771009Y-117272519D01*
X209771009Y-117272519D02*
X209866247Y-117320138D01*
X209866247Y-117320138D02*
X210104342Y-117320138D01*
X210104342Y-117320138D02*
X210199580Y-117272519D01*
X210199580Y-117272519D02*
X210247200Y-117224900D01*
X210247200Y-117224900D02*
X210294819Y-117129662D01*
X210294819Y-117129662D02*
X210294819Y-116843948D01*
X210294819Y-116843948D02*
X210247200Y-116748710D01*
X210247200Y-116748710D02*
X210199580Y-116701091D01*
X209771009Y-118082043D02*
X209818628Y-118224900D01*
X209818628Y-118224900D02*
X209866247Y-118272519D01*
X209866247Y-118272519D02*
X209961485Y-118320138D01*
X209961485Y-118320138D02*
X210104342Y-118320138D01*
X210104342Y-118320138D02*
X210199580Y-118272519D01*
X210199580Y-118272519D02*
X210247200Y-118224900D01*
X210247200Y-118224900D02*
X210294819Y-118129662D01*
X210294819Y-118129662D02*
X210294819Y-117748710D01*
X210294819Y-117748710D02*
X209294819Y-117748710D01*
X209294819Y-117748710D02*
X209294819Y-118082043D01*
X209294819Y-118082043D02*
X209342438Y-118177281D01*
X209342438Y-118177281D02*
X209390057Y-118224900D01*
X209390057Y-118224900D02*
X209485295Y-118272519D01*
X209485295Y-118272519D02*
X209580533Y-118272519D01*
X209580533Y-118272519D02*
X209675771Y-118224900D01*
X209675771Y-118224900D02*
X209723390Y-118177281D01*
X209723390Y-118177281D02*
X209771009Y-118082043D01*
X209771009Y-118082043D02*
X209771009Y-117748710D01*
X209913866Y-118748710D02*
X209913866Y-119510615D01*
X209771009Y-120320138D02*
X209818628Y-120462995D01*
X209818628Y-120462995D02*
X209866247Y-120510614D01*
X209866247Y-120510614D02*
X209961485Y-120558233D01*
X209961485Y-120558233D02*
X210104342Y-120558233D01*
X210104342Y-120558233D02*
X210199580Y-120510614D01*
X210199580Y-120510614D02*
X210247200Y-120462995D01*
X210247200Y-120462995D02*
X210294819Y-120367757D01*
X210294819Y-120367757D02*
X210294819Y-119986805D01*
X210294819Y-119986805D02*
X209294819Y-119986805D01*
X209294819Y-119986805D02*
X209294819Y-120320138D01*
X209294819Y-120320138D02*
X209342438Y-120415376D01*
X209342438Y-120415376D02*
X209390057Y-120462995D01*
X209390057Y-120462995D02*
X209485295Y-120510614D01*
X209485295Y-120510614D02*
X209580533Y-120510614D01*
X209580533Y-120510614D02*
X209675771Y-120462995D01*
X209675771Y-120462995D02*
X209723390Y-120415376D01*
X209723390Y-120415376D02*
X209771009Y-120320138D01*
X209771009Y-120320138D02*
X209771009Y-119986805D01*
X210199580Y-121558233D02*
X210247200Y-121510614D01*
X210247200Y-121510614D02*
X210294819Y-121367757D01*
X210294819Y-121367757D02*
X210294819Y-121272519D01*
X210294819Y-121272519D02*
X210247200Y-121129662D01*
X210247200Y-121129662D02*
X210151961Y-121034424D01*
X210151961Y-121034424D02*
X210056723Y-120986805D01*
X210056723Y-120986805D02*
X209866247Y-120939186D01*
X209866247Y-120939186D02*
X209723390Y-120939186D01*
X209723390Y-120939186D02*
X209532914Y-120986805D01*
X209532914Y-120986805D02*
X209437676Y-121034424D01*
X209437676Y-121034424D02*
X209342438Y-121129662D01*
X209342438Y-121129662D02*
X209294819Y-121272519D01*
X209294819Y-121272519D02*
X209294819Y-121367757D01*
X209294819Y-121367757D02*
X209342438Y-121510614D01*
X209342438Y-121510614D02*
X209390057Y-121558233D01*
X210294819Y-121986805D02*
X209294819Y-121986805D01*
X209294819Y-121986805D02*
X210294819Y-122558233D01*
X210294819Y-122558233D02*
X209294819Y-122558233D01*
X202194819Y-152189661D02*
X202194819Y-151713471D01*
X202194819Y-151713471D02*
X201194819Y-151713471D01*
X201671009Y-152522995D02*
X201671009Y-152856328D01*
X202194819Y-152999185D02*
X202194819Y-152522995D01*
X202194819Y-152522995D02*
X201194819Y-152522995D01*
X201194819Y-152522995D02*
X201194819Y-152999185D01*
X202194819Y-153427757D02*
X201194819Y-153427757D01*
X201194819Y-153427757D02*
X201194819Y-153665852D01*
X201194819Y-153665852D02*
X201242438Y-153808709D01*
X201242438Y-153808709D02*
X201337676Y-153903947D01*
X201337676Y-153903947D02*
X201432914Y-153951566D01*
X201432914Y-153951566D02*
X201623390Y-153999185D01*
X201623390Y-153999185D02*
X201766247Y-153999185D01*
X201766247Y-153999185D02*
X201956723Y-153951566D01*
X201956723Y-153951566D02*
X202051961Y-153903947D01*
X202051961Y-153903947D02*
X202147200Y-153808709D01*
X202147200Y-153808709D02*
X202194819Y-153665852D01*
X202194819Y-153665852D02*
X202194819Y-153427757D01*
X201623390Y-154570614D02*
X201575771Y-154475376D01*
X201575771Y-154475376D02*
X201528152Y-154427757D01*
X201528152Y-154427757D02*
X201432914Y-154380138D01*
X201432914Y-154380138D02*
X201385295Y-154380138D01*
X201385295Y-154380138D02*
X201290057Y-154427757D01*
X201290057Y-154427757D02*
X201242438Y-154475376D01*
X201242438Y-154475376D02*
X201194819Y-154570614D01*
X201194819Y-154570614D02*
X201194819Y-154761090D01*
X201194819Y-154761090D02*
X201242438Y-154856328D01*
X201242438Y-154856328D02*
X201290057Y-154903947D01*
X201290057Y-154903947D02*
X201385295Y-154951566D01*
X201385295Y-154951566D02*
X201432914Y-154951566D01*
X201432914Y-154951566D02*
X201528152Y-154903947D01*
X201528152Y-154903947D02*
X201575771Y-154856328D01*
X201575771Y-154856328D02*
X201623390Y-154761090D01*
X201623390Y-154761090D02*
X201623390Y-154570614D01*
X201623390Y-154570614D02*
X201671009Y-154475376D01*
X201671009Y-154475376D02*
X201718628Y-154427757D01*
X201718628Y-154427757D02*
X201813866Y-154380138D01*
X201813866Y-154380138D02*
X202004342Y-154380138D01*
X202004342Y-154380138D02*
X202099580Y-154427757D01*
X202099580Y-154427757D02*
X202147200Y-154475376D01*
X202147200Y-154475376D02*
X202194819Y-154570614D01*
X202194819Y-154570614D02*
X202194819Y-154761090D01*
X202194819Y-154761090D02*
X202147200Y-154856328D01*
X202147200Y-154856328D02*
X202099580Y-154903947D01*
X202099580Y-154903947D02*
X202004342Y-154951566D01*
X202004342Y-154951566D02*
X201813866Y-154951566D01*
X201813866Y-154951566D02*
X201718628Y-154903947D01*
X201718628Y-154903947D02*
X201671009Y-154856328D01*
X201671009Y-154856328D02*
X201623390Y-154761090D01*
X201194819Y-155570614D02*
X201194819Y-155665852D01*
X201194819Y-155665852D02*
X201242438Y-155761090D01*
X201242438Y-155761090D02*
X201290057Y-155808709D01*
X201290057Y-155808709D02*
X201385295Y-155856328D01*
X201385295Y-155856328D02*
X201575771Y-155903947D01*
X201575771Y-155903947D02*
X201813866Y-155903947D01*
X201813866Y-155903947D02*
X202004342Y-155856328D01*
X202004342Y-155856328D02*
X202099580Y-155808709D01*
X202099580Y-155808709D02*
X202147200Y-155761090D01*
X202147200Y-155761090D02*
X202194819Y-155665852D01*
X202194819Y-155665852D02*
X202194819Y-155570614D01*
X202194819Y-155570614D02*
X202147200Y-155475376D01*
X202147200Y-155475376D02*
X202099580Y-155427757D01*
X202099580Y-155427757D02*
X202004342Y-155380138D01*
X202004342Y-155380138D02*
X201813866Y-155332519D01*
X201813866Y-155332519D02*
X201575771Y-155332519D01*
X201575771Y-155332519D02*
X201385295Y-155380138D01*
X201385295Y-155380138D02*
X201290057Y-155427757D01*
X201290057Y-155427757D02*
X201242438Y-155475376D01*
X201242438Y-155475376D02*
X201194819Y-155570614D01*
X210199580Y-150022995D02*
X210247200Y-149975376D01*
X210247200Y-149975376D02*
X210294819Y-149832519D01*
X210294819Y-149832519D02*
X210294819Y-149737281D01*
X210294819Y-149737281D02*
X210247200Y-149594424D01*
X210247200Y-149594424D02*
X210151961Y-149499186D01*
X210151961Y-149499186D02*
X210056723Y-149451567D01*
X210056723Y-149451567D02*
X209866247Y-149403948D01*
X209866247Y-149403948D02*
X209723390Y-149403948D01*
X209723390Y-149403948D02*
X209532914Y-149451567D01*
X209532914Y-149451567D02*
X209437676Y-149499186D01*
X209437676Y-149499186D02*
X209342438Y-149594424D01*
X209342438Y-149594424D02*
X209294819Y-149737281D01*
X209294819Y-149737281D02*
X209294819Y-149832519D01*
X209294819Y-149832519D02*
X209342438Y-149975376D01*
X209342438Y-149975376D02*
X209390057Y-150022995D01*
X209294819Y-150927757D02*
X209294819Y-150451567D01*
X209294819Y-150451567D02*
X209771009Y-150403948D01*
X209771009Y-150403948D02*
X209723390Y-150451567D01*
X209723390Y-150451567D02*
X209675771Y-150546805D01*
X209675771Y-150546805D02*
X209675771Y-150784900D01*
X209675771Y-150784900D02*
X209723390Y-150880138D01*
X209723390Y-150880138D02*
X209771009Y-150927757D01*
X209771009Y-150927757D02*
X209866247Y-150975376D01*
X209866247Y-150975376D02*
X210104342Y-150975376D01*
X210104342Y-150975376D02*
X210199580Y-150927757D01*
X210199580Y-150927757D02*
X210247200Y-150880138D01*
X210247200Y-150880138D02*
X210294819Y-150784900D01*
X210294819Y-150784900D02*
X210294819Y-150546805D01*
X210294819Y-150546805D02*
X210247200Y-150451567D01*
X210247200Y-150451567D02*
X210199580Y-150403948D01*
X209294819Y-151594424D02*
X209294819Y-151689662D01*
X209294819Y-151689662D02*
X209342438Y-151784900D01*
X209342438Y-151784900D02*
X209390057Y-151832519D01*
X209390057Y-151832519D02*
X209485295Y-151880138D01*
X209485295Y-151880138D02*
X209675771Y-151927757D01*
X209675771Y-151927757D02*
X209913866Y-151927757D01*
X209913866Y-151927757D02*
X210104342Y-151880138D01*
X210104342Y-151880138D02*
X210199580Y-151832519D01*
X210199580Y-151832519D02*
X210247200Y-151784900D01*
X210247200Y-151784900D02*
X210294819Y-151689662D01*
X210294819Y-151689662D02*
X210294819Y-151594424D01*
X210294819Y-151594424D02*
X210247200Y-151499186D01*
X210247200Y-151499186D02*
X210199580Y-151451567D01*
X210199580Y-151451567D02*
X210104342Y-151403948D01*
X210104342Y-151403948D02*
X209913866Y-151356329D01*
X209913866Y-151356329D02*
X209675771Y-151356329D01*
X209675771Y-151356329D02*
X209485295Y-151403948D01*
X209485295Y-151403948D02*
X209390057Y-151451567D01*
X209390057Y-151451567D02*
X209342438Y-151499186D01*
X209342438Y-151499186D02*
X209294819Y-151594424D01*
X209294819Y-152261091D02*
X209294819Y-152880138D01*
X209294819Y-152880138D02*
X209675771Y-152546805D01*
X209675771Y-152546805D02*
X209675771Y-152689662D01*
X209675771Y-152689662D02*
X209723390Y-152784900D01*
X209723390Y-152784900D02*
X209771009Y-152832519D01*
X209771009Y-152832519D02*
X209866247Y-152880138D01*
X209866247Y-152880138D02*
X210104342Y-152880138D01*
X210104342Y-152880138D02*
X210199580Y-152832519D01*
X210199580Y-152832519D02*
X210247200Y-152784900D01*
X210247200Y-152784900D02*
X210294819Y-152689662D01*
X210294819Y-152689662D02*
X210294819Y-152403948D01*
X210294819Y-152403948D02*
X210247200Y-152308710D01*
X210247200Y-152308710D02*
X210199580Y-152261091D01*
X209771009Y-153642043D02*
X209818628Y-153784900D01*
X209818628Y-153784900D02*
X209866247Y-153832519D01*
X209866247Y-153832519D02*
X209961485Y-153880138D01*
X209961485Y-153880138D02*
X210104342Y-153880138D01*
X210104342Y-153880138D02*
X210199580Y-153832519D01*
X210199580Y-153832519D02*
X210247200Y-153784900D01*
X210247200Y-153784900D02*
X210294819Y-153689662D01*
X210294819Y-153689662D02*
X210294819Y-153308710D01*
X210294819Y-153308710D02*
X209294819Y-153308710D01*
X209294819Y-153308710D02*
X209294819Y-153642043D01*
X209294819Y-153642043D02*
X209342438Y-153737281D01*
X209342438Y-153737281D02*
X209390057Y-153784900D01*
X209390057Y-153784900D02*
X209485295Y-153832519D01*
X209485295Y-153832519D02*
X209580533Y-153832519D01*
X209580533Y-153832519D02*
X209675771Y-153784900D01*
X209675771Y-153784900D02*
X209723390Y-153737281D01*
X209723390Y-153737281D02*
X209771009Y-153642043D01*
X209771009Y-153642043D02*
X209771009Y-153308710D01*
X209913866Y-154308710D02*
X209913866Y-155070615D01*
X209771009Y-155880138D02*
X209818628Y-156022995D01*
X209818628Y-156022995D02*
X209866247Y-156070614D01*
X209866247Y-156070614D02*
X209961485Y-156118233D01*
X209961485Y-156118233D02*
X210104342Y-156118233D01*
X210104342Y-156118233D02*
X210199580Y-156070614D01*
X210199580Y-156070614D02*
X210247200Y-156022995D01*
X210247200Y-156022995D02*
X210294819Y-155927757D01*
X210294819Y-155927757D02*
X210294819Y-155546805D01*
X210294819Y-155546805D02*
X209294819Y-155546805D01*
X209294819Y-155546805D02*
X209294819Y-155880138D01*
X209294819Y-155880138D02*
X209342438Y-155975376D01*
X209342438Y-155975376D02*
X209390057Y-156022995D01*
X209390057Y-156022995D02*
X209485295Y-156070614D01*
X209485295Y-156070614D02*
X209580533Y-156070614D01*
X209580533Y-156070614D02*
X209675771Y-156022995D01*
X209675771Y-156022995D02*
X209723390Y-155975376D01*
X209723390Y-155975376D02*
X209771009Y-155880138D01*
X209771009Y-155880138D02*
X209771009Y-155546805D01*
X210199580Y-157118233D02*
X210247200Y-157070614D01*
X210247200Y-157070614D02*
X210294819Y-156927757D01*
X210294819Y-156927757D02*
X210294819Y-156832519D01*
X210294819Y-156832519D02*
X210247200Y-156689662D01*
X210247200Y-156689662D02*
X210151961Y-156594424D01*
X210151961Y-156594424D02*
X210056723Y-156546805D01*
X210056723Y-156546805D02*
X209866247Y-156499186D01*
X209866247Y-156499186D02*
X209723390Y-156499186D01*
X209723390Y-156499186D02*
X209532914Y-156546805D01*
X209532914Y-156546805D02*
X209437676Y-156594424D01*
X209437676Y-156594424D02*
X209342438Y-156689662D01*
X209342438Y-156689662D02*
X209294819Y-156832519D01*
X209294819Y-156832519D02*
X209294819Y-156927757D01*
X209294819Y-156927757D02*
X209342438Y-157070614D01*
X209342438Y-157070614D02*
X209390057Y-157118233D01*
X210294819Y-157546805D02*
X209294819Y-157546805D01*
X209294819Y-157546805D02*
X210294819Y-158118233D01*
X210294819Y-158118233D02*
X209294819Y-158118233D01*
D12*
%TO.C,R60*%
X203820000Y-125061500D02*
X207660000Y-125061500D01*
X203820000Y-126901500D02*
X207660000Y-126901500D01*
D13*
%TO.C,J11*%
X225069400Y-180766600D02*
G75*
G03*
X224307400Y-180766600I-381000J0D01*
G01*
X224307400Y-180766600D02*
G75*
G03*
X225069400Y-180766600I381000J0D01*
G01*
D12*
%TO.C,R80*%
X203820000Y-160621500D02*
X207660000Y-160621500D01*
X203820000Y-162461500D02*
X207660000Y-162461500D01*
D14*
%TO.C,LED70*%
X205740000Y-130959900D02*
X206375000Y-131721900D01*
X205740000Y-130959900D02*
X206248000Y-131721900D01*
X205740000Y-130959900D02*
X206121000Y-131721900D01*
X205740000Y-130959900D02*
X205994000Y-131721900D01*
X205740000Y-130959900D02*
X205867000Y-131721900D01*
X205740000Y-130959900D02*
X205613000Y-131721900D01*
X205740000Y-130959900D02*
X205486000Y-131721900D01*
X205740000Y-130959900D02*
X205359000Y-131721900D01*
X205740000Y-130959900D02*
X205232000Y-131721900D01*
X205740000Y-130959900D02*
X205105000Y-131721900D01*
X205105000Y-130959900D02*
X206375000Y-130959900D01*
X205105000Y-131721900D02*
X206375000Y-131721900D01*
X205740000Y-131975900D02*
X205740000Y-130705900D01*
X208762600Y-135252500D02*
G75*
G03*
X202717400Y-135252500I-3022600J0D01*
G01*
X202717400Y-135252500D02*
G75*
G03*
X208762600Y-135252500I3022600J0D01*
G01*
D12*
%TO.C,R50*%
X203820000Y-107281500D02*
X207660000Y-107281500D01*
X203820000Y-109121500D02*
X207660000Y-109121500D01*
%TO.C,R40*%
X203820000Y-89501500D02*
X207660000Y-89501500D01*
X203820000Y-91341500D02*
X207660000Y-91341500D01*
%TO.C,R30*%
X203820000Y-71721500D02*
X207660000Y-71721500D01*
X203820000Y-73561500D02*
X207660000Y-73561500D01*
D14*
%TO.C,LED10*%
X205740000Y-25032300D02*
X206375000Y-25794300D01*
X205740000Y-25032300D02*
X206248000Y-25794300D01*
X205740000Y-25032300D02*
X206121000Y-25794300D01*
X205740000Y-25032300D02*
X205994000Y-25794300D01*
X205740000Y-25032300D02*
X205867000Y-25794300D01*
X205740000Y-25032300D02*
X205613000Y-25794300D01*
X205740000Y-25032300D02*
X205486000Y-25794300D01*
X205740000Y-25032300D02*
X205359000Y-25794300D01*
X205740000Y-25032300D02*
X205232000Y-25794300D01*
X205740000Y-25032300D02*
X205105000Y-25794300D01*
X205105000Y-25032300D02*
X206375000Y-25032300D01*
X205105000Y-25794300D02*
X206375000Y-25794300D01*
X205740000Y-26048300D02*
X205740000Y-24778300D01*
X208762600Y-29324900D02*
G75*
G03*
X202717400Y-29324900I-3022600J0D01*
G01*
X202717400Y-29324900D02*
G75*
G03*
X208762600Y-29324900I3022600J0D01*
G01*
%TO.C,LED40*%
X205740000Y-78372300D02*
X206375000Y-79134300D01*
X205740000Y-78372300D02*
X206248000Y-79134300D01*
X205740000Y-78372300D02*
X206121000Y-79134300D01*
X205740000Y-78372300D02*
X205994000Y-79134300D01*
X205740000Y-78372300D02*
X205867000Y-79134300D01*
X205740000Y-78372300D02*
X205613000Y-79134300D01*
X205740000Y-78372300D02*
X205486000Y-79134300D01*
X205740000Y-78372300D02*
X205359000Y-79134300D01*
X205740000Y-78372300D02*
X205232000Y-79134300D01*
X205740000Y-78372300D02*
X205105000Y-79134300D01*
X205105000Y-78372300D02*
X206375000Y-78372300D01*
X205105000Y-79134300D02*
X206375000Y-79134300D01*
X205740000Y-79388300D02*
X205740000Y-78118300D01*
X208762600Y-82664900D02*
G75*
G03*
X202717400Y-82664900I-3022600J0D01*
G01*
X202717400Y-82664900D02*
G75*
G03*
X208762600Y-82664900I3022600J0D01*
G01*
%TO.C,LED20*%
X205740000Y-42812300D02*
X206375000Y-43574300D01*
X205740000Y-42812300D02*
X206248000Y-43574300D01*
X205740000Y-42812300D02*
X206121000Y-43574300D01*
X205740000Y-42812300D02*
X205994000Y-43574300D01*
X205740000Y-42812300D02*
X205867000Y-43574300D01*
X205740000Y-42812300D02*
X205613000Y-43574300D01*
X205740000Y-42812300D02*
X205486000Y-43574300D01*
X205740000Y-42812300D02*
X205359000Y-43574300D01*
X205740000Y-42812300D02*
X205232000Y-43574300D01*
X205740000Y-42812300D02*
X205105000Y-43574300D01*
X205105000Y-42812300D02*
X206375000Y-42812300D01*
X205105000Y-43574300D02*
X206375000Y-43574300D01*
X205740000Y-43828300D02*
X205740000Y-42558300D01*
X208762600Y-47104900D02*
G75*
G03*
X202717400Y-47104900I-3022600J0D01*
G01*
X202717400Y-47104900D02*
G75*
G03*
X208762600Y-47104900I3022600J0D01*
G01*
D12*
%TO.C,R20*%
X203820000Y-53941500D02*
X207660000Y-53941500D01*
X203820000Y-55781500D02*
X207660000Y-55781500D01*
D14*
%TO.C,LED30*%
X205740000Y-60592300D02*
X206375000Y-61354300D01*
X205740000Y-60592300D02*
X206248000Y-61354300D01*
X205740000Y-60592300D02*
X206121000Y-61354300D01*
X205740000Y-60592300D02*
X205994000Y-61354300D01*
X205740000Y-60592300D02*
X205867000Y-61354300D01*
X205740000Y-60592300D02*
X205613000Y-61354300D01*
X205740000Y-60592300D02*
X205486000Y-61354300D01*
X205740000Y-60592300D02*
X205359000Y-61354300D01*
X205740000Y-60592300D02*
X205232000Y-61354300D01*
X205740000Y-60592300D02*
X205105000Y-61354300D01*
X205105000Y-60592300D02*
X206375000Y-60592300D01*
X205105000Y-61354300D02*
X206375000Y-61354300D01*
X205740000Y-61608300D02*
X205740000Y-60338300D01*
X208762600Y-64884900D02*
G75*
G03*
X202717400Y-64884900I-3022600J0D01*
G01*
X202717400Y-64884900D02*
G75*
G03*
X208762600Y-64884900I3022600J0D01*
G01*
D12*
%TO.C,R70*%
X203820000Y-142089100D02*
X207660000Y-142089100D01*
X203820000Y-143929100D02*
X207660000Y-143929100D01*
D14*
%TO.C,LED50*%
X205740000Y-96152300D02*
X206375000Y-96914300D01*
X205740000Y-96152300D02*
X206248000Y-96914300D01*
X205740000Y-96152300D02*
X206121000Y-96914300D01*
X205740000Y-96152300D02*
X205994000Y-96914300D01*
X205740000Y-96152300D02*
X205867000Y-96914300D01*
X205740000Y-96152300D02*
X205613000Y-96914300D01*
X205740000Y-96152300D02*
X205486000Y-96914300D01*
X205740000Y-96152300D02*
X205359000Y-96914300D01*
X205740000Y-96152300D02*
X205232000Y-96914300D01*
X205740000Y-96152300D02*
X205105000Y-96914300D01*
X205105000Y-96152300D02*
X206375000Y-96152300D01*
X205105000Y-96914300D02*
X206375000Y-96914300D01*
X205740000Y-97168300D02*
X205740000Y-95898300D01*
X208762600Y-100444900D02*
G75*
G03*
X202717400Y-100444900I-3022600J0D01*
G01*
X202717400Y-100444900D02*
G75*
G03*
X208762600Y-100444900I3022600J0D01*
G01*
D12*
%TO.C,R10*%
X203820000Y-36161500D02*
X207660000Y-36161500D01*
X203820000Y-38001500D02*
X207660000Y-38001500D01*
D14*
%TO.C,LED60*%
X205740000Y-113932300D02*
X206375000Y-114694300D01*
X205740000Y-113932300D02*
X206248000Y-114694300D01*
X205740000Y-113932300D02*
X206121000Y-114694300D01*
X205740000Y-113932300D02*
X205994000Y-114694300D01*
X205740000Y-113932300D02*
X205867000Y-114694300D01*
X205740000Y-113932300D02*
X205613000Y-114694300D01*
X205740000Y-113932300D02*
X205486000Y-114694300D01*
X205740000Y-113932300D02*
X205359000Y-114694300D01*
X205740000Y-113932300D02*
X205232000Y-114694300D01*
X205740000Y-113932300D02*
X205105000Y-114694300D01*
X205105000Y-113932300D02*
X206375000Y-113932300D01*
X205105000Y-114694300D02*
X206375000Y-114694300D01*
X205740000Y-114948300D02*
X205740000Y-113678300D01*
X208762600Y-118224900D02*
G75*
G03*
X202717400Y-118224900I-3022600J0D01*
G01*
X202717400Y-118224900D02*
G75*
G03*
X208762600Y-118224900I3022600J0D01*
G01*
%TO.C,LED80*%
X205740000Y-149492300D02*
X206375000Y-150254300D01*
X205740000Y-149492300D02*
X206248000Y-150254300D01*
X205740000Y-149492300D02*
X206121000Y-150254300D01*
X205740000Y-149492300D02*
X205994000Y-150254300D01*
X205740000Y-149492300D02*
X205867000Y-150254300D01*
X205740000Y-149492300D02*
X205613000Y-150254300D01*
X205740000Y-149492300D02*
X205486000Y-150254300D01*
X205740000Y-149492300D02*
X205359000Y-150254300D01*
X205740000Y-149492300D02*
X205232000Y-150254300D01*
X205740000Y-149492300D02*
X205105000Y-150254300D01*
X205105000Y-149492300D02*
X206375000Y-149492300D01*
X205105000Y-150254300D02*
X206375000Y-150254300D01*
X205740000Y-150508300D02*
X205740000Y-149238300D01*
X208762600Y-153784900D02*
G75*
G03*
X202717400Y-153784900I-3022600J0D01*
G01*
X202717400Y-153784900D02*
G75*
G03*
X208762600Y-153784900I3022600J0D01*
G01*
%TD*%
D15*
X216500000Y-117624900D03*
X215300000Y-118824900D03*
X216500000Y-28724900D03*
X215300000Y-29924900D03*
X216500000Y-134652500D03*
X215300000Y-135852500D03*
X216500000Y-99844900D03*
X215300000Y-101044900D03*
X216500000Y-46504900D03*
X215300000Y-47704900D03*
X216500000Y-82064900D03*
X215300000Y-83264900D03*
X216500000Y-153184900D03*
X215300000Y-154384900D03*
X216500000Y-170964900D03*
X216500000Y-172164900D03*
X215300000Y-170964900D03*
X215300000Y-172164900D03*
X216500000Y-64284900D03*
X215300000Y-65484900D03*
X203200000Y-125981500D03*
X208280000Y-125981500D03*
X224663000Y-182722400D03*
X221162997Y-182722400D03*
X217662996Y-182722400D03*
X214162995Y-182722400D03*
X210662995Y-182722400D03*
X207162994Y-182722400D03*
X224663000Y-185222400D03*
X221162997Y-185222400D03*
X217662996Y-185222400D03*
X214162995Y-185222400D03*
X210662995Y-185222400D03*
X207162994Y-185222400D03*
X228162998Y-184322412D03*
X203662996Y-184322412D03*
X203200000Y-161541500D03*
X208280000Y-161541500D03*
X205740000Y-133982500D03*
X205740000Y-136522500D03*
X203200000Y-108201500D03*
X208280000Y-108201500D03*
X203200000Y-90421500D03*
X208280000Y-90421500D03*
X203200000Y-72641500D03*
X208280000Y-72641500D03*
X205740000Y-28054900D03*
X205740000Y-30594900D03*
X205740000Y-81394900D03*
X205740000Y-83934900D03*
X205740000Y-45834900D03*
X205740000Y-48374900D03*
X203200000Y-54861500D03*
X208280000Y-54861500D03*
X205740000Y-63614900D03*
X205740000Y-66154900D03*
X203200000Y-143009100D03*
X208280000Y-143009100D03*
X205740000Y-99174900D03*
X205740000Y-101714900D03*
X203200000Y-37081500D03*
X208280000Y-37081500D03*
X205740000Y-116954900D03*
X205740000Y-119494900D03*
X205740000Y-152514900D03*
X205740000Y-155054900D03*
M02*
