%TF.GenerationSoftware,KiCad,Pcbnew,7.0.10*%
%TF.CreationDate,2024-11-26T20:56:07-08:00*%
%TF.ProjectId,Connector_Board,436f6e6e-6563-4746-9f72-5f426f617264,rev?*%
%TF.SameCoordinates,Original*%
%TF.FileFunction,Legend,Top*%
%TF.FilePolarity,Positive*%
%FSLAX46Y46*%
G04 Gerber Fmt 4.6, Leading zero omitted, Abs format (unit mm)*
G04 Created by KiCad (PCBNEW 7.0.10) date 2024-11-26 20:56:07*
%MOMM*%
%LPD*%
G01*
G04 APERTURE LIST*
%ADD10C,0.254000*%
%ADD11C,0.100000*%
%ADD12C,0.150000*%
%ADD13C,0.200000*%
%ADD14C,0.508000*%
%ADD15C,0.350000*%
G04 APERTURE END LIST*
D10*
X156004318Y-110389482D02*
X156911461Y-110389482D01*
X156911461Y-110389482D02*
X157092889Y-110449959D01*
X157092889Y-110449959D02*
X157213842Y-110570911D01*
X157213842Y-110570911D02*
X157274318Y-110752340D01*
X157274318Y-110752340D02*
X157274318Y-110873292D01*
X156004318Y-109240435D02*
X156004318Y-109482340D01*
X156004318Y-109482340D02*
X156064794Y-109603292D01*
X156064794Y-109603292D02*
X156125270Y-109663768D01*
X156125270Y-109663768D02*
X156306699Y-109784721D01*
X156306699Y-109784721D02*
X156548603Y-109845197D01*
X156548603Y-109845197D02*
X157032413Y-109845197D01*
X157032413Y-109845197D02*
X157153365Y-109784721D01*
X157153365Y-109784721D02*
X157213842Y-109724244D01*
X157213842Y-109724244D02*
X157274318Y-109603292D01*
X157274318Y-109603292D02*
X157274318Y-109361387D01*
X157274318Y-109361387D02*
X157213842Y-109240435D01*
X157213842Y-109240435D02*
X157153365Y-109179959D01*
X157153365Y-109179959D02*
X157032413Y-109119482D01*
X157032413Y-109119482D02*
X156730032Y-109119482D01*
X156730032Y-109119482D02*
X156609080Y-109179959D01*
X156609080Y-109179959D02*
X156548603Y-109240435D01*
X156548603Y-109240435D02*
X156488127Y-109361387D01*
X156488127Y-109361387D02*
X156488127Y-109603292D01*
X156488127Y-109603292D02*
X156548603Y-109724244D01*
X156548603Y-109724244D02*
X156609080Y-109784721D01*
X156609080Y-109784721D02*
X156730032Y-109845197D01*
X156004318Y-21489482D02*
X156911461Y-21489482D01*
X156911461Y-21489482D02*
X157092889Y-21549959D01*
X157092889Y-21549959D02*
X157213842Y-21670911D01*
X157213842Y-21670911D02*
X157274318Y-21852340D01*
X157274318Y-21852340D02*
X157274318Y-21973292D01*
X157274318Y-20219482D02*
X157274318Y-20945197D01*
X157274318Y-20582340D02*
X156004318Y-20582340D01*
X156004318Y-20582340D02*
X156185746Y-20703292D01*
X156185746Y-20703292D02*
X156306699Y-20824244D01*
X156306699Y-20824244D02*
X156367175Y-20945197D01*
X156004318Y-127417082D02*
X156911461Y-127417082D01*
X156911461Y-127417082D02*
X157092889Y-127477559D01*
X157092889Y-127477559D02*
X157213842Y-127598511D01*
X157213842Y-127598511D02*
X157274318Y-127779940D01*
X157274318Y-127779940D02*
X157274318Y-127900892D01*
X156004318Y-126933273D02*
X156004318Y-126086606D01*
X156004318Y-126086606D02*
X157274318Y-126630892D01*
X156004318Y-92609482D02*
X156911461Y-92609482D01*
X156911461Y-92609482D02*
X157092889Y-92669959D01*
X157092889Y-92669959D02*
X157213842Y-92790911D01*
X157213842Y-92790911D02*
X157274318Y-92972340D01*
X157274318Y-92972340D02*
X157274318Y-93093292D01*
X156004318Y-91399959D02*
X156004318Y-92004721D01*
X156004318Y-92004721D02*
X156609080Y-92065197D01*
X156609080Y-92065197D02*
X156548603Y-92004721D01*
X156548603Y-92004721D02*
X156488127Y-91883768D01*
X156488127Y-91883768D02*
X156488127Y-91581387D01*
X156488127Y-91581387D02*
X156548603Y-91460435D01*
X156548603Y-91460435D02*
X156609080Y-91399959D01*
X156609080Y-91399959D02*
X156730032Y-91339482D01*
X156730032Y-91339482D02*
X157032413Y-91339482D01*
X157032413Y-91339482D02*
X157153365Y-91399959D01*
X157153365Y-91399959D02*
X157213842Y-91460435D01*
X157213842Y-91460435D02*
X157274318Y-91581387D01*
X157274318Y-91581387D02*
X157274318Y-91883768D01*
X157274318Y-91883768D02*
X157213842Y-92004721D01*
X157213842Y-92004721D02*
X157153365Y-92065197D01*
X156004318Y-39269482D02*
X156911461Y-39269482D01*
X156911461Y-39269482D02*
X157092889Y-39329959D01*
X157092889Y-39329959D02*
X157213842Y-39450911D01*
X157213842Y-39450911D02*
X157274318Y-39632340D01*
X157274318Y-39632340D02*
X157274318Y-39753292D01*
X156125270Y-38725197D02*
X156064794Y-38664721D01*
X156064794Y-38664721D02*
X156004318Y-38543768D01*
X156004318Y-38543768D02*
X156004318Y-38241387D01*
X156004318Y-38241387D02*
X156064794Y-38120435D01*
X156064794Y-38120435D02*
X156125270Y-38059959D01*
X156125270Y-38059959D02*
X156246222Y-37999482D01*
X156246222Y-37999482D02*
X156367175Y-37999482D01*
X156367175Y-37999482D02*
X156548603Y-38059959D01*
X156548603Y-38059959D02*
X157274318Y-38785673D01*
X157274318Y-38785673D02*
X157274318Y-37999482D01*
X156004318Y-74829482D02*
X156911461Y-74829482D01*
X156911461Y-74829482D02*
X157092889Y-74889959D01*
X157092889Y-74889959D02*
X157213842Y-75010911D01*
X157213842Y-75010911D02*
X157274318Y-75192340D01*
X157274318Y-75192340D02*
X157274318Y-75313292D01*
X156427651Y-73680435D02*
X157274318Y-73680435D01*
X155943842Y-73982816D02*
X156850984Y-74285197D01*
X156850984Y-74285197D02*
X156850984Y-73499006D01*
X156004318Y-145949482D02*
X156911461Y-145949482D01*
X156911461Y-145949482D02*
X157092889Y-146009959D01*
X157092889Y-146009959D02*
X157213842Y-146130911D01*
X157213842Y-146130911D02*
X157274318Y-146312340D01*
X157274318Y-146312340D02*
X157274318Y-146433292D01*
X156548603Y-145163292D02*
X156488127Y-145284244D01*
X156488127Y-145284244D02*
X156427651Y-145344721D01*
X156427651Y-145344721D02*
X156306699Y-145405197D01*
X156306699Y-145405197D02*
X156246222Y-145405197D01*
X156246222Y-145405197D02*
X156125270Y-145344721D01*
X156125270Y-145344721D02*
X156064794Y-145284244D01*
X156064794Y-145284244D02*
X156004318Y-145163292D01*
X156004318Y-145163292D02*
X156004318Y-144921387D01*
X156004318Y-144921387D02*
X156064794Y-144800435D01*
X156064794Y-144800435D02*
X156125270Y-144739959D01*
X156125270Y-144739959D02*
X156246222Y-144679482D01*
X156246222Y-144679482D02*
X156306699Y-144679482D01*
X156306699Y-144679482D02*
X156427651Y-144739959D01*
X156427651Y-144739959D02*
X156488127Y-144800435D01*
X156488127Y-144800435D02*
X156548603Y-144921387D01*
X156548603Y-144921387D02*
X156548603Y-145163292D01*
X156548603Y-145163292D02*
X156609080Y-145284244D01*
X156609080Y-145284244D02*
X156669556Y-145344721D01*
X156669556Y-145344721D02*
X156790508Y-145405197D01*
X156790508Y-145405197D02*
X157032413Y-145405197D01*
X157032413Y-145405197D02*
X157153365Y-145344721D01*
X157153365Y-145344721D02*
X157213842Y-145284244D01*
X157213842Y-145284244D02*
X157274318Y-145163292D01*
X157274318Y-145163292D02*
X157274318Y-144921387D01*
X157274318Y-144921387D02*
X157213842Y-144800435D01*
X157213842Y-144800435D02*
X157153365Y-144739959D01*
X157153365Y-144739959D02*
X157032413Y-144679482D01*
X157032413Y-144679482D02*
X156790508Y-144679482D01*
X156790508Y-144679482D02*
X156669556Y-144739959D01*
X156669556Y-144739959D02*
X156609080Y-144800435D01*
X156609080Y-144800435D02*
X156548603Y-144921387D01*
X156004318Y-163729482D02*
X156911461Y-163729482D01*
X156911461Y-163729482D02*
X157092889Y-163789959D01*
X157092889Y-163789959D02*
X157213842Y-163910911D01*
X157213842Y-163910911D02*
X157274318Y-164092340D01*
X157274318Y-164092340D02*
X157274318Y-164213292D01*
X157274318Y-163064244D02*
X157274318Y-162822340D01*
X157274318Y-162822340D02*
X157213842Y-162701387D01*
X157213842Y-162701387D02*
X157153365Y-162640911D01*
X157153365Y-162640911D02*
X156971937Y-162519959D01*
X156971937Y-162519959D02*
X156730032Y-162459482D01*
X156730032Y-162459482D02*
X156246222Y-162459482D01*
X156246222Y-162459482D02*
X156125270Y-162519959D01*
X156125270Y-162519959D02*
X156064794Y-162580435D01*
X156064794Y-162580435D02*
X156004318Y-162701387D01*
X156004318Y-162701387D02*
X156004318Y-162943292D01*
X156004318Y-162943292D02*
X156064794Y-163064244D01*
X156064794Y-163064244D02*
X156125270Y-163124721D01*
X156125270Y-163124721D02*
X156246222Y-163185197D01*
X156246222Y-163185197D02*
X156548603Y-163185197D01*
X156548603Y-163185197D02*
X156669556Y-163124721D01*
X156669556Y-163124721D02*
X156730032Y-163064244D01*
X156730032Y-163064244D02*
X156790508Y-162943292D01*
X156790508Y-162943292D02*
X156790508Y-162701387D01*
X156790508Y-162701387D02*
X156730032Y-162580435D01*
X156730032Y-162580435D02*
X156669556Y-162519959D01*
X156669556Y-162519959D02*
X156548603Y-162459482D01*
X156004318Y-57049482D02*
X156911461Y-57049482D01*
X156911461Y-57049482D02*
X157092889Y-57109959D01*
X157092889Y-57109959D02*
X157213842Y-57230911D01*
X157213842Y-57230911D02*
X157274318Y-57412340D01*
X157274318Y-57412340D02*
X157274318Y-57533292D01*
X156004318Y-56565673D02*
X156004318Y-55779482D01*
X156004318Y-55779482D02*
X156488127Y-56202816D01*
X156488127Y-56202816D02*
X156488127Y-56021387D01*
X156488127Y-56021387D02*
X156548603Y-55900435D01*
X156548603Y-55900435D02*
X156609080Y-55839959D01*
X156609080Y-55839959D02*
X156730032Y-55779482D01*
X156730032Y-55779482D02*
X157032413Y-55779482D01*
X157032413Y-55779482D02*
X157153365Y-55839959D01*
X157153365Y-55839959D02*
X157213842Y-55900435D01*
X157213842Y-55900435D02*
X157274318Y-56021387D01*
X157274318Y-56021387D02*
X157274318Y-56384244D01*
X157274318Y-56384244D02*
X157213842Y-56505197D01*
X157213842Y-56505197D02*
X157153365Y-56565673D01*
D11*
%TO.C,J6*%
X153700000Y-109966150D02*
X154725000Y-109216150D01*
X154725000Y-110716150D02*
X153700000Y-109966150D01*
D12*
X155459800Y-109366150D02*
G75*
G03*
X155309800Y-109366150I-75000J0D01*
G01*
X155309800Y-109366150D02*
G75*
G03*
X155459800Y-109366150I75000J0D01*
G01*
D13*
X154800000Y-109966150D02*
G75*
G03*
X145200000Y-109966150I-4800000J0D01*
G01*
X145200000Y-109966150D02*
G75*
G03*
X154800000Y-109966150I4800000J0D01*
G01*
D11*
%TO.C,J1*%
X153700000Y-21066150D02*
X154725000Y-20316150D01*
X154725000Y-21816150D02*
X153700000Y-21066150D01*
D12*
X155459800Y-20466150D02*
G75*
G03*
X155309800Y-20466150I-75000J0D01*
G01*
X155309800Y-20466150D02*
G75*
G03*
X155459800Y-20466150I75000J0D01*
G01*
D13*
X154800000Y-21066150D02*
G75*
G03*
X145200000Y-21066150I-4800000J0D01*
G01*
X145200000Y-21066150D02*
G75*
G03*
X154800000Y-21066150I4800000J0D01*
G01*
D11*
%TO.C,J7*%
X153700000Y-126993750D02*
X154725000Y-126243750D01*
X154725000Y-127743750D02*
X153700000Y-126993750D01*
D12*
X155459800Y-126393750D02*
G75*
G03*
X155309800Y-126393750I-75000J0D01*
G01*
X155309800Y-126393750D02*
G75*
G03*
X155459800Y-126393750I75000J0D01*
G01*
D13*
X154800000Y-126993750D02*
G75*
G03*
X145200000Y-126993750I-4800000J0D01*
G01*
X145200000Y-126993750D02*
G75*
G03*
X154800000Y-126993750I4800000J0D01*
G01*
D11*
%TO.C,J5*%
X153700000Y-92186150D02*
X154725000Y-91436150D01*
X154725000Y-92936150D02*
X153700000Y-92186150D01*
D12*
X155459800Y-91586150D02*
G75*
G03*
X155309800Y-91586150I-75000J0D01*
G01*
X155309800Y-91586150D02*
G75*
G03*
X155459800Y-91586150I75000J0D01*
G01*
D13*
X154800000Y-92186150D02*
G75*
G03*
X145200000Y-92186150I-4800000J0D01*
G01*
X145200000Y-92186150D02*
G75*
G03*
X154800000Y-92186150I4800000J0D01*
G01*
D11*
%TO.C,J2*%
X153700000Y-38846150D02*
X154725000Y-38096150D01*
X154725000Y-39596150D02*
X153700000Y-38846150D01*
D12*
X155459800Y-38246150D02*
G75*
G03*
X155309800Y-38246150I-75000J0D01*
G01*
X155309800Y-38246150D02*
G75*
G03*
X155459800Y-38246150I75000J0D01*
G01*
D13*
X154800000Y-38846150D02*
G75*
G03*
X145200000Y-38846150I-4800000J0D01*
G01*
X145200000Y-38846150D02*
G75*
G03*
X154800000Y-38846150I4800000J0D01*
G01*
D11*
%TO.C,J4*%
X153700000Y-74406150D02*
X154725000Y-73656150D01*
X154725000Y-75156150D02*
X153700000Y-74406150D01*
D12*
X155459800Y-73806150D02*
G75*
G03*
X155309800Y-73806150I-75000J0D01*
G01*
X155309800Y-73806150D02*
G75*
G03*
X155459800Y-73806150I75000J0D01*
G01*
D13*
X154800000Y-74406150D02*
G75*
G03*
X145200000Y-74406150I-4800000J0D01*
G01*
X145200000Y-74406150D02*
G75*
G03*
X154800000Y-74406150I4800000J0D01*
G01*
D11*
%TO.C,J8*%
X153700000Y-145526150D02*
X154725000Y-144776150D01*
X154725000Y-146276150D02*
X153700000Y-145526150D01*
D12*
X155459800Y-144926150D02*
G75*
G03*
X155309800Y-144926150I-75000J0D01*
G01*
X155309800Y-144926150D02*
G75*
G03*
X155459800Y-144926150I75000J0D01*
G01*
D13*
X154800000Y-145526150D02*
G75*
G03*
X145200000Y-145526150I-4800000J0D01*
G01*
X145200000Y-145526150D02*
G75*
G03*
X154800000Y-145526150I4800000J0D01*
G01*
D11*
%TO.C,J9*%
X153700000Y-163306150D02*
X154725000Y-162556150D01*
X154725000Y-164056150D02*
X153700000Y-163306150D01*
D12*
X155459800Y-162706150D02*
G75*
G03*
X155309800Y-162706150I-75000J0D01*
G01*
X155309800Y-162706150D02*
G75*
G03*
X155459800Y-162706150I75000J0D01*
G01*
D13*
X154800000Y-163306150D02*
G75*
G03*
X145200000Y-163306150I-4800000J0D01*
G01*
X145200000Y-163306150D02*
G75*
G03*
X154800000Y-163306150I4800000J0D01*
G01*
D11*
%TO.C,J3*%
X153700000Y-56626150D02*
X154725000Y-55876150D01*
X154725000Y-57376150D02*
X153700000Y-56626150D01*
D12*
X155459800Y-56026150D02*
G75*
G03*
X155309800Y-56026150I-75000J0D01*
G01*
X155309800Y-56026150D02*
G75*
G03*
X155459800Y-56026150I75000J0D01*
G01*
D13*
X154800000Y-56626150D02*
G75*
G03*
X145200000Y-56626150I-4800000J0D01*
G01*
X145200000Y-56626150D02*
G75*
G03*
X154800000Y-56626150I4800000J0D01*
G01*
D14*
%TO.C,J11*%
X167754897Y-174463650D02*
G75*
G03*
X166992897Y-174463650I-381000J0D01*
G01*
X166992897Y-174463650D02*
G75*
G03*
X167754897Y-174463650I381000J0D01*
G01*
%TD*%
D15*
X150600000Y-109366150D03*
X149400000Y-110566150D03*
X150600000Y-20466150D03*
X149400000Y-21666150D03*
X150600000Y-126393750D03*
X149400000Y-127593750D03*
X150600000Y-91586150D03*
X149400000Y-92786150D03*
X150600000Y-38246150D03*
X149400000Y-39446150D03*
X150600000Y-73806150D03*
X149400000Y-75006150D03*
X150600000Y-144926150D03*
X149400000Y-146126150D03*
X150600000Y-162706150D03*
X150600000Y-163906150D03*
X149400000Y-162706150D03*
X149400000Y-163906150D03*
X150600000Y-56026150D03*
X149400000Y-57226150D03*
X137300000Y-117722750D03*
X142380000Y-117722750D03*
X158763000Y-174463650D03*
X155262997Y-174463650D03*
X151762996Y-174463650D03*
X148262995Y-174463650D03*
X144762995Y-174463650D03*
X141262994Y-174463650D03*
X158763000Y-176963650D03*
X155262997Y-176963650D03*
X151762996Y-176963650D03*
X148262995Y-176963650D03*
X144762995Y-176963650D03*
X141262994Y-176963650D03*
X162262998Y-176063662D03*
X137762996Y-176063662D03*
X137300000Y-153282750D03*
X142380000Y-153282750D03*
X139840000Y-125723750D03*
X139840000Y-128263750D03*
X137300000Y-99942750D03*
X142380000Y-99942750D03*
X137300000Y-82162750D03*
X142380000Y-82162750D03*
X137300000Y-64382750D03*
X142380000Y-64382750D03*
X139840000Y-19796150D03*
X139840000Y-22336150D03*
X139840000Y-73136150D03*
X139840000Y-75676150D03*
X139840000Y-37576150D03*
X139840000Y-40116150D03*
X137300000Y-46602750D03*
X142380000Y-46602750D03*
X139840000Y-55356150D03*
X139840000Y-57896150D03*
X137300000Y-134750350D03*
X142380000Y-134750350D03*
X139840000Y-90916150D03*
X139840000Y-93456150D03*
X137300000Y-28822750D03*
X142380000Y-28822750D03*
X139840000Y-108696150D03*
X139840000Y-111236150D03*
X139840000Y-144256150D03*
X139840000Y-146796150D03*
M02*
