M48
; DRILL file {KiCad 7.0.10} date Tue Nov 26 20:56:07 2024
; FORMAT={-:-/ absolute / metric / decimal}
; #@! TF.CreationDate,2024-11-26T20:56:07-08:00
; #@! TF.GenerationSoftware,Kicad,Pcbnew,7.0.10
; #@! TF.FileFunction,Plated,1,2,PTH
FMAT,2
METRIC
; #@! TA.AperFunction,Plated,PTH,ComponentDrill
T1C0.600
; #@! TA.AperFunction,Plated,PTH,ComponentDrill
T2C0.700
; #@! TA.AperFunction,Plated,PTH,ComponentDrill
T3C0.762
; #@! TA.AperFunction,Plated,PTH,ComponentDrill
T4C1.473
%
G90
G05
T1
X215.3Y-29.925
X215.3Y-47.705
X215.3Y-65.485
X215.3Y-83.265
X215.3Y-101.045
X215.3Y-118.825
X215.3Y-135.852
X215.3Y-154.385
X215.3Y-170.965
X215.3Y-172.165
X216.5Y-28.725
X216.5Y-46.505
X216.5Y-64.285
X216.5Y-82.065
X216.5Y-99.845
X216.5Y-117.625
X216.5Y-134.653
X216.5Y-153.185
X216.5Y-170.965
X216.5Y-172.165
T2
X203.2Y-37.081
X203.2Y-54.861
X203.2Y-72.641
X203.2Y-90.421
X203.2Y-108.201
X203.2Y-125.981
X203.2Y-143.009
X203.2Y-161.541
X208.28Y-37.081
X208.28Y-54.861
X208.28Y-72.641
X208.28Y-90.421
X208.28Y-108.201
X208.28Y-125.981
X208.28Y-143.009
X208.28Y-161.541
T3
X205.74Y-28.055
X205.74Y-30.595
X205.74Y-45.835
X205.74Y-48.375
X205.74Y-63.615
X205.74Y-66.155
X205.74Y-81.395
X205.74Y-83.935
X205.74Y-99.175
X205.74Y-101.715
X205.74Y-116.955
X205.74Y-119.495
X205.74Y-133.982
X205.74Y-136.523
X205.74Y-152.515
X205.74Y-155.055
T4
X203.663Y-184.322
X207.163Y-182.722
X207.163Y-185.222
X210.663Y-182.722
X210.663Y-185.222
X214.163Y-182.722
X214.163Y-185.222
X217.663Y-182.722
X217.663Y-185.222
X221.163Y-182.722
X221.163Y-185.222
X224.663Y-182.722
X224.663Y-185.222
X228.163Y-184.322
M30
