%TF.GenerationSoftware,KiCad,Pcbnew,7.0.10*%
%TF.CreationDate,2024-11-26T20:56:07-08:00*%
%TF.ProjectId,Connector_Board,436f6e6e-6563-4746-9f72-5f426f617264,rev?*%
%TF.SameCoordinates,Original*%
%TF.FileFunction,Copper,L1,Top*%
%TF.FilePolarity,Positive*%
%FSLAX46Y46*%
G04 Gerber Fmt 4.6, Leading zero omitted, Abs format (unit mm)*
G04 Created by KiCad (PCBNEW 7.0.10) date 2024-11-26 20:56:07*
%MOMM*%
%LPD*%
G01*
G04 APERTURE LIST*
%TA.AperFunction,ComponentPad*%
%ADD10R,1.100000X1.100000*%
%TD*%
%TA.AperFunction,ComponentPad*%
%ADD11C,1.100000*%
%TD*%
%TA.AperFunction,ComponentPad*%
%ADD12C,1.400000*%
%TD*%
%TA.AperFunction,ComponentPad*%
%ADD13O,1.400000X1.400000*%
%TD*%
%TA.AperFunction,ComponentPad*%
%ADD14R,1.981200X1.981200*%
%TD*%
%TA.AperFunction,ComponentPad*%
%ADD15C,1.981200*%
%TD*%
%TA.AperFunction,ComponentPad*%
%ADD16R,1.270000X1.270000*%
%TD*%
%TA.AperFunction,ComponentPad*%
%ADD17C,1.270000*%
%TD*%
%TA.AperFunction,Conductor*%
%ADD18C,0.800000*%
%TD*%
%TA.AperFunction,Conductor*%
%ADD19C,0.300000*%
%TD*%
%ADD20C,0.350000*%
G04 APERTURE END LIST*
D10*
%TO.P,J6,1,1*%
%TO.N,/Connector_Board/S6*%
X216500000Y-117624900D03*
D11*
%TO.P,J6,3,3*%
%TO.N,/Connector_Board/GND*%
X215300000Y-118824900D03*
%TD*%
D10*
%TO.P,J1,1,1*%
%TO.N,/Connector_Board/S1*%
X216500000Y-28724900D03*
D11*
%TO.P,J1,3,3*%
%TO.N,/Connector_Board/GND*%
X215300000Y-29924900D03*
%TD*%
D10*
%TO.P,J7,1,1*%
%TO.N,/Connector_Board/S7*%
X216500000Y-134652500D03*
D11*
%TO.P,J7,3,3*%
%TO.N,/Connector_Board/GND*%
X215300000Y-135852500D03*
%TD*%
D10*
%TO.P,J5,1,1*%
%TO.N,/Connector_Board/S5*%
X216500000Y-99844900D03*
D11*
%TO.P,J5,3,3*%
%TO.N,/Connector_Board/GND*%
X215300000Y-101044900D03*
%TD*%
D10*
%TO.P,J2,1,1*%
%TO.N,/Connector_Board/S2*%
X216500000Y-46504900D03*
D11*
%TO.P,J2,3,3*%
%TO.N,/Connector_Board/GND*%
X215300000Y-47704900D03*
%TD*%
D10*
%TO.P,J4,1,1*%
%TO.N,/Connector_Board/S4*%
X216500000Y-82064900D03*
D11*
%TO.P,J4,3,3*%
%TO.N,/Connector_Board/GND*%
X215300000Y-83264900D03*
%TD*%
D10*
%TO.P,J8,1,1*%
%TO.N,/Connector_Board/S8*%
X216500000Y-153184900D03*
D11*
%TO.P,J8,3,3*%
%TO.N,/Connector_Board/GND*%
X215300000Y-154384900D03*
%TD*%
D10*
%TO.P,J9,1,1*%
%TO.N,/Connector_Board/MCU 3.3v*%
X216500000Y-170964900D03*
D11*
%TO.P,J9,2,2*%
%TO.N,/Connector_Board/PS Out*%
X216500000Y-172164900D03*
%TO.P,J9,3,3*%
%TO.N,/Connector_Board/MCU GND*%
X215300000Y-170964900D03*
%TO.P,J9,4,4*%
%TO.N,unconnected-(J9-Pad4)*%
X215300000Y-172164900D03*
%TD*%
D10*
%TO.P,J3,1,1*%
%TO.N,/Connector_Board/S3*%
X216500000Y-64284900D03*
D11*
%TO.P,J3,3,3*%
%TO.N,/Connector_Board/GND*%
X215300000Y-65484900D03*
%TD*%
D12*
%TO.P,R60,1*%
%TO.N,Net-(LED60-Pad1)*%
X203200000Y-125981500D03*
D13*
%TO.P,R60,2*%
%TO.N,/Connector_Board/GND*%
X208280000Y-125981500D03*
%TD*%
D14*
%TO.P,J11,1,1*%
%TO.N,/Connector_Board/S1*%
X224663000Y-182722400D03*
D15*
%TO.P,J11,2,2*%
%TO.N,/Connector_Board/S3*%
X221162997Y-182722400D03*
%TO.P,J11,3,3*%
%TO.N,/Connector_Board/S5*%
X217662996Y-182722400D03*
%TO.P,J11,4,4*%
%TO.N,/Connector_Board/S7*%
X214162995Y-182722400D03*
%TO.P,J11,5,5*%
%TO.N,/Connector_Board/MCU 3.3v*%
X210662995Y-182722400D03*
%TO.P,J11,6,6*%
%TO.N,/Connector_Board/PS Out*%
X207162994Y-182722400D03*
%TO.P,J11,7,7*%
%TO.N,/Connector_Board/S2*%
X224663000Y-185222400D03*
%TO.P,J11,8,8*%
%TO.N,/Connector_Board/S4*%
X221162997Y-185222400D03*
%TO.P,J11,9,9*%
%TO.N,/Connector_Board/S6*%
X217662996Y-185222400D03*
%TO.P,J11,10,10*%
%TO.N,/Connector_Board/S8*%
X214162995Y-185222400D03*
%TO.P,J11,11,11*%
%TO.N,/Connector_Board/GND*%
X210662995Y-185222400D03*
%TO.P,J11,12,12*%
%TO.N,/Connector_Board/MCU GND*%
X207162994Y-185222400D03*
%TO.P,J11,13*%
%TO.N,N/C*%
X228162998Y-184322412D03*
%TO.P,J11,14*%
X203662996Y-184322412D03*
%TD*%
D12*
%TO.P,R80,1*%
%TO.N,Net-(LED80-Pad1)*%
X203200000Y-161541500D03*
D13*
%TO.P,R80,2*%
%TO.N,/Connector_Board/GND*%
X208280000Y-161541500D03*
%TD*%
D16*
%TO.P,LED70,1*%
%TO.N,Net-(LED70-Pad1)*%
X205740000Y-133982500D03*
D17*
%TO.P,LED70,2*%
%TO.N,/Connector_Board/S7*%
X205740000Y-136522500D03*
%TD*%
D12*
%TO.P,R50,1*%
%TO.N,Net-(LED50-Pad1)*%
X203200000Y-108201500D03*
D13*
%TO.P,R50,2*%
%TO.N,/Connector_Board/GND*%
X208280000Y-108201500D03*
%TD*%
D12*
%TO.P,R40,1*%
%TO.N,Net-(LED40-Pad1)*%
X203200000Y-90421500D03*
D13*
%TO.P,R40,2*%
%TO.N,/Connector_Board/GND*%
X208280000Y-90421500D03*
%TD*%
D12*
%TO.P,R30,1*%
%TO.N,Net-(LED30-Pad1)*%
X203200000Y-72641500D03*
D13*
%TO.P,R30,2*%
%TO.N,/Connector_Board/GND*%
X208280000Y-72641500D03*
%TD*%
D16*
%TO.P,LED10,1*%
%TO.N,Net-(LED10-Pad1)*%
X205740000Y-28054900D03*
D17*
%TO.P,LED10,2*%
%TO.N,/Connector_Board/S1*%
X205740000Y-30594900D03*
%TD*%
D16*
%TO.P,LED40,1*%
%TO.N,Net-(LED40-Pad1)*%
X205740000Y-81394900D03*
D17*
%TO.P,LED40,2*%
%TO.N,/Connector_Board/S4*%
X205740000Y-83934900D03*
%TD*%
D16*
%TO.P,LED20,1*%
%TO.N,Net-(LED20-Pad1)*%
X205740000Y-45834900D03*
D17*
%TO.P,LED20,2*%
%TO.N,/Connector_Board/S2*%
X205740000Y-48374900D03*
%TD*%
D12*
%TO.P,R20,1*%
%TO.N,Net-(LED20-Pad1)*%
X203200000Y-54861500D03*
D13*
%TO.P,R20,2*%
%TO.N,/Connector_Board/GND*%
X208280000Y-54861500D03*
%TD*%
D16*
%TO.P,LED30,1*%
%TO.N,Net-(LED30-Pad1)*%
X205740000Y-63614900D03*
D17*
%TO.P,LED30,2*%
%TO.N,/Connector_Board/S3*%
X205740000Y-66154900D03*
%TD*%
D12*
%TO.P,R70,1*%
%TO.N,Net-(LED70-Pad1)*%
X203200000Y-143009100D03*
D13*
%TO.P,R70,2*%
%TO.N,/Connector_Board/GND*%
X208280000Y-143009100D03*
%TD*%
D16*
%TO.P,LED50,1*%
%TO.N,Net-(LED50-Pad1)*%
X205740000Y-99174900D03*
D17*
%TO.P,LED50,2*%
%TO.N,/Connector_Board/S5*%
X205740000Y-101714900D03*
%TD*%
D12*
%TO.P,R10,1*%
%TO.N,Net-(LED10-Pad1)*%
X203200000Y-37081500D03*
D13*
%TO.P,R10,2*%
%TO.N,/Connector_Board/GND*%
X208280000Y-37081500D03*
%TD*%
D16*
%TO.P,LED60,1*%
%TO.N,Net-(LED60-Pad1)*%
X205740000Y-116954900D03*
D17*
%TO.P,LED60,2*%
%TO.N,/Connector_Board/S6*%
X205740000Y-119494900D03*
%TD*%
D16*
%TO.P,LED80,1*%
%TO.N,Net-(LED80-Pad1)*%
X205740000Y-152514900D03*
D17*
%TO.P,LED80,2*%
%TO.N,/Connector_Board/S8*%
X205740000Y-155054900D03*
%TD*%
D18*
%TO.N,/Connector_Board/S1*%
X228727000Y-40951900D02*
X216500000Y-28724900D01*
X224663000Y-181353500D02*
X228727000Y-177289500D01*
X216500000Y-28724900D02*
X207610000Y-28724900D01*
X207610000Y-28724900D02*
X205740000Y-30594900D01*
X224663000Y-182722400D02*
X224663000Y-181353500D01*
X228727000Y-177289500D02*
X228727000Y-40951900D01*
%TO.N,/Connector_Board/S3*%
X216500000Y-64284900D02*
X207610000Y-64284900D01*
X207610000Y-64284900D02*
X205740000Y-66154900D01*
X221162997Y-182722400D02*
X221162997Y-181678503D01*
X221162997Y-181678503D02*
X225933000Y-176908500D01*
X225933000Y-176908500D02*
X225933000Y-73717900D01*
X225933000Y-73717900D02*
X216500000Y-64284900D01*
%TO.N,/Connector_Board/S5*%
X216500000Y-99844900D02*
X207610000Y-99844900D01*
X223393000Y-106737900D02*
X216500000Y-99844900D01*
X217662996Y-182722400D02*
X217662996Y-182130504D01*
X207610000Y-99844900D02*
X205740000Y-101714900D01*
X217662996Y-182130504D02*
X223393000Y-176400500D01*
X223393000Y-176400500D02*
X223393000Y-106737900D01*
%TO.N,/Connector_Board/S7*%
X214162995Y-182074505D02*
X220853000Y-175384500D01*
X216500000Y-134652500D02*
X207610000Y-134652500D01*
X220853000Y-139757900D02*
X216500000Y-135404900D01*
X220853000Y-175384500D02*
X220853000Y-139757900D01*
X207610000Y-134652500D02*
X205740000Y-136522500D01*
X214162995Y-182722400D02*
X214162995Y-182074505D01*
%TO.N,/Connector_Board/MCU 3.3v*%
X217068400Y-170964900D02*
X216500000Y-170964900D01*
X210662995Y-182399505D02*
X218313000Y-174749500D01*
X218313000Y-174749500D02*
X218313000Y-172209500D01*
X210662995Y-182722400D02*
X210662995Y-182399505D01*
X218313000Y-172209500D02*
X217068400Y-170964900D01*
D19*
%TO.N,/Connector_Board/PS Out*%
X207162994Y-182722400D02*
X208435100Y-182722400D01*
X208435100Y-182722400D02*
X216500000Y-174657500D01*
X216500000Y-174657500D02*
X216500000Y-172164900D01*
D18*
%TO.N,/Connector_Board/S2*%
X224663000Y-185222400D02*
X223959900Y-185222400D01*
X227330000Y-177035500D02*
X227330000Y-57334900D01*
X207610000Y-46504900D02*
X205740000Y-48374900D01*
X227330000Y-57334900D02*
X216500000Y-46504900D01*
X222885000Y-184147500D02*
X222885000Y-181480500D01*
X216500000Y-46504900D02*
X207610000Y-46504900D01*
X222885000Y-181480500D02*
X227330000Y-177035500D01*
X223959900Y-185222400D02*
X222885000Y-184147500D01*
%TO.N,/Connector_Board/S4*%
X219572397Y-183631800D02*
X221162997Y-185222400D01*
X207610000Y-82064900D02*
X205740000Y-83934900D01*
X224663000Y-90227900D02*
X224663000Y-176654500D01*
X219572397Y-181745103D02*
X219572397Y-183631800D01*
X224663000Y-176654500D02*
X219572397Y-181745103D01*
X216500000Y-82064900D02*
X207610000Y-82064900D01*
X216500000Y-82064900D02*
X224663000Y-90227900D01*
%TO.N,/Connector_Board/S6*%
X216072396Y-182063551D02*
X216072396Y-183631800D01*
X216500000Y-117624900D02*
X222123000Y-123247900D01*
X216072396Y-183631800D02*
X217662996Y-185222400D01*
X222123000Y-123247900D02*
X222123000Y-176012947D01*
X216500000Y-117624900D02*
X207610000Y-117624900D01*
X207610000Y-117624900D02*
X205740000Y-119494900D01*
X222123000Y-176012947D02*
X216072396Y-182063551D01*
%TO.N,/Connector_Board/S8*%
X212572395Y-183631800D02*
X214162995Y-185222400D01*
X216500000Y-153184900D02*
X219710000Y-156394900D01*
X207610000Y-153184900D02*
X205740000Y-155054900D01*
X216500000Y-153184900D02*
X207610000Y-153184900D01*
X212572395Y-182063551D02*
X212572395Y-183631800D01*
X219710000Y-174925946D02*
X212572395Y-182063551D01*
X219710000Y-156394900D02*
X219710000Y-174925946D01*
%TO.N,/Connector_Board/GND*%
X208280000Y-125981500D02*
X215300000Y-118961500D01*
X215300000Y-30061500D02*
X215300000Y-29924900D01*
X208280000Y-90421500D02*
X215300000Y-83401500D01*
X215300000Y-101181500D02*
X215300000Y-101044900D01*
X208280000Y-72641500D02*
X215300000Y-65621500D01*
X215300000Y-83401500D02*
X215300000Y-83264900D01*
X215300000Y-154521500D02*
X215300000Y-154384900D01*
X208280000Y-143009100D02*
X215300000Y-135989100D01*
X208280000Y-54861500D02*
X215300000Y-47841500D01*
X215300000Y-65621500D02*
X215300000Y-65484900D01*
X208280000Y-161541500D02*
X215300000Y-154521500D01*
X208280000Y-37081500D02*
X215300000Y-30061500D01*
X215300000Y-135989100D02*
X215300000Y-135852500D01*
X215300000Y-47841500D02*
X215300000Y-47704900D01*
X215300000Y-118961500D02*
X215300000Y-118824900D01*
X208280000Y-108201500D02*
X215300000Y-101181500D01*
%TO.N,/Connector_Board/MCU GND*%
X205572394Y-183631800D02*
X205572394Y-179997106D01*
X207162994Y-185222400D02*
X205572394Y-183631800D01*
X205572394Y-179997106D02*
X214604600Y-170964900D01*
X214604600Y-170964900D02*
X215300000Y-170964900D01*
%TO.N,Net-(LED10-Pad1)*%
X203200000Y-30594900D02*
X203200000Y-37081500D01*
X205740000Y-28054900D02*
X203200000Y-30594900D01*
%TO.N,Net-(LED20-Pad1)*%
X203200000Y-48374900D02*
X203200000Y-54861500D01*
X205740000Y-45834900D02*
X203200000Y-48374900D01*
%TO.N,Net-(LED30-Pad1)*%
X203200000Y-66154900D02*
X203200000Y-72641500D01*
X205740000Y-63614900D02*
X203200000Y-66154900D01*
%TO.N,Net-(LED40-Pad1)*%
X205740000Y-81394900D02*
X203200000Y-83934900D01*
X203200000Y-83934900D02*
X203200000Y-90421500D01*
%TO.N,Net-(LED50-Pad1)*%
X203200000Y-101714900D02*
X203200000Y-108201500D01*
X205740000Y-99174900D02*
X203200000Y-101714900D01*
%TO.N,Net-(LED60-Pad1)*%
X205740000Y-116954900D02*
X203200000Y-119494900D01*
X203200000Y-119494900D02*
X203200000Y-125981500D01*
%TO.N,Net-(LED70-Pad1)*%
X203200000Y-136522500D02*
X203200000Y-143009100D01*
X205740000Y-133982500D02*
X203200000Y-136522500D01*
%TO.N,Net-(LED80-Pad1)*%
X205740000Y-152514900D02*
X203200000Y-155054900D01*
X203200000Y-155054900D02*
X203200000Y-161541500D01*
%TD*%
%TA.AperFunction,Conductor*%
%TO.N,/Connector_Board/MCU GND*%
G36*
X230085395Y-20250972D02*
G01*
X230246225Y-20265042D01*
X230267509Y-20268795D01*
X230320837Y-20283084D01*
X230418216Y-20309176D01*
X230438513Y-20316563D01*
X230579918Y-20382502D01*
X230598633Y-20393308D01*
X230726438Y-20482798D01*
X230742996Y-20496692D01*
X230853307Y-20607003D01*
X230867201Y-20623561D01*
X230956691Y-20751366D01*
X230967498Y-20770083D01*
X231033433Y-20911480D01*
X231040824Y-20931787D01*
X231081204Y-21082490D01*
X231084957Y-21103775D01*
X231099028Y-21264603D01*
X231099500Y-21275411D01*
X231099500Y-195242088D01*
X231099028Y-195252896D01*
X231084957Y-195413724D01*
X231081204Y-195435009D01*
X231040824Y-195585712D01*
X231033431Y-195606025D01*
X230967498Y-195747416D01*
X230956691Y-195766133D01*
X230867201Y-195893938D01*
X230853307Y-195910496D01*
X230742996Y-196020807D01*
X230726438Y-196034701D01*
X230598633Y-196124191D01*
X230579916Y-196134998D01*
X230438525Y-196200931D01*
X230418212Y-196208324D01*
X230267509Y-196248704D01*
X230246224Y-196252457D01*
X230100414Y-196265213D01*
X230085394Y-196266528D01*
X230074588Y-196267000D01*
X201725412Y-196267000D01*
X201714605Y-196266528D01*
X201697736Y-196265052D01*
X201553775Y-196252457D01*
X201532490Y-196248704D01*
X201381787Y-196208324D01*
X201361480Y-196200933D01*
X201220083Y-196134998D01*
X201201366Y-196124191D01*
X201073561Y-196034701D01*
X201057003Y-196020807D01*
X200946692Y-195910496D01*
X200932798Y-195893938D01*
X200843308Y-195766133D01*
X200832501Y-195747416D01*
X200766563Y-195606013D01*
X200759175Y-195585712D01*
X200755375Y-195571531D01*
X200718795Y-195435009D01*
X200715042Y-195413723D01*
X200700972Y-195252895D01*
X200700500Y-195242088D01*
X200700500Y-184322418D01*
X202166786Y-184322418D01*
X202187190Y-184568672D01*
X202187192Y-184568683D01*
X202247854Y-184808231D01*
X202347118Y-185034528D01*
X202482276Y-185241404D01*
X202627088Y-185398710D01*
X202649641Y-185423209D01*
X202844647Y-185574989D01*
X202844649Y-185574990D01*
X202844652Y-185574992D01*
X202846428Y-185575953D01*
X203061975Y-185692601D01*
X203295698Y-185772838D01*
X203539440Y-185813512D01*
X203539441Y-185813512D01*
X203786551Y-185813512D01*
X203786552Y-185813512D01*
X204030294Y-185772838D01*
X204264017Y-185692601D01*
X204481345Y-185574989D01*
X204676351Y-185423209D01*
X204843716Y-185241403D01*
X204978873Y-185034529D01*
X205078137Y-184808231D01*
X205138800Y-184568680D01*
X205156149Y-184359307D01*
X205159206Y-184322418D01*
X205159206Y-184322405D01*
X205138801Y-184076151D01*
X205138799Y-184076140D01*
X205078137Y-183836592D01*
X204978873Y-183610295D01*
X204843715Y-183403419D01*
X204676354Y-183221618D01*
X204676344Y-183221609D01*
X204481348Y-183069837D01*
X204481339Y-183069831D01*
X204264023Y-182952226D01*
X204264020Y-182952224D01*
X204264017Y-182952223D01*
X204264014Y-182952222D01*
X204264012Y-182952221D01*
X204030296Y-182871986D01*
X203867799Y-182844870D01*
X203786552Y-182831312D01*
X203539440Y-182831312D01*
X203478504Y-182841480D01*
X203295695Y-182871986D01*
X203061979Y-182952221D01*
X203061968Y-182952226D01*
X202844652Y-183069831D01*
X202844643Y-183069837D01*
X202649647Y-183221609D01*
X202649637Y-183221618D01*
X202482276Y-183403419D01*
X202347118Y-183610295D01*
X202247854Y-183836592D01*
X202187192Y-184076140D01*
X202187190Y-184076151D01*
X202166786Y-184322405D01*
X202166786Y-184322418D01*
X200700500Y-184322418D01*
X200700500Y-170964900D01*
X214244919Y-170964900D01*
X214265191Y-171170734D01*
X214325233Y-171368666D01*
X214400975Y-171510369D01*
X214400976Y-171510369D01*
X214946447Y-170964900D01*
X214946447Y-170964899D01*
X214400976Y-170419429D01*
X214400975Y-170419429D01*
X214325234Y-170561134D01*
X214265191Y-170759066D01*
X214244919Y-170964900D01*
X200700500Y-170964900D01*
X200700500Y-161541500D01*
X201994357Y-161541500D01*
X202014884Y-161763035D01*
X202014885Y-161763037D01*
X202075769Y-161977023D01*
X202075775Y-161977038D01*
X202174938Y-162176183D01*
X202174943Y-162176191D01*
X202309020Y-162353738D01*
X202473437Y-162503623D01*
X202473439Y-162503625D01*
X202662595Y-162620745D01*
X202662596Y-162620745D01*
X202662599Y-162620747D01*
X202870060Y-162701118D01*
X203088757Y-162742000D01*
X203088759Y-162742000D01*
X203311241Y-162742000D01*
X203311243Y-162742000D01*
X203529940Y-162701118D01*
X203737401Y-162620747D01*
X203926562Y-162503624D01*
X204090981Y-162353736D01*
X204225058Y-162176189D01*
X204324229Y-161977028D01*
X204385115Y-161763036D01*
X204405643Y-161541500D01*
X204385115Y-161319964D01*
X204324229Y-161105972D01*
X204324224Y-161105961D01*
X204225061Y-160906816D01*
X204225052Y-160906802D01*
X204125546Y-160775034D01*
X204100854Y-160709673D01*
X204100500Y-160700308D01*
X204100500Y-155479260D01*
X204120185Y-155412221D01*
X204136815Y-155391583D01*
X204402158Y-155126239D01*
X204463481Y-155092755D01*
X204533173Y-155097739D01*
X204589106Y-155139611D01*
X204613310Y-155202479D01*
X204619051Y-155264437D01*
X204619051Y-155264439D01*
X204619052Y-155264442D01*
X204676641Y-155466847D01*
X204676642Y-155466850D01*
X204770442Y-155655225D01*
X204897261Y-155823160D01*
X205052776Y-155964930D01*
X205052778Y-155964932D01*
X205231692Y-156075711D01*
X205231698Y-156075714D01*
X205273268Y-156091818D01*
X205427924Y-156151732D01*
X205634780Y-156190400D01*
X205634782Y-156190400D01*
X205845218Y-156190400D01*
X205845220Y-156190400D01*
X206052076Y-156151732D01*
X206248304Y-156075713D01*
X206427223Y-155964931D01*
X206582740Y-155823159D01*
X206709558Y-155655225D01*
X206803359Y-155466847D01*
X206860948Y-155264442D01*
X206862637Y-155246211D01*
X206888422Y-155181274D01*
X206898419Y-155169978D01*
X207946680Y-154121719D01*
X208008003Y-154088234D01*
X208034361Y-154085400D01*
X214137102Y-154085400D01*
X214204141Y-154105085D01*
X214249896Y-154157889D01*
X214260505Y-154221557D01*
X214257649Y-154250548D01*
X214231486Y-154315334D01*
X214221927Y-154326072D01*
X208242565Y-160305435D01*
X208181242Y-160338920D01*
X208173404Y-160340131D01*
X208071155Y-160359244D01*
X207950060Y-160381882D01*
X207818864Y-160432707D01*
X207742601Y-160462252D01*
X207742595Y-160462254D01*
X207553439Y-160579374D01*
X207553437Y-160579376D01*
X207389020Y-160729261D01*
X207254943Y-160906808D01*
X207254938Y-160906816D01*
X207155775Y-161105961D01*
X207155769Y-161105976D01*
X207094885Y-161319962D01*
X207094884Y-161319964D01*
X207074357Y-161541499D01*
X207074357Y-161541500D01*
X207094884Y-161763035D01*
X207094885Y-161763037D01*
X207155769Y-161977023D01*
X207155775Y-161977038D01*
X207254938Y-162176183D01*
X207254943Y-162176191D01*
X207389020Y-162353738D01*
X207553437Y-162503623D01*
X207553439Y-162503625D01*
X207742595Y-162620745D01*
X207742596Y-162620745D01*
X207742599Y-162620747D01*
X207950060Y-162701118D01*
X208168757Y-162742000D01*
X208168759Y-162742000D01*
X208391241Y-162742000D01*
X208391243Y-162742000D01*
X208609940Y-162701118D01*
X208817401Y-162620747D01*
X209006562Y-162503624D01*
X209170981Y-162353736D01*
X209305058Y-162176189D01*
X209404229Y-161977028D01*
X209465115Y-161763036D01*
X209474582Y-161660864D01*
X209500368Y-161595928D01*
X209510364Y-161584633D01*
X215757360Y-155337637D01*
X215786580Y-155315966D01*
X215886450Y-155262585D01*
X216046410Y-155131310D01*
X216177685Y-154971350D01*
X216275232Y-154788854D01*
X216335300Y-154590834D01*
X216336243Y-154581258D01*
X216362400Y-154516471D01*
X216419433Y-154476110D01*
X216489233Y-154472990D01*
X216547327Y-154505727D01*
X218773181Y-156731580D01*
X218806666Y-156792903D01*
X218809500Y-156819261D01*
X218809500Y-171133139D01*
X218789815Y-171200178D01*
X218737011Y-171245933D01*
X218667853Y-171255877D01*
X218604297Y-171226852D01*
X218597819Y-171220820D01*
X217762164Y-170385165D01*
X217749526Y-170370368D01*
X217741287Y-170359028D01*
X217690883Y-170313643D01*
X217686175Y-170309175D01*
X217671783Y-170294783D01*
X217655954Y-170281963D01*
X217651027Y-170277755D01*
X217600620Y-170232370D01*
X217600613Y-170232365D01*
X217588470Y-170225354D01*
X217572443Y-170214338D01*
X217561553Y-170205520D01*
X217561547Y-170205516D01*
X217501112Y-170174722D01*
X217495409Y-170171626D01*
X217436682Y-170137720D01*
X217423349Y-170133388D01*
X217405378Y-170125943D01*
X217392898Y-170119584D01*
X217392886Y-170119579D01*
X217327376Y-170102025D01*
X217321155Y-170100182D01*
X217256662Y-170079228D01*
X217256656Y-170079226D01*
X217256651Y-170079225D01*
X217256649Y-170079225D01*
X217242714Y-170077760D01*
X217223589Y-170074215D01*
X217210053Y-170070588D01*
X217210043Y-170070586D01*
X217142309Y-170067036D01*
X217135848Y-170066528D01*
X217126628Y-170065559D01*
X217115592Y-170064400D01*
X217115588Y-170064400D01*
X217095226Y-170064400D01*
X217088737Y-170064230D01*
X217021010Y-170060680D01*
X217007172Y-170062873D01*
X216987773Y-170064400D01*
X216452808Y-170064400D01*
X216311744Y-170079226D01*
X216311741Y-170079226D01*
X216311740Y-170079227D01*
X216131714Y-170137721D01*
X216097723Y-170157345D01*
X216029822Y-170173815D01*
X215963796Y-170150961D01*
X215957061Y-170145809D01*
X215886173Y-170087632D01*
X215886166Y-170087628D01*
X215703766Y-169990133D01*
X215505834Y-169930091D01*
X215300000Y-169909819D01*
X215094166Y-169930091D01*
X214896234Y-169990134D01*
X214754529Y-170065875D01*
X214754529Y-170065876D01*
X215353553Y-170664900D01*
X215272198Y-170664900D01*
X215189750Y-170680312D01*
X215094390Y-170739357D01*
X215026799Y-170828862D01*
X214996105Y-170936740D01*
X215006454Y-171048421D01*
X215056448Y-171148822D01*
X215139334Y-171224384D01*
X215243920Y-171264900D01*
X215327802Y-171264900D01*
X215359471Y-171258980D01*
X215078063Y-171540388D01*
X215048010Y-171562502D01*
X214927763Y-171625615D01*
X214927760Y-171625617D01*
X214815561Y-171725016D01*
X214809516Y-171730371D01*
X214719781Y-171860375D01*
X214719780Y-171860376D01*
X214663762Y-172008081D01*
X214644722Y-172164899D01*
X214644722Y-172164900D01*
X214663762Y-172321718D01*
X214719780Y-172469423D01*
X214809517Y-172599430D01*
X214927760Y-172704183D01*
X214927762Y-172704184D01*
X215067634Y-172777596D01*
X215221014Y-172815400D01*
X215221015Y-172815400D01*
X215378985Y-172815400D01*
X215532365Y-172777596D01*
X215667876Y-172706473D01*
X215736381Y-172692748D01*
X215801435Y-172718240D01*
X215842380Y-172774855D01*
X215849500Y-172816270D01*
X215849500Y-174336691D01*
X215829815Y-174403730D01*
X215813181Y-174424372D01*
X208478441Y-181759111D01*
X208417118Y-181792596D01*
X208347426Y-181787612D01*
X208299531Y-181755413D01*
X208176352Y-181621606D01*
X208176342Y-181621597D01*
X207981346Y-181469825D01*
X207981337Y-181469819D01*
X207764021Y-181352214D01*
X207764018Y-181352212D01*
X207764015Y-181352211D01*
X207764012Y-181352210D01*
X207764010Y-181352209D01*
X207530294Y-181271974D01*
X207360966Y-181243718D01*
X207286550Y-181231300D01*
X207039438Y-181231300D01*
X206978502Y-181241468D01*
X206795693Y-181271974D01*
X206561977Y-181352209D01*
X206561966Y-181352214D01*
X206344650Y-181469819D01*
X206344641Y-181469825D01*
X206149645Y-181621597D01*
X206149635Y-181621606D01*
X205982274Y-181803407D01*
X205847116Y-182010283D01*
X205747852Y-182236580D01*
X205687190Y-182476128D01*
X205687188Y-182476139D01*
X205666784Y-182722393D01*
X205666784Y-182722406D01*
X205687188Y-182968660D01*
X205687190Y-182968671D01*
X205747852Y-183208219D01*
X205847116Y-183434516D01*
X205982274Y-183641392D01*
X206149635Y-183823193D01*
X206149639Y-183823197D01*
X206251862Y-183902761D01*
X206292674Y-183959470D01*
X206298979Y-184004832D01*
X206847502Y-184553355D01*
X206830158Y-184559669D01*
X206686293Y-184654290D01*
X206568127Y-184779538D01*
X206494355Y-184907315D01*
X205946348Y-184359308D01*
X205847556Y-184510522D01*
X205847554Y-184510526D01*
X205748326Y-184736745D01*
X205687684Y-184976217D01*
X205667285Y-185222394D01*
X205667285Y-185222405D01*
X205687684Y-185468582D01*
X205748326Y-185708054D01*
X205847556Y-185934278D01*
X205946347Y-186085490D01*
X206495993Y-185535845D01*
X206520737Y-185593207D01*
X206623563Y-185731327D01*
X206755470Y-185842010D01*
X206849641Y-185889304D01*
X206299635Y-186439310D01*
X206344922Y-186474559D01*
X206344924Y-186474560D01*
X206562168Y-186592126D01*
X206562182Y-186592132D01*
X206795816Y-186672340D01*
X207039479Y-186713000D01*
X207286509Y-186713000D01*
X207530171Y-186672340D01*
X207763805Y-186592132D01*
X207763819Y-186592126D01*
X207981065Y-186474559D01*
X207981070Y-186474555D01*
X208026351Y-186439311D01*
X208026352Y-186439310D01*
X207478485Y-185891444D01*
X207495830Y-185885131D01*
X207639695Y-185790510D01*
X207757861Y-185665262D01*
X207831632Y-185537485D01*
X208379638Y-186085491D01*
X208478432Y-185934275D01*
X208577661Y-185708054D01*
X208638303Y-185468582D01*
X208658703Y-185222405D01*
X208658703Y-185222394D01*
X208638303Y-184976217D01*
X208577661Y-184736745D01*
X208478431Y-184510521D01*
X208379638Y-184359307D01*
X207829993Y-184908952D01*
X207805251Y-184851593D01*
X207702425Y-184713473D01*
X207570518Y-184602790D01*
X207476344Y-184555494D01*
X208027403Y-184004436D01*
X208042017Y-183940168D01*
X208074121Y-183902764D01*
X208176349Y-183823197D01*
X208343714Y-183641391D01*
X208478871Y-183434517D01*
X208479399Y-183433311D01*
X208479747Y-183432898D01*
X208481313Y-183430005D01*
X208481907Y-183430326D01*
X208524347Y-183379824D01*
X208577421Y-183360090D01*
X208598158Y-183357471D01*
X208640620Y-183340658D01*
X208651657Y-183336880D01*
X208695498Y-183324144D01*
X208713765Y-183313339D01*
X208731236Y-183304780D01*
X208750971Y-183296968D01*
X208787916Y-183270125D01*
X208797658Y-183263726D01*
X208836965Y-183240481D01*
X208851970Y-183225475D01*
X208866768Y-183212836D01*
X208883937Y-183200363D01*
X208913046Y-183165174D01*
X208920890Y-183156554D01*
X209017034Y-183060410D01*
X209078355Y-183026927D01*
X209148047Y-183031911D01*
X209203980Y-183073783D01*
X209224918Y-183117652D01*
X209247852Y-183208214D01*
X209247852Y-183208215D01*
X209347117Y-183434516D01*
X209482275Y-183641392D01*
X209649636Y-183823193D01*
X209649641Y-183823198D01*
X209715614Y-183874547D01*
X209756427Y-183931257D01*
X209760100Y-184001030D01*
X209725469Y-184061714D01*
X209715614Y-184070253D01*
X209649641Y-184121601D01*
X209649636Y-184121606D01*
X209482275Y-184303407D01*
X209347117Y-184510283D01*
X209247853Y-184736580D01*
X209187191Y-184976128D01*
X209187189Y-184976139D01*
X209166785Y-185222393D01*
X209166785Y-185222406D01*
X209187189Y-185468660D01*
X209187191Y-185468671D01*
X209247853Y-185708219D01*
X209347117Y-185934516D01*
X209482275Y-186141392D01*
X209649636Y-186323193D01*
X209649646Y-186323202D01*
X209844104Y-186474555D01*
X209844646Y-186474977D01*
X209844648Y-186474978D01*
X209844651Y-186474980D01*
X209970994Y-186543353D01*
X210061974Y-186592589D01*
X210295697Y-186672826D01*
X210539439Y-186713500D01*
X210539440Y-186713500D01*
X210786550Y-186713500D01*
X210786551Y-186713500D01*
X211030293Y-186672826D01*
X211264016Y-186592589D01*
X211481344Y-186474977D01*
X211676350Y-186323197D01*
X211843715Y-186141391D01*
X211978872Y-185934517D01*
X212078136Y-185708219D01*
X212138799Y-185468668D01*
X212138806Y-185468582D01*
X212159205Y-185222406D01*
X212159205Y-185222393D01*
X212138800Y-184976139D01*
X212138799Y-184976136D01*
X212138799Y-184976132D01*
X212078294Y-184737205D01*
X212080919Y-184667386D01*
X212120875Y-184610069D01*
X212185476Y-184583452D01*
X212254212Y-184595986D01*
X212286181Y-184619085D01*
X212643184Y-184976088D01*
X212676669Y-185037411D01*
X212679080Y-185074008D01*
X212666786Y-185222394D01*
X212666785Y-185222405D01*
X212666785Y-185222406D01*
X212687189Y-185468660D01*
X212687191Y-185468671D01*
X212747853Y-185708219D01*
X212847117Y-185934516D01*
X212982275Y-186141392D01*
X213149636Y-186323193D01*
X213149646Y-186323202D01*
X213344104Y-186474555D01*
X213344646Y-186474977D01*
X213344648Y-186474978D01*
X213344651Y-186474980D01*
X213470994Y-186543353D01*
X213561974Y-186592589D01*
X213795697Y-186672826D01*
X214039439Y-186713500D01*
X214039440Y-186713500D01*
X214286550Y-186713500D01*
X214286551Y-186713500D01*
X214530293Y-186672826D01*
X214764016Y-186592589D01*
X214981344Y-186474977D01*
X215176350Y-186323197D01*
X215343715Y-186141391D01*
X215478872Y-185934517D01*
X215578136Y-185708219D01*
X215638799Y-185468668D01*
X215638806Y-185468582D01*
X215659205Y-185222406D01*
X215659205Y-185222393D01*
X215638800Y-184976139D01*
X215638798Y-184976128D01*
X215578294Y-184737205D01*
X215580919Y-184667385D01*
X215620875Y-184610068D01*
X215685476Y-184583451D01*
X215754213Y-184595985D01*
X215786181Y-184619084D01*
X216143185Y-184976088D01*
X216176670Y-185037411D01*
X216179081Y-185074008D01*
X216166787Y-185222394D01*
X216166786Y-185222405D01*
X216166786Y-185222406D01*
X216187190Y-185468660D01*
X216187192Y-185468671D01*
X216247854Y-185708219D01*
X216347118Y-185934516D01*
X216482276Y-186141392D01*
X216649637Y-186323193D01*
X216649647Y-186323202D01*
X216844105Y-186474555D01*
X216844647Y-186474977D01*
X216844649Y-186474978D01*
X216844652Y-186474980D01*
X216970995Y-186543353D01*
X217061975Y-186592589D01*
X217295698Y-186672826D01*
X217539440Y-186713500D01*
X217539441Y-186713500D01*
X217786551Y-186713500D01*
X217786552Y-186713500D01*
X218030294Y-186672826D01*
X218264017Y-186592589D01*
X218481345Y-186474977D01*
X218676351Y-186323197D01*
X218843716Y-186141391D01*
X218978873Y-185934517D01*
X219078137Y-185708219D01*
X219138800Y-185468668D01*
X219138807Y-185468582D01*
X219159206Y-185222406D01*
X219159206Y-185222393D01*
X219138801Y-184976139D01*
X219138799Y-184976128D01*
X219078295Y-184737205D01*
X219080920Y-184667385D01*
X219120876Y-184610068D01*
X219185477Y-184583451D01*
X219254214Y-184595985D01*
X219286182Y-184619084D01*
X219643186Y-184976088D01*
X219676671Y-185037411D01*
X219679082Y-185074008D01*
X219666788Y-185222394D01*
X219666787Y-185222405D01*
X219666787Y-185222406D01*
X219687191Y-185468660D01*
X219687193Y-185468671D01*
X219747855Y-185708219D01*
X219847119Y-185934516D01*
X219982277Y-186141392D01*
X220149638Y-186323193D01*
X220149648Y-186323202D01*
X220344106Y-186474555D01*
X220344648Y-186474977D01*
X220344650Y-186474978D01*
X220344653Y-186474980D01*
X220470996Y-186543353D01*
X220561976Y-186592589D01*
X220795699Y-186672826D01*
X221039441Y-186713500D01*
X221039442Y-186713500D01*
X221286552Y-186713500D01*
X221286553Y-186713500D01*
X221530295Y-186672826D01*
X221764018Y-186592589D01*
X221981346Y-186474977D01*
X222176352Y-186323197D01*
X222343717Y-186141391D01*
X222478874Y-185934517D01*
X222578138Y-185708219D01*
X222638801Y-185468668D01*
X222639196Y-185463893D01*
X222664349Y-185398710D01*
X222720751Y-185357471D01*
X222790494Y-185353272D01*
X222850454Y-185386453D01*
X223266134Y-185802133D01*
X223278773Y-185816931D01*
X223287009Y-185828268D01*
X223287010Y-185828268D01*
X223287012Y-185828271D01*
X223289478Y-185830491D01*
X223320064Y-185872832D01*
X223325460Y-185885131D01*
X223347122Y-185934516D01*
X223347126Y-185934522D01*
X223482280Y-186141392D01*
X223649641Y-186323193D01*
X223649651Y-186323202D01*
X223844109Y-186474555D01*
X223844651Y-186474977D01*
X223844653Y-186474978D01*
X223844656Y-186474980D01*
X223970999Y-186543353D01*
X224061979Y-186592589D01*
X224295702Y-186672826D01*
X224539444Y-186713500D01*
X224539445Y-186713500D01*
X224786555Y-186713500D01*
X224786556Y-186713500D01*
X225030298Y-186672826D01*
X225264021Y-186592589D01*
X225481349Y-186474977D01*
X225676355Y-186323197D01*
X225843720Y-186141391D01*
X225978877Y-185934517D01*
X226078141Y-185708219D01*
X226138804Y-185468668D01*
X226138811Y-185468582D01*
X226159210Y-185222406D01*
X226159210Y-185222393D01*
X226138805Y-184976139D01*
X226138803Y-184976128D01*
X226078141Y-184736580D01*
X225978877Y-184510283D01*
X225860163Y-184328577D01*
X225858304Y-184322418D01*
X226666788Y-184322418D01*
X226687192Y-184568672D01*
X226687194Y-184568683D01*
X226747856Y-184808231D01*
X226847120Y-185034528D01*
X226982278Y-185241404D01*
X227127090Y-185398710D01*
X227149643Y-185423209D01*
X227344649Y-185574989D01*
X227344651Y-185574990D01*
X227344654Y-185574992D01*
X227346430Y-185575953D01*
X227561977Y-185692601D01*
X227795700Y-185772838D01*
X228039442Y-185813512D01*
X228039443Y-185813512D01*
X228286553Y-185813512D01*
X228286554Y-185813512D01*
X228530296Y-185772838D01*
X228764019Y-185692601D01*
X228981347Y-185574989D01*
X229176353Y-185423209D01*
X229343718Y-185241403D01*
X229478875Y-185034529D01*
X229578139Y-184808231D01*
X229638802Y-184568680D01*
X229656151Y-184359307D01*
X229659208Y-184322418D01*
X229659208Y-184322405D01*
X229638803Y-184076151D01*
X229638801Y-184076140D01*
X229578139Y-183836592D01*
X229478875Y-183610295D01*
X229343717Y-183403419D01*
X229176356Y-183221618D01*
X229176346Y-183221609D01*
X228981350Y-183069837D01*
X228981341Y-183069831D01*
X228764025Y-182952226D01*
X228764022Y-182952224D01*
X228764019Y-182952223D01*
X228764016Y-182952222D01*
X228764014Y-182952221D01*
X228530298Y-182871986D01*
X228367801Y-182844870D01*
X228286554Y-182831312D01*
X228039442Y-182831312D01*
X227978506Y-182841480D01*
X227795697Y-182871986D01*
X227561981Y-182952221D01*
X227561970Y-182952226D01*
X227344654Y-183069831D01*
X227344645Y-183069837D01*
X227149649Y-183221609D01*
X227149639Y-183221618D01*
X226982278Y-183403419D01*
X226847120Y-183610295D01*
X226747856Y-183836592D01*
X226687194Y-184076140D01*
X226687192Y-184076151D01*
X226666788Y-184322405D01*
X226666788Y-184322418D01*
X225858304Y-184322418D01*
X225839976Y-184261688D01*
X225859156Y-184194502D01*
X225889661Y-184161489D01*
X225895928Y-184156796D01*
X225895931Y-184156796D01*
X226011146Y-184070546D01*
X226097396Y-183955331D01*
X226147691Y-183820483D01*
X226154100Y-183760873D01*
X226154099Y-181683928D01*
X226147691Y-181624317D01*
X226097396Y-181489469D01*
X226034693Y-181405709D01*
X226010276Y-181340247D01*
X226025127Y-181271974D01*
X226046276Y-181243721D01*
X229306737Y-177983260D01*
X229321525Y-177970630D01*
X229332871Y-177962388D01*
X229378264Y-177911972D01*
X229382696Y-177907301D01*
X229397119Y-177892880D01*
X229409945Y-177877040D01*
X229414117Y-177872154D01*
X229459533Y-177821716D01*
X229466538Y-177809580D01*
X229477570Y-177793531D01*
X229486381Y-177782651D01*
X229486383Y-177782649D01*
X229517185Y-177722193D01*
X229520248Y-177716551D01*
X229554179Y-177657784D01*
X229558509Y-177644456D01*
X229565960Y-177626469D01*
X229572319Y-177613989D01*
X229572320Y-177613988D01*
X229589872Y-177548480D01*
X229591704Y-177542292D01*
X229612674Y-177477756D01*
X229614139Y-177463817D01*
X229617687Y-177444675D01*
X229621313Y-177431145D01*
X229624862Y-177363403D01*
X229625371Y-177356948D01*
X229627499Y-177336699D01*
X229627500Y-177336691D01*
X229627500Y-177316324D01*
X229627670Y-177309835D01*
X229631219Y-177242112D01*
X229629027Y-177228272D01*
X229627500Y-177208873D01*
X229627500Y-41032526D01*
X229629027Y-41013125D01*
X229631219Y-40999288D01*
X229627670Y-40931568D01*
X229627500Y-40925079D01*
X229627500Y-40904713D01*
X229627500Y-40904708D01*
X229625366Y-40884408D01*
X229624861Y-40877989D01*
X229621312Y-40810254D01*
X229621311Y-40810248D01*
X229617687Y-40796725D01*
X229614139Y-40777584D01*
X229612674Y-40763648D01*
X229612674Y-40763644D01*
X229591707Y-40699119D01*
X229589871Y-40692916D01*
X229584879Y-40674287D01*
X229572320Y-40627412D01*
X229565954Y-40614919D01*
X229558508Y-40596942D01*
X229554178Y-40583614D01*
X229554174Y-40583607D01*
X229520265Y-40524875D01*
X229517178Y-40519192D01*
X229486383Y-40458751D01*
X229486382Y-40458749D01*
X229477560Y-40447855D01*
X229466538Y-40431818D01*
X229459532Y-40419683D01*
X229459531Y-40419681D01*
X229414146Y-40369276D01*
X229409931Y-40364341D01*
X229397119Y-40348520D01*
X229382706Y-40334107D01*
X229378254Y-40329415D01*
X229332872Y-40279013D01*
X229332871Y-40279012D01*
X229321525Y-40270769D01*
X229306734Y-40258135D01*
X217586818Y-28538219D01*
X217553333Y-28476896D01*
X217550499Y-28450538D01*
X217550499Y-28127029D01*
X217550498Y-28127023D01*
X217544091Y-28067416D01*
X217493797Y-27932571D01*
X217493793Y-27932564D01*
X217407547Y-27817355D01*
X217407544Y-27817352D01*
X217292335Y-27731106D01*
X217292328Y-27731102D01*
X217157482Y-27680808D01*
X217157483Y-27680808D01*
X217097883Y-27674401D01*
X217097881Y-27674400D01*
X217097873Y-27674400D01*
X217097864Y-27674400D01*
X215902129Y-27674400D01*
X215902123Y-27674401D01*
X215842516Y-27680808D01*
X215707671Y-27731102D01*
X215707668Y-27731104D01*
X215616080Y-27799667D01*
X215550615Y-27824084D01*
X215541769Y-27824400D01*
X207690627Y-27824400D01*
X207671228Y-27822873D01*
X207657389Y-27820681D01*
X207657388Y-27820681D01*
X207615563Y-27822873D01*
X207589670Y-27824230D01*
X207583180Y-27824400D01*
X207562808Y-27824400D01*
X207542539Y-27826529D01*
X207536084Y-27827037D01*
X207468356Y-27830587D01*
X207454809Y-27834217D01*
X207435686Y-27837760D01*
X207421745Y-27839225D01*
X207421742Y-27839226D01*
X207357245Y-27860182D01*
X207351023Y-27862025D01*
X207285517Y-27879577D01*
X207285503Y-27879583D01*
X207273022Y-27885943D01*
X207255049Y-27893388D01*
X207241715Y-27897720D01*
X207182997Y-27931622D01*
X207177294Y-27934719D01*
X207116853Y-27965516D01*
X207116837Y-27965526D01*
X207105948Y-27974344D01*
X207089923Y-27985358D01*
X207077785Y-27992366D01*
X207072522Y-27996190D01*
X207070799Y-27993819D01*
X207019120Y-28018434D01*
X206949811Y-28009605D01*
X206896277Y-27964707D01*
X206875515Y-27897993D01*
X206875499Y-27895996D01*
X206875499Y-27372029D01*
X206875498Y-27372023D01*
X206875497Y-27372016D01*
X206869091Y-27312417D01*
X206818796Y-27177569D01*
X206818795Y-27177568D01*
X206818793Y-27177564D01*
X206732547Y-27062355D01*
X206732544Y-27062352D01*
X206617335Y-26976106D01*
X206617328Y-26976102D01*
X206482482Y-26925808D01*
X206482483Y-26925808D01*
X206422883Y-26919401D01*
X206422881Y-26919400D01*
X206422873Y-26919400D01*
X206422864Y-26919400D01*
X205057129Y-26919400D01*
X205057123Y-26919401D01*
X204997516Y-26925808D01*
X204862671Y-26976102D01*
X204862664Y-26976106D01*
X204747455Y-27062352D01*
X204747452Y-27062355D01*
X204661206Y-27177564D01*
X204661202Y-27177571D01*
X204610908Y-27312417D01*
X204604501Y-27372016D01*
X204604501Y-27372023D01*
X204604500Y-27372035D01*
X204604500Y-27865538D01*
X204584815Y-27932577D01*
X204568181Y-27953219D01*
X202620263Y-29901136D01*
X202605474Y-29913769D01*
X202594126Y-29922014D01*
X202548751Y-29972408D01*
X202544288Y-29977111D01*
X202529891Y-29991509D01*
X202529875Y-29991527D01*
X202517058Y-30007352D01*
X202512852Y-30012276D01*
X202467469Y-30062681D01*
X202467466Y-30062685D01*
X202460458Y-30074823D01*
X202449444Y-30090848D01*
X202440626Y-30101737D01*
X202440616Y-30101753D01*
X202409819Y-30162194D01*
X202406722Y-30167897D01*
X202372821Y-30226613D01*
X202368487Y-30239953D01*
X202361045Y-30257920D01*
X202354680Y-30270412D01*
X202337126Y-30335918D01*
X202335284Y-30342134D01*
X202314326Y-30406642D01*
X202314325Y-30406645D01*
X202312860Y-30420586D01*
X202309315Y-30439712D01*
X202305686Y-30453252D01*
X202302136Y-30520991D01*
X202301628Y-30527452D01*
X202299500Y-30547711D01*
X202299500Y-30568074D01*
X202299330Y-30574563D01*
X202295781Y-30642287D01*
X202297973Y-30656125D01*
X202299500Y-30675526D01*
X202299500Y-36240308D01*
X202279815Y-36307347D01*
X202274454Y-36315034D01*
X202174947Y-36446802D01*
X202174938Y-36446816D01*
X202075775Y-36645961D01*
X202075769Y-36645976D01*
X202014885Y-36859962D01*
X202014884Y-36859964D01*
X201994357Y-37081499D01*
X201994357Y-37081500D01*
X202014884Y-37303035D01*
X202014885Y-37303037D01*
X202075769Y-37517023D01*
X202075775Y-37517038D01*
X202174938Y-37716183D01*
X202174943Y-37716191D01*
X202309020Y-37893738D01*
X202473437Y-38043623D01*
X202473439Y-38043625D01*
X202662595Y-38160745D01*
X202662596Y-38160745D01*
X202662599Y-38160747D01*
X202870060Y-38241118D01*
X203088757Y-38282000D01*
X203088759Y-38282000D01*
X203311241Y-38282000D01*
X203311243Y-38282000D01*
X203529940Y-38241118D01*
X203737401Y-38160747D01*
X203926562Y-38043624D01*
X204090981Y-37893736D01*
X204225058Y-37716189D01*
X204324229Y-37517028D01*
X204385115Y-37303036D01*
X204405643Y-37081500D01*
X204385115Y-36859964D01*
X204324229Y-36645972D01*
X204324224Y-36645961D01*
X204225061Y-36446816D01*
X204225052Y-36446802D01*
X204125546Y-36315034D01*
X204100854Y-36249673D01*
X204100500Y-36240308D01*
X204100500Y-31019260D01*
X204120185Y-30952221D01*
X204136815Y-30931583D01*
X204402158Y-30666239D01*
X204463481Y-30632755D01*
X204533173Y-30637739D01*
X204589106Y-30679611D01*
X204613310Y-30742479D01*
X204619051Y-30804437D01*
X204619051Y-30804439D01*
X204619052Y-30804442D01*
X204676641Y-31006847D01*
X204676642Y-31006850D01*
X204770442Y-31195225D01*
X204897261Y-31363160D01*
X205052776Y-31504930D01*
X205052778Y-31504932D01*
X205231692Y-31615711D01*
X205231698Y-31615714D01*
X205273268Y-31631818D01*
X205427924Y-31691732D01*
X205634780Y-31730400D01*
X205634782Y-31730400D01*
X205845218Y-31730400D01*
X205845220Y-31730400D01*
X206052076Y-31691732D01*
X206248304Y-31615713D01*
X206427223Y-31504931D01*
X206582740Y-31363159D01*
X206709558Y-31195225D01*
X206803359Y-31006847D01*
X206860948Y-30804442D01*
X206862637Y-30786211D01*
X206888422Y-30721274D01*
X206898419Y-30709978D01*
X207946680Y-29661719D01*
X208008003Y-29628234D01*
X208034361Y-29625400D01*
X214137102Y-29625400D01*
X214204141Y-29645085D01*
X214249896Y-29697889D01*
X214260505Y-29761557D01*
X214257649Y-29790548D01*
X214231486Y-29855334D01*
X214221927Y-29866072D01*
X208242565Y-35845435D01*
X208181242Y-35878920D01*
X208173404Y-35880131D01*
X208071155Y-35899244D01*
X207950060Y-35921882D01*
X207818864Y-35972707D01*
X207742601Y-36002252D01*
X207742595Y-36002254D01*
X207553439Y-36119374D01*
X207553437Y-36119376D01*
X207389020Y-36269261D01*
X207254943Y-36446808D01*
X207254938Y-36446816D01*
X207155775Y-36645961D01*
X207155769Y-36645976D01*
X207094885Y-36859962D01*
X207094884Y-36859964D01*
X207074357Y-37081499D01*
X207074357Y-37081500D01*
X207094884Y-37303035D01*
X207094885Y-37303037D01*
X207155769Y-37517023D01*
X207155775Y-37517038D01*
X207254938Y-37716183D01*
X207254943Y-37716191D01*
X207389020Y-37893738D01*
X207553437Y-38043623D01*
X207553439Y-38043625D01*
X207742595Y-38160745D01*
X207742596Y-38160745D01*
X207742599Y-38160747D01*
X207950060Y-38241118D01*
X208168757Y-38282000D01*
X208168759Y-38282000D01*
X208391241Y-38282000D01*
X208391243Y-38282000D01*
X208609940Y-38241118D01*
X208817401Y-38160747D01*
X209006562Y-38043624D01*
X209170981Y-37893736D01*
X209305058Y-37716189D01*
X209404229Y-37517028D01*
X209465115Y-37303036D01*
X209474582Y-37200864D01*
X209500368Y-37135928D01*
X209510364Y-37124633D01*
X215757360Y-30877637D01*
X215786580Y-30855966D01*
X215886450Y-30802585D01*
X216046410Y-30671310D01*
X216177685Y-30511350D01*
X216275232Y-30328854D01*
X216335300Y-30130834D01*
X216336243Y-30121255D01*
X216362400Y-30056471D01*
X216419432Y-30016109D01*
X216489232Y-30012988D01*
X216547327Y-30045726D01*
X227790181Y-41288580D01*
X227823666Y-41349903D01*
X227826500Y-41376261D01*
X227826500Y-56258538D01*
X227806815Y-56325577D01*
X227754011Y-56371332D01*
X227684853Y-56381276D01*
X227621297Y-56352251D01*
X227614819Y-56346219D01*
X217586818Y-46318218D01*
X217553333Y-46256895D01*
X217550499Y-46230537D01*
X217550499Y-45907029D01*
X217550498Y-45907023D01*
X217544091Y-45847416D01*
X217493797Y-45712571D01*
X217493793Y-45712564D01*
X217407547Y-45597355D01*
X217407544Y-45597352D01*
X217292335Y-45511106D01*
X217292328Y-45511102D01*
X217157482Y-45460808D01*
X217157483Y-45460808D01*
X217097883Y-45454401D01*
X217097881Y-45454400D01*
X217097873Y-45454400D01*
X217097864Y-45454400D01*
X215902129Y-45454400D01*
X215902123Y-45454401D01*
X215842516Y-45460808D01*
X215707671Y-45511102D01*
X215707668Y-45511104D01*
X215616080Y-45579667D01*
X215550615Y-45604084D01*
X215541769Y-45604400D01*
X207690627Y-45604400D01*
X207671228Y-45602873D01*
X207657389Y-45600681D01*
X207657388Y-45600681D01*
X207615563Y-45602873D01*
X207589670Y-45604230D01*
X207583180Y-45604400D01*
X207562808Y-45604400D01*
X207542539Y-45606529D01*
X207536084Y-45607037D01*
X207468356Y-45610587D01*
X207454809Y-45614217D01*
X207435686Y-45617760D01*
X207421745Y-45619225D01*
X207421742Y-45619226D01*
X207357245Y-45640182D01*
X207351023Y-45642025D01*
X207285517Y-45659577D01*
X207285503Y-45659583D01*
X207273022Y-45665943D01*
X207255049Y-45673388D01*
X207241715Y-45677720D01*
X207182997Y-45711622D01*
X207177294Y-45714719D01*
X207116853Y-45745516D01*
X207116837Y-45745526D01*
X207105948Y-45754344D01*
X207089923Y-45765358D01*
X207077785Y-45772366D01*
X207072522Y-45776190D01*
X207070799Y-45773819D01*
X207019120Y-45798434D01*
X206949811Y-45789605D01*
X206896277Y-45744707D01*
X206875515Y-45677993D01*
X206875499Y-45675996D01*
X206875499Y-45152029D01*
X206875498Y-45152023D01*
X206875497Y-45152016D01*
X206869091Y-45092417D01*
X206818796Y-44957569D01*
X206818795Y-44957568D01*
X206818793Y-44957564D01*
X206732547Y-44842355D01*
X206732544Y-44842352D01*
X206617335Y-44756106D01*
X206617328Y-44756102D01*
X206482482Y-44705808D01*
X206482483Y-44705808D01*
X206422883Y-44699401D01*
X206422881Y-44699400D01*
X206422873Y-44699400D01*
X206422864Y-44699400D01*
X205057129Y-44699400D01*
X205057123Y-44699401D01*
X204997516Y-44705808D01*
X204862671Y-44756102D01*
X204862664Y-44756106D01*
X204747455Y-44842352D01*
X204747452Y-44842355D01*
X204661206Y-44957564D01*
X204661202Y-44957571D01*
X204610908Y-45092417D01*
X204604501Y-45152016D01*
X204604501Y-45152023D01*
X204604500Y-45152035D01*
X204604500Y-45645538D01*
X204584815Y-45712577D01*
X204568181Y-45733219D01*
X202620263Y-47681136D01*
X202605474Y-47693769D01*
X202594126Y-47702014D01*
X202548751Y-47752408D01*
X202544288Y-47757111D01*
X202529891Y-47771509D01*
X202529875Y-47771527D01*
X202517058Y-47787352D01*
X202512852Y-47792276D01*
X202467469Y-47842681D01*
X202467466Y-47842685D01*
X202460458Y-47854823D01*
X202449444Y-47870848D01*
X202440626Y-47881737D01*
X202440616Y-47881753D01*
X202409819Y-47942194D01*
X202406722Y-47947897D01*
X202372821Y-48006613D01*
X202368487Y-48019953D01*
X202361045Y-48037920D01*
X202354680Y-48050412D01*
X202337126Y-48115918D01*
X202335284Y-48122134D01*
X202314326Y-48186642D01*
X202314325Y-48186645D01*
X202312860Y-48200586D01*
X202309315Y-48219712D01*
X202305686Y-48233252D01*
X202302136Y-48300991D01*
X202301628Y-48307452D01*
X202299500Y-48327711D01*
X202299500Y-48348074D01*
X202299330Y-48354563D01*
X202295781Y-48422287D01*
X202297973Y-48436125D01*
X202299500Y-48455526D01*
X202299500Y-54020308D01*
X202279815Y-54087347D01*
X202274454Y-54095034D01*
X202174947Y-54226802D01*
X202174938Y-54226816D01*
X202075775Y-54425961D01*
X202075769Y-54425976D01*
X202014885Y-54639962D01*
X202014884Y-54639964D01*
X201994357Y-54861499D01*
X201994357Y-54861500D01*
X202014884Y-55083035D01*
X202014885Y-55083037D01*
X202075769Y-55297023D01*
X202075775Y-55297038D01*
X202174938Y-55496183D01*
X202174943Y-55496191D01*
X202309020Y-55673738D01*
X202473437Y-55823623D01*
X202473439Y-55823625D01*
X202662595Y-55940745D01*
X202662596Y-55940745D01*
X202662599Y-55940747D01*
X202870060Y-56021118D01*
X203088757Y-56062000D01*
X203088759Y-56062000D01*
X203311241Y-56062000D01*
X203311243Y-56062000D01*
X203529940Y-56021118D01*
X203737401Y-55940747D01*
X203926562Y-55823624D01*
X204090981Y-55673736D01*
X204225058Y-55496189D01*
X204324229Y-55297028D01*
X204385115Y-55083036D01*
X204405643Y-54861500D01*
X204385115Y-54639964D01*
X204324229Y-54425972D01*
X204324224Y-54425961D01*
X204225061Y-54226816D01*
X204225052Y-54226802D01*
X204125546Y-54095034D01*
X204100854Y-54029673D01*
X204100500Y-54020308D01*
X204100500Y-48799260D01*
X204120185Y-48732221D01*
X204136815Y-48711583D01*
X204402158Y-48446239D01*
X204463481Y-48412755D01*
X204533173Y-48417739D01*
X204589106Y-48459611D01*
X204613310Y-48522479D01*
X204619051Y-48584437D01*
X204619051Y-48584439D01*
X204619052Y-48584442D01*
X204676641Y-48786847D01*
X204676642Y-48786850D01*
X204770442Y-48975225D01*
X204897261Y-49143160D01*
X205052776Y-49284930D01*
X205052778Y-49284932D01*
X205231692Y-49395711D01*
X205231698Y-49395714D01*
X205273268Y-49411818D01*
X205427924Y-49471732D01*
X205634780Y-49510400D01*
X205634782Y-49510400D01*
X205845218Y-49510400D01*
X205845220Y-49510400D01*
X206052076Y-49471732D01*
X206248304Y-49395713D01*
X206427223Y-49284931D01*
X206582740Y-49143159D01*
X206709558Y-48975225D01*
X206803359Y-48786847D01*
X206860948Y-48584442D01*
X206862637Y-48566211D01*
X206888422Y-48501274D01*
X206898419Y-48489978D01*
X207946680Y-47441719D01*
X208008003Y-47408234D01*
X208034361Y-47405400D01*
X214137102Y-47405400D01*
X214204141Y-47425085D01*
X214249896Y-47477889D01*
X214260505Y-47541557D01*
X214257649Y-47570548D01*
X214231486Y-47635334D01*
X214221927Y-47646072D01*
X208242565Y-53625435D01*
X208181242Y-53658920D01*
X208173404Y-53660131D01*
X208071155Y-53679244D01*
X207950060Y-53701882D01*
X207818864Y-53752707D01*
X207742601Y-53782252D01*
X207742595Y-53782254D01*
X207553439Y-53899374D01*
X207553437Y-53899376D01*
X207389020Y-54049261D01*
X207254943Y-54226808D01*
X207254938Y-54226816D01*
X207155775Y-54425961D01*
X207155769Y-54425976D01*
X207094885Y-54639962D01*
X207094884Y-54639964D01*
X207074357Y-54861499D01*
X207074357Y-54861500D01*
X207094884Y-55083035D01*
X207094885Y-55083037D01*
X207155769Y-55297023D01*
X207155775Y-55297038D01*
X207254938Y-55496183D01*
X207254943Y-55496191D01*
X207389020Y-55673738D01*
X207553437Y-55823623D01*
X207553439Y-55823625D01*
X207742595Y-55940745D01*
X207742596Y-55940745D01*
X207742599Y-55940747D01*
X207950060Y-56021118D01*
X208168757Y-56062000D01*
X208168759Y-56062000D01*
X208391241Y-56062000D01*
X208391243Y-56062000D01*
X208609940Y-56021118D01*
X208817401Y-55940747D01*
X209006562Y-55823624D01*
X209170981Y-55673736D01*
X209305058Y-55496189D01*
X209404229Y-55297028D01*
X209465115Y-55083036D01*
X209474582Y-54980864D01*
X209500368Y-54915928D01*
X209510364Y-54904633D01*
X215757360Y-48657637D01*
X215786580Y-48635966D01*
X215886450Y-48582585D01*
X216046410Y-48451310D01*
X216177685Y-48291350D01*
X216275232Y-48108854D01*
X216335300Y-47910834D01*
X216336243Y-47901258D01*
X216362400Y-47836471D01*
X216419433Y-47796110D01*
X216489233Y-47792990D01*
X216547327Y-47825727D01*
X226393181Y-57671580D01*
X226426666Y-57732903D01*
X226429500Y-57759261D01*
X226429500Y-72641538D01*
X226409815Y-72708577D01*
X226357011Y-72754332D01*
X226287853Y-72764276D01*
X226224297Y-72735251D01*
X226217819Y-72729219D01*
X217586818Y-64098218D01*
X217553333Y-64036895D01*
X217550499Y-64010537D01*
X217550499Y-63687029D01*
X217550498Y-63687023D01*
X217544091Y-63627416D01*
X217493797Y-63492571D01*
X217493793Y-63492564D01*
X217407547Y-63377355D01*
X217407544Y-63377352D01*
X217292335Y-63291106D01*
X217292328Y-63291102D01*
X217157482Y-63240808D01*
X217157483Y-63240808D01*
X217097883Y-63234401D01*
X217097881Y-63234400D01*
X217097873Y-63234400D01*
X217097864Y-63234400D01*
X215902129Y-63234400D01*
X215902123Y-63234401D01*
X215842516Y-63240808D01*
X215707671Y-63291102D01*
X215707668Y-63291104D01*
X215616080Y-63359667D01*
X215550615Y-63384084D01*
X215541769Y-63384400D01*
X207690627Y-63384400D01*
X207671228Y-63382873D01*
X207657389Y-63380681D01*
X207657388Y-63380681D01*
X207615563Y-63382873D01*
X207589670Y-63384230D01*
X207583180Y-63384400D01*
X207562808Y-63384400D01*
X207542539Y-63386529D01*
X207536084Y-63387037D01*
X207468356Y-63390587D01*
X207454809Y-63394217D01*
X207435686Y-63397760D01*
X207421745Y-63399225D01*
X207421742Y-63399226D01*
X207357245Y-63420182D01*
X207351023Y-63422025D01*
X207285517Y-63439577D01*
X207285503Y-63439583D01*
X207273022Y-63445943D01*
X207255049Y-63453388D01*
X207241715Y-63457720D01*
X207182997Y-63491622D01*
X207177294Y-63494719D01*
X207116853Y-63525516D01*
X207116837Y-63525526D01*
X207105948Y-63534344D01*
X207089923Y-63545358D01*
X207077785Y-63552366D01*
X207072522Y-63556190D01*
X207070799Y-63553819D01*
X207019120Y-63578434D01*
X206949811Y-63569605D01*
X206896277Y-63524707D01*
X206875515Y-63457993D01*
X206875499Y-63455996D01*
X206875499Y-62932029D01*
X206875498Y-62932023D01*
X206875497Y-62932016D01*
X206869091Y-62872417D01*
X206818796Y-62737569D01*
X206818795Y-62737568D01*
X206818793Y-62737564D01*
X206732547Y-62622355D01*
X206732544Y-62622352D01*
X206617335Y-62536106D01*
X206617328Y-62536102D01*
X206482482Y-62485808D01*
X206482483Y-62485808D01*
X206422883Y-62479401D01*
X206422881Y-62479400D01*
X206422873Y-62479400D01*
X206422864Y-62479400D01*
X205057129Y-62479400D01*
X205057123Y-62479401D01*
X204997516Y-62485808D01*
X204862671Y-62536102D01*
X204862664Y-62536106D01*
X204747455Y-62622352D01*
X204747452Y-62622355D01*
X204661206Y-62737564D01*
X204661202Y-62737571D01*
X204610908Y-62872417D01*
X204604501Y-62932016D01*
X204604501Y-62932023D01*
X204604500Y-62932035D01*
X204604500Y-63425538D01*
X204584815Y-63492577D01*
X204568181Y-63513219D01*
X202620263Y-65461136D01*
X202605474Y-65473769D01*
X202594126Y-65482014D01*
X202548751Y-65532408D01*
X202544288Y-65537111D01*
X202529891Y-65551509D01*
X202529875Y-65551527D01*
X202517058Y-65567352D01*
X202512852Y-65572276D01*
X202467469Y-65622681D01*
X202467466Y-65622685D01*
X202460458Y-65634823D01*
X202449444Y-65650848D01*
X202440626Y-65661737D01*
X202440616Y-65661753D01*
X202409819Y-65722194D01*
X202406722Y-65727897D01*
X202372821Y-65786613D01*
X202368487Y-65799953D01*
X202361045Y-65817920D01*
X202354680Y-65830412D01*
X202337126Y-65895918D01*
X202335284Y-65902134D01*
X202314326Y-65966642D01*
X202314325Y-65966645D01*
X202312860Y-65980586D01*
X202309315Y-65999712D01*
X202305686Y-66013252D01*
X202302136Y-66080991D01*
X202301628Y-66087452D01*
X202299500Y-66107711D01*
X202299500Y-66128074D01*
X202299330Y-66134563D01*
X202295781Y-66202287D01*
X202297973Y-66216125D01*
X202299500Y-66235526D01*
X202299500Y-71800308D01*
X202279815Y-71867347D01*
X202274454Y-71875034D01*
X202174947Y-72006802D01*
X202174938Y-72006816D01*
X202075775Y-72205961D01*
X202075769Y-72205976D01*
X202014885Y-72419962D01*
X202014884Y-72419964D01*
X201994357Y-72641499D01*
X201994357Y-72641500D01*
X202014884Y-72863035D01*
X202014885Y-72863037D01*
X202075769Y-73077023D01*
X202075775Y-73077038D01*
X202174938Y-73276183D01*
X202174943Y-73276191D01*
X202309020Y-73453738D01*
X202473437Y-73603623D01*
X202473439Y-73603625D01*
X202662595Y-73720745D01*
X202662596Y-73720745D01*
X202662599Y-73720747D01*
X202870060Y-73801118D01*
X203088757Y-73842000D01*
X203088759Y-73842000D01*
X203311241Y-73842000D01*
X203311243Y-73842000D01*
X203529940Y-73801118D01*
X203737401Y-73720747D01*
X203926562Y-73603624D01*
X204090981Y-73453736D01*
X204225058Y-73276189D01*
X204324229Y-73077028D01*
X204385115Y-72863036D01*
X204405643Y-72641500D01*
X204385115Y-72419964D01*
X204324229Y-72205972D01*
X204324224Y-72205961D01*
X204225061Y-72006816D01*
X204225052Y-72006802D01*
X204125546Y-71875034D01*
X204100854Y-71809673D01*
X204100500Y-71800308D01*
X204100500Y-66579260D01*
X204120185Y-66512221D01*
X204136815Y-66491583D01*
X204402158Y-66226239D01*
X204463481Y-66192755D01*
X204533173Y-66197739D01*
X204589106Y-66239611D01*
X204613310Y-66302479D01*
X204619051Y-66364437D01*
X204619051Y-66364439D01*
X204619052Y-66364442D01*
X204676641Y-66566847D01*
X204676642Y-66566850D01*
X204770442Y-66755225D01*
X204897261Y-66923160D01*
X205052776Y-67064930D01*
X205052778Y-67064932D01*
X205231692Y-67175711D01*
X205231698Y-67175714D01*
X205273268Y-67191818D01*
X205427924Y-67251732D01*
X205634780Y-67290400D01*
X205634782Y-67290400D01*
X205845218Y-67290400D01*
X205845220Y-67290400D01*
X206052076Y-67251732D01*
X206248304Y-67175713D01*
X206427223Y-67064931D01*
X206582740Y-66923159D01*
X206709558Y-66755225D01*
X206803359Y-66566847D01*
X206860948Y-66364442D01*
X206862637Y-66346211D01*
X206888422Y-66281274D01*
X206898419Y-66269978D01*
X207946680Y-65221719D01*
X208008003Y-65188234D01*
X208034361Y-65185400D01*
X214137102Y-65185400D01*
X214204141Y-65205085D01*
X214249896Y-65257889D01*
X214260505Y-65321557D01*
X214257649Y-65350548D01*
X214231486Y-65415334D01*
X214221927Y-65426072D01*
X208242565Y-71405435D01*
X208181242Y-71438920D01*
X208173404Y-71440131D01*
X208071155Y-71459244D01*
X207950060Y-71481882D01*
X207818864Y-71532707D01*
X207742601Y-71562252D01*
X207742595Y-71562254D01*
X207553439Y-71679374D01*
X207553437Y-71679376D01*
X207389020Y-71829261D01*
X207254943Y-72006808D01*
X207254938Y-72006816D01*
X207155775Y-72205961D01*
X207155769Y-72205976D01*
X207094885Y-72419962D01*
X207094884Y-72419964D01*
X207074357Y-72641499D01*
X207074357Y-72641500D01*
X207094884Y-72863035D01*
X207094885Y-72863037D01*
X207155769Y-73077023D01*
X207155775Y-73077038D01*
X207254938Y-73276183D01*
X207254943Y-73276191D01*
X207389020Y-73453738D01*
X207553437Y-73603623D01*
X207553439Y-73603625D01*
X207742595Y-73720745D01*
X207742596Y-73720745D01*
X207742599Y-73720747D01*
X207950060Y-73801118D01*
X208168757Y-73842000D01*
X208168759Y-73842000D01*
X208391241Y-73842000D01*
X208391243Y-73842000D01*
X208609940Y-73801118D01*
X208817401Y-73720747D01*
X209006562Y-73603624D01*
X209170981Y-73453736D01*
X209305058Y-73276189D01*
X209404229Y-73077028D01*
X209465115Y-72863036D01*
X209474582Y-72760864D01*
X209500368Y-72695928D01*
X209510364Y-72684633D01*
X215757360Y-66437637D01*
X215786580Y-66415966D01*
X215886450Y-66362585D01*
X216046410Y-66231310D01*
X216177685Y-66071350D01*
X216275232Y-65888854D01*
X216335300Y-65690834D01*
X216336243Y-65681258D01*
X216362400Y-65616471D01*
X216419433Y-65576110D01*
X216489233Y-65572990D01*
X216547327Y-65605727D01*
X224996181Y-74054580D01*
X225029666Y-74115903D01*
X225032500Y-74142261D01*
X225032500Y-89024539D01*
X225012815Y-89091578D01*
X224960011Y-89137333D01*
X224890853Y-89147277D01*
X224827297Y-89118252D01*
X224820819Y-89112220D01*
X217586818Y-81878219D01*
X217553333Y-81816896D01*
X217550499Y-81790538D01*
X217550499Y-81467029D01*
X217550498Y-81467023D01*
X217544091Y-81407416D01*
X217493797Y-81272571D01*
X217493793Y-81272564D01*
X217407547Y-81157355D01*
X217407544Y-81157352D01*
X217292335Y-81071106D01*
X217292328Y-81071102D01*
X217157482Y-81020808D01*
X217157483Y-81020808D01*
X217097883Y-81014401D01*
X217097881Y-81014400D01*
X217097873Y-81014400D01*
X217097864Y-81014400D01*
X215902129Y-81014400D01*
X215902123Y-81014401D01*
X215842516Y-81020808D01*
X215707671Y-81071102D01*
X215707668Y-81071104D01*
X215616080Y-81139667D01*
X215550615Y-81164084D01*
X215541769Y-81164400D01*
X207690627Y-81164400D01*
X207671228Y-81162873D01*
X207657389Y-81160681D01*
X207657388Y-81160681D01*
X207615563Y-81162873D01*
X207589670Y-81164230D01*
X207583180Y-81164400D01*
X207562808Y-81164400D01*
X207542539Y-81166529D01*
X207536084Y-81167037D01*
X207468356Y-81170587D01*
X207454809Y-81174217D01*
X207435686Y-81177760D01*
X207421745Y-81179225D01*
X207421742Y-81179226D01*
X207357245Y-81200182D01*
X207351023Y-81202025D01*
X207285517Y-81219577D01*
X207285503Y-81219583D01*
X207273022Y-81225943D01*
X207255049Y-81233388D01*
X207241715Y-81237720D01*
X207182997Y-81271622D01*
X207177294Y-81274719D01*
X207116853Y-81305516D01*
X207116837Y-81305526D01*
X207105948Y-81314344D01*
X207089923Y-81325358D01*
X207077785Y-81332366D01*
X207072522Y-81336190D01*
X207070799Y-81333819D01*
X207019120Y-81358434D01*
X206949811Y-81349605D01*
X206896277Y-81304707D01*
X206875515Y-81237993D01*
X206875499Y-81235996D01*
X206875499Y-80712029D01*
X206875498Y-80712023D01*
X206875497Y-80712016D01*
X206869091Y-80652417D01*
X206818796Y-80517569D01*
X206818795Y-80517568D01*
X206818793Y-80517564D01*
X206732547Y-80402355D01*
X206732544Y-80402352D01*
X206617335Y-80316106D01*
X206617328Y-80316102D01*
X206482482Y-80265808D01*
X206482483Y-80265808D01*
X206422883Y-80259401D01*
X206422881Y-80259400D01*
X206422873Y-80259400D01*
X206422864Y-80259400D01*
X205057129Y-80259400D01*
X205057123Y-80259401D01*
X204997516Y-80265808D01*
X204862671Y-80316102D01*
X204862664Y-80316106D01*
X204747455Y-80402352D01*
X204747452Y-80402355D01*
X204661206Y-80517564D01*
X204661202Y-80517571D01*
X204610908Y-80652417D01*
X204604501Y-80712016D01*
X204604501Y-80712023D01*
X204604500Y-80712035D01*
X204604500Y-81205538D01*
X204584815Y-81272577D01*
X204568181Y-81293219D01*
X202620263Y-83241136D01*
X202605474Y-83253769D01*
X202594126Y-83262014D01*
X202548751Y-83312408D01*
X202544288Y-83317111D01*
X202529891Y-83331509D01*
X202529875Y-83331527D01*
X202517058Y-83347352D01*
X202512852Y-83352276D01*
X202467469Y-83402681D01*
X202467466Y-83402685D01*
X202460458Y-83414823D01*
X202449444Y-83430848D01*
X202440626Y-83441737D01*
X202440616Y-83441753D01*
X202409819Y-83502194D01*
X202406722Y-83507897D01*
X202372821Y-83566613D01*
X202368487Y-83579953D01*
X202361045Y-83597920D01*
X202354680Y-83610412D01*
X202337126Y-83675918D01*
X202335284Y-83682134D01*
X202314326Y-83746642D01*
X202314325Y-83746645D01*
X202312860Y-83760586D01*
X202309315Y-83779712D01*
X202305686Y-83793252D01*
X202302136Y-83860991D01*
X202301628Y-83867452D01*
X202299500Y-83887711D01*
X202299500Y-83908074D01*
X202299330Y-83914563D01*
X202295781Y-83982287D01*
X202297973Y-83996125D01*
X202299500Y-84015526D01*
X202299500Y-89580308D01*
X202279815Y-89647347D01*
X202274454Y-89655034D01*
X202174947Y-89786802D01*
X202174938Y-89786816D01*
X202075775Y-89985961D01*
X202075769Y-89985976D01*
X202014885Y-90199962D01*
X202014884Y-90199964D01*
X201994357Y-90421499D01*
X201994357Y-90421500D01*
X202014884Y-90643035D01*
X202014885Y-90643037D01*
X202075769Y-90857023D01*
X202075775Y-90857038D01*
X202174938Y-91056183D01*
X202174943Y-91056191D01*
X202309020Y-91233738D01*
X202473437Y-91383623D01*
X202473439Y-91383625D01*
X202662595Y-91500745D01*
X202662596Y-91500745D01*
X202662599Y-91500747D01*
X202870060Y-91581118D01*
X203088757Y-91622000D01*
X203088759Y-91622000D01*
X203311241Y-91622000D01*
X203311243Y-91622000D01*
X203529940Y-91581118D01*
X203737401Y-91500747D01*
X203926562Y-91383624D01*
X204090981Y-91233736D01*
X204225058Y-91056189D01*
X204324229Y-90857028D01*
X204385115Y-90643036D01*
X204405643Y-90421500D01*
X204385115Y-90199964D01*
X204324229Y-89985972D01*
X204324224Y-89985961D01*
X204225061Y-89786816D01*
X204225052Y-89786802D01*
X204125546Y-89655034D01*
X204100854Y-89589673D01*
X204100500Y-89580308D01*
X204100500Y-84359260D01*
X204120185Y-84292221D01*
X204136815Y-84271583D01*
X204402158Y-84006239D01*
X204463481Y-83972755D01*
X204533173Y-83977739D01*
X204589106Y-84019611D01*
X204613310Y-84082479D01*
X204619051Y-84144437D01*
X204619051Y-84144439D01*
X204619052Y-84144442D01*
X204676641Y-84346847D01*
X204676642Y-84346850D01*
X204770442Y-84535225D01*
X204897261Y-84703160D01*
X205052776Y-84844930D01*
X205052778Y-84844932D01*
X205231692Y-84955711D01*
X205231698Y-84955714D01*
X205273268Y-84971818D01*
X205427924Y-85031732D01*
X205634780Y-85070400D01*
X205634782Y-85070400D01*
X205845218Y-85070400D01*
X205845220Y-85070400D01*
X206052076Y-85031732D01*
X206248304Y-84955713D01*
X206427223Y-84844931D01*
X206582740Y-84703159D01*
X206709558Y-84535225D01*
X206803359Y-84346847D01*
X206860948Y-84144442D01*
X206862637Y-84126211D01*
X206888422Y-84061274D01*
X206898419Y-84049978D01*
X207946680Y-83001719D01*
X208008003Y-82968234D01*
X208034361Y-82965400D01*
X214137102Y-82965400D01*
X214204141Y-82985085D01*
X214249896Y-83037889D01*
X214260505Y-83101557D01*
X214257649Y-83130548D01*
X214231486Y-83195334D01*
X214221927Y-83206072D01*
X208242565Y-89185435D01*
X208181242Y-89218920D01*
X208173404Y-89220131D01*
X208071155Y-89239244D01*
X207950060Y-89261882D01*
X207818864Y-89312707D01*
X207742601Y-89342252D01*
X207742595Y-89342254D01*
X207553439Y-89459374D01*
X207553437Y-89459376D01*
X207389020Y-89609261D01*
X207254943Y-89786808D01*
X207254938Y-89786816D01*
X207155775Y-89985961D01*
X207155769Y-89985976D01*
X207094885Y-90199962D01*
X207094884Y-90199964D01*
X207074357Y-90421499D01*
X207074357Y-90421500D01*
X207094884Y-90643035D01*
X207094885Y-90643037D01*
X207155769Y-90857023D01*
X207155775Y-90857038D01*
X207254938Y-91056183D01*
X207254943Y-91056191D01*
X207389020Y-91233738D01*
X207553437Y-91383623D01*
X207553439Y-91383625D01*
X207742595Y-91500745D01*
X207742596Y-91500745D01*
X207742599Y-91500747D01*
X207950060Y-91581118D01*
X208168757Y-91622000D01*
X208168759Y-91622000D01*
X208391241Y-91622000D01*
X208391243Y-91622000D01*
X208609940Y-91581118D01*
X208817401Y-91500747D01*
X209006562Y-91383624D01*
X209170981Y-91233736D01*
X209305058Y-91056189D01*
X209404229Y-90857028D01*
X209465115Y-90643036D01*
X209474582Y-90540864D01*
X209500368Y-90475928D01*
X209510364Y-90464633D01*
X215757360Y-84217637D01*
X215786580Y-84195966D01*
X215886450Y-84142585D01*
X216046410Y-84011310D01*
X216177685Y-83851350D01*
X216275232Y-83668854D01*
X216335300Y-83470834D01*
X216336243Y-83461255D01*
X216362400Y-83396471D01*
X216419432Y-83356109D01*
X216489232Y-83352988D01*
X216547327Y-83385726D01*
X223726181Y-90564580D01*
X223759666Y-90625903D01*
X223762500Y-90652261D01*
X223762500Y-105534539D01*
X223742815Y-105601578D01*
X223690011Y-105647333D01*
X223620853Y-105657277D01*
X223557297Y-105628252D01*
X223550819Y-105622220D01*
X217586818Y-99658219D01*
X217553333Y-99596896D01*
X217550499Y-99570538D01*
X217550499Y-99247029D01*
X217550498Y-99247023D01*
X217544091Y-99187416D01*
X217493797Y-99052571D01*
X217493793Y-99052564D01*
X217407547Y-98937355D01*
X217407544Y-98937352D01*
X217292335Y-98851106D01*
X217292328Y-98851102D01*
X217157482Y-98800808D01*
X217157483Y-98800808D01*
X217097883Y-98794401D01*
X217097881Y-98794400D01*
X217097873Y-98794400D01*
X217097864Y-98794400D01*
X215902129Y-98794400D01*
X215902123Y-98794401D01*
X215842516Y-98800808D01*
X215707671Y-98851102D01*
X215707668Y-98851104D01*
X215616080Y-98919667D01*
X215550615Y-98944084D01*
X215541769Y-98944400D01*
X207690627Y-98944400D01*
X207671228Y-98942873D01*
X207657389Y-98940681D01*
X207657388Y-98940681D01*
X207615563Y-98942873D01*
X207589670Y-98944230D01*
X207583180Y-98944400D01*
X207562808Y-98944400D01*
X207542539Y-98946529D01*
X207536084Y-98947037D01*
X207468356Y-98950587D01*
X207454809Y-98954217D01*
X207435686Y-98957760D01*
X207421745Y-98959225D01*
X207421742Y-98959226D01*
X207357245Y-98980182D01*
X207351023Y-98982025D01*
X207285517Y-98999577D01*
X207285503Y-98999583D01*
X207273022Y-99005943D01*
X207255049Y-99013388D01*
X207241715Y-99017720D01*
X207182997Y-99051622D01*
X207177294Y-99054719D01*
X207116853Y-99085516D01*
X207116837Y-99085526D01*
X207105948Y-99094344D01*
X207089923Y-99105358D01*
X207077785Y-99112366D01*
X207072522Y-99116190D01*
X207070799Y-99113819D01*
X207019120Y-99138434D01*
X206949811Y-99129605D01*
X206896277Y-99084707D01*
X206875515Y-99017993D01*
X206875499Y-99015996D01*
X206875499Y-98492029D01*
X206875498Y-98492023D01*
X206875497Y-98492016D01*
X206869091Y-98432417D01*
X206818796Y-98297569D01*
X206818795Y-98297568D01*
X206818793Y-98297564D01*
X206732547Y-98182355D01*
X206732544Y-98182352D01*
X206617335Y-98096106D01*
X206617328Y-98096102D01*
X206482482Y-98045808D01*
X206482483Y-98045808D01*
X206422883Y-98039401D01*
X206422881Y-98039400D01*
X206422873Y-98039400D01*
X206422864Y-98039400D01*
X205057129Y-98039400D01*
X205057123Y-98039401D01*
X204997516Y-98045808D01*
X204862671Y-98096102D01*
X204862664Y-98096106D01*
X204747455Y-98182352D01*
X204747452Y-98182355D01*
X204661206Y-98297564D01*
X204661202Y-98297571D01*
X204610908Y-98432417D01*
X204604501Y-98492016D01*
X204604501Y-98492023D01*
X204604500Y-98492035D01*
X204604500Y-98985538D01*
X204584815Y-99052577D01*
X204568181Y-99073219D01*
X202620263Y-101021136D01*
X202605474Y-101033769D01*
X202594126Y-101042014D01*
X202548751Y-101092408D01*
X202544288Y-101097111D01*
X202529891Y-101111509D01*
X202529875Y-101111527D01*
X202517058Y-101127352D01*
X202512852Y-101132276D01*
X202467469Y-101182681D01*
X202467466Y-101182685D01*
X202460458Y-101194823D01*
X202449444Y-101210848D01*
X202440626Y-101221737D01*
X202440616Y-101221753D01*
X202409819Y-101282194D01*
X202406722Y-101287897D01*
X202372821Y-101346613D01*
X202368487Y-101359953D01*
X202361045Y-101377920D01*
X202354680Y-101390412D01*
X202337126Y-101455918D01*
X202335284Y-101462134D01*
X202314326Y-101526642D01*
X202314325Y-101526645D01*
X202312860Y-101540586D01*
X202309315Y-101559712D01*
X202305686Y-101573252D01*
X202302136Y-101640991D01*
X202301628Y-101647452D01*
X202299500Y-101667711D01*
X202299500Y-101688074D01*
X202299330Y-101694563D01*
X202295781Y-101762287D01*
X202297973Y-101776125D01*
X202299500Y-101795526D01*
X202299500Y-107360308D01*
X202279815Y-107427347D01*
X202274454Y-107435034D01*
X202174947Y-107566802D01*
X202174938Y-107566816D01*
X202075775Y-107765961D01*
X202075769Y-107765976D01*
X202014885Y-107979962D01*
X202014884Y-107979964D01*
X201994357Y-108201499D01*
X201994357Y-108201500D01*
X202014884Y-108423035D01*
X202014885Y-108423037D01*
X202075769Y-108637023D01*
X202075775Y-108637038D01*
X202174938Y-108836183D01*
X202174943Y-108836191D01*
X202309020Y-109013738D01*
X202473437Y-109163623D01*
X202473439Y-109163625D01*
X202662595Y-109280745D01*
X202662596Y-109280745D01*
X202662599Y-109280747D01*
X202870060Y-109361118D01*
X203088757Y-109402000D01*
X203088759Y-109402000D01*
X203311241Y-109402000D01*
X203311243Y-109402000D01*
X203529940Y-109361118D01*
X203737401Y-109280747D01*
X203926562Y-109163624D01*
X204090981Y-109013736D01*
X204225058Y-108836189D01*
X204324229Y-108637028D01*
X204385115Y-108423036D01*
X204405643Y-108201500D01*
X204385115Y-107979964D01*
X204324229Y-107765972D01*
X204324224Y-107765961D01*
X204225061Y-107566816D01*
X204225052Y-107566802D01*
X204125546Y-107435034D01*
X204100854Y-107369673D01*
X204100500Y-107360308D01*
X204100500Y-102139260D01*
X204120185Y-102072221D01*
X204136815Y-102051583D01*
X204402158Y-101786239D01*
X204463481Y-101752755D01*
X204533173Y-101757739D01*
X204589106Y-101799611D01*
X204613310Y-101862479D01*
X204619051Y-101924437D01*
X204619051Y-101924439D01*
X204619052Y-101924442D01*
X204676641Y-102126847D01*
X204676642Y-102126850D01*
X204770442Y-102315225D01*
X204897261Y-102483160D01*
X205052776Y-102624930D01*
X205052778Y-102624932D01*
X205231692Y-102735711D01*
X205231698Y-102735714D01*
X205273268Y-102751818D01*
X205427924Y-102811732D01*
X205634780Y-102850400D01*
X205634782Y-102850400D01*
X205845218Y-102850400D01*
X205845220Y-102850400D01*
X206052076Y-102811732D01*
X206248304Y-102735713D01*
X206427223Y-102624931D01*
X206582740Y-102483159D01*
X206709558Y-102315225D01*
X206803359Y-102126847D01*
X206860948Y-101924442D01*
X206862637Y-101906211D01*
X206888422Y-101841274D01*
X206898419Y-101829978D01*
X207946680Y-100781719D01*
X208008003Y-100748234D01*
X208034361Y-100745400D01*
X214137102Y-100745400D01*
X214204141Y-100765085D01*
X214249896Y-100817889D01*
X214260505Y-100881557D01*
X214257649Y-100910548D01*
X214231486Y-100975334D01*
X214221927Y-100986072D01*
X208242565Y-106965435D01*
X208181242Y-106998920D01*
X208173404Y-107000131D01*
X208071155Y-107019244D01*
X207950060Y-107041882D01*
X207865657Y-107074580D01*
X207742601Y-107122252D01*
X207742595Y-107122254D01*
X207553439Y-107239374D01*
X207553437Y-107239376D01*
X207389020Y-107389261D01*
X207254943Y-107566808D01*
X207254938Y-107566816D01*
X207155775Y-107765961D01*
X207155769Y-107765976D01*
X207094885Y-107979962D01*
X207094884Y-107979964D01*
X207074357Y-108201499D01*
X207074357Y-108201500D01*
X207094884Y-108423035D01*
X207094885Y-108423037D01*
X207155769Y-108637023D01*
X207155775Y-108637038D01*
X207254938Y-108836183D01*
X207254943Y-108836191D01*
X207389020Y-109013738D01*
X207553437Y-109163623D01*
X207553439Y-109163625D01*
X207742595Y-109280745D01*
X207742596Y-109280745D01*
X207742599Y-109280747D01*
X207950060Y-109361118D01*
X208168757Y-109402000D01*
X208168759Y-109402000D01*
X208391241Y-109402000D01*
X208391243Y-109402000D01*
X208609940Y-109361118D01*
X208817401Y-109280747D01*
X209006562Y-109163624D01*
X209170981Y-109013736D01*
X209305058Y-108836189D01*
X209404229Y-108637028D01*
X209465115Y-108423036D01*
X209474582Y-108320864D01*
X209500368Y-108255928D01*
X209510364Y-108244633D01*
X215757360Y-101997637D01*
X215786580Y-101975966D01*
X215886450Y-101922585D01*
X216046410Y-101791310D01*
X216177685Y-101631350D01*
X216275232Y-101448854D01*
X216335300Y-101250834D01*
X216336243Y-101241255D01*
X216362400Y-101176471D01*
X216419432Y-101136109D01*
X216489232Y-101132988D01*
X216547327Y-101165726D01*
X222456181Y-107074580D01*
X222489666Y-107135903D01*
X222492500Y-107162261D01*
X222492500Y-122044538D01*
X222472815Y-122111577D01*
X222420011Y-122157332D01*
X222350853Y-122167276D01*
X222287297Y-122138251D01*
X222280819Y-122132219D01*
X217586818Y-117438218D01*
X217553333Y-117376895D01*
X217550499Y-117350537D01*
X217550499Y-117027029D01*
X217550498Y-117027023D01*
X217544091Y-116967416D01*
X217493797Y-116832571D01*
X217493793Y-116832564D01*
X217407547Y-116717355D01*
X217407544Y-116717352D01*
X217292335Y-116631106D01*
X217292328Y-116631102D01*
X217157482Y-116580808D01*
X217157483Y-116580808D01*
X217097883Y-116574401D01*
X217097881Y-116574400D01*
X217097873Y-116574400D01*
X217097864Y-116574400D01*
X215902129Y-116574400D01*
X215902123Y-116574401D01*
X215842516Y-116580808D01*
X215707671Y-116631102D01*
X215707668Y-116631104D01*
X215616080Y-116699667D01*
X215550615Y-116724084D01*
X215541769Y-116724400D01*
X207690627Y-116724400D01*
X207671228Y-116722873D01*
X207657389Y-116720681D01*
X207657388Y-116720681D01*
X207615563Y-116722873D01*
X207589670Y-116724230D01*
X207583180Y-116724400D01*
X207562808Y-116724400D01*
X207542539Y-116726529D01*
X207536084Y-116727037D01*
X207468356Y-116730587D01*
X207454809Y-116734217D01*
X207435686Y-116737760D01*
X207421745Y-116739225D01*
X207421742Y-116739226D01*
X207357245Y-116760182D01*
X207351023Y-116762025D01*
X207285517Y-116779577D01*
X207285503Y-116779583D01*
X207273022Y-116785943D01*
X207255049Y-116793388D01*
X207241715Y-116797720D01*
X207182997Y-116831622D01*
X207177294Y-116834719D01*
X207116853Y-116865516D01*
X207116837Y-116865526D01*
X207105948Y-116874344D01*
X207089923Y-116885358D01*
X207077785Y-116892366D01*
X207072522Y-116896190D01*
X207070799Y-116893819D01*
X207019120Y-116918434D01*
X206949811Y-116909605D01*
X206896277Y-116864707D01*
X206875515Y-116797993D01*
X206875499Y-116795996D01*
X206875499Y-116272029D01*
X206875498Y-116272023D01*
X206875497Y-116272016D01*
X206869091Y-116212417D01*
X206818796Y-116077569D01*
X206818795Y-116077568D01*
X206818793Y-116077564D01*
X206732547Y-115962355D01*
X206732544Y-115962352D01*
X206617335Y-115876106D01*
X206617328Y-115876102D01*
X206482482Y-115825808D01*
X206482483Y-115825808D01*
X206422883Y-115819401D01*
X206422881Y-115819400D01*
X206422873Y-115819400D01*
X206422864Y-115819400D01*
X205057129Y-115819400D01*
X205057123Y-115819401D01*
X204997516Y-115825808D01*
X204862671Y-115876102D01*
X204862664Y-115876106D01*
X204747455Y-115962352D01*
X204747452Y-115962355D01*
X204661206Y-116077564D01*
X204661202Y-116077571D01*
X204610908Y-116212417D01*
X204604501Y-116272016D01*
X204604501Y-116272023D01*
X204604500Y-116272035D01*
X204604500Y-116765538D01*
X204584815Y-116832577D01*
X204568181Y-116853219D01*
X202620263Y-118801136D01*
X202605474Y-118813769D01*
X202594126Y-118822014D01*
X202548751Y-118872408D01*
X202544288Y-118877111D01*
X202529891Y-118891509D01*
X202529875Y-118891527D01*
X202517058Y-118907352D01*
X202512852Y-118912276D01*
X202467469Y-118962681D01*
X202467466Y-118962685D01*
X202460458Y-118974823D01*
X202449444Y-118990848D01*
X202440626Y-119001737D01*
X202440616Y-119001753D01*
X202409819Y-119062194D01*
X202406722Y-119067897D01*
X202372821Y-119126613D01*
X202368487Y-119139953D01*
X202361045Y-119157920D01*
X202354680Y-119170412D01*
X202337126Y-119235918D01*
X202335284Y-119242134D01*
X202314326Y-119306642D01*
X202314325Y-119306645D01*
X202312860Y-119320586D01*
X202309315Y-119339712D01*
X202305686Y-119353252D01*
X202302136Y-119420991D01*
X202301628Y-119427452D01*
X202299500Y-119447711D01*
X202299500Y-119468074D01*
X202299330Y-119474563D01*
X202295781Y-119542287D01*
X202297973Y-119556125D01*
X202299500Y-119575526D01*
X202299500Y-125140308D01*
X202279815Y-125207347D01*
X202274454Y-125215034D01*
X202174947Y-125346802D01*
X202174938Y-125346816D01*
X202075775Y-125545961D01*
X202075769Y-125545976D01*
X202014885Y-125759962D01*
X202014884Y-125759964D01*
X201994357Y-125981499D01*
X201994357Y-125981500D01*
X202014884Y-126203035D01*
X202014885Y-126203037D01*
X202075769Y-126417023D01*
X202075775Y-126417038D01*
X202174938Y-126616183D01*
X202174943Y-126616191D01*
X202309020Y-126793738D01*
X202473437Y-126943623D01*
X202473439Y-126943625D01*
X202662595Y-127060745D01*
X202662596Y-127060745D01*
X202662599Y-127060747D01*
X202870060Y-127141118D01*
X203088757Y-127182000D01*
X203088759Y-127182000D01*
X203311241Y-127182000D01*
X203311243Y-127182000D01*
X203529940Y-127141118D01*
X203737401Y-127060747D01*
X203926562Y-126943624D01*
X204090981Y-126793736D01*
X204225058Y-126616189D01*
X204324229Y-126417028D01*
X204385115Y-126203036D01*
X204405643Y-125981500D01*
X204385115Y-125759964D01*
X204324229Y-125545972D01*
X204324224Y-125545961D01*
X204225061Y-125346816D01*
X204225052Y-125346802D01*
X204125546Y-125215034D01*
X204100854Y-125149673D01*
X204100500Y-125140308D01*
X204100500Y-119919260D01*
X204120185Y-119852221D01*
X204136815Y-119831583D01*
X204402158Y-119566239D01*
X204463481Y-119532755D01*
X204533173Y-119537739D01*
X204589106Y-119579611D01*
X204613310Y-119642479D01*
X204619051Y-119704437D01*
X204619051Y-119704439D01*
X204619052Y-119704442D01*
X204676641Y-119906847D01*
X204676642Y-119906850D01*
X204770442Y-120095225D01*
X204897261Y-120263160D01*
X205052776Y-120404930D01*
X205052778Y-120404932D01*
X205231692Y-120515711D01*
X205231698Y-120515714D01*
X205273268Y-120531818D01*
X205427924Y-120591732D01*
X205634780Y-120630400D01*
X205634782Y-120630400D01*
X205845218Y-120630400D01*
X205845220Y-120630400D01*
X206052076Y-120591732D01*
X206248304Y-120515713D01*
X206427223Y-120404931D01*
X206582740Y-120263159D01*
X206709558Y-120095225D01*
X206803359Y-119906847D01*
X206860948Y-119704442D01*
X206862637Y-119686211D01*
X206888422Y-119621274D01*
X206898419Y-119609978D01*
X207946680Y-118561719D01*
X208008003Y-118528234D01*
X208034361Y-118525400D01*
X214137102Y-118525400D01*
X214204141Y-118545085D01*
X214249896Y-118597889D01*
X214260505Y-118661557D01*
X214257649Y-118690548D01*
X214231486Y-118755334D01*
X214221927Y-118766072D01*
X208242565Y-124745435D01*
X208181242Y-124778920D01*
X208173404Y-124780131D01*
X208071155Y-124799244D01*
X207950060Y-124821882D01*
X207818864Y-124872707D01*
X207742601Y-124902252D01*
X207742595Y-124902254D01*
X207553439Y-125019374D01*
X207553437Y-125019376D01*
X207389020Y-125169261D01*
X207254943Y-125346808D01*
X207254938Y-125346816D01*
X207155775Y-125545961D01*
X207155769Y-125545976D01*
X207094885Y-125759962D01*
X207094884Y-125759964D01*
X207074357Y-125981499D01*
X207074357Y-125981500D01*
X207094884Y-126203035D01*
X207094885Y-126203037D01*
X207155769Y-126417023D01*
X207155775Y-126417038D01*
X207254938Y-126616183D01*
X207254943Y-126616191D01*
X207389020Y-126793738D01*
X207553437Y-126943623D01*
X207553439Y-126943625D01*
X207742595Y-127060745D01*
X207742596Y-127060745D01*
X207742599Y-127060747D01*
X207950060Y-127141118D01*
X208168757Y-127182000D01*
X208168759Y-127182000D01*
X208391241Y-127182000D01*
X208391243Y-127182000D01*
X208609940Y-127141118D01*
X208817401Y-127060747D01*
X209006562Y-126943624D01*
X209170981Y-126793736D01*
X209305058Y-126616189D01*
X209404229Y-126417028D01*
X209465115Y-126203036D01*
X209474582Y-126100864D01*
X209500368Y-126035928D01*
X209510364Y-126024633D01*
X215757360Y-119777637D01*
X215786580Y-119755966D01*
X215886450Y-119702585D01*
X216046410Y-119571310D01*
X216177685Y-119411350D01*
X216275232Y-119228854D01*
X216335300Y-119030834D01*
X216336243Y-119021258D01*
X216362400Y-118956471D01*
X216419433Y-118916110D01*
X216489233Y-118912990D01*
X216547327Y-118945727D01*
X221186181Y-123584580D01*
X221219666Y-123645903D01*
X221222500Y-123672261D01*
X221222500Y-138554538D01*
X221202815Y-138621577D01*
X221150011Y-138667332D01*
X221080853Y-138677276D01*
X221017297Y-138648251D01*
X221010819Y-138642219D01*
X217586818Y-135218218D01*
X217553333Y-135156895D01*
X217550499Y-135130537D01*
X217550499Y-134054629D01*
X217550498Y-134054623D01*
X217544091Y-133995016D01*
X217493797Y-133860171D01*
X217493793Y-133860164D01*
X217407547Y-133744955D01*
X217407544Y-133744952D01*
X217292335Y-133658706D01*
X217292328Y-133658702D01*
X217157482Y-133608408D01*
X217157483Y-133608408D01*
X217097883Y-133602001D01*
X217097881Y-133602000D01*
X217097873Y-133602000D01*
X217097864Y-133602000D01*
X215902129Y-133602000D01*
X215902123Y-133602001D01*
X215842516Y-133608408D01*
X215707671Y-133658702D01*
X215707668Y-133658704D01*
X215616080Y-133727267D01*
X215550615Y-133751684D01*
X215541769Y-133752000D01*
X207690627Y-133752000D01*
X207671228Y-133750473D01*
X207657389Y-133748281D01*
X207657388Y-133748281D01*
X207615563Y-133750473D01*
X207589670Y-133751830D01*
X207583180Y-133752000D01*
X207562808Y-133752000D01*
X207542539Y-133754129D01*
X207536084Y-133754637D01*
X207468356Y-133758187D01*
X207454809Y-133761817D01*
X207435686Y-133765360D01*
X207421745Y-133766825D01*
X207421742Y-133766826D01*
X207357245Y-133787782D01*
X207351023Y-133789625D01*
X207285517Y-133807177D01*
X207285503Y-133807183D01*
X207273022Y-133813543D01*
X207255049Y-133820988D01*
X207241715Y-133825320D01*
X207182997Y-133859222D01*
X207177294Y-133862319D01*
X207116853Y-133893116D01*
X207116837Y-133893126D01*
X207105948Y-133901944D01*
X207089923Y-133912958D01*
X207077785Y-133919966D01*
X207072522Y-133923790D01*
X207070799Y-133921419D01*
X207019120Y-133946034D01*
X206949811Y-133937205D01*
X206896277Y-133892307D01*
X206875515Y-133825593D01*
X206875499Y-133823596D01*
X206875499Y-133299629D01*
X206875498Y-133299623D01*
X206875497Y-133299616D01*
X206869091Y-133240017D01*
X206818796Y-133105169D01*
X206818795Y-133105168D01*
X206818793Y-133105164D01*
X206732547Y-132989955D01*
X206732544Y-132989952D01*
X206617335Y-132903706D01*
X206617328Y-132903702D01*
X206482482Y-132853408D01*
X206482483Y-132853408D01*
X206422883Y-132847001D01*
X206422881Y-132847000D01*
X206422873Y-132847000D01*
X206422864Y-132847000D01*
X205057129Y-132847000D01*
X205057123Y-132847001D01*
X204997516Y-132853408D01*
X204862671Y-132903702D01*
X204862664Y-132903706D01*
X204747455Y-132989952D01*
X204747452Y-132989955D01*
X204661206Y-133105164D01*
X204661202Y-133105171D01*
X204610908Y-133240017D01*
X204604501Y-133299616D01*
X204604501Y-133299623D01*
X204604500Y-133299635D01*
X204604500Y-133793138D01*
X204584815Y-133860177D01*
X204568181Y-133880819D01*
X202620263Y-135828736D01*
X202605474Y-135841369D01*
X202594126Y-135849614D01*
X202548751Y-135900008D01*
X202544288Y-135904711D01*
X202529891Y-135919109D01*
X202529875Y-135919127D01*
X202517058Y-135934952D01*
X202512852Y-135939876D01*
X202467469Y-135990281D01*
X202467466Y-135990285D01*
X202460458Y-136002423D01*
X202449444Y-136018448D01*
X202440626Y-136029337D01*
X202440616Y-136029353D01*
X202409819Y-136089794D01*
X202406722Y-136095497D01*
X202372821Y-136154213D01*
X202368487Y-136167553D01*
X202361045Y-136185520D01*
X202354680Y-136198012D01*
X202337126Y-136263518D01*
X202335284Y-136269734D01*
X202314326Y-136334242D01*
X202314325Y-136334245D01*
X202312860Y-136348186D01*
X202309315Y-136367312D01*
X202305686Y-136380852D01*
X202302136Y-136448591D01*
X202301628Y-136455052D01*
X202299500Y-136475311D01*
X202299500Y-136495674D01*
X202299330Y-136502163D01*
X202295781Y-136569887D01*
X202297973Y-136583725D01*
X202299500Y-136603126D01*
X202299500Y-142167908D01*
X202279815Y-142234947D01*
X202274454Y-142242634D01*
X202174947Y-142374402D01*
X202174938Y-142374416D01*
X202075775Y-142573561D01*
X202075769Y-142573576D01*
X202014885Y-142787562D01*
X202014884Y-142787564D01*
X201994357Y-143009099D01*
X201994357Y-143009100D01*
X202014884Y-143230635D01*
X202014885Y-143230637D01*
X202075769Y-143444623D01*
X202075775Y-143444638D01*
X202174938Y-143643783D01*
X202174943Y-143643791D01*
X202309020Y-143821338D01*
X202473437Y-143971223D01*
X202473439Y-143971225D01*
X202662595Y-144088345D01*
X202662596Y-144088345D01*
X202662599Y-144088347D01*
X202870060Y-144168718D01*
X203088757Y-144209600D01*
X203088759Y-144209600D01*
X203311241Y-144209600D01*
X203311243Y-144209600D01*
X203529940Y-144168718D01*
X203737401Y-144088347D01*
X203926562Y-143971224D01*
X204090981Y-143821336D01*
X204225058Y-143643789D01*
X204324229Y-143444628D01*
X204385115Y-143230636D01*
X204405643Y-143009100D01*
X204385115Y-142787564D01*
X204324229Y-142573572D01*
X204324224Y-142573561D01*
X204225061Y-142374416D01*
X204225052Y-142374402D01*
X204125546Y-142242634D01*
X204100854Y-142177273D01*
X204100500Y-142167908D01*
X204100500Y-136946860D01*
X204120185Y-136879821D01*
X204136815Y-136859183D01*
X204402158Y-136593839D01*
X204463481Y-136560355D01*
X204533173Y-136565339D01*
X204589106Y-136607211D01*
X204613310Y-136670079D01*
X204619051Y-136732037D01*
X204619051Y-136732039D01*
X204619052Y-136732042D01*
X204676641Y-136934447D01*
X204676642Y-136934450D01*
X204770442Y-137122825D01*
X204897261Y-137290760D01*
X205052776Y-137432530D01*
X205052778Y-137432532D01*
X205231692Y-137543311D01*
X205231698Y-137543314D01*
X205273268Y-137559418D01*
X205427924Y-137619332D01*
X205634780Y-137658000D01*
X205634782Y-137658000D01*
X205845218Y-137658000D01*
X205845220Y-137658000D01*
X206052076Y-137619332D01*
X206248304Y-137543313D01*
X206427223Y-137432531D01*
X206582740Y-137290759D01*
X206709558Y-137122825D01*
X206803359Y-136934447D01*
X206860948Y-136732042D01*
X206862637Y-136713811D01*
X206888422Y-136648874D01*
X206898419Y-136637578D01*
X207946680Y-135589319D01*
X208008003Y-135555834D01*
X208034361Y-135553000D01*
X214137102Y-135553000D01*
X214204141Y-135572685D01*
X214249896Y-135625489D01*
X214260505Y-135689157D01*
X214257649Y-135718148D01*
X214231486Y-135782934D01*
X214221927Y-135793672D01*
X208242565Y-141773035D01*
X208181242Y-141806520D01*
X208173404Y-141807731D01*
X208071155Y-141826844D01*
X207950060Y-141849482D01*
X207818864Y-141900307D01*
X207742601Y-141929852D01*
X207742595Y-141929854D01*
X207553439Y-142046974D01*
X207553437Y-142046976D01*
X207389020Y-142196861D01*
X207254943Y-142374408D01*
X207254938Y-142374416D01*
X207155775Y-142573561D01*
X207155769Y-142573576D01*
X207094885Y-142787562D01*
X207094884Y-142787564D01*
X207074357Y-143009099D01*
X207074357Y-143009100D01*
X207094884Y-143230635D01*
X207094885Y-143230637D01*
X207155769Y-143444623D01*
X207155775Y-143444638D01*
X207254938Y-143643783D01*
X207254943Y-143643791D01*
X207389020Y-143821338D01*
X207553437Y-143971223D01*
X207553439Y-143971225D01*
X207742595Y-144088345D01*
X207742596Y-144088345D01*
X207742599Y-144088347D01*
X207950060Y-144168718D01*
X208168757Y-144209600D01*
X208168759Y-144209600D01*
X208391241Y-144209600D01*
X208391243Y-144209600D01*
X208609940Y-144168718D01*
X208817401Y-144088347D01*
X209006562Y-143971224D01*
X209170981Y-143821336D01*
X209305058Y-143643789D01*
X209404229Y-143444628D01*
X209465115Y-143230636D01*
X209474582Y-143128464D01*
X209500368Y-143063528D01*
X209510364Y-143052233D01*
X215757360Y-136805237D01*
X215786580Y-136783566D01*
X215886450Y-136730185D01*
X216046410Y-136598910D01*
X216128245Y-136499191D01*
X216185988Y-136459859D01*
X216255833Y-136457988D01*
X216311778Y-136490177D01*
X219916181Y-140094580D01*
X219949666Y-140155903D01*
X219952500Y-140182261D01*
X219952500Y-155064538D01*
X219932815Y-155131577D01*
X219880011Y-155177332D01*
X219810853Y-155187276D01*
X219747297Y-155158251D01*
X219740819Y-155152219D01*
X217586818Y-152998218D01*
X217553333Y-152936895D01*
X217550499Y-152910537D01*
X217550499Y-152587029D01*
X217550498Y-152587023D01*
X217544091Y-152527416D01*
X217493797Y-152392571D01*
X217493793Y-152392564D01*
X217407547Y-152277355D01*
X217407544Y-152277352D01*
X217292335Y-152191106D01*
X217292328Y-152191102D01*
X217157482Y-152140808D01*
X217157483Y-152140808D01*
X217097883Y-152134401D01*
X217097881Y-152134400D01*
X217097873Y-152134400D01*
X217097864Y-152134400D01*
X215902129Y-152134400D01*
X215902123Y-152134401D01*
X215842516Y-152140808D01*
X215707671Y-152191102D01*
X215707668Y-152191104D01*
X215616080Y-152259667D01*
X215550615Y-152284084D01*
X215541769Y-152284400D01*
X207690627Y-152284400D01*
X207671228Y-152282873D01*
X207657389Y-152280681D01*
X207657388Y-152280681D01*
X207615563Y-152282873D01*
X207589670Y-152284230D01*
X207583180Y-152284400D01*
X207562808Y-152284400D01*
X207542539Y-152286529D01*
X207536084Y-152287037D01*
X207468356Y-152290587D01*
X207454809Y-152294217D01*
X207435686Y-152297760D01*
X207421745Y-152299225D01*
X207421742Y-152299226D01*
X207357245Y-152320182D01*
X207351023Y-152322025D01*
X207285517Y-152339577D01*
X207285503Y-152339583D01*
X207273022Y-152345943D01*
X207255049Y-152353388D01*
X207241715Y-152357720D01*
X207182997Y-152391622D01*
X207177294Y-152394719D01*
X207116853Y-152425516D01*
X207116837Y-152425526D01*
X207105948Y-152434344D01*
X207089923Y-152445358D01*
X207077785Y-152452366D01*
X207072522Y-152456190D01*
X207070799Y-152453819D01*
X207019120Y-152478434D01*
X206949811Y-152469605D01*
X206896277Y-152424707D01*
X206875515Y-152357993D01*
X206875499Y-152355996D01*
X206875499Y-151832029D01*
X206875498Y-151832023D01*
X206875497Y-151832016D01*
X206869091Y-151772417D01*
X206818796Y-151637569D01*
X206818795Y-151637568D01*
X206818793Y-151637564D01*
X206732547Y-151522355D01*
X206732544Y-151522352D01*
X206617335Y-151436106D01*
X206617328Y-151436102D01*
X206482482Y-151385808D01*
X206482483Y-151385808D01*
X206422883Y-151379401D01*
X206422881Y-151379400D01*
X206422873Y-151379400D01*
X206422864Y-151379400D01*
X205057129Y-151379400D01*
X205057123Y-151379401D01*
X204997516Y-151385808D01*
X204862671Y-151436102D01*
X204862664Y-151436106D01*
X204747455Y-151522352D01*
X204747452Y-151522355D01*
X204661206Y-151637564D01*
X204661202Y-151637571D01*
X204610908Y-151772417D01*
X204604501Y-151832016D01*
X204604501Y-151832023D01*
X204604500Y-151832035D01*
X204604500Y-152325538D01*
X204584815Y-152392577D01*
X204568181Y-152413219D01*
X202620263Y-154361136D01*
X202605474Y-154373769D01*
X202594126Y-154382014D01*
X202548751Y-154432408D01*
X202544288Y-154437111D01*
X202529891Y-154451509D01*
X202529875Y-154451527D01*
X202517058Y-154467352D01*
X202512852Y-154472276D01*
X202467469Y-154522681D01*
X202467466Y-154522685D01*
X202460458Y-154534823D01*
X202449444Y-154550848D01*
X202440626Y-154561737D01*
X202440616Y-154561753D01*
X202409819Y-154622194D01*
X202406722Y-154627897D01*
X202372821Y-154686613D01*
X202368487Y-154699953D01*
X202361045Y-154717920D01*
X202354680Y-154730412D01*
X202337126Y-154795918D01*
X202335284Y-154802134D01*
X202314326Y-154866642D01*
X202314325Y-154866645D01*
X202312860Y-154880586D01*
X202309315Y-154899712D01*
X202305686Y-154913252D01*
X202302136Y-154980991D01*
X202301628Y-154987452D01*
X202299500Y-155007711D01*
X202299500Y-155028074D01*
X202299330Y-155034563D01*
X202295781Y-155102287D01*
X202297973Y-155116125D01*
X202299500Y-155135526D01*
X202299500Y-160700308D01*
X202279815Y-160767347D01*
X202274454Y-160775034D01*
X202174947Y-160906802D01*
X202174938Y-160906816D01*
X202075775Y-161105961D01*
X202075769Y-161105976D01*
X202014885Y-161319962D01*
X202014884Y-161319964D01*
X201994357Y-161541499D01*
X201994357Y-161541500D01*
X200700500Y-161541500D01*
X200700500Y-21275411D01*
X200700972Y-21264604D01*
X200715042Y-21103776D01*
X200718795Y-21082490D01*
X200759177Y-20931779D01*
X200766562Y-20911489D01*
X200832504Y-20770076D01*
X200843308Y-20751366D01*
X200932798Y-20623561D01*
X200946686Y-20607009D01*
X201057009Y-20496686D01*
X201073561Y-20482798D01*
X201201366Y-20393308D01*
X201220076Y-20382504D01*
X201361489Y-20316562D01*
X201381779Y-20309177D01*
X201532490Y-20268794D01*
X201553772Y-20265042D01*
X201714605Y-20250972D01*
X201725412Y-20250500D01*
X201764170Y-20250500D01*
X230035830Y-20250500D01*
X230074588Y-20250500D01*
X230085395Y-20250972D01*
G37*
%TD.AperFunction*%
%TD*%
D20*
X216500000Y-117624900D03*
X215300000Y-118824900D03*
X216500000Y-28724900D03*
X215300000Y-29924900D03*
X216500000Y-134652500D03*
X215300000Y-135852500D03*
X216500000Y-99844900D03*
X215300000Y-101044900D03*
X216500000Y-46504900D03*
X215300000Y-47704900D03*
X216500000Y-82064900D03*
X215300000Y-83264900D03*
X216500000Y-153184900D03*
X215300000Y-154384900D03*
X216500000Y-170964900D03*
X216500000Y-172164900D03*
X215300000Y-170964900D03*
X215300000Y-172164900D03*
X216500000Y-64284900D03*
X215300000Y-65484900D03*
X203200000Y-125981500D03*
X208280000Y-125981500D03*
X224663000Y-182722400D03*
X221162997Y-182722400D03*
X217662996Y-182722400D03*
X214162995Y-182722400D03*
X210662995Y-182722400D03*
X207162994Y-182722400D03*
X224663000Y-185222400D03*
X221162997Y-185222400D03*
X217662996Y-185222400D03*
X214162995Y-185222400D03*
X210662995Y-185222400D03*
X207162994Y-185222400D03*
X228162998Y-184322412D03*
X203662996Y-184322412D03*
X203200000Y-161541500D03*
X208280000Y-161541500D03*
X205740000Y-133982500D03*
X205740000Y-136522500D03*
X203200000Y-108201500D03*
X208280000Y-108201500D03*
X203200000Y-90421500D03*
X208280000Y-90421500D03*
X203200000Y-72641500D03*
X208280000Y-72641500D03*
X205740000Y-28054900D03*
X205740000Y-30594900D03*
X205740000Y-81394900D03*
X205740000Y-83934900D03*
X205740000Y-45834900D03*
X205740000Y-48374900D03*
X203200000Y-54861500D03*
X208280000Y-54861500D03*
X205740000Y-63614900D03*
X205740000Y-66154900D03*
X203200000Y-143009100D03*
X208280000Y-143009100D03*
X205740000Y-99174900D03*
X205740000Y-101714900D03*
X203200000Y-37081500D03*
X208280000Y-37081500D03*
X205740000Y-116954900D03*
X205740000Y-119494900D03*
X205740000Y-152514900D03*
X205740000Y-155054900D03*
M02*
