%TF.GenerationSoftware,KiCad,Pcbnew,7.0.10*%
%TF.CreationDate,2024-11-26T20:56:07-08:00*%
%TF.ProjectId,Connector_Board,436f6e6e-6563-4746-9f72-5f426f617264,rev?*%
%TF.SameCoordinates,Original*%
%TF.FileFunction,Soldermask,Bot*%
%TF.FilePolarity,Negative*%
%FSLAX46Y46*%
G04 Gerber Fmt 4.6, Leading zero omitted, Abs format (unit mm)*
G04 Created by KiCad (PCBNEW 7.0.10) date 2024-11-26 20:56:07*
%MOMM*%
%LPD*%
G01*
G04 APERTURE LIST*
%ADD10R,1.100000X1.100000*%
%ADD11C,1.100000*%
%ADD12C,1.400000*%
%ADD13O,1.400000X1.400000*%
%ADD14R,1.981200X1.981200*%
%ADD15C,1.981200*%
%ADD16R,1.270000X1.270000*%
%ADD17C,1.270000*%
G04 APERTURE END LIST*
%TO.C,G\u002A\u002A\u002A*%
G36*
X225230780Y-121150398D02*
G01*
X225293272Y-121151287D01*
X225347695Y-121152690D01*
X225392126Y-121154631D01*
X225581081Y-121167948D01*
X225808412Y-121191203D01*
X226029157Y-121222159D01*
X226245047Y-121261102D01*
X226457811Y-121308314D01*
X226669183Y-121364080D01*
X226702187Y-121373677D01*
X226773934Y-121395695D01*
X226850629Y-121420567D01*
X226930197Y-121447546D01*
X227010559Y-121475874D01*
X227089642Y-121504801D01*
X227165369Y-121533575D01*
X227235663Y-121561443D01*
X227298450Y-121587652D01*
X227351652Y-121611449D01*
X227358042Y-121614430D01*
X227377810Y-121623490D01*
X227392158Y-121629824D01*
X227398335Y-121632205D01*
X227398896Y-121632302D01*
X227407828Y-121635853D01*
X227425504Y-121643929D01*
X227450234Y-121655689D01*
X227480328Y-121670299D01*
X227514093Y-121686923D01*
X227549841Y-121704725D01*
X227585880Y-121722865D01*
X227620520Y-121740511D01*
X227652069Y-121756825D01*
X227678838Y-121770971D01*
X227860176Y-121873239D01*
X228052894Y-121993846D01*
X228237230Y-122122421D01*
X228414042Y-122259597D01*
X228584189Y-122406009D01*
X228748529Y-122562293D01*
X228814805Y-122629643D01*
X228918860Y-122741125D01*
X229015388Y-122852575D01*
X229106700Y-122966817D01*
X229195105Y-123086665D01*
X229282910Y-123214944D01*
X229301002Y-123242433D01*
X229325386Y-123280063D01*
X229348521Y-123316628D01*
X229371006Y-123353208D01*
X229393448Y-123390883D01*
X229416450Y-123430732D01*
X229433741Y-123461581D01*
X229440613Y-123473838D01*
X229466541Y-123521280D01*
X229494836Y-123574138D01*
X229526103Y-123633492D01*
X229560943Y-123700420D01*
X229599961Y-123776006D01*
X229643758Y-123861327D01*
X229664439Y-123901706D01*
X229700780Y-123972722D01*
X229732396Y-124034617D01*
X229759816Y-124088458D01*
X229783576Y-124135311D01*
X229804206Y-124176247D01*
X229822241Y-124212337D01*
X229838214Y-124244646D01*
X229852656Y-124274244D01*
X229866099Y-124302199D01*
X229879078Y-124329579D01*
X229892126Y-124357454D01*
X229905772Y-124386894D01*
X229913836Y-124404266D01*
X229924509Y-124426978D01*
X229932785Y-124444263D01*
X229937346Y-124453344D01*
X229941791Y-124462778D01*
X229950039Y-124482241D01*
X229961079Y-124509355D01*
X229974156Y-124542204D01*
X229988517Y-124578861D01*
X230003414Y-124617410D01*
X230018089Y-124655928D01*
X230031798Y-124692494D01*
X230043780Y-124725188D01*
X230075203Y-124815872D01*
X230134125Y-125009481D01*
X230184192Y-125208584D01*
X230224906Y-125410855D01*
X230255772Y-125613965D01*
X230276292Y-125815585D01*
X230276831Y-125822654D01*
X230279354Y-125855456D01*
X230281698Y-125885371D01*
X230283623Y-125909344D01*
X230284887Y-125924323D01*
X230285178Y-125930488D01*
X230285526Y-125948863D01*
X230285769Y-125977042D01*
X230285903Y-126013662D01*
X230285929Y-126057360D01*
X230285843Y-126106775D01*
X230285645Y-126160546D01*
X230285331Y-126217311D01*
X230284968Y-126266178D01*
X230284213Y-126334815D01*
X230283148Y-126394558D01*
X230281666Y-126447361D01*
X230279664Y-126495175D01*
X230277040Y-126539955D01*
X230273689Y-126583651D01*
X230269510Y-126628215D01*
X230264396Y-126675603D01*
X230258245Y-126727769D01*
X230228308Y-126936520D01*
X230182757Y-127175592D01*
X230125424Y-127413471D01*
X230056468Y-127649789D01*
X229976044Y-127884179D01*
X229884308Y-128116276D01*
X229781417Y-128345710D01*
X229667524Y-128572118D01*
X229542785Y-128795133D01*
X229407360Y-129014387D01*
X229261400Y-129229514D01*
X229105063Y-129440146D01*
X229082778Y-129468750D01*
X229002093Y-129569782D01*
X228921596Y-129666382D01*
X228839269Y-129760822D01*
X228753096Y-129855378D01*
X228661064Y-129952322D01*
X228561156Y-130053931D01*
X228531870Y-130083103D01*
X228336776Y-130269100D01*
X228136528Y-130445623D01*
X227930157Y-130613393D01*
X227716700Y-130773137D01*
X227495193Y-130925583D01*
X227264671Y-131071455D01*
X227024169Y-131211483D01*
X227005350Y-131221901D01*
X226963806Y-131244418D01*
X226916559Y-131269534D01*
X226865651Y-131296202D01*
X226813117Y-131323379D01*
X226761001Y-131350015D01*
X226711342Y-131375067D01*
X226666178Y-131397490D01*
X226627552Y-131416233D01*
X226597502Y-131430256D01*
X226569415Y-131442938D01*
X226538972Y-131456706D01*
X226512928Y-131468506D01*
X226286850Y-131566443D01*
X226016816Y-131671502D01*
X225744068Y-131764844D01*
X225468742Y-131846434D01*
X225190969Y-131916239D01*
X224910886Y-131974227D01*
X224628625Y-132020364D01*
X224344327Y-132054615D01*
X224058113Y-132076948D01*
X224046290Y-132077574D01*
X224000578Y-132079380D01*
X223945809Y-132080813D01*
X223884097Y-132081872D01*
X223817555Y-132082557D01*
X223748296Y-132082870D01*
X223678434Y-132082810D01*
X223610084Y-132082377D01*
X223545355Y-132081570D01*
X223486364Y-132080390D01*
X223435222Y-132078838D01*
X223394043Y-132076913D01*
X223191856Y-132061951D01*
X222951399Y-132035967D01*
X222717738Y-132001344D01*
X222489759Y-131957863D01*
X222266338Y-131905308D01*
X222046356Y-131843459D01*
X221828696Y-131772099D01*
X221826335Y-131771268D01*
X221782545Y-131755491D01*
X221733311Y-131737172D01*
X221681038Y-131717253D01*
X221628128Y-131696676D01*
X221576985Y-131676387D01*
X221530012Y-131657326D01*
X221489613Y-131640439D01*
X221458190Y-131626667D01*
X221455240Y-131625325D01*
X221431260Y-131614433D01*
X221402688Y-131601479D01*
X221375079Y-131588984D01*
X221369446Y-131586429D01*
X221250538Y-131529568D01*
X221126634Y-131465045D01*
X221000334Y-131394416D01*
X220874248Y-131319226D01*
X220796120Y-131269668D01*
X223029856Y-131269668D01*
X223035968Y-131274441D01*
X223052210Y-131278687D01*
X223079035Y-131283012D01*
X223116892Y-131288026D01*
X223166230Y-131294340D01*
X223248338Y-131304309D01*
X223493930Y-131326083D01*
X223741376Y-131336179D01*
X223990176Y-131334701D01*
X224239827Y-131321748D01*
X224489822Y-131297422D01*
X224739664Y-131261827D01*
X224988849Y-131215062D01*
X225236871Y-131157233D01*
X225483228Y-131088439D01*
X225727416Y-131008783D01*
X225968934Y-130918367D01*
X226207277Y-130817292D01*
X226441944Y-130705661D01*
X226672430Y-130583575D01*
X226857048Y-130476399D01*
X227080855Y-130334541D01*
X227297013Y-130183967D01*
X227505204Y-130024957D01*
X227705105Y-129857797D01*
X227896396Y-129682772D01*
X228078755Y-129500159D01*
X228251861Y-129310247D01*
X228415394Y-129113317D01*
X228569031Y-128909654D01*
X228588566Y-128882334D01*
X228606476Y-128857053D01*
X228620644Y-128836803D01*
X228629961Y-128823169D01*
X228633312Y-128817742D01*
X228633307Y-128817335D01*
X228632845Y-128816924D01*
X228630893Y-128817292D01*
X228626384Y-128818893D01*
X228618258Y-128822179D01*
X228605451Y-128827602D01*
X228586899Y-128835617D01*
X228561535Y-128846676D01*
X228528301Y-128861233D01*
X228486130Y-128879737D01*
X228433960Y-128902646D01*
X228423102Y-128907413D01*
X228365158Y-128932856D01*
X228316862Y-128954058D01*
X228277005Y-128971549D01*
X228244375Y-128985852D01*
X228217766Y-128997502D01*
X228195968Y-129007022D01*
X228177771Y-129014943D01*
X228161965Y-129021794D01*
X228147342Y-129028100D01*
X228132694Y-129034392D01*
X228116808Y-129041199D01*
X228101247Y-129047897D01*
X228072091Y-129060536D01*
X228035905Y-129076294D01*
X227995013Y-129094153D01*
X227951735Y-129113104D01*
X227908395Y-129132129D01*
X227877053Y-129145907D01*
X227822372Y-129169941D01*
X227776857Y-129189938D01*
X227739243Y-129206450D01*
X227708271Y-129220029D01*
X227682677Y-129231223D01*
X227661200Y-129240590D01*
X227642579Y-129248676D01*
X227625554Y-129256035D01*
X227608862Y-129263218D01*
X227591242Y-129270776D01*
X227578965Y-129276036D01*
X227522226Y-129300346D01*
X227474977Y-129320704D01*
X227435883Y-129337833D01*
X227403611Y-129352453D01*
X227376829Y-129365284D01*
X227354203Y-129377051D01*
X227334400Y-129388469D01*
X227316088Y-129400266D01*
X227297932Y-129413156D01*
X227278599Y-129427867D01*
X227256758Y-129445119D01*
X227231074Y-129465630D01*
X227182363Y-129504088D01*
X226967856Y-129664167D01*
X226746689Y-129814554D01*
X226519356Y-129955037D01*
X226286342Y-130085408D01*
X226048142Y-130205453D01*
X225805246Y-130314961D01*
X225558141Y-130413723D01*
X225307322Y-130501524D01*
X225053275Y-130578157D01*
X224796492Y-130643406D01*
X224537464Y-130697063D01*
X224276684Y-130738916D01*
X224265287Y-130740506D01*
X224247468Y-130743259D01*
X224230959Y-130746435D01*
X224214393Y-130750543D01*
X224196397Y-130756082D01*
X224175604Y-130763559D01*
X224150646Y-130773480D01*
X224120152Y-130786352D01*
X224082753Y-130802676D01*
X224037078Y-130822961D01*
X223981762Y-130847710D01*
X223973593Y-130851333D01*
X223954000Y-130859951D01*
X223925943Y-130872253D01*
X223890927Y-130887576D01*
X223850455Y-130905273D01*
X223806027Y-130924680D01*
X223759149Y-130945146D01*
X223711323Y-130966011D01*
X223664051Y-130986623D01*
X223618838Y-131006324D01*
X223577183Y-131024459D01*
X223540590Y-131040369D01*
X223510565Y-131053402D01*
X223490867Y-131061946D01*
X223454352Y-131077809D01*
X223410470Y-131096891D01*
X223361415Y-131118235D01*
X223309383Y-131140888D01*
X223256570Y-131163893D01*
X223205168Y-131186294D01*
X223157377Y-131207134D01*
X223115391Y-131225459D01*
X223097754Y-131233112D01*
X223067828Y-131246088D01*
X223046237Y-131256100D01*
X223033431Y-131263758D01*
X223029856Y-131269668D01*
X220796120Y-131269668D01*
X220750976Y-131241032D01*
X220633126Y-131161379D01*
X220523302Y-131081822D01*
X220386050Y-130974568D01*
X220213896Y-130827620D01*
X220051700Y-130674197D01*
X219899067Y-130513853D01*
X219755596Y-130346142D01*
X219620891Y-130170616D01*
X219494555Y-129986831D01*
X219376191Y-129794338D01*
X219360411Y-129766489D01*
X219338457Y-129726371D01*
X219312486Y-129677845D01*
X219283103Y-129622106D01*
X219250910Y-129560350D01*
X219216509Y-129493769D01*
X219180499Y-129423557D01*
X219143489Y-129350907D01*
X219106077Y-129277013D01*
X219095652Y-129256296D01*
X220051656Y-129256296D01*
X220054536Y-129264412D01*
X220061908Y-129279513D01*
X220073264Y-129301227D01*
X220110910Y-129370067D01*
X220203147Y-129523008D01*
X220305984Y-129674129D01*
X220418392Y-129822185D01*
X220539349Y-129965930D01*
X220667830Y-130104119D01*
X220802811Y-130235506D01*
X220943266Y-130358847D01*
X220984456Y-130392518D01*
X221072301Y-130460866D01*
X221165343Y-130529113D01*
X221261365Y-130595782D01*
X221358148Y-130659399D01*
X221453477Y-130718483D01*
X221545137Y-130771558D01*
X221630910Y-130817147D01*
X221645697Y-130824314D01*
X221658941Y-130830049D01*
X221664558Y-130831512D01*
X221662275Y-130826160D01*
X221655000Y-130811086D01*
X221643257Y-130787357D01*
X221627577Y-130756028D01*
X221608491Y-130718158D01*
X221586531Y-130674803D01*
X221562228Y-130627023D01*
X221536113Y-130575873D01*
X221406339Y-130322152D01*
X221388592Y-130313305D01*
X221484583Y-130313305D01*
X221487200Y-130320611D01*
X221494586Y-130337270D01*
X221506126Y-130362038D01*
X221521202Y-130393674D01*
X221539197Y-130430934D01*
X221559496Y-130472575D01*
X221581478Y-130517356D01*
X221604532Y-130564031D01*
X221628036Y-130611360D01*
X221651375Y-130658100D01*
X221673932Y-130703007D01*
X221695091Y-130744838D01*
X221714233Y-130782352D01*
X221730742Y-130814304D01*
X221744001Y-130839454D01*
X221753394Y-130856556D01*
X221758303Y-130864369D01*
X221762715Y-130863845D01*
X221776926Y-130859186D01*
X221799387Y-130850656D01*
X221828568Y-130838861D01*
X221862944Y-130824405D01*
X221900984Y-130807894D01*
X221923218Y-130798111D01*
X221965849Y-130779403D01*
X222007314Y-130761268D01*
X222045142Y-130744779D01*
X222076860Y-130731018D01*
X222099997Y-130721063D01*
X222112666Y-130715622D01*
X222139320Y-130704080D01*
X222173996Y-130688996D01*
X222214880Y-130671160D01*
X222260170Y-130651358D01*
X222285041Y-130640463D01*
X224461219Y-130640463D01*
X224461774Y-130641764D01*
X224468324Y-130641468D01*
X224481845Y-130639448D01*
X224503314Y-130635590D01*
X224533707Y-130629768D01*
X224574003Y-130621864D01*
X224625177Y-130611753D01*
X224769746Y-130581044D01*
X224992241Y-130525746D01*
X225216246Y-130460651D01*
X225439586Y-130386444D01*
X225660099Y-130303818D01*
X225875606Y-130213465D01*
X225882549Y-130210374D01*
X225925661Y-130190604D01*
X225976521Y-130166510D01*
X226032790Y-130139262D01*
X226092125Y-130110031D01*
X226152185Y-130079986D01*
X226210627Y-130050296D01*
X226265113Y-130022131D01*
X226313299Y-129996661D01*
X226352842Y-129975055D01*
X226401983Y-129947202D01*
X226505299Y-129886601D01*
X226610061Y-129822595D01*
X226713751Y-129756797D01*
X226813849Y-129690819D01*
X226907839Y-129626274D01*
X226993200Y-129564779D01*
X227015995Y-129547845D01*
X227041536Y-129528755D01*
X227062493Y-129512964D01*
X227077151Y-129501760D01*
X227083801Y-129496440D01*
X227085575Y-129494510D01*
X227085223Y-129493686D01*
X227081661Y-129494474D01*
X227073906Y-129497281D01*
X227060978Y-129502516D01*
X227041900Y-129510587D01*
X227015687Y-129521900D01*
X226981361Y-129536866D01*
X226937942Y-129555889D01*
X226884449Y-129579381D01*
X226873633Y-129584133D01*
X226812471Y-129611004D01*
X226761005Y-129633609D01*
X226718058Y-129652462D01*
X226682454Y-129668076D01*
X226653021Y-129680967D01*
X226628579Y-129691646D01*
X226607955Y-129700628D01*
X226589972Y-129708428D01*
X226573454Y-129715560D01*
X226557226Y-129722535D01*
X226540112Y-129729870D01*
X226524551Y-129736568D01*
X226495397Y-129749208D01*
X226459210Y-129764966D01*
X226418317Y-129782825D01*
X226375039Y-129801776D01*
X226331698Y-129820800D01*
X226298101Y-129835570D01*
X226243803Y-129859436D01*
X226198626Y-129879284D01*
X226161310Y-129895664D01*
X226130597Y-129909126D01*
X226105231Y-129920222D01*
X226083953Y-129929498D01*
X226065504Y-129937507D01*
X226048625Y-129944798D01*
X226032059Y-129951922D01*
X226014547Y-129959427D01*
X225998986Y-129966126D01*
X225969832Y-129978766D01*
X225933646Y-129994523D01*
X225892751Y-130012382D01*
X225849473Y-130031332D01*
X225806134Y-130050358D01*
X225772536Y-130065127D01*
X225718238Y-130088994D01*
X225673060Y-130108841D01*
X225635744Y-130125222D01*
X225605032Y-130138684D01*
X225579666Y-130149779D01*
X225558387Y-130159056D01*
X225539939Y-130167064D01*
X225523060Y-130174355D01*
X225506494Y-130181480D01*
X225488982Y-130188984D01*
X225473421Y-130195683D01*
X225444266Y-130208323D01*
X225408080Y-130224080D01*
X225367186Y-130241940D01*
X225323908Y-130260890D01*
X225280569Y-130279915D01*
X225246971Y-130294685D01*
X225192673Y-130318551D01*
X225147494Y-130338398D01*
X225110179Y-130354779D01*
X225079466Y-130368241D01*
X225054100Y-130379336D01*
X225032822Y-130388613D01*
X225014373Y-130396622D01*
X224997495Y-130403913D01*
X224980929Y-130411036D01*
X224963416Y-130418541D01*
X224947848Y-130425245D01*
X224918692Y-130437890D01*
X224882507Y-130453651D01*
X224841616Y-130471521D01*
X224798340Y-130490480D01*
X224755004Y-130509518D01*
X224721049Y-130524449D01*
X224679523Y-130542691D01*
X224640748Y-130559710D01*
X224606799Y-130574591D01*
X224579756Y-130586425D01*
X224561691Y-130594301D01*
X224560789Y-130594692D01*
X224533625Y-130606629D01*
X224505784Y-130619069D01*
X224483159Y-130629384D01*
X224474179Y-130633553D01*
X224465677Y-130637686D01*
X224461219Y-130640463D01*
X222285041Y-130640463D01*
X222308058Y-130630380D01*
X222356739Y-130609012D01*
X222388975Y-130594856D01*
X222437907Y-130573397D01*
X222485128Y-130552724D01*
X222528768Y-130533649D01*
X222566962Y-130516990D01*
X222597836Y-130503566D01*
X222619520Y-130494193D01*
X222632661Y-130488524D01*
X222660603Y-130476395D01*
X222696504Y-130460753D01*
X222738495Y-130442419D01*
X222784704Y-130422207D01*
X222833264Y-130400933D01*
X222882303Y-130379414D01*
X222914528Y-130365270D01*
X222963462Y-130343820D01*
X223010685Y-130323153D01*
X223054329Y-130304084D01*
X223092525Y-130287430D01*
X223123400Y-130274008D01*
X223145085Y-130264635D01*
X223158226Y-130258967D01*
X223186168Y-130246838D01*
X223222070Y-130231196D01*
X223264060Y-130212862D01*
X223310270Y-130192650D01*
X223358829Y-130171374D01*
X223407868Y-130149858D01*
X223440093Y-130135712D01*
X223489028Y-130114263D01*
X223536252Y-130093596D01*
X223579896Y-130074526D01*
X223618090Y-130057873D01*
X223648965Y-130044450D01*
X223670650Y-130035078D01*
X223683791Y-130029409D01*
X223711734Y-130017280D01*
X223747636Y-130001640D01*
X223789625Y-129983305D01*
X223835835Y-129963092D01*
X223884394Y-129941818D01*
X223933434Y-129920301D01*
X223965658Y-129906155D01*
X224014593Y-129884707D01*
X224061817Y-129864038D01*
X224105461Y-129844968D01*
X224143655Y-129828315D01*
X224174530Y-129814894D01*
X224196217Y-129805520D01*
X224209356Y-129799851D01*
X224237299Y-129787722D01*
X224273201Y-129772083D01*
X224315190Y-129753747D01*
X224361401Y-129733535D01*
X224409956Y-129712261D01*
X224458995Y-129690742D01*
X224491221Y-129676599D01*
X224540154Y-129655149D01*
X224587379Y-129634481D01*
X224631022Y-129615412D01*
X224669217Y-129598758D01*
X224700091Y-129585337D01*
X224721778Y-129575964D01*
X224734917Y-129570295D01*
X224762860Y-129558166D01*
X224798761Y-129542525D01*
X224840752Y-129524190D01*
X224886960Y-129503978D01*
X224935521Y-129482704D01*
X224984560Y-129461185D01*
X225016785Y-129447041D01*
X225065718Y-129425591D01*
X225112942Y-129404923D01*
X225156587Y-129385852D01*
X225194782Y-129369195D01*
X225225656Y-129355772D01*
X225247342Y-129346396D01*
X225263472Y-129339435D01*
X225294145Y-129326121D01*
X225331744Y-129309742D01*
X225373834Y-129291358D01*
X225417996Y-129272027D01*
X225461798Y-129252807D01*
X225514461Y-129229670D01*
X225565524Y-129207243D01*
X225607832Y-129188668D01*
X225642617Y-129173408D01*
X225671111Y-129160928D01*
X225694547Y-129150686D01*
X225714154Y-129142143D01*
X225731167Y-129134765D01*
X225746816Y-129128009D01*
X225762332Y-129121342D01*
X225778949Y-129114222D01*
X225794510Y-129107524D01*
X225823664Y-129094884D01*
X225859851Y-129079127D01*
X225900745Y-129061267D01*
X225944022Y-129042317D01*
X225987364Y-129023290D01*
X226020960Y-129008522D01*
X226075258Y-128984656D01*
X226120437Y-128964808D01*
X226157751Y-128948428D01*
X226188464Y-128934967D01*
X226213829Y-128923871D01*
X226235109Y-128914595D01*
X226253557Y-128906584D01*
X226270436Y-128899294D01*
X226287003Y-128892171D01*
X226304514Y-128884665D01*
X226320075Y-128877966D01*
X226349230Y-128865327D01*
X226385415Y-128849569D01*
X226426310Y-128831710D01*
X226469589Y-128812760D01*
X226512928Y-128793732D01*
X226546525Y-128778965D01*
X226600823Y-128755099D01*
X226646002Y-128735250D01*
X226683316Y-128718871D01*
X226714029Y-128705408D01*
X226739395Y-128694313D01*
X226760675Y-128685038D01*
X226779122Y-128677028D01*
X226796001Y-128669737D01*
X226812568Y-128662614D01*
X226830079Y-128655108D01*
X226844174Y-128649045D01*
X226872959Y-128636574D01*
X226908851Y-128620958D01*
X226949479Y-128603227D01*
X226992476Y-128584414D01*
X227035473Y-128565554D01*
X227068402Y-128551081D01*
X227085223Y-128543677D01*
X227107850Y-128533719D01*
X227143816Y-128517869D01*
X227174402Y-128504364D01*
X227197716Y-128494043D01*
X227211862Y-128487738D01*
X227243270Y-128473612D01*
X226813157Y-128339052D01*
X226744691Y-128317635D01*
X226677595Y-128296650D01*
X226614382Y-128276886D01*
X226556009Y-128258638D01*
X226503429Y-128242206D01*
X226457600Y-128227890D01*
X226419478Y-128215986D01*
X226390019Y-128206795D01*
X226370178Y-128200616D01*
X226360912Y-128197745D01*
X226356659Y-128196521D01*
X226351976Y-128195670D01*
X226346426Y-128195618D01*
X226339229Y-128196672D01*
X226329598Y-128199149D01*
X226316750Y-128203361D01*
X226299900Y-128209620D01*
X226278265Y-128218241D01*
X226251060Y-128229535D01*
X226217502Y-128243818D01*
X226176805Y-128261398D01*
X226128185Y-128282592D01*
X226070861Y-128307715D01*
X226004043Y-128337074D01*
X225926953Y-128370987D01*
X225899013Y-128383257D01*
X225858525Y-128400988D01*
X225812053Y-128421301D01*
X225762343Y-128442997D01*
X225712134Y-128464881D01*
X225664171Y-128485753D01*
X225623128Y-128503612D01*
X225573068Y-128525426D01*
X225523122Y-128547224D01*
X225476030Y-128567805D01*
X225434538Y-128585974D01*
X225401387Y-128600531D01*
X225373449Y-128612804D01*
X225332961Y-128630538D01*
X225286490Y-128650854D01*
X225236778Y-128672553D01*
X225186570Y-128694438D01*
X225138604Y-128715310D01*
X225097563Y-128733170D01*
X225047502Y-128754983D01*
X224997557Y-128776781D01*
X224950465Y-128797362D01*
X224908974Y-128815532D01*
X224875822Y-128830089D01*
X224847885Y-128842361D01*
X224807396Y-128860096D01*
X224760925Y-128880410D01*
X224711212Y-128902109D01*
X224661005Y-128923995D01*
X224613040Y-128944867D01*
X224571998Y-128962726D01*
X224521937Y-128984541D01*
X224471992Y-129006338D01*
X224424901Y-129026920D01*
X224383412Y-129045089D01*
X224350261Y-129059646D01*
X224322322Y-129071917D01*
X224281835Y-129089653D01*
X224235363Y-129109967D01*
X224185651Y-129131667D01*
X224135443Y-129153553D01*
X224087479Y-129174424D01*
X224046435Y-129192283D01*
X223996377Y-129214096D01*
X223946429Y-129235892D01*
X223899340Y-129256471D01*
X223857847Y-129274637D01*
X223824696Y-129289190D01*
X223803089Y-129298689D01*
X223760595Y-129317340D01*
X223711950Y-129338661D01*
X223658595Y-129362024D01*
X223601956Y-129386803D01*
X223543474Y-129412373D01*
X223484581Y-129438104D01*
X223426710Y-129463371D01*
X223371299Y-129487550D01*
X223319782Y-129510012D01*
X223273591Y-129530130D01*
X223234163Y-129547279D01*
X223202931Y-129560832D01*
X223181332Y-129570163D01*
X223168191Y-129575835D01*
X223140250Y-129587967D01*
X223104349Y-129603608D01*
X223062357Y-129621947D01*
X223016148Y-129642162D01*
X222967589Y-129663437D01*
X222918549Y-129684957D01*
X222886324Y-129699100D01*
X222837390Y-129720550D01*
X222790166Y-129741217D01*
X222746523Y-129760287D01*
X222708328Y-129776940D01*
X222677452Y-129790362D01*
X222655767Y-129799735D01*
X222642626Y-129805404D01*
X222614684Y-129817533D01*
X222578783Y-129833174D01*
X222536792Y-129851508D01*
X222490583Y-129871721D01*
X222442023Y-129892995D01*
X222392984Y-129914513D01*
X222360759Y-129928658D01*
X222311825Y-129950107D01*
X222264601Y-129970774D01*
X222220957Y-129989844D01*
X222182763Y-130006497D01*
X222151887Y-130019919D01*
X222130202Y-130029293D01*
X222117071Y-130034956D01*
X222089131Y-130047079D01*
X222053229Y-130062711D01*
X222011237Y-130081034D01*
X221965025Y-130101236D01*
X221916461Y-130122495D01*
X221867418Y-130143997D01*
X221839431Y-130156270D01*
X221788202Y-130178702D01*
X221737353Y-130200926D01*
X221689019Y-130222011D01*
X221645336Y-130241026D01*
X221608442Y-130257041D01*
X221580473Y-130269122D01*
X221559818Y-130278079D01*
X221531298Y-130290701D01*
X221507933Y-130301354D01*
X221491716Y-130309125D01*
X221484634Y-130313098D01*
X221484583Y-130313305D01*
X221388592Y-130313305D01*
X221351810Y-130294969D01*
X221245818Y-130239915D01*
X221072444Y-130140348D01*
X220901590Y-130030453D01*
X220734913Y-129911322D01*
X220574077Y-129784043D01*
X220536854Y-129751959D01*
X220493315Y-129712554D01*
X220445467Y-129667767D01*
X220394985Y-129619267D01*
X220343547Y-129568714D01*
X220292830Y-129517779D01*
X220244510Y-129468125D01*
X220200262Y-129421419D01*
X220161765Y-129379327D01*
X220130694Y-129343514D01*
X220122433Y-129333617D01*
X220095225Y-129301184D01*
X220075052Y-129277611D01*
X220061405Y-129262522D01*
X220053777Y-129255541D01*
X220051656Y-129256296D01*
X219095652Y-129256296D01*
X219084822Y-129234776D01*
X220037001Y-129234776D01*
X220040022Y-129237795D01*
X220043043Y-129234776D01*
X220040022Y-129231755D01*
X220037001Y-129234776D01*
X219084822Y-129234776D01*
X219068866Y-129203068D01*
X219032460Y-129130269D01*
X219015376Y-129095878D01*
X220017277Y-129095878D01*
X220040022Y-129124793D01*
X220053777Y-129142278D01*
X220083788Y-129180431D01*
X220156496Y-129270425D01*
X220269662Y-129400716D01*
X220386095Y-129522684D01*
X220507999Y-129638491D01*
X220637573Y-129750295D01*
X220777021Y-129860257D01*
X220801931Y-129878828D01*
X220858573Y-129919571D01*
X220920893Y-129962759D01*
X220985876Y-130006384D01*
X221050510Y-130048435D01*
X221111778Y-130086907D01*
X221166665Y-130119790D01*
X221168298Y-130120737D01*
X221203409Y-130140759D01*
X221240870Y-130161564D01*
X221279070Y-130182313D01*
X221316398Y-130202168D01*
X221351244Y-130220293D01*
X221381999Y-130235848D01*
X221407053Y-130247997D01*
X221424797Y-130255901D01*
X221433618Y-130258722D01*
X221433854Y-130258713D01*
X221439161Y-130257382D01*
X221449740Y-130253592D01*
X221466230Y-130247070D01*
X221489273Y-130237540D01*
X221519504Y-130224732D01*
X221557571Y-130208370D01*
X221604109Y-130188183D01*
X221659761Y-130163895D01*
X221725167Y-130135235D01*
X221800967Y-130101929D01*
X221828322Y-130089921D01*
X221867289Y-130072862D01*
X221912353Y-130053172D01*
X221960872Y-130032003D01*
X222010206Y-130010505D01*
X222057710Y-129989835D01*
X222098750Y-129971979D01*
X222148810Y-129950165D01*
X222198758Y-129928368D01*
X222245849Y-129907786D01*
X222287341Y-129889619D01*
X222320493Y-129875060D01*
X222348431Y-129862790D01*
X222388919Y-129845054D01*
X222435391Y-129824738D01*
X222485101Y-129803040D01*
X222535310Y-129781155D01*
X222583275Y-129760282D01*
X222624317Y-129742424D01*
X222674377Y-129720609D01*
X222724323Y-129698811D01*
X222771414Y-129678229D01*
X222812906Y-129660061D01*
X222846057Y-129645503D01*
X222873996Y-129633232D01*
X222914484Y-129615498D01*
X222960956Y-129595181D01*
X223010667Y-129573481D01*
X223060876Y-129551597D01*
X223108841Y-129530724D01*
X223149883Y-129512867D01*
X223199942Y-129491052D01*
X223249889Y-129469253D01*
X223296979Y-129448672D01*
X223338472Y-129430504D01*
X223371622Y-129415947D01*
X223399562Y-129403674D01*
X223440049Y-129385941D01*
X223486522Y-129365623D01*
X223536232Y-129343924D01*
X223586441Y-129322040D01*
X223634406Y-129301167D01*
X223675448Y-129283309D01*
X223725507Y-129261495D01*
X223775453Y-129239696D01*
X223822544Y-129219115D01*
X223864037Y-129200947D01*
X223897187Y-129186389D01*
X223925127Y-129174117D01*
X223965616Y-129156383D01*
X224012087Y-129136067D01*
X224061798Y-129114368D01*
X224112007Y-129092483D01*
X224159971Y-129071611D01*
X224201013Y-129053752D01*
X224251072Y-129031938D01*
X224301019Y-129010140D01*
X224348109Y-128989557D01*
X224389602Y-128971389D01*
X224422748Y-128956832D01*
X224450688Y-128944561D01*
X224491177Y-128926825D01*
X224537647Y-128906510D01*
X224587359Y-128884811D01*
X224637569Y-128862925D01*
X224685532Y-128842053D01*
X224726574Y-128824195D01*
X224776634Y-128802380D01*
X224826580Y-128780582D01*
X224873670Y-128760000D01*
X224915162Y-128741833D01*
X224948313Y-128727275D01*
X224976253Y-128715003D01*
X225016741Y-128697269D01*
X225063212Y-128676951D01*
X225112924Y-128655253D01*
X225163134Y-128633369D01*
X225211096Y-128612496D01*
X225252140Y-128594638D01*
X225302200Y-128572824D01*
X225352146Y-128551029D01*
X225399238Y-128530450D01*
X225440728Y-128512284D01*
X225473879Y-128497731D01*
X225473965Y-128497694D01*
X225512863Y-128480605D01*
X225559618Y-128460103D01*
X225612650Y-128436882D01*
X225670386Y-128411625D01*
X225731247Y-128385023D01*
X225793653Y-128357765D01*
X225856033Y-128330537D01*
X225916807Y-128304028D01*
X225974399Y-128278926D01*
X226027232Y-128255920D01*
X226073729Y-128235698D01*
X226112314Y-128218948D01*
X226141407Y-128206359D01*
X226162257Y-128197309D01*
X226190566Y-128184823D01*
X226213635Y-128174414D01*
X226229506Y-128166969D01*
X226236223Y-128163372D01*
X226236221Y-128163318D01*
X226230069Y-128160791D01*
X226213072Y-128154890D01*
X226185860Y-128145813D01*
X226149068Y-128133765D01*
X226103331Y-128118948D01*
X226049278Y-128101561D01*
X225987544Y-128081811D01*
X225918763Y-128059897D01*
X225843565Y-128036020D01*
X225762586Y-128010384D01*
X225676458Y-127983193D01*
X225585813Y-127954646D01*
X225491285Y-127924946D01*
X225393507Y-127894293D01*
X225386452Y-127892085D01*
X225288690Y-127861471D01*
X225194097Y-127831845D01*
X225103318Y-127803411D01*
X225016997Y-127776366D01*
X224935775Y-127750918D01*
X224860295Y-127727263D01*
X224791198Y-127705605D01*
X224729134Y-127686145D01*
X224674739Y-127669085D01*
X224628660Y-127654625D01*
X224591539Y-127642971D01*
X224564018Y-127634319D01*
X224546743Y-127628875D01*
X224540352Y-127626838D01*
X224538902Y-127631365D01*
X224536539Y-127647713D01*
X224533387Y-127675829D01*
X224529457Y-127715563D01*
X224524767Y-127766764D01*
X224519326Y-127829280D01*
X224513150Y-127902962D01*
X224506251Y-127987660D01*
X224498644Y-128083223D01*
X224490343Y-128189497D01*
X224488855Y-128208663D01*
X224482543Y-128289570D01*
X224476450Y-128366939D01*
X224470644Y-128439922D01*
X224465197Y-128507665D01*
X224460181Y-128569319D01*
X224455662Y-128624033D01*
X224451712Y-128670953D01*
X224448403Y-128709233D01*
X224445802Y-128738017D01*
X224443980Y-128756456D01*
X224443009Y-128763700D01*
X224438671Y-128770306D01*
X224427340Y-128779458D01*
X224426098Y-128779853D01*
X224414566Y-128781617D01*
X224392355Y-128784064D01*
X224360499Y-128787108D01*
X224320051Y-128790662D01*
X224272052Y-128794637D01*
X224217551Y-128798949D01*
X224157593Y-128803507D01*
X224093223Y-128808225D01*
X224025489Y-128813016D01*
X223985914Y-128815765D01*
X223913329Y-128820780D01*
X223851474Y-128825000D01*
X223799460Y-128828460D01*
X223756396Y-128831194D01*
X223721395Y-128833240D01*
X223693568Y-128834629D01*
X223672027Y-128835401D01*
X223655882Y-128835589D01*
X223644242Y-128835228D01*
X223636221Y-128834356D01*
X223630930Y-128833008D01*
X223627480Y-128831216D01*
X223624979Y-128829021D01*
X223622132Y-128824593D01*
X223614068Y-128810206D01*
X223601625Y-128787148D01*
X223585415Y-128756606D01*
X223566050Y-128719765D01*
X223544138Y-128677815D01*
X223520295Y-128631941D01*
X223495130Y-128583333D01*
X223469255Y-128533178D01*
X223443279Y-128482661D01*
X223417815Y-128432969D01*
X223393474Y-128385293D01*
X223370867Y-128340816D01*
X223350607Y-128300729D01*
X223333304Y-128266217D01*
X223319568Y-128238465D01*
X223310012Y-128218665D01*
X223305246Y-128208004D01*
X223305110Y-128207296D01*
X223305092Y-128196770D01*
X223305652Y-128183646D01*
X223366707Y-128183646D01*
X223491425Y-128429815D01*
X223513232Y-128472761D01*
X223537467Y-128520262D01*
X223559598Y-128563388D01*
X223579068Y-128601071D01*
X223595321Y-128632240D01*
X223607803Y-128655829D01*
X223615959Y-128670766D01*
X223619235Y-128675982D01*
X223619688Y-128672783D01*
X223621073Y-128658357D01*
X223623303Y-128632800D01*
X223626339Y-128596640D01*
X223630133Y-128550404D01*
X223634652Y-128494621D01*
X223639846Y-128429821D01*
X223645679Y-128356533D01*
X223652107Y-128275283D01*
X223659088Y-128186599D01*
X223666582Y-128091013D01*
X223674545Y-127989049D01*
X223682938Y-127881237D01*
X223691717Y-127768108D01*
X223700844Y-127650186D01*
X223710272Y-127528004D01*
X223719962Y-127402087D01*
X223729873Y-127272965D01*
X223736965Y-127180511D01*
X223746733Y-127053335D01*
X223756249Y-126929638D01*
X223759697Y-126884892D01*
X225119358Y-126884892D01*
X226346426Y-127269405D01*
X227052380Y-127490622D01*
X227093538Y-127503519D01*
X227241329Y-127549820D01*
X227386034Y-127595140D01*
X227527224Y-127639347D01*
X227664483Y-127682310D01*
X227797386Y-127723895D01*
X227925511Y-127763971D01*
X228048437Y-127802409D01*
X228165742Y-127839074D01*
X228277003Y-127873836D01*
X228381799Y-127906562D01*
X228479709Y-127937123D01*
X228570309Y-127965382D01*
X228632845Y-127984877D01*
X228653178Y-127991213D01*
X228727895Y-128014482D01*
X228794037Y-128035058D01*
X228851182Y-128052806D01*
X228898908Y-128067600D01*
X228936793Y-128079304D01*
X228964416Y-128087787D01*
X228981355Y-128092918D01*
X228987187Y-128094566D01*
X228987194Y-128094456D01*
X228984306Y-128087732D01*
X228976501Y-128071406D01*
X228964297Y-128046517D01*
X228948214Y-128014105D01*
X228928767Y-127975211D01*
X228906475Y-127930877D01*
X228881854Y-127882139D01*
X228855428Y-127830041D01*
X228721881Y-127567300D01*
X228644736Y-127543127D01*
X228785556Y-127543127D01*
X228788350Y-127549722D01*
X228796040Y-127565816D01*
X228807948Y-127589983D01*
X228823430Y-127620961D01*
X228841843Y-127657500D01*
X228862540Y-127698338D01*
X228884877Y-127742220D01*
X228908213Y-127787887D01*
X228931897Y-127834084D01*
X228955289Y-127879554D01*
X228977744Y-127923040D01*
X228998616Y-127963283D01*
X229017261Y-127999028D01*
X229033037Y-128029019D01*
X229045296Y-128051997D01*
X229053393Y-128066706D01*
X229056688Y-128071888D01*
X229057217Y-128071548D01*
X229061932Y-128063665D01*
X229070268Y-128046538D01*
X229081550Y-128021753D01*
X229095100Y-127990896D01*
X229110245Y-127955559D01*
X229126311Y-127917329D01*
X229142618Y-127877792D01*
X229158495Y-127838540D01*
X229173264Y-127801159D01*
X229186251Y-127767237D01*
X229246714Y-127596110D01*
X229313535Y-127376414D01*
X229368321Y-127156375D01*
X229411095Y-126935874D01*
X229441888Y-126714792D01*
X229460722Y-126493014D01*
X229460936Y-126489218D01*
X229462767Y-126447246D01*
X229464180Y-126397295D01*
X229465159Y-126342231D01*
X229465688Y-126284919D01*
X229465750Y-126228219D01*
X229465330Y-126174999D01*
X229464410Y-126128122D01*
X229462977Y-126090449D01*
X229450393Y-125919500D01*
X229428724Y-125738670D01*
X229398237Y-125560066D01*
X229358444Y-125380835D01*
X229308852Y-125198126D01*
X229278199Y-125094152D01*
X229256294Y-125103686D01*
X229255048Y-125104228D01*
X229233351Y-125113489D01*
X229211736Y-125122492D01*
X229204221Y-125125430D01*
X229198025Y-125128429D01*
X229193716Y-125132741D01*
X229191189Y-125139896D01*
X229190341Y-125151426D01*
X229191072Y-125168861D01*
X229193277Y-125193732D01*
X229196854Y-125227567D01*
X229201699Y-125271898D01*
X229204491Y-125300527D01*
X229208769Y-125357881D01*
X229212348Y-125423399D01*
X229215178Y-125494608D01*
X229217213Y-125569043D01*
X229218406Y-125644231D01*
X229218708Y-125717709D01*
X229218073Y-125787005D01*
X229216454Y-125849651D01*
X229213803Y-125903179D01*
X229207807Y-125983115D01*
X229183703Y-126203713D01*
X229148572Y-126421780D01*
X229102255Y-126637947D01*
X229044582Y-126852862D01*
X228975391Y-127067153D01*
X228894516Y-127281465D01*
X228801793Y-127496427D01*
X228801169Y-127497794D01*
X228792638Y-127518083D01*
X228787038Y-127534329D01*
X228785556Y-127543127D01*
X228644736Y-127543127D01*
X227221013Y-127097008D01*
X225720145Y-126626716D01*
X225592482Y-126681561D01*
X225555216Y-126697571D01*
X225507051Y-126718268D01*
X225453624Y-126741226D01*
X225397967Y-126765144D01*
X225343110Y-126788720D01*
X225292088Y-126810649D01*
X225119358Y-126884892D01*
X223759697Y-126884892D01*
X223765472Y-126809951D01*
X223774361Y-126694813D01*
X223782873Y-126584763D01*
X223782906Y-126584339D01*
X225823411Y-126584339D01*
X225826244Y-126585553D01*
X225839676Y-126590195D01*
X225863614Y-126598114D01*
X225897462Y-126609125D01*
X225940627Y-126623039D01*
X225992518Y-126639676D01*
X226052542Y-126658845D01*
X226120106Y-126680361D01*
X226194616Y-126704036D01*
X226275480Y-126729686D01*
X226362106Y-126757123D01*
X226453900Y-126786163D01*
X226550268Y-126816615D01*
X226650620Y-126848297D01*
X226754360Y-126881022D01*
X226860897Y-126914601D01*
X226969640Y-126948850D01*
X227079990Y-126983584D01*
X227191362Y-127018613D01*
X227303156Y-127053753D01*
X227414786Y-127088817D01*
X227525652Y-127123618D01*
X227635167Y-127157972D01*
X227742736Y-127191690D01*
X227847764Y-127224587D01*
X227949660Y-127256478D01*
X228047832Y-127287175D01*
X228141687Y-127316491D01*
X228230631Y-127344240D01*
X228314072Y-127370237D01*
X228391415Y-127394294D01*
X228462072Y-127416225D01*
X228525445Y-127435845D01*
X228580942Y-127452968D01*
X228627973Y-127467404D01*
X228665943Y-127478971D01*
X228694259Y-127487481D01*
X228712329Y-127492746D01*
X228719560Y-127494582D01*
X228724508Y-127492260D01*
X228732368Y-127482718D01*
X228742714Y-127465182D01*
X228755875Y-127438976D01*
X228772191Y-127403435D01*
X228791991Y-127357888D01*
X228815609Y-127301663D01*
X228838082Y-127246549D01*
X228919516Y-127027692D01*
X228988924Y-126807749D01*
X229046317Y-126586683D01*
X229091703Y-126364443D01*
X229125095Y-126140992D01*
X229146501Y-125916291D01*
X229147655Y-125895058D01*
X229148950Y-125858457D01*
X229150005Y-125813737D01*
X229150812Y-125763130D01*
X229151361Y-125708873D01*
X229151641Y-125653208D01*
X229151643Y-125598365D01*
X229151355Y-125546585D01*
X229150768Y-125500103D01*
X229149873Y-125461157D01*
X229148658Y-125431983D01*
X229147874Y-125420255D01*
X229145832Y-125394443D01*
X229143046Y-125362310D01*
X229139768Y-125326479D01*
X229136252Y-125289572D01*
X229132747Y-125254213D01*
X229129505Y-125223023D01*
X229126779Y-125198626D01*
X229124818Y-125183644D01*
X229121359Y-125161843D01*
X228963418Y-125229820D01*
X228943970Y-125238192D01*
X228905235Y-125254871D01*
X228857611Y-125275380D01*
X228802448Y-125299137D01*
X228741096Y-125325563D01*
X228674899Y-125354078D01*
X228605208Y-125384100D01*
X228533372Y-125415048D01*
X228460736Y-125446342D01*
X228388653Y-125477402D01*
X228353561Y-125492520D01*
X228278227Y-125524974D01*
X228201532Y-125558009D01*
X228125034Y-125590956D01*
X228050291Y-125623141D01*
X227978857Y-125653897D01*
X227912291Y-125682552D01*
X227852150Y-125708434D01*
X227799991Y-125730878D01*
X227757370Y-125749210D01*
X227738275Y-125757419D01*
X227690899Y-125777800D01*
X227634729Y-125801972D01*
X227571321Y-125829264D01*
X227502234Y-125859008D01*
X227429023Y-125890531D01*
X227353247Y-125923165D01*
X227276459Y-125956238D01*
X227200221Y-125989078D01*
X227126088Y-126021020D01*
X227025818Y-126064224D01*
X226910336Y-126113979D01*
X226804254Y-126159680D01*
X226706637Y-126201731D01*
X226616544Y-126240535D01*
X226533038Y-126276496D01*
X226455180Y-126310018D01*
X226382030Y-126341507D01*
X226312651Y-126371366D01*
X226246105Y-126399998D01*
X226181453Y-126427807D01*
X226117756Y-126455200D01*
X226054075Y-126482577D01*
X226034112Y-126491171D01*
X225986224Y-126511865D01*
X225942273Y-126530978D01*
X225903456Y-126547981D01*
X225870964Y-126562346D01*
X225845996Y-126573544D01*
X225829747Y-126581053D01*
X225823411Y-126584339D01*
X223782906Y-126584339D01*
X223790965Y-126480329D01*
X223798599Y-126382050D01*
X223805729Y-126290462D01*
X223812316Y-126206102D01*
X223812740Y-126200689D01*
X224647105Y-126200689D01*
X224647505Y-126201787D01*
X224651024Y-126203717D01*
X224658950Y-126202831D01*
X224672602Y-126198688D01*
X224693290Y-126190843D01*
X224722333Y-126178852D01*
X224761044Y-126162272D01*
X224782328Y-126153074D01*
X224821378Y-126136221D01*
X224867738Y-126116234D01*
X224919157Y-126094082D01*
X224973378Y-126070736D01*
X225028149Y-126047167D01*
X225081217Y-126024346D01*
X225100496Y-126016055D01*
X225146933Y-125996080D01*
X225202171Y-125972310D01*
X225264678Y-125945402D01*
X225332919Y-125916022D01*
X225405359Y-125884826D01*
X225480467Y-125852477D01*
X225556708Y-125819633D01*
X225632550Y-125786958D01*
X225706457Y-125755107D01*
X225720145Y-125749208D01*
X225741561Y-125739979D01*
X225816895Y-125707518D01*
X225893589Y-125674476D01*
X225970085Y-125641524D01*
X226044827Y-125609334D01*
X226116257Y-125578576D01*
X226182821Y-125549917D01*
X226242962Y-125524031D01*
X226295119Y-125501588D01*
X226337739Y-125483257D01*
X226383969Y-125463376D01*
X226438310Y-125439994D01*
X226498487Y-125414094D01*
X226563502Y-125386105D01*
X226632355Y-125356459D01*
X226704057Y-125325578D01*
X226777608Y-125293899D01*
X226852012Y-125261845D01*
X226926275Y-125229849D01*
X226999399Y-125198339D01*
X227070389Y-125167744D01*
X227138249Y-125138494D01*
X227201984Y-125111017D01*
X227260596Y-125085740D01*
X227313090Y-125063098D01*
X227358472Y-125043516D01*
X227395743Y-125027424D01*
X227423910Y-125015250D01*
X227441976Y-125007427D01*
X227464003Y-124997763D01*
X227485466Y-124988120D01*
X227500528Y-124981085D01*
X227506839Y-124977733D01*
X227506559Y-124977495D01*
X227498504Y-124974361D01*
X227480028Y-124967922D01*
X227452000Y-124958462D01*
X227415285Y-124946264D01*
X227370750Y-124931611D01*
X227319258Y-124914789D01*
X227261679Y-124896083D01*
X227198877Y-124875775D01*
X227131719Y-124854150D01*
X227061069Y-124831494D01*
X226612605Y-124687951D01*
X226259206Y-124840216D01*
X226216034Y-124858819D01*
X226144134Y-124889795D01*
X226070321Y-124921591D01*
X225996456Y-124953409D01*
X225924393Y-124984446D01*
X225855994Y-125013905D01*
X225793117Y-125040984D01*
X225737617Y-125064880D01*
X225691356Y-125084797D01*
X225657417Y-125099407D01*
X225593683Y-125126851D01*
X225524007Y-125156859D01*
X225451613Y-125188043D01*
X225379725Y-125219013D01*
X225311567Y-125248383D01*
X225250363Y-125274761D01*
X225204274Y-125294619D01*
X225143051Y-125320968D01*
X225079923Y-125348111D01*
X225017488Y-125374936D01*
X224958344Y-125400319D01*
X224905093Y-125423147D01*
X224860333Y-125442306D01*
X224696842Y-125512199D01*
X224670883Y-125851485D01*
X224667541Y-125895467D01*
X224663011Y-125956238D01*
X224658892Y-126012780D01*
X224655261Y-126063976D01*
X224652195Y-126108708D01*
X224649772Y-126145863D01*
X224648064Y-126174323D01*
X224647149Y-126192970D01*
X224647105Y-126200689D01*
X223812740Y-126200689D01*
X223818317Y-126129501D01*
X223823691Y-126061200D01*
X223828395Y-126001731D01*
X223832390Y-125951632D01*
X223835629Y-125911436D01*
X223838076Y-125881680D01*
X223839686Y-125862902D01*
X223840419Y-125855633D01*
X223841396Y-125846371D01*
X223836804Y-125843209D01*
X223823485Y-125844721D01*
X223822538Y-125844871D01*
X223809042Y-125846355D01*
X223785982Y-125848330D01*
X223755561Y-125850624D01*
X223719991Y-125853074D01*
X223681474Y-125855509D01*
X223674010Y-125855968D01*
X223637168Y-125858449D01*
X223604654Y-125860988D01*
X223578400Y-125863411D01*
X223560341Y-125865542D01*
X223552412Y-125867205D01*
X223552230Y-125867476D01*
X223550695Y-125875616D01*
X223548364Y-125895008D01*
X223545223Y-125925709D01*
X223541273Y-125967782D01*
X223536509Y-126021291D01*
X223530922Y-126086296D01*
X223524510Y-126162858D01*
X223517267Y-126251040D01*
X223509188Y-126350902D01*
X223500266Y-126462507D01*
X223490498Y-126585915D01*
X223479881Y-126721187D01*
X223468404Y-126868389D01*
X223456068Y-127027582D01*
X223366707Y-128183646D01*
X223305652Y-128183646D01*
X223306048Y-128174378D01*
X223307963Y-128140261D01*
X223310832Y-128094563D01*
X223314641Y-128037426D01*
X223319380Y-127968992D01*
X223325039Y-127889406D01*
X223331610Y-127798809D01*
X223339081Y-127697346D01*
X223347441Y-127585157D01*
X223356683Y-127462387D01*
X223366792Y-127329179D01*
X223377761Y-127185672D01*
X223389578Y-127032016D01*
X223390844Y-127015619D01*
X223399859Y-126898656D01*
X223408605Y-126785027D01*
X223417044Y-126675310D01*
X223425127Y-126570092D01*
X223432809Y-126469947D01*
X223440047Y-126375456D01*
X223446797Y-126287206D01*
X223453015Y-126205771D01*
X223458657Y-126131738D01*
X223463677Y-126065683D01*
X223468031Y-126008191D01*
X223471677Y-125959839D01*
X223474568Y-125921211D01*
X223476661Y-125892884D01*
X223477910Y-125875444D01*
X223478273Y-125869467D01*
X223477865Y-125869476D01*
X223469112Y-125870014D01*
X223449948Y-125871289D01*
X223421691Y-125873212D01*
X223385651Y-125875688D01*
X223343145Y-125878626D01*
X223295485Y-125881933D01*
X223243985Y-125885519D01*
X223189960Y-125889292D01*
X223134723Y-125893157D01*
X223079588Y-125897024D01*
X223025870Y-125900803D01*
X222974882Y-125904401D01*
X222927938Y-125907722D01*
X222886351Y-125910681D01*
X222851438Y-125913181D01*
X222824509Y-125915131D01*
X222806881Y-125916443D01*
X222782808Y-125918281D01*
X222706764Y-126905978D01*
X222705399Y-126923690D01*
X222696091Y-127044005D01*
X222687158Y-127158539D01*
X222678638Y-127266811D01*
X222670575Y-127368339D01*
X222663006Y-127462637D01*
X222655974Y-127549227D01*
X222649515Y-127627627D01*
X222643672Y-127697353D01*
X222638486Y-127757923D01*
X222633994Y-127808855D01*
X222630237Y-127849666D01*
X222627255Y-127879875D01*
X222625090Y-127899001D01*
X222623778Y-127906560D01*
X222617446Y-127915129D01*
X222606096Y-127923589D01*
X222604980Y-127923910D01*
X222593291Y-127925652D01*
X222571223Y-127927973D01*
X222540023Y-127930786D01*
X222500935Y-127934012D01*
X222455207Y-127937570D01*
X222404083Y-127941374D01*
X222348811Y-127945344D01*
X222290635Y-127949396D01*
X222230802Y-127953449D01*
X222170558Y-127957419D01*
X222111149Y-127961226D01*
X222053819Y-127964786D01*
X221999816Y-127968017D01*
X221950385Y-127970836D01*
X221906773Y-127973161D01*
X221870226Y-127974910D01*
X221841988Y-127976000D01*
X221823307Y-127976349D01*
X221815427Y-127975875D01*
X221814500Y-127975187D01*
X221807759Y-127966043D01*
X221796495Y-127947495D01*
X221781308Y-127920717D01*
X221762788Y-127886879D01*
X221741533Y-127847152D01*
X221718136Y-127802707D01*
X221693190Y-127754717D01*
X221667291Y-127704352D01*
X221641031Y-127652786D01*
X221615008Y-127601187D01*
X221589814Y-127550728D01*
X221566044Y-127502580D01*
X221544293Y-127457915D01*
X221525153Y-127417905D01*
X221509221Y-127383718D01*
X221497090Y-127356530D01*
X221489357Y-127337508D01*
X221487757Y-127331868D01*
X221551536Y-127331868D01*
X221677762Y-127579137D01*
X221701119Y-127624634D01*
X221725292Y-127671152D01*
X221747285Y-127712885D01*
X221766558Y-127748829D01*
X221782568Y-127777988D01*
X221794771Y-127799359D01*
X221802624Y-127811942D01*
X221805584Y-127814735D01*
X221805639Y-127814224D01*
X221806456Y-127804629D01*
X221808137Y-127783793D01*
X221810625Y-127752386D01*
X221813873Y-127711073D01*
X221817824Y-127660533D01*
X221822430Y-127601430D01*
X221827638Y-127534436D01*
X221833397Y-127460223D01*
X221839651Y-127379457D01*
X221846352Y-127292813D01*
X221853446Y-127200960D01*
X221860880Y-127104566D01*
X221868605Y-127004304D01*
X221876566Y-126900842D01*
X221878166Y-126880031D01*
X221886070Y-126777141D01*
X221893706Y-126677578D01*
X221901024Y-126582014D01*
X221907973Y-126491113D01*
X221914503Y-126405550D01*
X221920559Y-126325995D01*
X221926095Y-126253120D01*
X221931057Y-126187595D01*
X221935397Y-126130091D01*
X221939060Y-126081278D01*
X221941999Y-126041829D01*
X221944161Y-126012415D01*
X221945496Y-125993704D01*
X221945951Y-125986367D01*
X221945292Y-125980417D01*
X221941178Y-125976709D01*
X221930766Y-125976042D01*
X221911215Y-125977705D01*
X221898866Y-125978842D01*
X221873998Y-125980838D01*
X221841986Y-125983206D01*
X221805633Y-125985739D01*
X221767742Y-125988232D01*
X221735547Y-125990447D01*
X221704377Y-125992939D01*
X221679314Y-125995325D01*
X221662344Y-125997412D01*
X221655451Y-125999010D01*
X221655340Y-125999340D01*
X221654255Y-126008016D01*
X221652345Y-126027815D01*
X221649676Y-126057964D01*
X221646310Y-126097689D01*
X221642306Y-126146216D01*
X221637732Y-126202772D01*
X221632644Y-126266582D01*
X221627108Y-126336873D01*
X221621184Y-126412870D01*
X221614937Y-126493801D01*
X221608427Y-126578890D01*
X221601716Y-126667359D01*
X221551536Y-127331868D01*
X221487757Y-127331868D01*
X221486611Y-127327829D01*
X221486611Y-127327726D01*
X221487066Y-127318670D01*
X221488388Y-127298403D01*
X221490516Y-127267737D01*
X221493395Y-127227476D01*
X221496959Y-127178430D01*
X221501151Y-127121408D01*
X221505913Y-127057215D01*
X221511184Y-126986663D01*
X221516903Y-126910556D01*
X221523013Y-126829705D01*
X221529452Y-126744919D01*
X221536161Y-126657003D01*
X221536646Y-126650671D01*
X221543292Y-126563394D01*
X221549622Y-126479576D01*
X221555581Y-126400006D01*
X221561113Y-126325460D01*
X221566158Y-126256718D01*
X221570663Y-126194562D01*
X221574573Y-126139772D01*
X221577830Y-126093127D01*
X221580377Y-126055407D01*
X221582160Y-126027394D01*
X221583121Y-126009865D01*
X221583206Y-126003602D01*
X221581733Y-126003511D01*
X221570358Y-126003900D01*
X221548844Y-126005016D01*
X221518499Y-126006770D01*
X221480627Y-126009075D01*
X221436532Y-126011841D01*
X221387520Y-126014985D01*
X221334899Y-126018414D01*
X221279970Y-126022046D01*
X221224042Y-126025790D01*
X221168417Y-126029557D01*
X221114404Y-126033261D01*
X221063307Y-126036817D01*
X221016430Y-126040133D01*
X220975079Y-126043123D01*
X220940561Y-126045701D01*
X220914177Y-126047777D01*
X220897239Y-126049264D01*
X220891046Y-126050074D01*
X220891022Y-126050236D01*
X220890341Y-126058103D01*
X220888784Y-126077422D01*
X220886393Y-126107671D01*
X220883207Y-126148339D01*
X220879264Y-126198906D01*
X220874606Y-126258856D01*
X220869272Y-126327675D01*
X220863302Y-126404844D01*
X220856735Y-126489845D01*
X220849613Y-126582164D01*
X220841975Y-126681282D01*
X220833858Y-126786686D01*
X220825307Y-126897859D01*
X220816358Y-127014283D01*
X220807053Y-127135440D01*
X220797432Y-127260816D01*
X220787532Y-127389895D01*
X220777396Y-127522158D01*
X220776112Y-127538929D01*
X220765958Y-127671149D01*
X220756011Y-127800277D01*
X220746307Y-127925788D01*
X220736891Y-128047154D01*
X220727802Y-128163850D01*
X220719085Y-128275346D01*
X220710780Y-128381118D01*
X220702928Y-128480637D01*
X220695572Y-128573378D01*
X220688756Y-128658814D01*
X220682518Y-128736416D01*
X220676904Y-128805659D01*
X220671953Y-128866014D01*
X220667708Y-128916960D01*
X220664209Y-128957963D01*
X220661500Y-128988501D01*
X220659620Y-129008045D01*
X220658617Y-129016068D01*
X220651108Y-129033622D01*
X220639264Y-129044421D01*
X220631060Y-129045851D01*
X220611940Y-129047956D01*
X220583217Y-129050606D01*
X220546133Y-129053701D01*
X220501929Y-129057142D01*
X220451854Y-129060829D01*
X220397147Y-129064661D01*
X220339049Y-129068541D01*
X220282975Y-129072255D01*
X220227796Y-129076034D01*
X220177077Y-129079633D01*
X220132083Y-129082954D01*
X220094081Y-129085904D01*
X220064337Y-129088383D01*
X220044118Y-129090302D01*
X220034691Y-129091558D01*
X220017277Y-129095878D01*
X219015376Y-129095878D01*
X218997457Y-129059807D01*
X218964465Y-128992877D01*
X218934083Y-128930670D01*
X218923412Y-128908563D01*
X218991913Y-128908563D01*
X218994933Y-128911583D01*
X218997953Y-128908563D01*
X218994933Y-128905543D01*
X218991913Y-128908563D01*
X218923412Y-128908563D01*
X218906915Y-128874384D01*
X218883562Y-128825209D01*
X218864627Y-128784341D01*
X218850712Y-128752974D01*
X218846476Y-128743027D01*
X218777671Y-128570757D01*
X218716495Y-128396649D01*
X218663844Y-128223413D01*
X218620612Y-128053765D01*
X218612348Y-128017628D01*
X218602758Y-127975370D01*
X218595096Y-127940892D01*
X218588900Y-127911862D01*
X218583708Y-127885946D01*
X218579059Y-127860816D01*
X218574492Y-127834139D01*
X218569542Y-127803584D01*
X218563748Y-127766817D01*
X218561389Y-127751698D01*
X218549715Y-127674293D01*
X218540013Y-127604306D01*
X218532084Y-127539300D01*
X218525730Y-127476838D01*
X218520747Y-127414484D01*
X218516940Y-127349802D01*
X218514108Y-127280354D01*
X218512049Y-127203703D01*
X218510567Y-127117413D01*
X218509855Y-127049170D01*
X218509847Y-127035412D01*
X218578040Y-127035412D01*
X218578078Y-127101920D01*
X218578479Y-127167101D01*
X218579246Y-127229165D01*
X218580375Y-127286317D01*
X218581868Y-127336768D01*
X218583726Y-127378727D01*
X218585949Y-127410401D01*
X218590760Y-127459923D01*
X218616135Y-127668072D01*
X218649276Y-127868409D01*
X218690563Y-128062409D01*
X218740376Y-128251541D01*
X218799095Y-128437284D01*
X218867097Y-128621105D01*
X218944766Y-128804484D01*
X218956621Y-128830582D01*
X218969309Y-128857880D01*
X218979602Y-128879320D01*
X218986668Y-128893174D01*
X218989674Y-128897711D01*
X218989763Y-128897426D01*
X218988550Y-128889495D01*
X218984691Y-128872540D01*
X218978727Y-128848815D01*
X218971196Y-128820561D01*
X218952134Y-128748292D01*
X218902352Y-128528296D01*
X218864233Y-128306005D01*
X218837702Y-128081761D01*
X218822684Y-127855908D01*
X218819158Y-127632333D01*
X219645484Y-127632333D01*
X219645894Y-127663412D01*
X219646673Y-127697347D01*
X219653633Y-127846530D01*
X219673027Y-128048426D01*
X219703969Y-128248592D01*
X219746618Y-128448005D01*
X219801132Y-128647637D01*
X219812578Y-128685211D01*
X219823967Y-128721709D01*
X219832504Y-128747786D01*
X219838419Y-128764109D01*
X219841943Y-128771349D01*
X219843307Y-128770175D01*
X219843349Y-128769621D01*
X219844080Y-128760082D01*
X219845688Y-128739149D01*
X219848134Y-128707336D01*
X219851378Y-128665159D01*
X219855379Y-128613135D01*
X219860100Y-128551776D01*
X219865499Y-128481600D01*
X219871539Y-128403119D01*
X219878177Y-128316853D01*
X219885376Y-128223314D01*
X219893095Y-128123017D01*
X219901296Y-128016479D01*
X219909935Y-127904213D01*
X219918979Y-127786739D01*
X219928383Y-127664568D01*
X219938109Y-127538216D01*
X219948117Y-127408199D01*
X219958368Y-127275031D01*
X219960680Y-127245020D01*
X219970920Y-127112033D01*
X219980933Y-126982089D01*
X219990673Y-126855719D01*
X220000104Y-126733453D01*
X220009181Y-126615824D01*
X220017865Y-126503353D01*
X220026113Y-126396575D01*
X220033888Y-126296019D01*
X220041145Y-126202214D01*
X220047846Y-126115687D01*
X220053947Y-126036973D01*
X220059409Y-125966599D01*
X220064192Y-125905091D01*
X220068252Y-125852985D01*
X220071551Y-125810806D01*
X220074045Y-125779086D01*
X220075697Y-125758350D01*
X220076462Y-125749133D01*
X220079877Y-125712889D01*
X220036775Y-125806523D01*
X220012176Y-125861095D01*
X219938197Y-126040163D01*
X219870915Y-126226517D01*
X219811163Y-126417555D01*
X219759773Y-126610677D01*
X219717579Y-126803281D01*
X219715953Y-126811645D01*
X219710667Y-126839299D01*
X219706050Y-126864693D01*
X219701955Y-126889129D01*
X219698241Y-126913906D01*
X219694764Y-126940327D01*
X219691381Y-126969690D01*
X219687948Y-127003299D01*
X219684325Y-127042450D01*
X219680363Y-127088448D01*
X219675925Y-127142593D01*
X219670862Y-127206182D01*
X219665035Y-127280519D01*
X219664209Y-127291130D01*
X219659060Y-127357986D01*
X219654857Y-127414667D01*
X219651528Y-127462804D01*
X219649002Y-127504024D01*
X219647205Y-127539960D01*
X219646068Y-127572237D01*
X219645518Y-127602485D01*
X219645484Y-127632333D01*
X218819158Y-127632333D01*
X218819102Y-127628785D01*
X218826878Y-127400737D01*
X218845939Y-127172106D01*
X218876207Y-126943236D01*
X218917608Y-126714467D01*
X218970065Y-126486145D01*
X218994933Y-126396954D01*
X219033503Y-126258605D01*
X219107844Y-126032196D01*
X219193016Y-125807259D01*
X219288939Y-125584135D01*
X219395540Y-125363168D01*
X219414830Y-125327210D01*
X220286632Y-125327210D01*
X220286670Y-125327217D01*
X220293559Y-125326875D01*
X220312047Y-125325727D01*
X220341710Y-125323801D01*
X220382121Y-125321125D01*
X220432854Y-125317729D01*
X220493485Y-125313645D01*
X220563590Y-125308898D01*
X220642740Y-125303517D01*
X220730513Y-125297534D01*
X220826484Y-125290976D01*
X220930225Y-125283874D01*
X221041315Y-125276255D01*
X221159326Y-125268152D01*
X221283832Y-125259589D01*
X221414410Y-125250598D01*
X221550632Y-125241206D01*
X221692076Y-125231446D01*
X221838315Y-125221344D01*
X221930766Y-125214951D01*
X221988926Y-125210931D01*
X222143478Y-125200234D01*
X222301554Y-125189284D01*
X222462721Y-125178109D01*
X222473285Y-125177376D01*
X222634296Y-125166203D01*
X222792196Y-125155240D01*
X222946561Y-125144516D01*
X223096964Y-125134060D01*
X223242981Y-125123902D01*
X223384182Y-125114072D01*
X223478273Y-125107518D01*
X223520147Y-125104601D01*
X223650446Y-125095518D01*
X223774653Y-125086852D01*
X223836804Y-125082513D01*
X223892345Y-125078634D01*
X224003093Y-125070892D01*
X224106473Y-125063658D01*
X224202060Y-125056960D01*
X224289426Y-125050829D01*
X224368145Y-125045294D01*
X224437788Y-125040385D01*
X224497938Y-125036133D01*
X224548163Y-125032565D01*
X224588040Y-125029712D01*
X224617141Y-125027607D01*
X224635040Y-125026275D01*
X224641314Y-125025749D01*
X224641302Y-125025358D01*
X224638021Y-125017459D01*
X224630026Y-125000347D01*
X224617940Y-124975260D01*
X224602382Y-124943440D01*
X224583977Y-124906123D01*
X224563348Y-124864553D01*
X224541116Y-124819963D01*
X224517903Y-124773594D01*
X224494333Y-124726689D01*
X224471027Y-124680481D01*
X224448607Y-124636214D01*
X224427699Y-124595125D01*
X224408920Y-124558454D01*
X224392899Y-124527440D01*
X224380250Y-124503319D01*
X224371601Y-124487335D01*
X224367573Y-124480724D01*
X224364669Y-124480611D01*
X224350633Y-124481138D01*
X224325482Y-124482467D01*
X224289784Y-124484561D01*
X224244103Y-124487378D01*
X224189002Y-124490879D01*
X224125050Y-124495026D01*
X224052808Y-124499777D01*
X223972840Y-124505095D01*
X223885713Y-124510937D01*
X223791991Y-124517267D01*
X223692241Y-124524041D01*
X223587023Y-124531224D01*
X223476906Y-124538774D01*
X223362453Y-124546650D01*
X223244228Y-124554813D01*
X223122799Y-124563227D01*
X222998725Y-124571846D01*
X222872576Y-124580637D01*
X222744914Y-124589555D01*
X222616305Y-124598562D01*
X222487314Y-124607620D01*
X222358505Y-124616687D01*
X222230444Y-124625725D01*
X222103694Y-124634693D01*
X221978817Y-124643552D01*
X221856385Y-124652263D01*
X221736958Y-124660785D01*
X221621101Y-124669080D01*
X221509380Y-124677107D01*
X221402359Y-124684826D01*
X221300603Y-124692199D01*
X221204675Y-124699184D01*
X221115143Y-124705743D01*
X221032571Y-124711836D01*
X220957521Y-124717424D01*
X220890561Y-124722467D01*
X220832254Y-124726923D01*
X220783166Y-124730756D01*
X220743858Y-124733923D01*
X220714899Y-124736387D01*
X220696852Y-124738107D01*
X220690283Y-124739044D01*
X220685132Y-124744429D01*
X220672960Y-124759191D01*
X220655671Y-124781314D01*
X220634324Y-124809371D01*
X220609972Y-124841926D01*
X220583672Y-124877553D01*
X220556480Y-124914815D01*
X220529449Y-124952283D01*
X220503637Y-124988524D01*
X220480096Y-125022109D01*
X220459883Y-125051604D01*
X220459186Y-125052640D01*
X220437809Y-125084682D01*
X220414944Y-125119531D01*
X220391495Y-125155749D01*
X220368357Y-125191907D01*
X220346435Y-125226567D01*
X220326633Y-125258295D01*
X220309850Y-125285658D01*
X220296988Y-125307221D01*
X220288947Y-125321550D01*
X220286632Y-125327210D01*
X219414830Y-125327210D01*
X219512741Y-125144700D01*
X219640466Y-124929073D01*
X219778641Y-124716630D01*
X219823807Y-124653109D01*
X220762772Y-124653109D01*
X220764479Y-124656269D01*
X220769519Y-124657557D01*
X220769612Y-124657564D01*
X220777490Y-124657252D01*
X220796924Y-124656134D01*
X220827435Y-124654241D01*
X220868556Y-124651606D01*
X220919814Y-124648260D01*
X220980735Y-124644235D01*
X221050849Y-124639566D01*
X221129682Y-124634280D01*
X221216765Y-124628413D01*
X221311623Y-124621994D01*
X221413784Y-124615058D01*
X221522777Y-124607635D01*
X221638129Y-124599757D01*
X221759369Y-124591458D01*
X221886023Y-124582768D01*
X222017621Y-124573718D01*
X222153689Y-124564343D01*
X222293756Y-124554673D01*
X222437349Y-124544740D01*
X222583997Y-124534577D01*
X222600730Y-124533418D01*
X222784395Y-124520703D01*
X222959202Y-124508642D01*
X223124956Y-124497250D01*
X223281476Y-124486538D01*
X223428570Y-124476520D01*
X223566052Y-124467205D01*
X223693732Y-124458609D01*
X223811427Y-124450742D01*
X223918946Y-124443618D01*
X224016103Y-124437248D01*
X224102710Y-124431645D01*
X224178579Y-124426821D01*
X224243522Y-124422791D01*
X224297352Y-124419563D01*
X224339883Y-124417151D01*
X224364669Y-124415889D01*
X224370925Y-124415569D01*
X224390290Y-124414827D01*
X224397793Y-124414940D01*
X224398109Y-124415066D01*
X224402437Y-124418591D01*
X224408641Y-124426525D01*
X224417102Y-124439582D01*
X224428213Y-124458473D01*
X224442363Y-124483914D01*
X224459940Y-124516613D01*
X224481334Y-124557284D01*
X224506933Y-124606638D01*
X224537128Y-124665390D01*
X224572308Y-124734251D01*
X224732448Y-125048380D01*
X224717552Y-125241693D01*
X224715447Y-125269180D01*
X224712073Y-125314009D01*
X224709137Y-125353992D01*
X224706741Y-125387689D01*
X224704986Y-125413657D01*
X224703973Y-125430461D01*
X224703806Y-125436659D01*
X224704381Y-125436663D01*
X224707073Y-125435846D01*
X224712430Y-125433844D01*
X224720981Y-125430435D01*
X224733249Y-125425391D01*
X224749765Y-125418490D01*
X224771052Y-125409503D01*
X224797639Y-125398208D01*
X224830053Y-125384378D01*
X224868820Y-125367788D01*
X224914464Y-125348213D01*
X224967517Y-125325429D01*
X225028503Y-125299207D01*
X225097947Y-125269328D01*
X225176379Y-125235561D01*
X225264323Y-125197683D01*
X225362309Y-125155470D01*
X225470859Y-125108693D01*
X225510071Y-125091798D01*
X225584421Y-125059760D01*
X225659487Y-125027418D01*
X225733795Y-124995405D01*
X225805867Y-124964358D01*
X225874224Y-124934915D01*
X225937394Y-124907710D01*
X225993896Y-124883379D01*
X226042257Y-124862557D01*
X226080997Y-124845880D01*
X226100774Y-124837371D01*
X226153836Y-124814537D01*
X226208200Y-124791143D01*
X226261386Y-124768254D01*
X226310919Y-124746940D01*
X226354312Y-124728266D01*
X226389088Y-124713302D01*
X226398319Y-124709322D01*
X226432194Y-124694586D01*
X226461829Y-124681495D01*
X226485504Y-124670818D01*
X226501502Y-124663330D01*
X226508105Y-124659804D01*
X226508038Y-124659726D01*
X226501099Y-124657101D01*
X226483112Y-124650946D01*
X226454478Y-124641390D01*
X226415603Y-124628564D01*
X226366889Y-124612598D01*
X226308741Y-124593622D01*
X226241558Y-124571766D01*
X226165748Y-124547161D01*
X226081711Y-124519936D01*
X225989851Y-124490224D01*
X225890572Y-124458151D01*
X225784279Y-124423852D01*
X225671372Y-124387454D01*
X225552256Y-124349087D01*
X225427335Y-124308882D01*
X225297009Y-124266970D01*
X225161685Y-124223480D01*
X225021766Y-124178545D01*
X224877652Y-124132290D01*
X224729749Y-124084849D01*
X224578461Y-124036352D01*
X224424190Y-123986929D01*
X222336041Y-123318160D01*
X222245203Y-123373244D01*
X222103789Y-123461791D01*
X221912183Y-123590648D01*
X221725504Y-123726419D01*
X221547247Y-123866630D01*
X221538380Y-123873912D01*
X221388981Y-124001715D01*
X221239834Y-124138727D01*
X221093468Y-124282465D01*
X220952414Y-124430451D01*
X220819202Y-124580205D01*
X220806072Y-124595552D01*
X220786047Y-124619293D01*
X220772716Y-124635929D01*
X220765238Y-124646765D01*
X220762772Y-124653109D01*
X219823807Y-124653109D01*
X219927189Y-124507713D01*
X219963359Y-124459485D01*
X220079877Y-124312453D01*
X220133661Y-124244584D01*
X220314176Y-124035977D01*
X220504706Y-123833858D01*
X220705052Y-123638422D01*
X220915013Y-123449868D01*
X221134396Y-123268387D01*
X221362998Y-123094178D01*
X221424966Y-123049707D01*
X221513574Y-122988449D01*
X221608846Y-122924853D01*
X221708348Y-122860467D01*
X221809648Y-122796837D01*
X221897530Y-122743297D01*
X223678236Y-122743297D01*
X223683146Y-122745211D01*
X223699196Y-122750702D01*
X223726056Y-122759650D01*
X223763364Y-122771937D01*
X223810765Y-122787446D01*
X223867900Y-122806066D01*
X223934412Y-122827679D01*
X224009942Y-122852170D01*
X224094132Y-122879424D01*
X224186625Y-122909324D01*
X224287063Y-122941756D01*
X224395088Y-122976606D01*
X224510337Y-123013756D01*
X224632461Y-123053093D01*
X224761099Y-123094500D01*
X224895891Y-123137862D01*
X225036480Y-123183063D01*
X225182510Y-123229989D01*
X225333619Y-123278523D01*
X225489453Y-123328552D01*
X225649651Y-123379959D01*
X225813857Y-123432628D01*
X225981715Y-123486444D01*
X226152860Y-123541294D01*
X226326942Y-123597059D01*
X226492628Y-123650122D01*
X226612605Y-123688540D01*
X226663985Y-123704992D01*
X226832088Y-123758816D01*
X226996579Y-123811477D01*
X227157101Y-123862860D01*
X227313293Y-123912850D01*
X227464798Y-123961333D01*
X227611254Y-124008195D01*
X227752304Y-124053320D01*
X227887590Y-124096593D01*
X228016753Y-124137900D01*
X228139433Y-124177127D01*
X228255272Y-124214161D01*
X228363910Y-124248883D01*
X228464991Y-124281179D01*
X228558154Y-124310936D01*
X228643041Y-124338038D01*
X228719291Y-124362373D01*
X228786548Y-124383824D01*
X228844452Y-124402276D01*
X228892644Y-124417617D01*
X228930767Y-124429729D01*
X228958458Y-124438497D01*
X228975363Y-124443810D01*
X228981121Y-124445550D01*
X228979450Y-124440942D01*
X228971205Y-124426412D01*
X228956239Y-124402147D01*
X228934626Y-124368267D01*
X228906438Y-124324883D01*
X228871751Y-124272114D01*
X228818950Y-124194019D01*
X228757484Y-124108333D01*
X228694097Y-124025907D01*
X228625510Y-123942351D01*
X228563841Y-123869328D01*
X226549173Y-123223999D01*
X226440488Y-123189186D01*
X226290669Y-123141200D01*
X226143992Y-123094222D01*
X226000876Y-123048386D01*
X225861739Y-123003829D01*
X225726998Y-122960682D01*
X225597072Y-122919078D01*
X225472381Y-122879152D01*
X225353338Y-122841039D01*
X225240367Y-122804873D01*
X225133882Y-122770784D01*
X225034303Y-122738909D01*
X224942049Y-122709383D01*
X224857536Y-122682338D01*
X224781186Y-122657908D01*
X224713411Y-122636227D01*
X224654636Y-122617429D01*
X224605275Y-122601647D01*
X224565748Y-122589017D01*
X224536470Y-122579670D01*
X224517862Y-122573741D01*
X224510343Y-122571367D01*
X224509465Y-122571106D01*
X224500233Y-122569034D01*
X224489293Y-122568139D01*
X224474949Y-122568589D01*
X224455504Y-122570549D01*
X224429263Y-122574189D01*
X224394533Y-122579672D01*
X224349611Y-122587168D01*
X224269012Y-122601335D01*
X224092394Y-122636248D01*
X223924372Y-122674928D01*
X223886001Y-122684579D01*
X223842564Y-122695806D01*
X223800968Y-122706849D01*
X223762860Y-122717252D01*
X223729887Y-122726554D01*
X223703693Y-122734301D01*
X223685927Y-122740035D01*
X223678236Y-122743297D01*
X221897530Y-122743297D01*
X221910313Y-122735509D01*
X222007907Y-122678028D01*
X222099997Y-122625943D01*
X222166584Y-122589803D01*
X222241914Y-122550114D01*
X222251741Y-122545071D01*
X224655657Y-122545071D01*
X224655684Y-122545103D01*
X224662169Y-122547428D01*
X224679702Y-122553286D01*
X224707858Y-122562537D01*
X224746213Y-122575049D01*
X224794344Y-122590681D01*
X224851826Y-122609299D01*
X224918236Y-122630766D01*
X224993151Y-122654945D01*
X225076146Y-122681702D01*
X225166798Y-122710900D01*
X225264683Y-122742400D01*
X225369377Y-122776067D01*
X225480457Y-122811766D01*
X225597499Y-122849360D01*
X225720077Y-122888711D01*
X225847770Y-122929685D01*
X225980153Y-122972144D01*
X226116803Y-123015951D01*
X226257297Y-123060971D01*
X226401208Y-123107068D01*
X226548116Y-123154106D01*
X226558384Y-123157392D01*
X226705282Y-123204419D01*
X226849242Y-123250508D01*
X226989841Y-123295522D01*
X227126642Y-123339325D01*
X227259222Y-123381778D01*
X227387151Y-123422746D01*
X227510001Y-123462091D01*
X227627344Y-123499673D01*
X227738751Y-123535358D01*
X227843791Y-123569008D01*
X227942039Y-123600485D01*
X228033066Y-123629653D01*
X228116441Y-123656371D01*
X228191739Y-123680506D01*
X228258528Y-123701920D01*
X228316380Y-123720476D01*
X228364870Y-123736033D01*
X228403566Y-123748455D01*
X228432042Y-123757610D01*
X228449867Y-123763355D01*
X228456613Y-123765554D01*
X228465390Y-123768172D01*
X228470204Y-123768223D01*
X228470127Y-123768054D01*
X228464926Y-123762357D01*
X228452515Y-123749769D01*
X228434212Y-123731600D01*
X228411336Y-123709164D01*
X228385206Y-123683768D01*
X228330380Y-123631722D01*
X228292751Y-123598546D01*
X229430721Y-123598546D01*
X229433741Y-123601566D01*
X229436763Y-123598546D01*
X229433741Y-123595526D01*
X229430721Y-123598546D01*
X228292751Y-123598546D01*
X228172515Y-123492538D01*
X228006753Y-123361680D01*
X227832368Y-123238596D01*
X227648632Y-123122734D01*
X227622511Y-123107491D01*
X227569771Y-123078073D01*
X227509810Y-123045985D01*
X227445123Y-123012476D01*
X227378208Y-122978795D01*
X227311557Y-122946191D01*
X227247671Y-122915911D01*
X227189044Y-122889208D01*
X227138172Y-122867328D01*
X227114448Y-122857609D01*
X226915254Y-122781842D01*
X226713656Y-122715633D01*
X226508548Y-122658728D01*
X226298827Y-122610870D01*
X226083389Y-122571807D01*
X225861130Y-122541280D01*
X225630944Y-122519035D01*
X225587171Y-122516369D01*
X225533329Y-122514266D01*
X225471426Y-122512720D01*
X225403461Y-122511721D01*
X225331439Y-122511259D01*
X225257361Y-122511327D01*
X225183229Y-122511917D01*
X225111047Y-122513018D01*
X225042817Y-122514620D01*
X224980542Y-122516717D01*
X224926223Y-122519299D01*
X224881864Y-122522357D01*
X224846275Y-122525399D01*
X224791410Y-122530167D01*
X224747222Y-122534135D01*
X224712829Y-122537392D01*
X224687356Y-122540026D01*
X224669922Y-122542126D01*
X224659648Y-122543779D01*
X224655657Y-122545071D01*
X222251741Y-122545071D01*
X222320169Y-122509954D01*
X222336041Y-122502008D01*
X222398688Y-122470651D01*
X222474809Y-122433540D01*
X222545872Y-122399950D01*
X222609217Y-122371210D01*
X222624143Y-122364610D01*
X222649495Y-122353363D01*
X222670869Y-122343840D01*
X222678400Y-122340473D01*
X222699278Y-122331151D01*
X222716177Y-122323619D01*
X222717438Y-122323061D01*
X222731264Y-122317133D01*
X222753092Y-122307932D01*
X222780189Y-122296607D01*
X222809810Y-122284309D01*
X223050531Y-122189776D01*
X223319448Y-122095834D01*
X223590616Y-122013183D01*
X223863337Y-121942016D01*
X224136922Y-121882529D01*
X224410666Y-121834919D01*
X224489293Y-121823970D01*
X224577782Y-121811647D01*
X224842616Y-121783568D01*
X225105770Y-121766429D01*
X225331439Y-121761015D01*
X225366886Y-121760166D01*
X225625606Y-121764716D01*
X225881567Y-121780016D01*
X226134411Y-121806000D01*
X226383780Y-121842605D01*
X226629312Y-121889769D01*
X226870649Y-121947427D01*
X227107431Y-122015514D01*
X227339298Y-122093967D01*
X227565895Y-122182721D01*
X227786857Y-122281715D01*
X228001825Y-122390883D01*
X228210444Y-122510160D01*
X228300556Y-122565979D01*
X228463491Y-122674107D01*
X228617976Y-122786736D01*
X228766300Y-122905660D01*
X228910757Y-123032671D01*
X229053636Y-123169562D01*
X229055951Y-123171870D01*
X229121359Y-123239290D01*
X229174090Y-123293640D01*
X229278199Y-123408823D01*
X229280788Y-123411688D01*
X229376083Y-123526054D01*
X229387065Y-123539795D01*
X229403028Y-123559580D01*
X229415565Y-123574891D01*
X229422642Y-123583227D01*
X229426668Y-123587422D01*
X229429250Y-123589097D01*
X229428426Y-123585612D01*
X229423665Y-123575903D01*
X229414440Y-123558917D01*
X229400218Y-123533593D01*
X229380475Y-123498869D01*
X229317106Y-123391164D01*
X229203760Y-123214352D01*
X229083324Y-123045894D01*
X228954594Y-122884234D01*
X228816373Y-122727817D01*
X228667459Y-122575092D01*
X228610723Y-122520263D01*
X228538042Y-122452514D01*
X228466967Y-122389475D01*
X228394439Y-122328531D01*
X228317408Y-122267058D01*
X228232813Y-122202438D01*
X228153101Y-122143982D01*
X227959184Y-122012395D01*
X227758163Y-121890485D01*
X227550235Y-121778330D01*
X227335599Y-121676009D01*
X227114450Y-121583602D01*
X226886985Y-121501187D01*
X226653400Y-121428843D01*
X226413890Y-121366650D01*
X226168656Y-121314683D01*
X225917891Y-121273027D01*
X225861778Y-121265198D01*
X225706843Y-121246313D01*
X225553984Y-121231925D01*
X225400489Y-121221881D01*
X225243643Y-121216026D01*
X225080735Y-121214211D01*
X224909047Y-121216281D01*
X224866829Y-121217383D01*
X224613847Y-121230392D01*
X224357820Y-121254288D01*
X224100046Y-121288824D01*
X223841845Y-121333746D01*
X223584522Y-121388808D01*
X223329395Y-121453758D01*
X223077768Y-121528343D01*
X222830954Y-121612321D01*
X222698645Y-121661850D01*
X222435895Y-121769223D01*
X222178668Y-121886463D01*
X221927301Y-122013295D01*
X221682135Y-122149449D01*
X221443507Y-122294651D01*
X221211759Y-122448628D01*
X220987228Y-122611107D01*
X220770255Y-122781817D01*
X220561179Y-122960484D01*
X220360339Y-123146834D01*
X220168073Y-123340599D01*
X219984722Y-123541503D01*
X219810628Y-123749274D01*
X219646126Y-123963636D01*
X219491556Y-124184323D01*
X219347260Y-124411057D01*
X219253858Y-124570924D01*
X219132723Y-124797699D01*
X219023235Y-125027193D01*
X218925435Y-125259297D01*
X218839356Y-125493902D01*
X218765037Y-125730897D01*
X218702511Y-125970172D01*
X218651818Y-126211620D01*
X218612991Y-126455127D01*
X218586069Y-126700584D01*
X218585419Y-126708830D01*
X218583285Y-126745675D01*
X218581511Y-126791942D01*
X218580100Y-126845843D01*
X218579052Y-126905583D01*
X218578364Y-126969369D01*
X218578040Y-127035412D01*
X218509847Y-127035412D01*
X218509807Y-126962947D01*
X218510967Y-126884214D01*
X218513457Y-126810323D01*
X218517404Y-126738634D01*
X218522932Y-126666494D01*
X218530167Y-126591267D01*
X218539234Y-126510297D01*
X218542427Y-126483940D01*
X218577843Y-126246826D01*
X218625134Y-126010326D01*
X218684119Y-125774843D01*
X218754611Y-125540786D01*
X218836426Y-125308561D01*
X218929382Y-125078570D01*
X219033292Y-124851223D01*
X219147974Y-124626921D01*
X219273243Y-124406072D01*
X219408914Y-124189083D01*
X219554804Y-123976357D01*
X219710729Y-123768300D01*
X219876503Y-123565320D01*
X219978274Y-123448975D01*
X220129610Y-123285978D01*
X220288726Y-123125396D01*
X220453174Y-122969597D01*
X220620507Y-122820952D01*
X220788280Y-122681834D01*
X220905192Y-122590370D01*
X221141423Y-122416975D01*
X221383611Y-122254093D01*
X221631738Y-122101730D01*
X221885784Y-121959898D01*
X222145736Y-121828605D01*
X222411573Y-121707862D01*
X222683279Y-121597678D01*
X222960835Y-121498061D01*
X223035455Y-121473420D01*
X223290232Y-121396216D01*
X223545765Y-121329613D01*
X223803479Y-121273325D01*
X224064803Y-121227058D01*
X224331162Y-121190523D01*
X224603978Y-121163431D01*
X224622890Y-121162030D01*
X224671375Y-121159251D01*
X224729117Y-121156793D01*
X224794189Y-121154678D01*
X224864667Y-121152926D01*
X224938627Y-121151565D01*
X225014144Y-121150607D01*
X225080735Y-121150140D01*
X225089290Y-121150079D01*
X225162143Y-121150002D01*
X225230780Y-121150398D01*
G37*
%TD*%
D10*
%TO.C,J6*%
X216500000Y-117624900D03*
D11*
X215300000Y-118824900D03*
%TD*%
D10*
%TO.C,J1*%
X216500000Y-28724900D03*
D11*
X215300000Y-29924900D03*
%TD*%
D10*
%TO.C,J7*%
X216500000Y-134652500D03*
D11*
X215300000Y-135852500D03*
%TD*%
D10*
%TO.C,J5*%
X216500000Y-99844900D03*
D11*
X215300000Y-101044900D03*
%TD*%
D10*
%TO.C,J2*%
X216500000Y-46504900D03*
D11*
X215300000Y-47704900D03*
%TD*%
D10*
%TO.C,J4*%
X216500000Y-82064900D03*
D11*
X215300000Y-83264900D03*
%TD*%
D10*
%TO.C,J8*%
X216500000Y-153184900D03*
D11*
X215300000Y-154384900D03*
%TD*%
D10*
%TO.C,J9*%
X216500000Y-170964900D03*
D11*
X216500000Y-172164900D03*
X215300000Y-170964900D03*
X215300000Y-172164900D03*
%TD*%
D10*
%TO.C,J3*%
X216500000Y-64284900D03*
D11*
X215300000Y-65484900D03*
%TD*%
D12*
%TO.C,R60*%
X203200000Y-125981500D03*
D13*
X208280000Y-125981500D03*
%TD*%
D14*
%TO.C,J11*%
X224663000Y-182722400D03*
D15*
X221162997Y-182722400D03*
X217662996Y-182722400D03*
X214162995Y-182722400D03*
X210662995Y-182722400D03*
X207162994Y-182722400D03*
X224663000Y-185222400D03*
X221162997Y-185222400D03*
X217662996Y-185222400D03*
X214162995Y-185222400D03*
X210662995Y-185222400D03*
X207162994Y-185222400D03*
X228162998Y-184322412D03*
X203662996Y-184322412D03*
%TD*%
D12*
%TO.C,R80*%
X203200000Y-161541500D03*
D13*
X208280000Y-161541500D03*
%TD*%
D16*
%TO.C,LED70*%
X205740000Y-133982500D03*
D17*
X205740000Y-136522500D03*
%TD*%
D12*
%TO.C,R50*%
X203200000Y-108201500D03*
D13*
X208280000Y-108201500D03*
%TD*%
D12*
%TO.C,R40*%
X203200000Y-90421500D03*
D13*
X208280000Y-90421500D03*
%TD*%
D12*
%TO.C,R30*%
X203200000Y-72641500D03*
D13*
X208280000Y-72641500D03*
%TD*%
D16*
%TO.C,LED10*%
X205740000Y-28054900D03*
D17*
X205740000Y-30594900D03*
%TD*%
D16*
%TO.C,LED40*%
X205740000Y-81394900D03*
D17*
X205740000Y-83934900D03*
%TD*%
D16*
%TO.C,LED20*%
X205740000Y-45834900D03*
D17*
X205740000Y-48374900D03*
%TD*%
D12*
%TO.C,R20*%
X203200000Y-54861500D03*
D13*
X208280000Y-54861500D03*
%TD*%
D16*
%TO.C,LED30*%
X205740000Y-63614900D03*
D17*
X205740000Y-66154900D03*
%TD*%
D12*
%TO.C,R70*%
X203200000Y-143009100D03*
D13*
X208280000Y-143009100D03*
%TD*%
D16*
%TO.C,LED50*%
X205740000Y-99174900D03*
D17*
X205740000Y-101714900D03*
%TD*%
D12*
%TO.C,R10*%
X203200000Y-37081500D03*
D13*
X208280000Y-37081500D03*
%TD*%
D16*
%TO.C,LED60*%
X205740000Y-116954900D03*
D17*
X205740000Y-119494900D03*
%TD*%
D16*
%TO.C,LED80*%
X205740000Y-152514900D03*
D17*
X205740000Y-155054900D03*
%TD*%
M02*
