M48
METRIC,TZ
T1C0.700
T2C0.762
T3C0.800
T4C0.900
T5C1.000
T6C1.473
%
G90
G05
T1
X96320Y-31390
X96320Y-33930
X97590Y-42185
X97775Y-50948
X102670Y-42185
X102855Y-50948
X103940Y-31390
X103940Y-33930
X110519Y-31390
X110519Y-33930
X111789Y-42185
X111973Y-50948
X116869Y-42185
X117053Y-50948
X118139Y-31390
X118139Y-33930
X124717Y-31390
X124717Y-33930
X125987Y-42185
X126172Y-50948
X131067Y-42185
X131252Y-50948
X132337Y-31390
X132337Y-33930
X138916Y-31390
X138916Y-33930
X140186Y-42185
X140370Y-50948
X145266Y-42185
X145450Y-50948
X146536Y-31390
X146536Y-33930
X153114Y-31390
X153114Y-33930
X154384Y-42185
X154569Y-50948
X159464Y-42185
X159649Y-50948
X160734Y-31390
X160734Y-33930
X167313Y-31390
X167313Y-33930
X168583Y-42185
X168767Y-50948
X173663Y-42185
X173847Y-50948
X174933Y-31390
X174933Y-33930
X181511Y-31390
X181511Y-33930
X181595Y-153183
X181595Y-155723
X182781Y-42185
X182966Y-50948
X187861Y-42185
X188046Y-50948
X189131Y-31390
X189131Y-33930
X189215Y-153183
X189215Y-155723
X195692Y-145436
X195692Y-150516
X195710Y-31390
X195710Y-33930
X196980Y-42185
X197164Y-50948
X201661Y-145436
X201661Y-150516
X202060Y-42185
X202244Y-50948
X203330Y-31390
X203330Y-33930
T2
X99490Y-71047
X102030Y-71047
X113689Y-71047
X116229Y-71047
X127887Y-71047
X130427Y-71047
X142086Y-71047
X144626Y-71047
X156284Y-71047
X158824Y-71047
X170483Y-71047
X173023Y-71047
X183482Y-141024
X184681Y-71047
X186022Y-141024
X187221Y-71047
X198880Y-71047
X201420Y-71047
T3
X96320Y-59921
X103940Y-59921
X110519Y-59921
X118139Y-59921
X124717Y-59921
X132337Y-59921
X138916Y-59921
X146536Y-59921
X153114Y-59921
X160734Y-59921
X167313Y-59921
X174933Y-59921
X181511Y-59921
X189131Y-59921
X195710Y-59921
X203330Y-59921
T4
X108189Y-135276
X108189Y-137816
X108189Y-140356
X108189Y-142896
X108189Y-145436
X108189Y-147976
X108189Y-150516
X108189Y-153056
X108189Y-155596
X108189Y-158136
X108189Y-160676
X108189Y-163216
X108189Y-165756
X108189Y-168296
X108189Y-170836
X108189Y-173376
X108189Y-175916
X123429Y-135276
X123429Y-137816
X123429Y-140356
X123429Y-142896
X123429Y-145436
X123429Y-147976
X123429Y-150516
X123429Y-153056
X123429Y-155596
X123429Y-158136
X123429Y-160676
X123429Y-163216
X123429Y-165756
X123429Y-168296
X123429Y-170836
X123429Y-173376
X123429Y-175916
T5
X97723Y-82458
X97723Y-84998
X97723Y-92618
X102803Y-82458
X102803Y-84998
X102803Y-92618
X111921Y-82458
X111921Y-84998
X111921Y-92618
X117001Y-82458
X117001Y-84998
X117001Y-92618
X126120Y-82458
X126120Y-84998
X126120Y-92618
X131200Y-82458
X131200Y-84998
X131200Y-92618
X140318Y-82458
X140318Y-84998
X140318Y-92618
X145398Y-82458
X145398Y-84998
X145398Y-92618
X154517Y-82458
X154517Y-84998
X154517Y-92618
X159597Y-82458
X159597Y-84998
X159597Y-92618
X168715Y-82458
X168715Y-84998
X168715Y-92618
X173795Y-82458
X173795Y-84998
X173795Y-92618
X182914Y-82458
X182914Y-84998
X182914Y-92618
X187994Y-82458
X187994Y-84998
X187994Y-92618
X197112Y-82458
X197112Y-84998
X197112Y-92618
X202192Y-82458
X202192Y-84998
X202192Y-92618
T6
X137115Y-167523
X140615Y-165923
X140615Y-168423
X144115Y-165923
X144115Y-168423
X147615Y-165923
X147615Y-168423
X151115Y-165923
X151115Y-168423
X154615Y-165923
X154615Y-168423
X158115Y-165923
X158115Y-168423
X161615Y-167523
X181260Y-170079
X184760Y-168379
X188260Y-168379
X191760Y-170079
M30
